<?xml version="1.0" encoding="utf-8"?>
<!-- Generator: Adobe Illustrator 25.1.0, SVG Export Plug-In . SVG Version: 6.00 Build 0)  -->
<svg version="1.1" id="Layer_1" xmlns="http://www.w3.org/2000/svg" xmlns:xlink="http://www.w3.org/1999/xlink" x="0px" y="0px"
	 viewBox="0 0 171 192.5" style="enable-background:new 0 0 171 192.5;" xml:space="preserve">
<style type="text/css">
	.st0{fill:#4ADC00;}
	.st1{fill:#5AAFFF;}
	.st2{fill:#0F97A3;}
	.st3{fill:#F7F8FA;}
	.st4{fill:#FDF500;}
	.st5{fill:#FFA100;}
	.st6{fill:#FFFEFF;}
	.st7{fill:#7579C0;}
	.st8{fill:#EDF0F9;}
	.st9{fill:#AEB9CA;}
	.st10{fill:#4B4E85;}
	.st11{fill:#121633;}
	.st12{fill:#FFFFFF;}
	.st13{fill:none;stroke:#5165FF;stroke-width:5.0404;stroke-miterlimit:10;}
	.st14{fill:none;stroke:#5165FF;stroke-width:4.3562;stroke-miterlimit:10;}
	.st15{fill:#5165FF;}
	.st16{fill:#00B4FE;}
	.st17{fill:#D0E8FE;}
	.st18{fill:#D8D2FE;}
	.st19{fill:#00EAFE;}
	.st20{fill:#36475D;}
	.st21{fill:#00FEFC;}
	.st22{fill:#186BFE;}
	.st23{fill:#00B594;}
	.st24{fill:#00E9BE;}
</style>
<g>
	<g>
		<path class="st0" d="M158.72,124.13l-1.38,1.39c0.13,0.7,0.2,1.39,0.2,2.06c0,4.11-2.5,6-5.58,4.22c-0.17-0.1-0.34-0.21-0.51-0.33
			l-0.13,0.13l-0.17-0.36c-2.7-2.08-4.77-6.36-4.77-10.11c0-0.07,0.01-0.14,0.01-0.21c0.04-1.88,0.62-3.27,1.53-4.02
			c1.02-0.83,2.45-0.9,4.03,0.02c1.24,0.71,2.37,1.91,3.3,3.35l1.2-1.21c-1.25-1.99-2.81-3.64-4.5-4.62
			c-2.04-1.18-3.89-1.15-5.24-0.15c-0.89,0.66-1.56,1.76-1.91,3.21c-0.19,0.76-0.29,1.61-0.29,2.56c0,5.47,3.33,11.83,7.43,14.21
			s7.43-0.15,7.43-5.62C159.39,127.18,159.15,125.64,158.72,124.13z"/>
		<polygon class="st0" points="152.08,125.22 149.28,119.15 148.13,120.31 150.93,126.39 152.08,128.88 153.23,127.71 
			157.54,123.36 156.39,120.86 		"/>
	</g>
	<g>
		<g>
			<g>
				<g>
					<polygon class="st1" points="91.43,65.09 94.84,67.05 94.84,65.15 91.43,63.19 					"/>
					<polygon class="st1" points="112.01,76.97 115.42,78.93 115.42,77.03 112.01,75.07 					"/>
					<polygon class="st1" points="105.15,73.01 108.56,74.97 108.56,73.07 105.15,71.11 					"/>
					<polygon class="st1" points="98.29,69.05 101.7,71.01 101.7,69.11 98.29,67.15 					"/>
					<polygon class="st1" points="118.87,80.93 122.27,82.89 122.27,80.99 118.87,79.03 					"/>
					<polygon class="st1" points="125.73,84.89 129.13,86.85 129.13,84.96 125.73,82.99 					"/>
					<polygon class="st1" points="91.43,101.7 94.84,103.66 94.84,101.76 91.43,99.8 					"/>
					<polygon class="st1" points="112.01,113.58 115.42,115.54 115.42,113.65 112.01,111.68 					"/>
					<polygon class="st1" points="105.15,109.62 108.56,111.58 108.56,109.69 105.15,107.72 					"/>
					<polygon class="st1" points="98.29,105.66 101.7,107.62 101.7,105.72 98.29,103.76 					"/>
					<polygon class="st1" points="118.87,117.54 122.27,119.51 122.27,117.61 118.87,115.64 					"/>
					<polygon class="st1" points="125.73,121.5 129.13,123.47 129.13,121.57 125.73,119.6 					"/>
				</g>
				<path class="st1" d="M113.71,82.09c-5.48-3.16-9.91,0.19-9.91,7.5c0,7.3,4.44,15.78,9.91,18.94c5.48,3.16,9.91-0.19,9.91-7.5
					C123.63,93.73,119.19,85.25,113.71,82.09z M113.71,106.54c-4.65-2.69-8.42-9.89-8.42-16.1c0-6.2,3.77-9.06,8.42-6.37
					c4.65,2.69,8.43,9.89,8.43,16.1C122.14,106.38,118.37,109.23,113.71,106.54z"/>
				<path class="st1" d="M119.29,101.11c-0.05-0.41-0.15-0.82-0.28-1.22c-0.11-0.34-0.25-0.66-0.41-0.98
					c-0.16-0.31-0.34-0.61-0.54-0.89c0.27-0.3,0.46-0.74,0.54-1.29l0-1.3c-0.22-1.75-1.24-3.59-2.49-4.44l-0.41-0.24l-0.53-0.31
					l0-2.04l-1.92-1.11l0,2.04l-1.09-0.63l0-2.04l-0.52-0.3l-1.4-0.81l0,2.04l-0.79-0.46l-1.34-0.78l0,1.89l1.34,0.78l0,3.14l0,2.18
					l0,3.14l-1.34-0.78l0,2.03l1.34,0.78l0.79,0.46l0,1.03l1.4,0.81l0.52,0.3l0-1.03l1.09,0.63l0,1.03l1.92,1.11l0-1.03l1.09,0.63
					l0.05,0.03l0.64,0.37l0.13,0.08c0.6,0.23,1.13,0.15,1.53-0.17c0.2-0.17,0.37-0.4,0.5-0.69c0.09-0.21,0.15-0.45,0.19-0.71
					c0.03-0.19,0.04-0.39,0.04-0.6C119.33,101.55,119.32,101.33,119.29,101.11z M112.16,90.61l1.09,0.63l0.25,0.14l1.45,0.84
					l0.22,0.13l0.06,0.03c0.53,0.39,0.96,1.19,1.04,1.94l0,0.46c-0.08,0.65-0.49,0.95-1,0.75l-0.09-0.05l-0.25-0.15l-1.55-0.9
					l-0.11-0.06l-1.09-0.63L112.16,90.61z M116.94,100.58c-0.09,0.59-0.48,0.88-0.98,0.7l-0.38-0.22l-0.42-0.24l-0.87-0.51
					l-1.04-0.6l-1.09-0.63l0-3.14l1.09,0.63l1.13,0.65l0.79,0.45l0.13,0.07l0.37,0.22l0.23,0.13c0.09,0.06,0.18,0.14,0.26,0.23
					c0.4,0.41,0.71,1.05,0.79,1.66L116.94,100.58z"/>
			</g>
		</g>
		<path class="st1" d="M136.98,84.6L90.45,57.74c-0.72-0.42-1.38-0.43-1.88-0.13l0,0l-7.29,4.22l6.33,9.48v29.26
			c0,2.09,1.28,4.54,2.85,5.44l33.06,19.09l8.09,12.11l7.24-4.19l0,0c0.61-0.35,1-1.15,1-2.3v-15.15V105.2V90.05
			C139.83,87.96,138.55,85.51,136.98,84.6z"/>
		<path class="st2" d="M121.68,109.76v-2.77c0-2.09,1.28-3.06,2.85-2.15l7.97,4.6V94.28c0-2.09-1.28-4.54-2.85-5.44L83.13,61.98
			c-1.57-0.9-2.85,0.06-2.85,2.15v40.67c0,2.09,1.28,4.54,2.85,5.44l46.53,26.86c1.57,0.9,2.85-0.06,2.85-2.15V119.8l-7.97-4.6
			C122.96,114.3,121.68,111.85,121.68,109.76z"/>
		<path d="M124.53,104.83c-1.57-0.9-2.85,0.06-2.85,2.15v2.77c0,2.09,1.28,4.54,2.85,5.44l7.97,4.6v-10.37L124.53,104.83z"/>
		<path class="st3" d="M127.09,114.64L127.09,114.64c-1.3-0.75-2.36-2.78-2.36-4.51v0c0-1.73,1.06-2.53,2.36-1.78l0,0
			c1.3,0.75,2.36,2.78,2.36,4.51v0C129.45,114.59,128.39,115.39,127.09,114.64z"/>
		<g>
			<polygon class="st3" points="84.11,69.33 87.52,71.29 87.52,69.39 84.11,67.43 			"/>
			<polygon class="st3" points="125.27,91.19 125.27,93.09 128.67,95.05 128.67,93.15 			"/>
			<polygon class="st3" points="104.69,81.21 108.09,83.17 108.09,81.27 104.69,79.31 			"/>
			<polygon class="st3" points="97.83,77.25 101.23,79.21 101.23,77.31 97.83,75.35 			"/>
			<polygon class="st3" points="90.97,73.29 94.37,75.25 94.37,73.35 90.97,71.39 			"/>
			<polygon class="st3" points="111.55,85.17 114.95,87.13 114.95,85.23 111.55,83.27 			"/>
			<polygon class="st3" points="118.41,89.13 121.81,91.09 121.81,89.19 118.41,87.23 			"/>
			<polygon class="st3" points="84.11,105.94 87.52,107.9 87.52,106 84.11,104.04 			"/>
			<polygon class="st3" points="125.27,129.7 128.67,131.66 128.67,129.76 125.27,127.8 			"/>
			<polygon class="st3" points="104.69,117.82 108.09,119.78 108.09,117.88 104.69,115.92 			"/>
			<polygon class="st3" points="97.83,113.86 101.23,115.82 101.23,113.92 97.83,111.96 			"/>
			<polygon class="st3" points="90.97,109.9 94.37,111.86 94.37,109.96 90.97,108 			"/>
			<polygon class="st3" points="111.55,121.78 114.95,123.74 114.95,121.84 111.55,119.88 			"/>
			<polygon class="st3" points="118.41,125.74 121.81,127.7 121.81,125.8 118.41,123.84 			"/>
		</g>
		<path class="st4" d="M106.39,86.33c-5.48-3.16-9.91,0.19-9.91,7.5c0,7.3,4.44,15.78,9.91,18.94c5.48,3.16,9.91-0.19,9.91-7.5
			C116.31,97.97,111.87,89.49,106.39,86.33z M106.39,110.78c-4.65-2.69-8.42-9.89-8.42-16.1c0-6.2,3.77-9.06,8.42-6.37
			c4.65,2.69,8.43,9.89,8.43,16.1C114.82,110.61,111.05,113.46,106.39,110.78z"/>
		<path class="st4" d="M111.97,105.35c-0.05-0.41-0.15-0.82-0.28-1.22c-0.11-0.34-0.25-0.66-0.41-0.98
			c-0.16-0.31-0.34-0.61-0.54-0.89c0.27-0.3,0.46-0.74,0.54-1.29l0-1.3c-0.22-1.75-1.24-3.59-2.49-4.44l-0.41-0.24l-0.53-0.31
			l0-2.04l-1.92-1.11l0,2.04l-1.09-0.63l0-2.04l-0.52-0.3l-1.4-0.81l0,2.04l-0.79-0.46l-1.34-0.78l0,1.89l1.34,0.78l0,3.14l0,2.18
			l0,3.14l-1.34-0.78l0,2.03l1.34,0.78l0.79,0.46l0,1.03l1.4,0.81l0.52,0.3l0-1.03l1.09,0.63l0,1.03l1.92,1.11l0-1.03l1.09,0.63
			l0.05,0.03l0.64,0.37l0.13,0.08c0.6,0.23,1.13,0.15,1.53-0.17c0.2-0.17,0.37-0.4,0.5-0.69c0.09-0.21,0.15-0.45,0.19-0.71
			c0.03-0.19,0.04-0.39,0.04-0.6C112.01,105.79,112,105.57,111.97,105.35z M104.83,94.85l1.09,0.63l0.25,0.14l1.45,0.84l0.22,0.13
			l0.06,0.03c0.53,0.39,0.96,1.19,1.04,1.94l0,0.46c-0.08,0.65-0.49,0.95-1,0.75l-0.09-0.05l-0.25-0.15l-1.55-0.9l-0.11-0.06
			l-1.09-0.63L104.83,94.85z M109.62,104.82c-0.09,0.59-0.48,0.88-0.98,0.7l-0.38-0.22l-0.42-0.24l-0.87-0.51l-1.04-0.6l-1.09-0.63
			l0-3.14l1.09,0.63l1.13,0.65l0.79,0.45l0.13,0.07l0.37,0.22l0.23,0.13c0.09,0.06,0.18,0.14,0.26,0.23
			c0.4,0.41,0.71,1.05,0.79,1.66L109.62,104.82z"/>
		<g>
			<path class="st5" d="M113.41,46.74c3.97,2.29,7.19,8.45,7.19,13.74c0,2.22-0.57,3.93-1.52,5.01c0.08,0.04,0.15,0.07,0.23,0.11
				l1.32-0.76l0,0c1.5-0.89,2.44-2.92,2.44-5.79c0-5.3-3.22-11.45-7.19-13.74c-1.87-1.08-3.58-1.11-4.86-0.28l0,0l-2.31,1.33l0,0
				C109.98,45.63,111.62,45.7,113.41,46.74z"/>
			<path class="st4" d="M114.87,65.53c0.59-0.38,1.26-0.58,2-0.58c-0.31-0.12-0.62-0.27-0.93-0.45c-0.76,0.07-1.62-0.14-2.53-0.66
				c-3.12-1.8-5.64-6.63-5.64-10.78c0-1.6,0.37-2.86,1.01-3.71c0.09-0.71,0.24-1.36,0.45-1.93l-0.51-1.08
				c-1.53,0.87-2.5,2.92-2.5,5.82c0,5.3,3.22,11.45,7.19,13.74c0.14,0.08,0.28,0.15,0.41,0.22L114.87,65.53L114.87,65.53z"/>
			<path class="st4" d="M108.78,49.36c1.02-1.36,2.71-1.66,4.63-0.55c3.12,1.8,5.64,6.63,5.64,10.78c0,2.94-1.27,4.76-3.11,4.93
				c0.32,0.18,0.63,0.33,0.93,0.45c0.69,0,1.43,0.17,2.21,0.53c0.95-1.08,1.52-2.79,1.52-5.01c0-5.3-3.22-11.45-7.19-13.74
				c-1.79-1.04-3.43-1.1-4.69-0.38l0.51,1.08C109.02,48,108.87,48.64,108.78,49.36z"/>
			<path class="st5" d="M111.75,60.34l-0.45-0.26l0-0.46c-0.05-0.08-0.1-0.17-0.15-0.25l-0.33-0.19l-0.81-0.47l0-1.23l0.27,0.15
				c-0.98-2.21-1.57-4.63-1.57-6.89c0-0.49,0.03-0.95,0.08-1.39c-0.64,0.85-1.01,2.11-1.01,3.71c0,4.16,2.53,8.98,5.64,10.78
				c0.91,0.53,1.77,0.73,2.53,0.66c-0.02-0.01-0.03-0.02-0.05-0.03C114.35,63.59,112.92,62.12,111.75,60.34z"/>
			<path class="st5" d="M119.06,59.58c0-4.16-2.53-8.98-5.64-10.78c-1.92-1.11-3.61-0.81-4.63,0.55c-0.05,0.44-0.08,0.9-0.08,1.39
				c0,2.26,0.59,4.68,1.57,6.89l0.55,0.32l0-1.9l0-1.32l0-1.9l-0.81-0.47l0-1.15l0.81,0.47l0.48,0.28l0-1.24l0.85,0.49l0.32,0.18
				l0,1.24l0.66,0.38l0-1.24l1.16,0.67l0,1.24l0.32,0.19l0.25,0.14c0.76,0.52,1.38,1.63,1.51,2.69l0,0.79
				c-0.05,0.33-0.16,0.6-0.33,0.78c0.12,0.17,0.23,0.35,0.32,0.54c0.1,0.19,0.18,0.39,0.25,0.59c0.08,0.24,0.14,0.49,0.17,0.74
				c0.02,0.13,0.03,0.27,0.03,0.4c0,0.13-0.01,0.25-0.03,0.37c-0.02,0.16-0.06,0.31-0.12,0.43c-0.08,0.18-0.18,0.32-0.3,0.42
				c-0.24,0.2-0.56,0.24-0.93,0.1l-0.08-0.05l-0.39-0.22l-0.03-0.02l-0.66-0.38l0,0.63l-1.16-0.67l0-0.63l-0.66-0.38l0,0.63
				l-0.32-0.18l-0.4-0.23c1.17,1.78,2.6,3.25,4.14,4.14c0.02,0.01,0.03,0.02,0.05,0.03C117.79,64.34,119.06,62.53,119.06,59.58z"/>
			<path class="st5" d="M113.2,56.1l0.94,0.54l0.15,0.09l0.06,0.03c0.31,0.12,0.56-0.07,0.61-0.46l0-0.28
				c-0.05-0.45-0.3-0.94-0.63-1.17l-0.04-0.02l-0.13-0.08l-0.88-0.51l-0.15-0.09l-0.66-0.38l0,1.9l0.66,0.38L113.2,56.1z"/>
			<path class="st5" d="M113.76,59.65l0.53,0.31l0.26,0.15l0.23,0.13c0.3,0.11,0.54-0.06,0.59-0.42l0-0.36
				c-0.05-0.37-0.23-0.75-0.48-1c-0.05-0.05-0.1-0.1-0.16-0.14l-0.14-0.08l-0.23-0.13l-0.08-0.04l-0.48-0.28l-0.69-0.4L112.47,57
				l0,1.9l0.66,0.38L113.76,59.65z"/>
			<path class="st5" d="M111.16,59.37c0.05,0.08,0.1,0.17,0.15,0.25l0-0.17L111.16,59.37z"/>
			<path class="st6" d="M110.01,58.71l0.81,0.47l0.33,0.19c-0.32-0.56-0.62-1.14-0.88-1.74l-0.27-0.15L110.01,58.71z"/>
			<path class="st6" d="M111.3,60.08l0.45,0.26c-0.15-0.23-0.31-0.47-0.45-0.72L111.3,60.08z"/>
			<path class="st6" d="M111.3,59.46l0,0.17c0.15,0.24,0.3,0.48,0.45,0.72l0.4,0.23l0.32,0.18l0-0.63l0.66,0.38l0,0.63l1.16,0.67
				l0-0.63l0.66,0.38l0.03,0.02l0.39,0.22l0.08,0.05c0.36,0.14,0.68,0.09,0.93-0.1c0.12-0.1,0.23-0.24,0.3-0.42
				c0.05-0.13,0.09-0.27,0.12-0.43c0.02-0.11,0.03-0.24,0.03-0.37c0-0.13-0.01-0.26-0.03-0.4c-0.03-0.25-0.09-0.5-0.17-0.74
				c-0.07-0.2-0.15-0.4-0.25-0.59c-0.1-0.19-0.21-0.37-0.32-0.54c0.16-0.18,0.28-0.45,0.33-0.78l0-0.79
				c-0.13-1.06-0.75-2.17-1.51-2.69l-0.25-0.14l-0.32-0.19l0-1.24l-1.16-0.67l0,1.24l-0.66-0.38l0-1.24l-0.32-0.18l-0.85-0.49
				l0,1.24l-0.48-0.28l-0.81-0.47l0,1.15l0.81,0.47l0,1.9l0,1.32l0,1.9l-0.55-0.32c0.27,0.6,0.56,1.18,0.88,1.74L111.3,59.46z
				 M112.47,53.77l0.66,0.38l0.15,0.09l0.88,0.51l0.13,0.08l0.04,0.02c0.32,0.24,0.58,0.72,0.63,1.17l0,0.28
				c-0.05,0.39-0.29,0.58-0.61,0.46l-0.06-0.03l-0.15-0.09l-0.94-0.54l-0.07-0.04l-0.66-0.38L112.47,53.77z M112.47,57l0.66,0.38
				l0.69,0.4l0.48,0.28l0.08,0.04l0.23,0.13l0.14,0.08c0.06,0.04,0.11,0.09,0.16,0.14c0.24,0.25,0.43,0.63,0.48,1l0,0.36
				c-0.06,0.36-0.29,0.53-0.59,0.42l-0.23-0.13l-0.26-0.15l-0.53-0.31l-0.63-0.37l-0.66-0.38L112.47,57z"/>
			<path class="st5" d="M99.66,54.88c3.97,2.29,7.19,8.45,7.19,13.74c0,1.35-0.21,2.52-0.59,3.47l1.04,0.6c1.26-1,2.03-2.9,2.03-5.5
				c0-5.3-3.22-11.45-7.19-13.74c-1.87-1.08-3.58-1.11-4.86-0.28l0,0l-2.31,1.33l0,0C96.22,53.77,97.86,53.84,99.66,54.88z"/>
			<path class="st4" d="M94.79,65.47c-0.49-1.4-0.78-2.87-0.78-4.26c0-1.6,0.37-2.86,1.01-3.71c0.09-0.71,0.24-1.36,0.45-1.93
				l-0.51-1.08c-1.53,0.87-2.5,2.92-2.5,5.82c0,1.35,0.21,2.77,0.59,4.15l1.24,0.72L94.79,65.47z"/>
			<path class="st4" d="M95.02,57.5c1.02-1.36,2.71-1.66,4.63-0.55c3.12,1.8,5.64,6.63,5.64,10.78c0,1.39-0.28,2.53-0.78,3.36
				l1.74,1c0.38-0.95,0.59-2.11,0.59-3.47c0-5.3-3.22-11.45-7.19-13.74c-1.79-1.04-3.43-1.1-4.69-0.38l0.51,1.08
				C95.26,56.14,95.11,56.79,95.02,57.5z"/>
			<path class="st5" d="M96.25,65.62l0.27,0.15c-0.98-2.21-1.57-4.63-1.57-6.89c0-0.49,0.03-0.95,0.08-1.39
				c-0.64,0.85-1.01,2.11-1.01,3.71c0,1.39,0.28,2.86,0.78,4.26l1.46,0.84L96.25,65.62z"/>
			<path class="st5" d="M99.44,64.24l0.94,0.54l0.15,0.09l0.06,0.03c0.31,0.12,0.56-0.07,0.61-0.46l0-0.28
				c-0.05-0.45-0.3-0.94-0.63-1.17l-0.04-0.02l-0.13-0.08l-0.88-0.51l-0.15-0.09l-0.66-0.38l0,1.9l0.66,0.38L99.44,64.24z"/>
			<path class="st5" d="M100,67.79l0.53,0.31l0.26,0.15l0.23,0.13c0.3,0.11,0.54-0.06,0.59-0.42l0-0.36c-0.05-0.37-0.23-0.75-0.48-1
				c-0.05-0.05-0.1-0.1-0.16-0.14l-0.14-0.08l-0.23-0.13l-0.08-0.04l-0.48-0.28l-0.69-0.4l-0.66-0.38l0,1.9l0.66,0.38L100,67.79z"/>
			<path class="st5" d="M96.52,65.78l0.55,0.32l0-1.9l0-1.32l0-1.9l-0.81-0.47l0-1.15l0.81,0.47l0.48,0.28l0-1.24l0.85,0.49
				l0.32,0.18l0,1.24l0.66,0.38l0-1.24l1.16,0.67l0,1.24l0.32,0.19l0.25,0.14c0.76,0.52,1.38,1.63,1.51,2.69l0,0.79
				c-0.05,0.33-0.16,0.6-0.33,0.78c0.12,0.17,0.23,0.35,0.32,0.54c0.1,0.19,0.18,0.39,0.25,0.59c0.08,0.24,0.14,0.49,0.17,0.74
				c0.02,0.13,0.03,0.27,0.03,0.4c0,0.13-0.01,0.25-0.03,0.37c-0.02,0.16-0.06,0.31-0.12,0.43c-0.08,0.18-0.18,0.32-0.3,0.42
				c-0.02,0.02-0.05,0.04-0.08,0.05l1.98,1.14c0.49-0.83,0.78-1.97,0.78-3.36c0-4.16-2.53-8.98-5.64-10.78
				c-1.92-1.11-3.61-0.81-4.63,0.55c-0.05,0.44-0.08,0.9-0.08,1.39C94.94,61.15,95.53,63.57,96.52,65.78z"/>
			<path class="st6" d="M96.52,65.78l-0.27-0.15l0,0.69l0.72,0.42C96.81,66.42,96.66,66.1,96.52,65.78z"/>
			<path class="st6" d="M102.54,69.95c0.03-0.02,0.05-0.03,0.08-0.05c0.12-0.1,0.23-0.24,0.3-0.42c0.05-0.13,0.09-0.27,0.12-0.43
				c0.02-0.11,0.03-0.24,0.03-0.37c0-0.13-0.01-0.26-0.03-0.4c-0.03-0.25-0.09-0.5-0.17-0.74c-0.07-0.2-0.15-0.4-0.25-0.59
				c-0.1-0.19-0.21-0.37-0.32-0.54c0.16-0.18,0.28-0.45,0.33-0.78l0-0.79c-0.13-1.06-0.75-2.17-1.51-2.69l-0.25-0.14l-0.32-0.19
				l0-1.24l-1.16-0.67l0,1.24l-0.66-0.38l0-1.24l-0.32-0.18l-0.85-0.49l0,1.24l-0.48-0.28l-0.81-0.47l0,1.15l0.81,0.47l0,1.9l0,1.32
				l0,1.9l-0.55-0.32c0.14,0.32,0.3,0.64,0.46,0.95L102.54,69.95z M98.71,61.91l0.66,0.38l0.15,0.09l0.88,0.51l0.13,0.08l0.04,0.02
				c0.32,0.24,0.58,0.72,0.63,1.17l0,0.28c-0.05,0.39-0.29,0.58-0.61,0.46l-0.06-0.03l-0.15-0.09l-0.94-0.54l-0.07-0.04l-0.66-0.38
				L98.71,61.91z M98.71,65.14l0.66,0.38l0.69,0.4l0.48,0.28l0.08,0.04l0.23,0.13l0.14,0.08c0.06,0.04,0.11,0.09,0.16,0.14
				c0.24,0.25,0.43,0.63,0.48,1l0,0.36c-0.06,0.36-0.29,0.53-0.59,0.42l-0.23-0.13l-0.26-0.15L100,67.79l-0.63-0.37l-0.66-0.38
				L98.71,65.14z"/>
			<path class="st5" d="M113.83,66.14l-1.26,0.73l0,0c0.55-0.31,1.16-0.48,1.83-0.48C114.21,66.31,114.02,66.23,113.83,66.14z"/>
			<path class="st5" d="M118.16,66.27c-0.56,0.33-1.19,0.51-1.88,0.51c0.32,0.13,0.65,0.28,0.98,0.47
				c3.97,2.29,7.19,8.45,7.19,13.74c0,0.55-0.04,1.06-0.1,1.54l1.76,1.01c0.53-1.03,0.83-2.37,0.83-3.98
				c0-5.3-3.22-11.45-7.19-13.74c-0.14-0.08-0.27-0.15-0.41-0.22L118.16,66.27L118.16,66.27z"/>
			<path class="st5" d="M118.16,66.27L118.16,66.27l1.17-0.67c-0.08-0.04-0.16-0.08-0.23-0.11C118.81,65.8,118.5,66.07,118.16,66.27
				z"/>
			<path class="st5" d="M116.27,66.78c0.69,0,1.32-0.18,1.88-0.51l-0.5-1.06c-0.25-0.06-0.51-0.15-0.78-0.25
				c-0.74,0-1.42,0.2-2,0.58l0,0l-1.05,0.6c0.19,0.1,0.38,0.18,0.57,0.25C114.98,66.39,115.61,66.51,116.27,66.78z"/>
			<path class="st5" d="M119.09,65.49c-0.78-0.36-1.52-0.53-2.21-0.53c0.26,0.1,0.52,0.19,0.78,0.25l0.5,1.06
				C118.5,66.07,118.81,65.8,119.09,65.49z"/>
			<path class="st4" d="M111.61,73.58c0-1.6,0.37-2.86,1.01-3.71c0.09-0.71,0.24-1.36,0.45-1.93l-0.51-1.08
				c-1.53,0.87-2.5,2.92-2.5,5.82c0,0.55,0.04,1.1,0.1,1.66l1.58,0.91C111.66,74.69,111.61,74.13,111.61,73.58z"/>
			<path class="st4" d="M112.62,69.87c1.02-1.36,2.71-1.66,4.63-0.55c3.12,1.8,5.64,6.63,5.64,10.78c0,0.55-0.05,1.06-0.13,1.52
				l1.58,0.91c0.07-0.48,0.1-1,0.1-1.54c0-5.3-3.22-11.45-7.19-13.74c-0.33-0.19-0.66-0.35-0.98-0.47c-0.59,0-1.22-0.13-1.88-0.39
				c-0.67,0-1.28,0.17-1.83,0.48l0.51,1.08C112.86,68.51,112.71,69.16,112.62,69.87z"/>
			<path class="st4" d="M116.27,66.78c-0.66-0.26-1.29-0.39-1.88-0.39C115.05,66.65,115.68,66.78,116.27,66.78z"/>
			<path class="st5" d="M112.54,71.26c0-0.49,0.03-0.95,0.08-1.39c-0.64,0.85-1.01,2.11-1.01,3.71c0,0.55,0.05,1.11,0.13,1.67
				l1.63,0.94C112.84,74.56,112.54,72.87,112.54,71.26z"/>
			<path class="st5" d="M118.17,75.36l-0.04-0.02L118,75.26l-0.88-0.51l-0.15-0.09l-0.66-0.38l0,1.9l0.66,0.38l0.07,0.04l0.94,0.54
				l0.15,0.09l0.06,0.03c0.31,0.12,0.56-0.07,0.61-0.46l0-0.28C118.75,76.08,118.49,75.6,118.17,75.36z"/>
			<path class="st5" d="M118.73,78.96c-0.05-0.05-0.1-0.1-0.16-0.14l-0.14-0.08l-0.23-0.13l-0.08-0.04l-0.48-0.28l-0.69-0.4
				l-0.66-0.38l0,0.38l2.77,1.6C118.99,79.29,118.87,79.1,118.73,78.96z"/>
			<path class="st5" d="M113.37,76.19l1.3,0.75l0-0.38l0-1.32l0-1.9l-0.81-0.47l0-1.15l0.81,0.47l0.48,0.28l0-1.24l0.85,0.49
				l0.32,0.18l0,1.24l0.66,0.38l0-1.24l1.16,0.67l0,1.24l0.32,0.19l0.25,0.14c0.76,0.52,1.38,1.63,1.51,2.69l0,0.79
				c-0.05,0.33-0.16,0.6-0.33,0.78c0.12,0.17,0.23,0.35,0.32,0.54c0.1,0.19,0.18,0.39,0.25,0.59c0.05,0.15,0.09,0.3,0.12,0.45
				l2.19,1.26c0.08-0.47,0.13-0.98,0.13-1.52c0-4.16-2.53-8.98-5.64-10.78c-1.92-1.11-3.61-0.81-4.63,0.55
				c-0.05,0.44-0.08,0.9-0.08,1.39C112.54,72.87,112.84,74.56,113.37,76.19z"/>
			<path class="st6" d="M120.22,79.32c-0.1-0.19-0.21-0.37-0.32-0.54c0.16-0.18,0.28-0.45,0.33-0.78l0-0.79
				c-0.13-1.06-0.75-2.17-1.51-2.69l-0.25-0.14l-0.32-0.19l0-1.24l-1.16-0.67l0,1.24l-0.66-0.38l0-1.24l-0.32-0.18l-0.85-0.49
				l0,1.24l-0.48-0.28l-0.81-0.47l0,1.15l0.81,0.47l0,1.9l0,1.32l0,0.38l1.64,0.95l0-0.38l0.66,0.38l0.69,0.4l0.48,0.28l0.08,0.04
				l0.23,0.13l0.14,0.08c0.06,0.04,0.11,0.09,0.16,0.14c0.14,0.14,0.25,0.33,0.34,0.53l1.51,0.87c-0.03-0.15-0.07-0.3-0.12-0.45
				C120.4,79.71,120.31,79.51,120.22,79.32z M118.8,76.82c-0.05,0.39-0.29,0.58-0.61,0.46l-0.06-0.03l-0.15-0.09l-0.94-0.54
				l-0.07-0.04l-0.66-0.38l0-1.9l0.66,0.38l0.15,0.09l0.88,0.51l0.13,0.08l0.04,0.02c0.32,0.24,0.58,0.72,0.63,1.17L118.8,76.82z"/>
		</g>
	</g>
	<g>
		<g>
			<g>
				<g>
					<path class="st7" d="M91.16,42.54c0-2.47-1.51-5.36-3.36-6.43L58.28,19.07c-1.85-1.07-3.36,0.08-3.36,2.54v6.49l36.24,20.92
						V42.54z"/>
				</g>
				<g>
					<path class="st7" d="M54.92,96c0,2.47,1.51,5.36,3.36,6.43l29.51,17.04c1.85,1.07,3.36-0.08,3.36-2.54v-6.49L54.92,89.51V96z"
						/>
				</g>
				<g>
					<polygon class="st7" points="54.92,28.1 54.92,89.51 91.16,110.43 91.16,49.03 					"/>
				</g>
				<g>
					<path class="st7" d="M77.71,36.28l-9.34-5.39c-0.21-0.12-0.38-0.44-0.38-0.72v0c0-0.28,0.17-0.4,0.38-0.28l9.34,5.39
						c0.21,0.12,0.38,0.44,0.38,0.72l0,0C78.08,36.27,77.91,36.4,77.71,36.28z"/>
				</g>
				<g>
					<path class="st7" d="M65.93,29.8L65.93,29.8c-0.34-0.19-0.61-0.72-0.61-1.17v0c0-0.45,0.28-0.66,0.61-0.46l0,0
						c0.34,0.19,0.61,0.72,0.61,1.17l0,0C66.55,29.78,66.27,29.99,65.93,29.8z"/>
				</g>
			</g>
		</g>
		<polyline class="st7" points="52.75,20.83 56.03,18.93 89.95,119.66 86.61,121.59 		"/>
		<g>
			<path class="st8" d="M87.84,44.46c0-2.47-1.51-5.36-3.36-6.43L54.96,20.99c-1.85-1.07-3.36,0.08-3.36,2.54v6.49l36.24,20.92
				V44.46z"/>
			<path class="st8" d="M51.6,97.91c0,2.47,1.51,5.36,3.36,6.43l29.51,17.04c1.85,1.07,3.36-0.08,3.36-2.54v-6.49L51.6,91.43V97.91z
				"/>
			<polygon class="st9" points="51.6,30.02 51.6,91.43 87.84,112.35 87.84,50.95 			"/>
			<path class="st10" d="M74.39,38.19l-9.34-5.39c-0.21-0.12-0.38-0.44-0.38-0.72l0,0c0-0.28,0.17-0.4,0.38-0.28l9.34,5.39
				c0.21,0.12,0.38,0.44,0.38,0.72l0,0C74.76,38.19,74.59,38.31,74.39,38.19z"/>
			<path class="st10" d="M62.62,31.72L62.62,31.72C62.28,31.52,62,30.99,62,30.54v0c0-0.45,0.28-0.66,0.61-0.46l0,0
				c0.34,0.19,0.61,0.72,0.61,1.17v0C63.23,31.7,62.95,31.91,62.62,31.72z"/>
		</g>
	</g>
	<g>
		<g>
			<g>
				<g>
					<polygon class="st11" points="60.05,115.06 30.02,97.72 30.02,57.68 60.05,75.02 					"/>
				</g>
				<g>
					<polygon class="st11" points="36.8,70.64 32.31,68.04 32.31,62.06 36.8,64.65 					"/>
				</g>
				<g>
					<polygon class="st11" points="57.76,82.74 53.27,80.15 53.27,74.16 57.76,76.75 					"/>
				</g>
				<g>
					<polygon class="st11" points="57.76,110.68 53.27,108.09 53.27,102.1 57.76,104.7 					"/>
				</g>
				<g>
					<polygon class="st11" points="36.8,98.58 32.31,95.99 32.31,90 36.8,92.6 					"/>
				</g>
				<g>
					<line class="st11" x1="38.73" y1="65.76" x2="40.96" y2="67.05"/>
					<line class="st11" x1="38.73" y1="68.75" x2="48.1" y2="74.16"/>
					<line class="st11" x1="49.64" y1="75.06" x2="51.34" y2="76.04"/>
					<line class="st11" x1="42.35" y1="67.85" x2="45.7" y2="69.79"/>
					<line class="st11" x1="38.73" y1="99.69" x2="47.51" y2="104.77"/>
				</g>
				<polygon class="st11" points="38.73,71.75 46.76,76.38 46.76,79.48 53.27,83.25 53.27,84.88 54.8,85.76 54.8,84.13 56.66,85.2 
					56.66,88.68 45.7,82.35 45.7,84.55 54.53,89.65 54.53,91.85 57.76,93.72 57.76,95.42 48.73,90.21 48.73,92.26 57.76,97.48 
					57.76,98.83 55.51,97.53 55.51,99.66 57.76,100.96 57.76,102.31 46.97,96.08 46.97,98.47 44.02,96.77 44.02,98.49 51.34,102.72 
					51.34,104.35 38.73,97.07 38.73,91.96 34.14,89.31 34.14,87.11 40.53,90.8 40.53,89.09 32.31,84.35 32.31,82.86 42.35,88.65 
					42.35,85.81 36.8,82.61 36.8,80.91 35.31,80.05 35.31,78.41 42.35,82.48 42.35,80.56 33.66,75.54 33.66,74.41 41.22,78.77 
					41.22,76.36 38.73,74.92 				"/>
				<line class="st11" x1="36" y1="73.2" x2="33.66" y2="71.85"/>
				<line class="st11" x1="33.66" y1="81.93" x2="34.24" y2="82.27"/>
				<line class="st11" x1="34.99" y1="82.7" x2="35.58" y2="83.04"/>
				<line class="st11" x1="49.91" y1="78.2" x2="50.49" y2="78.54"/>
			</g>
		</g>
		<polyline class="st11" points="26.06,59.97 30.02,57.68 60.05,115.06 56.09,117.35 		"/>
		<g>
			<polygon class="st12" points="56.09,117.35 26.06,100.01 26.06,59.97 56.09,77.31 			"/>
			<polygon class="st13" points="32.84,72.93 28.35,70.33 28.35,64.35 32.84,66.94 			"/>
			<polygon class="st13" points="53.8,85.03 49.31,82.44 49.31,76.45 53.8,79.04 			"/>
			<polygon class="st13" points="53.8,112.97 49.31,110.38 49.31,104.4 53.8,106.99 			"/>
			<polygon class="st13" points="32.84,100.87 28.35,98.28 28.35,92.29 32.84,94.89 			"/>
			<g>
				<line class="st14" x1="34.77" y1="68.05" x2="37" y2="69.34"/>
				<line class="st14" x1="34.77" y1="71.05" x2="44.14" y2="76.46"/>
				<line class="st14" x1="45.68" y1="77.35" x2="47.38" y2="78.33"/>
				<line class="st14" x1="38.39" y1="70.14" x2="41.74" y2="72.08"/>
				<line class="st14" x1="34.77" y1="101.99" x2="43.55" y2="107.06"/>
			</g>
			<polygon class="st15" points="34.77,74.04 42.8,78.68 42.8,81.78 49.31,85.54 49.31,87.17 50.84,88.05 50.84,86.42 52.7,87.49 
				52.7,90.97 41.74,84.64 41.74,86.84 50.57,91.94 50.57,94.14 53.8,96.01 53.8,97.71 44.77,92.5 44.77,94.56 53.8,99.77 
				53.8,101.12 51.56,99.82 51.56,101.95 53.8,103.25 53.8,104.6 43.01,98.37 43.01,100.76 40.06,99.06 40.06,100.78 47.38,105.01 
				47.38,106.64 34.77,99.36 34.77,94.25 30.18,91.6 30.18,89.4 36.57,93.09 36.57,91.38 28.35,86.64 28.35,85.15 38.39,90.94 
				38.39,88.1 32.84,84.9 32.84,83.2 31.35,82.34 31.35,80.7 38.39,84.77 38.39,82.85 29.7,77.83 29.7,76.7 37.26,81.06 
				37.26,78.65 34.77,77.21 			"/>
			<line class="st14" x1="32.04" y1="75.5" x2="29.7" y2="74.14"/>
			<line class="st14" x1="29.7" y1="84.22" x2="30.29" y2="84.56"/>
			<line class="st14" x1="31.03" y1="84.99" x2="31.62" y2="85.33"/>
			<line class="st14" x1="45.95" y1="80.49" x2="46.53" y2="80.83"/>
		</g>
	</g>
	<g>
		<g>
			<g>
				<path class="st16" d="M13.42,90.24l19.52,5.94l0,16.24l-0.01,0c0.07,0.68-0.4,1.42-1.38,1.98h0c-1.67,0.97-4.22,1.07-5.67,0.24
					L14.4,108c-0.69-0.4-1.01-0.94-0.97-1.5l0,0V90.24z"/>
				<path class="st17" d="M14.4,91.64l11.49,6.63c1.45,0.84,4,0.73,5.67-0.24h0c1.67-0.97,1.86-2.44,0.41-3.27l-11.49-6.63
					c-1.45-0.84-4-0.73-5.67,0.24l0,0C13.14,89.33,12.95,90.8,14.4,91.64z"/>
				<path class="st18" d="M25.43,87.21c0,0.04,0,0.09,0,0.13L25.43,87.21L25.43,87.21z"/>
				<path class="st19" d="M29.69,95.18c-0.08-0.21-0.25-0.4-0.52-0.56c-0.29-0.17-0.66-0.27-1.05-0.31v-4c0-0.1,0.01-0.19,0.01-0.29
					c0-4.23-2.57-9.14-5.74-10.97s-5.74,0.11-5.74,4.34c0,0.05,0,0.1,0,0.15v5.16l0-0.01v2.28l0.01,0.01
					c0.01,0.3,0.19,0.59,0.57,0.81c0.41,0.24,0.96,0.34,1.54,0.32c0.01,0,0.02,0,0.03,0c0.22-0.01,0.44-0.03,0.66-0.08
					c0.38-0.08,0.74-0.2,1.06-0.38c0.02-0.01,0.04-0.03,0.06-0.04c0.91-0.56,1-1.38,0.17-1.86c-0.27-0.16-0.61-0.26-0.97-0.3
					c-0.03,0-0.05,0-0.08-0.01v-4.3c0-1.98,1.21-2.9,2.7-2.04c1.49,0.86,2.7,3.16,2.7,5.15c0,0.05,0,0.1,0,0.15v5.48
					c0,0.06,0,0.12,0.01,0.17v1.76l0,0.01c0,0.31,0.18,0.61,0.56,0.83c0.4,0.23,0.95,0.34,1.52,0.32c0.01,0,0.03,0,0.04,0
					c0.03,0,0.07,0,0.1-0.01c0,0,0.01,0,0.01,0c0.57-0.04,1.14-0.19,1.61-0.45c0.04-0.03,0.08-0.05,0.12-0.08
					C29.62,96.06,29.84,95.59,29.69,95.18z"/>
				<g>
					<polygon class="st20" points="19.77,102.85 20.72,102.51 21.58,105.06 20.08,105.91 18.76,104.11 					"/>
					<path class="st21" d="M17.26,101.52c0,2.08,1.26,4.49,2.82,5.39c1.56,0.9,2.82-0.06,2.82-2.13s-1.26-4.49-2.82-5.39
						S17.26,99.45,17.26,101.52z M19.43,101.9c0-0.47,0.29-0.69,0.64-0.49s0.64,0.76,0.64,1.23c0,0.33-0.14,0.53-0.34,0.56v1.46
						c0,0.22-0.14,0.33-0.3,0.23c-0.17-0.1-0.3-0.36-0.3-0.58v-1.46C19.57,102.59,19.43,102.22,19.43,101.9z"/>
				</g>
			</g>
		</g>
		<g>
			<path class="st22" d="M21.3,90.23L21.3,90.23c0-0.01,0-0.02,0-0.03c0-0.03,0-0.05,0-0.08v-5.55c0-0.74,0.17-1.32,0.45-1.73
				c-1.18-0.3-2.06,0.6-2.06,2.3v5.55c0,0.03,0,0.05,0,0.08c0,0.36-0.07,0.66-0.2,0.88c-0.17,0.3-0.43,0.46-0.74,0.45l0,0
				c0,0,0.48,0.01,1.03-0.16c0.86-0.27,1.19-0.63,1.36-0.87c0.17-0.25,0.16-0.51,0.16-0.51L21.3,90.23z"/>
			<path class="st22" d="M29.73,95.43l0-0.33l0,0c0-0.01,0-0.02,0-0.03c0-0.05,0-0.1-0.01-0.15v-5.18c0-0.1,0.01-0.19,0.01-0.29
				c0-4.23-2.57-9.14-5.74-10.97c-1.2-0.69-2.31-0.84-3.22-0.54l0,0l-1.63,0.58l0,0c0.92-0.31,2.04-0.16,3.24,0.54
				c3.17,1.83,5.74,6.74,5.74,10.97c0,0.1,0,0.2-0.01,0.29v5.18c0,0.05,0.01,0.1,0.01,0.15c0,0.85-0.39,1.35-0.94,1.34l0,0
				c0,0,0.48,0.01,1.03-0.16c0.86-0.27,1.19-0.63,1.36-0.87S29.73,95.43,29.73,95.43z"/>
		</g>
	</g>
	<g>
		<g>
			<g>
				<g>
					<path class="st7" d="M118.31,146.4v4.69c0,1.61,0.99,3.49,2.19,4.19l3.51,2.03C124.02,153.1,121.46,148.22,118.31,146.4z"/>
				</g>
				<g>
					
						<ellipse transform="matrix(0.9202 -0.3916 0.3916 0.9202 -47.8098 67.122)" class="st7" cx="140.68" cy="150.79" rx="6.48" ry="11.46"/>
				</g>
				
					<ellipse transform="matrix(0.9202 -0.3916 0.3916 0.9202 -47.8098 67.122)" class="st7" cx="140.68" cy="150.79" rx="5.83" ry="10.3"/>
				<g>
					<path class="st7" d="M141.21,156.9c0.7,0.31,1.26,0.34,1.69,0.1c0.08-0.05,0.16-0.1,0.23-0.16c0.44-0.41,0.67-1.1,0.67-2.1
						c0-0.65-0.11-1.27-0.32-1.88c-0.21-0.61-0.5-1.15-0.86-1.63s-0.86-1.06-1.49-1.73c0,0-0.01-0.01-0.01-0.01l-0.08,0
						c-0.01-0.04-0.02-0.07-0.03-0.11c-0.51-0.55-0.85-0.97-1.01-1.24c-0.18-0.29-0.26-0.62-0.26-0.97c0-0.03,0-0.05,0.01-0.08
						c0.01-0.31,0.1-0.53,0.27-0.66c0.18-0.14,0.42-0.12,0.72,0.05c0.6,0.35,1.04,1.15,1.33,2.42l1.47,0.04h0l0,0
						c-0.35-1.81-1.12-3.15-2.31-4.03l0,0h0l0-1.31l-1.07-0.62l0,1.31c-0.39-0.15-0.73-0.21-1.02-0.18
						c-0.14,0.02-0.27,0.06-0.39,0.12c0,0,0,0-0.01,0l0,0c-0.12,0.07-0.22,0.15-0.31,0.27c-0.37,0.45-0.55,1.1-0.55,1.93
						c0,0.63,0.1,1.25,0.31,1.85c0.21,0.6,0.47,1.12,0.8,1.58c0.33,0.46,0.79,0.99,1.38,1.6c0.65,0.68,1.07,1.18,1.26,1.49
						c0.19,0.31,0.28,0.66,0.28,1.05c0,0.38-0.09,0.64-0.28,0.8c-0.17,0.14-0.42,0.12-0.75-0.04c-0.04-0.02-0.09-0.05-0.14-0.07
						c-0.86-0.5-1.36-1.41-1.52-2.73l-1.65-0.38c0.33,2.16,1.2,3.74,2.59,4.74l0,1.69l0.04,0.03l0.76,0.44l0.27,0.15l0-0.85V156.9z"
						/>
				</g>
				<g>
					<polygon class="st7" points="150.56,155.58 150.56,157.41 154.81,159.86 154.81,158.03 					"/>
					<polygon class="st7" points="126.55,143.55 130.79,146 130.79,144.17 126.55,141.72 					"/>
				</g>
			</g>
		</g>
		<path class="st23" d="M160.85,146.31l-3.51-2.03l-33.32-19.24l-3.51-2.03c-0.56-0.32-1.07-0.33-1.46-0.09l0,0l-1.21,0.7l0.5,0.65
			c-0.01,0.13-0.02,0.26-0.02,0.4v4.69v17.04c3.15,1.82,5.71,6.7,5.71,10.9l33.32,19.24l2.79,1.61l0.95,1.23l1.18-0.69l0,0
			c0.48-0.26,0.78-0.89,0.78-1.78v-4.69v-17.04v-4.69C163.04,148.89,162.06,147.01,160.85,146.31z"/>
		<g>
			<path class="st24" d="M161.78,172.96v-17.04c-3.15-1.82-5.71-6.7-5.71-10.9l-33.32-19.24c0,4.2-2.55,6.13-5.71,4.31v17.04
				c3.15,1.82,5.71,6.7,5.71,10.9l33.32,19.24C156.07,173.07,158.63,171.14,161.78,172.96z"/>
			<path class="st10" d="M161.78,155.92v-4.69c0-1.61-0.99-3.49-2.19-4.19l-3.51-2.03C156.07,149.22,158.63,154.1,161.78,155.92z"/>
			<path class="st10" d="M161.78,177.65v-4.69c-3.15-1.82-5.71,0.11-5.71,4.31l3.51,2.03C160.79,180,161.78,179.25,161.78,177.65z"
				/>
			<path class="st10" d="M117.05,147.13v4.69c0,1.61,0.99,3.49,2.19,4.19l3.51,2.03C122.75,153.83,120.2,148.95,117.05,147.13z"/>
			<path class="st10" d="M122.75,125.78l-3.51-2.03c-1.21-0.7-2.19,0.05-2.19,1.66v4.69C120.2,131.91,122.75,129.98,122.75,125.78z"
				/>
			
				<ellipse transform="matrix(0.9202 -0.3916 0.3916 0.9202 -48.1991 66.6855)" class="st3" cx="139.41" cy="151.53" rx="6.48" ry="11.46"/>
			
				<ellipse transform="matrix(0.9202 -0.3916 0.3916 0.9202 -48.1991 66.6855)" class="st24" cx="139.41" cy="151.53" rx="5.83" ry="10.3"/>
			<path class="st3" d="M139.94,157.63c0.7,0.31,1.26,0.34,1.69,0.1c0.08-0.05,0.16-0.1,0.23-0.16c0.44-0.41,0.67-1.1,0.67-2.1
				c0-0.65-0.11-1.27-0.32-1.88c-0.21-0.61-0.5-1.15-0.86-1.63c-0.36-0.48-0.86-1.06-1.49-1.73c0,0-0.01-0.01-0.01-0.01l-0.08,0
				c-0.01-0.04-0.02-0.07-0.03-0.11c-0.51-0.55-0.85-0.97-1.01-1.24c-0.18-0.29-0.26-0.62-0.26-0.97c0-0.03,0-0.05,0.01-0.08
				c0.01-0.31,0.1-0.53,0.27-0.66c0.18-0.14,0.42-0.12,0.72,0.05c0.6,0.35,1.04,1.15,1.33,2.42l1.47,0.04h0l0,0
				c-0.35-1.81-1.12-3.15-2.31-4.03l0,0h0l0-1.31l-1.07-0.62l0,1.31c-0.39-0.15-0.73-0.21-1.02-0.18c-0.14,0.02-0.27,0.06-0.39,0.12
				c0,0,0,0-0.01,0l0,0c-0.12,0.07-0.22,0.15-0.31,0.27c-0.37,0.45-0.55,1.1-0.55,1.93c0,0.63,0.1,1.25,0.31,1.85
				s0.47,1.12,0.8,1.58c0.33,0.46,0.79,0.99,1.38,1.6c0.65,0.68,1.07,1.18,1.26,1.49s0.28,0.66,0.28,1.05c0,0.38-0.09,0.64-0.28,0.8
				c-0.17,0.14-0.42,0.12-0.75-0.04c-0.04-0.02-0.09-0.05-0.14-0.07c-0.86-0.5-1.37-1.41-1.52-2.73l-1.65-0.38
				c0.33,2.16,1.2,3.74,2.59,4.74l0,1.69l0.04,0.03l0.76,0.44l0.27,0.15l0-0.85V157.63z"/>
			<g>
				<polygon class="st3" points="149.29,156.32 149.29,158.14 153.54,160.6 153.54,158.77 				"/>
				<polygon class="st3" points="125.28,144.28 129.53,146.73 129.53,144.91 125.28,142.46 				"/>
			</g>
		</g>
	</g>
</g>
</svg>
