<?xml version="1.0" encoding="utf-8"?>
<!-- Generator: Adobe Illustrator 25.1.0, SVG Export Plug-In . SVG Version: 6.00 Build 0)  -->
<svg version="1.1" id="Layer_1" xmlns="http://www.w3.org/2000/svg" xmlns:xlink="http://www.w3.org/1999/xlink" x="0px" y="0px"
	 viewBox="0 0 171 192.5" style="enable-background:new 0 0 171 192.5;" xml:space="preserve">
<style type="text/css">
	.st0{fill:none;stroke:#76B6E3;stroke-width:2.0795;stroke-miterlimit:10;}
	.st1{fill:#D2DCE7;}
	.st2{fill:#27C3F3;}
	.st3{fill:#4AC7F4;}
	.st4{fill:#E6EFF9;}
	.st5{fill:#DEE8F4;}
	.st6{fill:#E9F5FC;}
	.st7{fill:#FFFFFF;}
	.st8{fill:#4564AE;}
	.st9{fill:none;stroke:#4564AE;stroke-width:1.3903;stroke-miterlimit:10;}
	.st10{fill:#3A56A5;}
	.st11{fill:#DEE6F3;}
	.st12{fill:#31A4DD;}
	.st13{fill:#D6EDEB;}
	.st14{fill:none;stroke:#FFFFFF;stroke-width:1.4665;stroke-miterlimit:10;}
	.st15{clip-path:url(#SVGID_2_);}
	.st16{fill:#748BC6;}
	.st17{fill:#B8C6E5;}
	.st18{enable-background:new    ;}
	.st19{clip-path:url(#SVGID_4_);}
	.st20{fill:#D0E8F8;}
	.st21{fill:#F7FAFD;}
	.st22{fill:#35CDE1;}
	.st23{fill:#54F4E3;}
	.st24{fill:#44E1E2;}
	.st25{fill:#25BAE0;}
	.st26{fill:#23BDDD;}
	.st27{fill:#3668C7;}
	.st28{fill:#3874E0;}
	.st29{fill:#3789E1;}
	.st30{fill:#369EE2;}
	.st31{fill:#34B2E2;}
	.st32{fill:#33C7E3;}
	.st33{fill:none;stroke:#FFFFFF;stroke-width:2.6656;stroke-miterlimit:10;}
	.st34{fill:#84D3FD;}
	.st35{fill:#DAF1FD;}
	.st36{fill:#E6F6FE;}
	.st37{fill:#F3FAFE;}
	.st38{fill:#20B9D3;}
	.st39{fill:#57F3EA;}
	.st40{fill:#16A5D2;}
	.st41{fill:#32C4EC;}
</style>
<g>
	<line class="st0" x1="99.79" y1="112.46" x2="126.86" y2="96.65"/>
	<path class="st0" d="M62.01,111.38L31.99,93.79c-1.05-0.62-2.36-0.62-3.42,0L5.26,107.49c-0.91,0.53-0.9,1.85,0.01,2.37l16.01,9.23
		"/>
	<path class="st0" d="M112.15,134.42l8.45,4.66c1.09,0.6,1.11,2.16,0.03,2.79l-13.55,7.84c-1.07,0.62-1.06,2.17,0.01,2.78
		l14.92,8.48c0.49,0.28,1.1,0.28,1.59-0.01l36.17-20.96"/>
	<g>
		<g>
			<g>
				<path class="st1" d="M131.06,159.33L131.06,159.33c-0.02,0.22-0.19,0.46-0.5,0.64l-8.33,4.81c-0.09,0.05-0.18,0.09-0.28,0.13
					v3.05c-0.1,0.04-0.2,0.07-0.31,0.09c0.21-0.05,0.41-0.12,0.59-0.22l8.33-4.81c0.35-0.2,0.52-0.47,0.5-0.71V159.33z"/>
				<path class="st2" d="M121.63,168.06c-0.03,0.01-0.07,0.01-0.1,0.02C121.56,168.07,121.6,168.07,121.63,168.06z"/>
				<path class="st2" d="M120.57,168.07C120.58,168.07,120.58,168.08,120.57,168.07c0.02,0,0.02,0.01,0.03,0.01
					c0.02,0,0.04,0.01,0.06,0.01C120.63,168.09,120.6,168.08,120.57,168.07z"/>
				<path class="st2" d="M120.98,168.12c0.03,0,0.07,0,0.1,0C121.05,168.12,121.02,168.12,120.98,168.12z"/>
				<path class="st2" d="M121.1,168.12c0.01,0,0.01,0,0.02,0c0,0,0,0,0,0l0,0c0.13,0,0.27-0.02,0.4-0.04
					C121.38,168.11,121.24,168.12,121.1,168.12z"/>
				<path class="st2" d="M120.67,168.09c0.01,0,0.03,0,0.04,0.01c0,0,0.01,0,0.01,0c0.04,0.01,0.08,0.01,0.13,0.01c0,0,0,0,0,0
					c0.04,0,0.08,0.01,0.13,0.01C120.88,168.12,120.77,168.11,120.67,168.09z"/>
				<polygon class="st3" points="111.18,159.32 111.17,159.32 111.17,159.33 				"/>
				<g>
					<path class="st4" d="M120.32,167.99c0.02,0.01,0.04,0.01,0.05,0.02c0.02,0.01,0.03,0.01,0.05,0.02
						c-0.04-0.01-0.08-0.03-0.12-0.05C120.3,167.99,120.31,167.99,120.32,167.99z"/>
					<path class="st4" d="M120.43,168.03c0,0-0.01,0-0.01,0C120.42,168.03,120.42,168.03,120.43,168.03z"/>
					<polygon class="st4" points="120.29,167.98 120.29,167.98 120.29,167.98 					"/>
					<path class="st4" d="M120.43,168.03c0.01,0,0.01,0,0.02,0.01c0.01,0,0.02,0.01,0.03,0.01c0.03,0.01,0.05,0.01,0.08,0.02
						C120.52,168.06,120.47,168.05,120.43,168.03z"/>
					<path class="st4" d="M120.16,164.87l-8.23-4.75l-0.4-0.23c-0.22-0.13-0.34-0.3-0.35-0.48v2.98c-0.02,0.21,0.1,0.41,0.35,0.55
						l0.4,0.23v0l8.23,4.75c0.03,0.02,0.07,0.04,0.1,0.05c0.01,0,0.02,0.01,0.03,0.01v-3.05
						C120.25,164.91,120.2,164.89,120.16,164.87z"/>
				</g>
				<path class="st5" d="M121.94,164.91c-0.53,0.2-1.19,0.21-1.65,0.02v3.05c0.08,0.04,0.17,0.06,0.27,0.09c0,0,0.01,0,0.01,0
					c0.03,0.01,0.06,0.01,0.09,0.02c0,0,0.01,0,0.01,0c0.1,0.02,0.2,0.03,0.31,0.03c0,0,0,0,0,0c0.03,0,0.07,0,0.1,0
					c0.01,0,0.01,0,0.02,0c0.14,0,0.28-0.02,0.42-0.04c0,0,0.01,0,0.01,0c0.03-0.01,0.07-0.01,0.1-0.02c0,0,0,0,0.01,0
					c0.11-0.02,0.21-0.06,0.31-0.09V164.91z"/>
				<path class="st6" d="M111.53,159.89l0.4,0.23l8.23,4.75c0.04,0.02,0.09,0.05,0.13,0.07c0.46,0.2,1.12,0.18,1.65-0.02
					c0.1-0.04,0.19-0.08,0.28-0.13l8.33-4.81c0.32-0.18,0.49-0.42,0.5-0.64c0.02-0.21-0.1-0.41-0.35-0.55l-8.63-4.98
					c-0.53-0.31-1.45-0.27-2.07,0.09l-8.33,4.81c-0.31,0.18-0.48,0.41-0.5,0.63c0,0,0,0.01,0,0.01c0,0.02,0,0.05,0,0.07
					C111.19,159.59,111.31,159.76,111.53,159.89z"/>
			</g>
			<path class="st7" d="M130.56,159.39l-8.33,4.81c-0.61,0.35-1.54,0.39-2.07,0.09l-8.63-4.98c-0.12-0.07-0.2-0.15-0.26-0.23
				c-0.18,0.29-0.1,0.61,0.26,0.82l8.63,4.98c0.53,0.31,1.45,0.27,2.07-0.09l8.33-4.81c0.48-0.27,0.62-0.66,0.41-0.96
				C130.89,159.15,130.75,159.27,130.56,159.39z"/>
			<g>
				<path class="st8" d="M127.89,163.1c0,0.22-0.16,0.49-0.35,0.6c-0.19,0.11-0.35,0.02-0.35-0.2c0-0.22,0.16-0.49,0.35-0.6
					C127.73,162.78,127.89,162.87,127.89,163.1z"/>
				<path class="st8" d="M129.01,162.45c0,0.22-0.16,0.49-0.35,0.6c-0.19,0.11-0.35,0.02-0.35-0.2c0-0.22,0.16-0.49,0.35-0.6
					C128.85,162.14,129.01,162.23,129.01,162.45z"/>
				<path class="st8" d="M130.13,161.8c0,0.22-0.16,0.49-0.35,0.6c-0.19,0.11-0.35,0.02-0.35-0.2c0-0.22,0.16-0.49,0.35-0.6
					C129.97,161.49,130.13,161.58,130.13,161.8z"/>
			</g>
			<g>
				<path class="st9" d="M120.67,161.78l-4.04-2.33c-0.25-0.14-0.22-0.39,0.07-0.56l3.9-2.25c0.29-0.17,0.72-0.18,0.97-0.04
					l4.04,2.33c0.25,0.14,0.22,0.39-0.07,0.56l-3.9,2.25C121.35,161.9,120.92,161.92,120.67,161.78z"/>
				<path class="st10" d="M121.02,159.55l-0.56-0.32c-0.03-0.02-0.03-0.05,0.01-0.08l0.54-0.31c0.04-0.02,0.1-0.03,0.13-0.01
					l0.56,0.32c0.03,0.02,0.03,0.05-0.01,0.08l-0.54,0.31C121.11,159.56,121.05,159.57,121.02,159.55z"/>
			</g>
		</g>
	</g>
	<g>
		<g>
			<g>
				<path class="st1" d="M139.02,93.31L139.02,93.31c-0.02,0.22-0.19,0.46-0.5,0.64l-8.33,4.81c-0.09,0.05-0.18,0.09-0.28,0.13v3.05
					c-0.1,0.04-0.2,0.07-0.31,0.09c0.21-0.05,0.41-0.12,0.59-0.22l8.33-4.81c0.35-0.2,0.52-0.47,0.5-0.71V93.31z"/>
				<path class="st2" d="M129.59,102.04c-0.03,0.01-0.07,0.01-0.1,0.02C129.52,102.05,129.56,102.04,129.59,102.04z"/>
				<path class="st2" d="M128.53,102.05C128.54,102.05,128.54,102.05,128.53,102.05c0.02,0,0.02,0.01,0.03,0.01
					c0.02,0,0.04,0.01,0.06,0.01C128.6,102.06,128.56,102.06,128.53,102.05z"/>
				<path class="st2" d="M128.94,102.1c0.03,0,0.07,0,0.1,0C129.01,102.1,128.98,102.1,128.94,102.1z"/>
				<path class="st2" d="M129.06,102.1c0.01,0,0.01,0,0.02,0c0,0,0,0,0,0l0,0c0.13,0,0.27-0.02,0.4-0.04
					C129.34,102.09,129.2,102.1,129.06,102.1z"/>
				<path class="st2" d="M128.64,102.07c0.01,0,0.03,0,0.04,0.01c0,0,0.01,0,0.01,0c0.04,0.01,0.08,0.01,0.13,0.01c0,0,0,0,0,0
					c0.04,0,0.08,0.01,0.13,0.01C128.84,102.1,128.73,102.09,128.64,102.07z"/>
				<polygon class="st3" points="119.14,93.3 119.14,93.3 119.14,93.31 				"/>
				<g>
					<path class="st4" d="M128.28,101.97c0.02,0.01,0.04,0.02,0.05,0.02c0.02,0.01,0.03,0.01,0.05,0.02
						c-0.04-0.01-0.08-0.03-0.12-0.05C128.26,101.96,128.27,101.97,128.28,101.97z"/>
					<path class="st4" d="M128.39,102.01c0,0-0.01,0-0.01,0C128.38,102.01,128.39,102.01,128.39,102.01z"/>
					<polygon class="st4" points="128.25,101.96 128.26,101.96 128.25,101.96 					"/>
					<path class="st4" d="M128.39,102.01c0.01,0,0.01,0,0.02,0.01c0.01,0,0.02,0.01,0.03,0.01c0.03,0.01,0.05,0.01,0.08,0.02
						C128.48,102.04,128.43,102.02,128.39,102.01z"/>
					<path class="st4" d="M128.12,98.84l-8.23-4.75l-0.4-0.23c-0.22-0.13-0.34-0.3-0.35-0.48v2.98c-0.02,0.21,0.1,0.41,0.35,0.55
						l0.4,0.23v0l8.23,4.75c0.03,0.02,0.07,0.04,0.1,0.05c0.01,0,0.02,0.01,0.03,0.01v-3.05C128.21,98.89,128.16,98.87,128.12,98.84
						z"/>
				</g>
				<path class="st5" d="M129.91,98.89c-0.53,0.2-1.2,0.21-1.65,0.02v3.05c0.08,0.04,0.17,0.06,0.27,0.09c0,0,0.01,0,0.01,0
					c0.03,0.01,0.06,0.01,0.09,0.02c0,0,0.01,0,0.01,0c0.1,0.02,0.2,0.03,0.31,0.03c0,0,0,0,0,0c0.03,0,0.07,0,0.1,0
					c0.01,0,0.01,0,0.02,0c0.14,0,0.28-0.02,0.42-0.04c0,0,0.01,0,0.01,0c0.03-0.01,0.07-0.01,0.1-0.02c0,0,0,0,0.01,0
					c0.11-0.02,0.21-0.06,0.31-0.09V98.89z"/>
				<path class="st6" d="M119.49,93.86l0.4,0.23l8.23,4.75c0.04,0.02,0.09,0.05,0.13,0.07c0.46,0.2,1.12,0.18,1.65-0.02
					c0.1-0.04,0.19-0.08,0.28-0.13l8.33-4.81c0.32-0.18,0.49-0.42,0.5-0.64c0.02-0.21-0.1-0.41-0.35-0.55l-8.63-4.98
					c-0.53-0.31-1.45-0.27-2.07,0.09l-8.33,4.81c-0.31,0.18-0.48,0.41-0.5,0.63c0,0,0,0.01,0,0.01c0,0.02,0,0.05,0,0.07
					C119.15,93.56,119.27,93.73,119.49,93.86z"/>
			</g>
			<path class="st7" d="M138.52,93.36l-8.33,4.81c-0.61,0.35-1.54,0.39-2.07,0.09l-8.63-4.98c-0.12-0.07-0.2-0.15-0.26-0.23
				c-0.18,0.29-0.1,0.61,0.26,0.82l8.63,4.98c0.53,0.31,1.45,0.27,2.07-0.09l8.33-4.81c0.48-0.27,0.62-0.66,0.41-0.96
				C138.85,93.12,138.71,93.25,138.52,93.36z"/>
			<g>
				<path class="st8" d="M135.85,97.07c0,0.22-0.16,0.49-0.35,0.6c-0.19,0.11-0.35,0.02-0.35-0.2c0-0.22,0.16-0.49,0.35-0.6
					C135.69,96.76,135.85,96.85,135.85,97.07z"/>
				<path class="st8" d="M136.97,96.42c0,0.22-0.16,0.49-0.35,0.6c-0.19,0.11-0.35,0.02-0.35-0.2c0-0.22,0.16-0.49,0.35-0.6
					C136.81,96.11,136.97,96.2,136.97,96.42z"/>
				<path class="st8" d="M138.09,95.78c0,0.22-0.16,0.49-0.35,0.6c-0.19,0.11-0.35,0.02-0.35-0.2c0-0.22,0.16-0.49,0.35-0.6
					C137.94,95.46,138.09,95.55,138.09,95.78z"/>
			</g>
			<g>
				<path class="st9" d="M128.63,95.76l-4.04-2.33c-0.25-0.14-0.22-0.39,0.07-0.56l3.9-2.25c0.29-0.17,0.72-0.18,0.97-0.04
					l4.04,2.33c0.25,0.14,0.22,0.39-0.07,0.56l-3.9,2.25C129.31,95.88,128.88,95.9,128.63,95.76z"/>
				<path class="st10" d="M128.98,93.52l-0.56-0.32c-0.03-0.02-0.03-0.05,0.01-0.08l0.54-0.31c0.04-0.02,0.1-0.03,0.13-0.01
					l0.56,0.32c0.03,0.02,0.03,0.05-0.01,0.08l-0.54,0.31C129.08,93.54,129.02,93.54,128.98,93.52z"/>
			</g>
		</g>
	</g>
	<g>
		<g>
			<g>
				<path class="st1" d="M31.59,118.96L31.59,118.96c-0.02,0.22-0.19,0.46-0.5,0.64l-8.33,4.81c-0.09,0.05-0.18,0.09-0.28,0.13v3.05
					c-0.1,0.04-0.2,0.07-0.31,0.09c0.21-0.05,0.41-0.12,0.59-0.22l8.33-4.81c0.35-0.2,0.52-0.47,0.5-0.71V118.96z"/>
				<path class="st2" d="M22.16,127.69c-0.03,0.01-0.07,0.01-0.1,0.02C22.1,127.7,22.13,127.7,22.16,127.69z"/>
				<path class="st2" d="M21.11,127.7C21.11,127.7,21.11,127.7,21.11,127.7c0.02,0,0.02,0.01,0.03,0.01c0.02,0,0.04,0.01,0.06,0.01
					C21.17,127.71,21.14,127.71,21.11,127.7z"/>
				<path class="st2" d="M21.51,127.75c0.03,0,0.07,0,0.1,0C21.58,127.75,21.55,127.75,21.51,127.75z"/>
				<path class="st2" d="M21.63,127.75c0.01,0,0.01,0,0.02,0c0,0,0,0,0,0l0,0c0.13,0,0.27-0.02,0.4-0.04
					C21.91,127.74,21.77,127.75,21.63,127.75z"/>
				<path class="st2" d="M21.21,127.72c0.01,0,0.03,0,0.04,0.01c0,0,0.01,0,0.01,0c0.04,0.01,0.08,0.01,0.13,0.01c0,0,0,0,0,0
					c0.04,0,0.08,0.01,0.13,0.01C21.41,127.75,21.31,127.74,21.21,127.72z"/>
				<polygon class="st3" points="11.71,118.95 11.71,118.95 11.71,118.96 				"/>
				<g>
					<path class="st4" d="M20.85,127.62c0.02,0.01,0.04,0.02,0.05,0.02c0.02,0.01,0.03,0.01,0.05,0.02
						c-0.04-0.01-0.08-0.03-0.12-0.05C20.83,127.62,20.84,127.62,20.85,127.62z"/>
					<path class="st4" d="M20.96,127.66c0,0-0.01,0-0.01,0C20.95,127.66,20.96,127.66,20.96,127.66z"/>
					<polygon class="st4" points="20.83,127.61 20.83,127.61 20.83,127.61 					"/>
					<path class="st4" d="M20.96,127.66c0.01,0,0.01,0,0.02,0.01c0.01,0,0.02,0.01,0.03,0.01c0.03,0.01,0.05,0.01,0.08,0.02
						C21.05,127.69,21,127.68,20.96,127.66z"/>
					<path class="st4" d="M20.69,124.5l-8.23-4.75l-0.4-0.23c-0.22-0.13-0.34-0.3-0.35-0.48v2.98c-0.02,0.21,0.1,0.41,0.35,0.55
						l0.4,0.23v0l8.23,4.75c0.03,0.02,0.07,0.04,0.1,0.05c0.01,0,0.02,0.01,0.03,0.01v-3.05C20.78,124.54,20.73,124.52,20.69,124.5z
						"/>
				</g>
				<path class="st5" d="M22.48,124.54c-0.53,0.2-1.19,0.21-1.65,0.02v3.05c0.08,0.04,0.17,0.06,0.27,0.09c0,0,0.01,0,0.01,0
					c0.03,0.01,0.06,0.01,0.09,0.02c0,0,0.01,0,0.01,0c0.1,0.02,0.2,0.03,0.31,0.03c0,0,0,0,0,0c0.03,0,0.07,0,0.1,0
					c0.01,0,0.01,0,0.02,0c0.14,0,0.28-0.02,0.42-0.04c0,0,0.01,0,0.01,0c0.03-0.01,0.07-0.01,0.1-0.02c0,0,0,0,0.01,0
					c0.11-0.02,0.21-0.06,0.31-0.09V124.54z"/>
				<path class="st6" d="M12.06,119.51l0.4,0.23l8.23,4.75c0.04,0.02,0.09,0.05,0.13,0.07c0.46,0.2,1.12,0.18,1.65-0.02
					c0.1-0.04,0.19-0.08,0.28-0.13l8.33-4.81c0.32-0.18,0.49-0.42,0.5-0.64c0.02-0.21-0.1-0.41-0.35-0.55l-8.63-4.98
					c-0.53-0.31-1.45-0.27-2.07,0.09l-8.33,4.81c-0.31,0.18-0.48,0.41-0.5,0.63c0,0,0,0.01,0,0.01c0,0.02,0,0.05,0,0.07
					C11.72,119.21,11.84,119.38,12.06,119.51z"/>
			</g>
			<path class="st7" d="M31.09,119.01l-8.33,4.81c-0.61,0.35-1.54,0.39-2.07,0.09l-8.63-4.98c-0.12-0.07-0.2-0.15-0.26-0.23
				c-0.18,0.29-0.1,0.61,0.26,0.82l8.63,4.98c0.53,0.31,1.45,0.27,2.07-0.09l8.33-4.81c0.48-0.27,0.62-0.66,0.41-0.96
				C31.42,118.77,31.28,118.9,31.09,119.01z"/>
			<g>
				<path class="st8" d="M28.42,122.72c0,0.22-0.16,0.49-0.35,0.6c-0.19,0.11-0.35,0.02-0.35-0.2c0-0.22,0.16-0.49,0.35-0.6
					C28.26,122.41,28.42,122.5,28.42,122.72z"/>
				<path class="st8" d="M29.54,122.08c0,0.22-0.16,0.49-0.35,0.6c-0.19,0.11-0.35,0.02-0.35-0.2c0-0.22,0.16-0.49,0.35-0.6
					S29.54,121.85,29.54,122.08z"/>
				<path class="st8" d="M30.66,121.43c0,0.22-0.16,0.49-0.35,0.6c-0.19,0.11-0.35,0.02-0.35-0.2s0.16-0.49,0.35-0.6
					C30.51,121.12,30.66,121.21,30.66,121.43z"/>
			</g>
			<g>
				<path class="st9" d="M21.2,121.41l-4.04-2.33c-0.25-0.14-0.22-0.39,0.07-0.56l3.9-2.25c0.29-0.17,0.72-0.18,0.97-0.04l4.04,2.33
					c0.25,0.14,0.22,0.39-0.07,0.56l-3.9,2.25C21.88,121.53,21.45,121.55,21.2,121.41z"/>
				<path class="st10" d="M21.55,119.17l-0.56-0.32c-0.03-0.02-0.03-0.05,0.01-0.08l0.54-0.31c0.04-0.02,0.1-0.03,0.13-0.01
					l0.56,0.32c0.03,0.02,0.03,0.05-0.01,0.08l-0.54,0.31C21.65,119.19,21.59,119.19,21.55,119.17z"/>
			</g>
		</g>
	</g>
	<g>
		<path class="st11" d="M165.69,130.82c0,0.02,0,0.04,0,0.06c0,0.02,0,0.03-0.01,0.05c0,0.02-0.01,0.04-0.01,0.06
			c0,0.02-0.01,0.03-0.01,0.05c0,0.02-0.01,0.04-0.01,0.06c0,0.02-0.01,0.03-0.01,0.05c-0.01,0.02-0.01,0.04-0.02,0.06
			c-0.01,0.02-0.01,0.03-0.02,0.05c-0.01,0.02-0.02,0.04-0.02,0.06c-0.01,0.02-0.01,0.03-0.02,0.05c-0.01,0.02-0.02,0.04-0.03,0.06
			c-0.01,0.02-0.02,0.03-0.03,0.05c-0.01,0.02-0.03,0.05-0.04,0.07c-0.01,0.01-0.02,0.03-0.03,0.04c-0.02,0.03-0.04,0.05-0.05,0.08
			c-0.01,0.01-0.02,0.02-0.02,0.03c-0.03,0.04-0.07,0.08-0.1,0.12c-0.01,0.01-0.02,0.02-0.03,0.03c-0.03,0.03-0.06,0.06-0.09,0.09
			c-0.01,0.01-0.03,0.03-0.04,0.04c-0.02,0.02-0.04,0.03-0.06,0.05c-0.02,0.01-0.04,0.03-0.05,0.04c-0.02,0.02-0.04,0.03-0.06,0.05
			c-0.02,0.01-0.04,0.03-0.06,0.04c-0.02,0.02-0.04,0.03-0.07,0.05c-0.02,0.01-0.04,0.03-0.06,0.04c-0.02,0.02-0.05,0.03-0.07,0.04
			c-0.03,0.02-0.06,0.04-0.09,0.05l-9.61,5.59c-0.08,0.05-0.17,0.09-0.26,0.14c-0.02,0.01-0.05,0.02-0.07,0.03
			c-0.08,0.04-0.16,0.07-0.25,0.11c-0.01,0-0.02,0.01-0.03,0.01c-0.09,0.03-0.18,0.07-0.28,0.1c-0.07,0.02-0.13,0.04-0.2,0.06
			c-0.05,0.01-0.1,0.03-0.15,0.04c-0.07,0.02-0.14,0.03-0.22,0.05c-0.05,0.01-0.1,0.02-0.16,0.03c-0.02,0-0.04,0.01-0.07,0.01
			c-0.09,0.01-0.18,0.03-0.27,0.04c-0.03,0-0.05,0.01-0.08,0.01c-0.05,0.01-0.1,0.01-0.16,0.01c-0.09,0.01-0.17,0.01-0.26,0.02
			c-0.06,0-0.11,0-0.17,0c-0.07,0-0.14,0-0.21,0c-0.06,0-0.12,0-0.18,0c-0.07,0-0.13-0.01-0.2-0.01c-0.06,0-0.12-0.01-0.18-0.01
			c-0.06-0.01-0.13-0.01-0.19-0.02c-0.06-0.01-0.12-0.02-0.17-0.02c-0.07-0.01-0.14-0.02-0.21-0.04c-0.05-0.01-0.11-0.02-0.16-0.03
			c-0.08-0.02-0.16-0.04-0.24-0.06c-0.05-0.01-0.1-0.03-0.15-0.04c-0.03-0.01-0.05-0.02-0.08-0.03c-0.08-0.03-0.16-0.05-0.24-0.08
			c-0.02-0.01-0.05-0.02-0.07-0.02c-0.07-0.03-0.14-0.06-0.21-0.09c-0.03-0.01-0.07-0.03-0.1-0.04c-0.1-0.05-0.19-0.1-0.28-0.15
			l-9.68-5.59c-0.77-0.44-1.15-1.02-1.15-1.6l-0.04,14.25c0,0.58,0.38,1.16,1.15,1.6l9.68,5.59c0.09,0.05,0.19,0.1,0.28,0.15
			c0.03,0.02,0.07,0.03,0.1,0.04c0.06,0.03,0.12,0.05,0.18,0.08c0.01,0,0.02,0.01,0.03,0.01c0.02,0.01,0.05,0.02,0.07,0.02
			c0.08,0.03,0.16,0.06,0.24,0.08c0.03,0.01,0.05,0.02,0.08,0.03c0.02,0.01,0.04,0.01,0.05,0.02c0.03,0.01,0.07,0.02,0.1,0.02
			c0.08,0.02,0.16,0.04,0.24,0.06c0.02,0,0.04,0.01,0.06,0.02c0.03,0.01,0.06,0.01,0.1,0.02c0.07,0.01,0.14,0.03,0.21,0.04
			c0.03,0,0.05,0.01,0.08,0.01c0.03,0,0.06,0.01,0.09,0.01c0.06,0.01,0.13,0.02,0.19,0.02c0.03,0,0.06,0.01,0.09,0.01
			c0.03,0,0.06,0,0.09,0c0.07,0,0.13,0.01,0.2,0.01c0.03,0,0.07,0,0.1,0.01c0.03,0,0.05,0,0.08,0c0.07,0,0.14,0,0.21,0
			c0.04,0,0.07,0,0.11,0c0.02,0,0.04,0,0.06,0c0.09,0,0.17-0.01,0.26-0.02c0.04,0,0.07,0,0.11-0.01c0.02,0,0.03,0,0.05-0.01
			c0.03,0,0.05-0.01,0.08-0.01c0.09-0.01,0.18-0.02,0.27-0.04c0.02,0,0.04-0.01,0.07-0.01c0.01,0,0.02,0,0.03,0
			c0.04-0.01,0.08-0.02,0.12-0.03c0.07-0.01,0.14-0.03,0.22-0.05c0.05-0.01,0.1-0.03,0.15-0.04c0.07-0.02,0.13-0.04,0.2-0.06
			c0.01,0,0.03-0.01,0.04-0.01c0.08-0.03,0.16-0.05,0.24-0.08c0.01,0,0.02-0.01,0.03-0.01c0.08-0.03,0.17-0.07,0.25-0.11
			c0.02-0.01,0.05-0.02,0.07-0.03c0.09-0.04,0.18-0.09,0.26-0.14l9.61-5.59c0.02-0.01,0.03-0.02,0.05-0.03
			c0.01-0.01,0.03-0.02,0.04-0.03c0.02-0.01,0.05-0.03,0.07-0.04c0.02-0.01,0.04-0.03,0.06-0.04c0.02-0.02,0.04-0.03,0.07-0.05
			c0.02-0.01,0.04-0.03,0.06-0.04c0.02-0.02,0.04-0.03,0.06-0.05c0.02-0.01,0.04-0.03,0.05-0.04c0.02-0.02,0.04-0.03,0.06-0.05
			c0.01-0.01,0.02-0.01,0.02-0.02c0.01-0.01,0.01-0.01,0.02-0.02c0.03-0.03,0.06-0.06,0.09-0.09c0.01-0.01,0.02-0.02,0.03-0.03
			c0.04-0.04,0.07-0.08,0.1-0.12c0,0,0,0,0,0c0.01-0.01,0.01-0.02,0.02-0.03c0.02-0.02,0.04-0.05,0.05-0.08
			c0.01-0.01,0.02-0.03,0.03-0.04c0.01-0.02,0.03-0.05,0.04-0.07c0-0.01,0.01-0.01,0.01-0.02c0.01-0.01,0.01-0.02,0.01-0.03
			c0.01-0.02,0.02-0.04,0.03-0.06c0.01-0.02,0.02-0.03,0.02-0.05c0.01-0.02,0.02-0.04,0.02-0.06c0-0.01,0.01-0.02,0.01-0.03
			c0-0.01,0.01-0.02,0.01-0.02c0.01-0.02,0.01-0.04,0.02-0.06c0.01-0.02,0.01-0.03,0.02-0.05c0.01-0.02,0.01-0.04,0.01-0.06
			c0-0.01,0.01-0.02,0.01-0.03c0-0.01,0-0.01,0-0.02c0-0.02,0.01-0.04,0.01-0.06c0-0.02,0-0.03,0.01-0.05c0-0.02,0-0.04,0-0.06
			c0-0.01,0-0.02,0-0.03c0-0.01,0-0.02,0-0.03l0.04-14.25C165.7,130.78,165.7,130.8,165.69,130.82z"/>
		<g>
			<path class="st6" d="M164.55,129.15c1.52,0.88,1.53,2.3,0.02,3.18l-9.61,5.59c-1.51,0.88-3.97,0.88-5.49,0l-9.68-5.59
				c-1.52-0.88-1.53-2.3-0.02-3.18l9.61-5.59c1.51-0.88,3.97-0.88,5.49,0L164.55,129.15z"/>
		</g>
		<g>
			<g>
				<g>
					<polygon class="st12" points="163.9,134.92 163.93,144.64 155.47,149.52 155.45,139.8 					"/>
				</g>
			</g>
			<g>
				<polygon class="st13" points="163.93,144.64 163.53,144.4 163.5,135.15 163.9,134.92 				"/>
			</g>
			<g>
				<polygon class="st13" points="155.47,149.52 155.47,149.06 163.53,144.4 163.93,144.64 				"/>
			</g>
		</g>
		<g>
			<g>
				<g>
					<polygon class="st12" points="140.38,134.43 140.35,144.15 148.81,149.03 148.84,139.31 					"/>
				</g>
			</g>
			<g>
				<polygon class="st13" points="140.35,144.15 140.75,143.91 140.78,134.66 140.38,134.43 				"/>
			</g>
			<g>
				<polygon class="st13" points="148.81,149.03 148.81,148.56 140.75,143.91 140.35,144.15 				"/>
			</g>
		</g>
		<g>
			<g>
				<path class="st14" d="M163.14,129.33c1.35,0.78,1.36,2.04,0.02,2.82l-8.52,4.95c-1.34,0.78-3.52,0.78-4.87,0l-8.58-4.95
					c-1.35-0.78-1.36-2.04-0.02-2.82l8.52-4.95c1.34-0.78,3.52-0.78,4.87,0L163.14,129.33z"/>
			</g>
		</g>
		<g>
			<path class="st13" d="M158.92,129.88c0.83,0.48,0.83,1.26,0.01,1.73l-5.24,3.04c-0.82,0.48-2.16,0.48-2.99,0l-5.27-3.04
				c-0.83-0.48-0.83-1.26-0.01-1.73l5.24-3.04c0.82-0.48,2.16-0.48,2.99,0L158.92,129.88z"/>
		</g>
		<g>
			<defs>
				<path id="SVGID_1_" d="M158.92,129.88c0.83,0.48,0.83,1.26,0.01,1.73l-5.24,3.04c-0.82,0.48-2.16,0.48-2.99,0l-5.27-3.04
					c-0.83-0.48-0.83-1.26-0.01-1.73l5.24-3.04c0.82-0.48,2.16-0.48,2.99,0L158.92,129.88z"/>
			</defs>
			<clipPath id="SVGID_2_">
				<use xlink:href="#SVGID_1_"  style="overflow:visible;"/>
			</clipPath>
			<g class="st15">
				<g>
					<path class="st8" d="M158.92,130.39c0.83,0.48,0.83,1.26,0.01,1.73l-5.24,3.04c-0.82,0.48-2.16,0.48-2.99,0l-5.27-3.04
						c-0.83-0.48-0.83-1.26-0.01-1.73l5.24-3.04c0.82-0.48,2.16-0.48,2.99,0L158.92,130.39z"/>
				</g>
				<path class="st16" d="M157.69,130.55c0.68,0.39,0.68,1.03,0.01,1.42l-4.28,2.49c-0.67,0.39-1.77,0.39-2.45,0l-4.31-2.49
					c-0.68-0.39-0.68-1.03-0.01-1.42l4.28-2.49c0.67-0.39,1.77-0.39,2.45,0L157.69,130.55z"/>
				<path class="st17" d="M156.46,130.71c0.53,0.3,0.53,0.8,0.01,1.1l-3.33,1.94c-0.52,0.3-1.38,0.3-1.9,0l-3.35-1.94
					c-0.53-0.3-0.53-0.8-0.01-1.1l3.33-1.94c0.52-0.3,1.38-0.3,1.9,0L156.46,130.71z"/>
				<g>
					<path class="st7" d="M155.23,130.87c0.38,0.22,0.38,0.57,0,0.79l-2.38,1.38c-0.37,0.22-0.98,0.22-1.36,0l-2.39-1.38
						c-0.38-0.22-0.38-0.57,0-0.79l2.38-1.38c0.37-0.22,0.98-0.22,1.36,0L155.23,130.87z"/>
				</g>
			</g>
		</g>
		<g>
			<g>
				<path class="st13" d="M141.84,136.34c0.06,0.03,0.11,0.12,0.11,0.18c0,0.07-0.05,0.1-0.11,0.06l-0.58-0.34
					c-0.06-0.03-0.11-0.12-0.11-0.19c0-0.07,0.05-0.09,0.11-0.06L141.84,136.34z"/>
			</g>
			<g>
				<path class="st13" d="M141.84,136.83c0.06,0.03,0.11,0.12,0.11,0.18c0,0.07-0.05,0.1-0.11,0.06l-0.58-0.34
					c-0.06-0.03-0.11-0.12-0.11-0.19c0-0.07,0.05-0.09,0.11-0.06L141.84,136.83z"/>
			</g>
			<g>
				<path class="st13" d="M141.84,137.34c0.06,0.03,0.11,0.12,0.11,0.19c0,0.07-0.05,0.09-0.11,0.06l-0.58-0.34
					c-0.06-0.03-0.11-0.12-0.11-0.18c0-0.07,0.05-0.1,0.11-0.06L141.84,137.34z"/>
			</g>
			<g>
				<path class="st13" d="M144.07,138.63c0.06,0.03,0.11,0.12,0.11,0.19c0,0.07-0.05,0.09-0.11,0.06l-0.58-0.34
					c-0.06-0.03-0.11-0.12-0.11-0.18c0-0.07,0.05-0.1,0.11-0.06L144.07,138.63z"/>
			</g>
			<g>
				<path class="st13" d="M144.06,141.1c0.06,0.03,0.11,0.12,0.11,0.19c0,0.07-0.05,0.09-0.11,0.06l-0.58-0.34
					c-0.06-0.03-0.11-0.12-0.11-0.18c0-0.07,0.05-0.1,0.11-0.06L144.06,141.1z"/>
			</g>
			<g>
				<path class="st13" d="M144.07,140.6c0.06,0.03,0.11,0.12,0.11,0.19c0,0.07-0.05,0.1-0.11,0.06l-0.58-0.34
					c-0.06-0.03-0.11-0.12-0.11-0.19c0-0.07,0.05-0.1,0.11-0.06L144.07,140.6z"/>
			</g>
			<g>
				<path class="st13" d="M148.19,147.44c0.06,0.03,0.11,0.12,0.11,0.18c0,0.07-0.05,0.1-0.11,0.06l-3.69-2.13
					c-0.06-0.03-0.11-0.12-0.11-0.19c0-0.07,0.05-0.09,0.11-0.06L148.19,147.44z"/>
			</g>
			<g>
				<path class="st13" d="M146.67,146.07c0.06,0.03,0.11,0.12,0.11,0.19c0,0.07-0.05,0.09-0.11,0.06l-1.35-0.78
					c-0.06-0.03-0.11-0.12-0.11-0.18c0-0.07,0.05-0.1,0.11-0.06L146.67,146.07z"/>
			</g>
			<g>
				<path class="st13" d="M144.05,145.06c0.06,0.03,0.11,0.12,0.11,0.18c0,0.07-0.05,0.1-0.11,0.06l-0.58-0.34
					c-0.06-0.03-0.11-0.12-0.11-0.19c0-0.07,0.05-0.09,0.11-0.06L144.05,145.06z"/>
			</g>
			<g>
				<path class="st13" d="M143.8,139.96c0.06,0.03,0.11,0.12,0.11,0.19c0,0.07-0.05,0.1-0.11,0.06l-0.58-0.34
					c-0.06-0.03-0.11-0.12-0.11-0.19c0-0.07,0.05-0.1,0.11-0.06L143.8,139.96z"/>
			</g>
			<g class="st18">
				<g>
					<path class="st13" d="M144.88,145.04c0.06,0.03,0.11,0.12,0.11,0.19c0,0.07-0.05,0.09-0.11,0.06l-1.67-0.97
						c-0.06-0.03-0.11-0.12-0.11-0.18c0-0.07,0.05-0.1,0.11-0.06L144.88,145.04z"/>
				</g>
				<g>
					<path class="st13" d="M144.06,142.58c0.06,0.03,0.11,0.12,0.11,0.18c0,0.07-0.05,0.1-0.11,0.06l-0.58-0.34
						c-0.06-0.03-0.11-0.12-0.11-0.19c0-0.07,0.05-0.09,0.11-0.06L144.06,142.58z"/>
				</g>
				<g>
					<path class="st13" d="M144.06,142.09c0.06,0.03,0.11,0.12,0.11,0.18c0,0.07-0.05,0.1-0.11,0.06l-0.58-0.34
						c-0.06-0.03-0.11-0.12-0.11-0.19c0-0.07,0.05-0.09,0.11-0.06L144.06,142.09z"/>
				</g>
				<g>
					<path class="st13" d="M145.83,145.09c0.06,0.03,0.11,0.12,0.11,0.19c0,0.07-0.05,0.09-0.11,0.06l-0.58-0.34
						c-0.06-0.03-0.11-0.12-0.11-0.18c0-0.07,0.05-0.1,0.11-0.06L145.83,145.09z"/>
				</g>
				<g>
					<path class="st13" d="M145.57,143.95c0.06,0.03,0.11,0.12,0.11,0.19c0,0.07-0.05,0.1-0.11,0.06l-1.88-1.09
						c-0.06-0.03-0.11-0.12-0.11-0.19c0-0.07,0.05-0.1,0.11-0.06L145.57,143.95z"/>
				</g>
				<g>
					<path class="st13" d="M146.87,145.69c0.06,0.03,0.11,0.12,0.11,0.19c0,0.07-0.05,0.09-0.11,0.06l-0.58-0.34
						c-0.06-0.03-0.11-0.12-0.11-0.18c0-0.07,0.05-0.1,0.11-0.06L146.87,145.69z"/>
				</g>
				<g>
					<path class="st13" d="M146.53,144.5c0.06,0.03,0.11,0.12,0.11,0.19c0,0.07-0.05,0.1-0.11,0.06l-0.58-0.34
						c-0.06-0.03-0.11-0.12-0.11-0.19c0-0.07,0.05-0.1,0.11-0.06L146.53,144.5z"/>
				</g>
				<g>
					<path class="st13" d="M147.35,145.48c0.06,0.03,0.11,0.12,0.11,0.19c0,0.07-0.05,0.1-0.11,0.06l-3.88-2.24
						c-0.06-0.03-0.11-0.12-0.11-0.19c0-0.07,0.05-0.1,0.11-0.06L147.35,145.48z"/>
				</g>
				<g>
					<path class="st13" d="M146.19,142.82c0.06,0.03,0.11,0.12,0.11,0.19c0,0.07-0.05,0.09-0.11,0.06l-2.08-1.2
						c-0.06-0.03-0.11-0.12-0.11-0.18c0-0.07,0.05-0.1,0.11-0.06L146.19,142.82z"/>
				</g>
				<g>
					<path class="st13" d="M147.18,144.39c0.06,0.03,0.11,0.12,0.11,0.18c0,0.07-0.05,0.1-0.11,0.06l-2.68-1.54
						c-0.06-0.03-0.11-0.12-0.11-0.19c0-0.07,0.05-0.09,0.11-0.06L147.18,144.39z"/>
				</g>
				<g>
					<path class="st13" d="M148.19,145.46c0.06,0.03,0.11,0.12,0.11,0.19c0,0.07-0.05,0.1-0.11,0.06l-1.29-0.74
						c-0.06-0.03-0.11-0.12-0.11-0.19c0-0.07,0.05-0.1,0.11-0.06L148.19,145.46z"/>
				</g>
				<g>
					<path class="st13" d="M145.33,140.35c0.06,0.03,0.11,0.12,0.11,0.18c0,0.07-0.05,0.1-0.11,0.06l-1.13-0.65
						c-0.06-0.03-0.11-0.12-0.11-0.19c0-0.07,0.05-0.09,0.11-0.06L145.33,140.35z"/>
				</g>
				<g>
					<path class="st13" d="M148.19,144.48c0.06,0.03,0.11,0.12,0.11,0.18c0,0.07-0.05,0.1-0.11,0.06l-3.69-2.13
						c-0.06-0.03-0.11-0.12-0.11-0.19c0-0.07,0.05-0.09,0.11-0.06L148.19,144.48z"/>
				</g>
				<g>
					<path class="st13" d="M146.59,141.56c0.06,0.03,0.11,0.12,0.11,0.19c0,0.07-0.05,0.1-0.11,0.06l-2.38-1.37
						c-0.06-0.03-0.11-0.12-0.11-0.19c0-0.07,0.05-0.1,0.11-0.06L146.59,141.56z"/>
				</g>
				<g>
					<path class="st13" d="M148.2,143.98c0.06,0.03,0.11,0.12,0.11,0.19c0,0.07-0.05,0.09-0.11,0.06l-1.62-0.94
						c-0.06-0.03-0.11-0.12-0.11-0.18c0-0.07,0.05-0.1,0.11-0.06L148.2,143.98z"/>
				</g>
				<g>
					<path class="st13" d="M146.07,140.28c0.06,0.03,0.11,0.12,0.11,0.18c0,0.07-0.05,0.1-0.11,0.06l-1.26-0.73
						c-0.06-0.03-0.11-0.12-0.11-0.19c0-0.07,0.05-0.09,0.11-0.06L146.07,140.28z"/>
				</g>
				<g>
					<path class="st13" d="M148.2,143.49c0.06,0.03,0.11,0.12,0.11,0.19c0,0.07-0.05,0.09-0.11,0.06l-3.69-2.13
						c-0.06-0.03-0.11-0.12-0.11-0.18c0-0.07,0.05-0.1,0.11-0.06L148.2,143.49z"/>
				</g>
				<g>
					<path class="st13" d="M148.2,142.99c0.06,0.03,0.11,0.12,0.11,0.19c0,0.07-0.05,0.1-0.11,0.06l-3.69-2.13
						c-0.06-0.03-0.11-0.12-0.11-0.19c0-0.07,0.05-0.1,0.11-0.06L148.2,142.99z"/>
				</g>
				<g>
					<path class="st13" d="M147.05,140.84c0.06,0.03,0.11,0.12,0.11,0.18c0,0.07-0.05,0.1-0.11,0.06l-0.58-0.34
						c-0.06-0.03-0.11-0.12-0.11-0.19c0-0.07,0.05-0.09,0.11-0.06L147.05,140.84z"/>
				</g>
				<g>
					<path class="st13" d="M148.2,142c0.06,0.03,0.11,0.12,0.11,0.18c0,0.07-0.05,0.1-0.11,0.06l-2.52-1.46
						c-0.06-0.03-0.11-0.12-0.11-0.19c0-0.07,0.05-0.09,0.11-0.06L148.2,142z"/>
				</g>
				<g>
					<path class="st13" d="M146.54,139.05c0.06,0.03,0.11,0.12,0.11,0.18c0,0.07-0.05,0.1-0.11,0.06l-0.58-0.34
						c-0.06-0.03-0.11-0.12-0.11-0.19c0-0.07,0.05-0.09,0.11-0.06L146.54,139.05z"/>
				</g>
				<g>
					<path class="st13" d="M148.2,141.51c0.06,0.03,0.11,0.12,0.11,0.18c0,0.07-0.05,0.1-0.11,0.06l-0.8-0.46
						c-0.06-0.03-0.11-0.12-0.11-0.19c0-0.07,0.05-0.09,0.11-0.06L148.2,141.51z"/>
				</g>
				<g>
					<path class="st13" d="M147.37,140.02c0.06,0.03,0.11,0.12,0.11,0.18c0,0.07-0.05,0.1-0.11,0.06l-3.88-2.24
						c-0.06-0.03-0.11-0.12-0.11-0.19c0-0.07,0.05-0.09,0.11-0.06L147.37,140.02z"/>
				</g>
				<g>
					<path class="st13" d="M148.2,141.01c0.06,0.03,0.11,0.12,0.11,0.19c0,0.07-0.05,0.09-0.11,0.06l-3.69-2.13
						c-0.06-0.03-0.11-0.12-0.11-0.18c0-0.07,0.05-0.1,0.11-0.06L148.2,141.01z"/>
				</g>
				<g>
					<path class="st13" d="M147.19,138.93c0.06,0.03,0.11,0.12,0.11,0.19c0,0.07-0.05,0.09-0.11,0.06l-2.68-1.54
						c-0.06-0.03-0.11-0.12-0.11-0.18c0-0.07,0.05-0.1,0.11-0.06L147.19,138.93z"/>
				</g>
			</g>
			<g>
				<path class="st13" d="M141.83,138.82c0.06,0.03,0.11,0.12,0.11,0.19c0,0.07-0.05,0.1-0.11,0.06l-0.58-0.34
					c-0.06-0.03-0.11-0.12-0.11-0.19c0-0.07,0.05-0.1,0.11-0.06L141.83,138.82z"/>
			</g>
			<g>
				<path class="st13" d="M141.83,138.33c0.06,0.03,0.11,0.12,0.11,0.18c0,0.07-0.05,0.1-0.11,0.06l-0.58-0.34
					c-0.06-0.03-0.11-0.12-0.11-0.19c0-0.07,0.05-0.09,0.11-0.06L141.83,138.33z"/>
			</g>
			<g>
				<path class="st13" d="M141.83,137.83c0.06,0.03,0.11,0.12,0.11,0.18c0,0.07-0.05,0.1-0.11,0.06l-0.58-0.34
					c-0.06-0.03-0.11-0.12-0.11-0.19c0-0.07,0.05-0.09,0.11-0.06L141.83,137.83z"/>
			</g>
			<g>
				<path class="st13" d="M148.2,142.5c0.06,0.03,0.11,0.12,0.11,0.19c0,0.07-0.05,0.1-0.11,0.06l-1.2-0.69
					c-0.06-0.03-0.11-0.12-0.11-0.19c0-0.07,0.05-0.1,0.11-0.06L148.2,142.5z"/>
			</g>
			<g>
				<path class="st13" d="M141.83,139.81c0.06,0.03,0.11,0.12,0.11,0.19c0,0.07-0.05,0.09-0.11,0.06l-0.58-0.34
					c-0.06-0.03-0.11-0.12-0.11-0.18c0-0.07,0.05-0.1,0.11-0.06L141.83,139.81z"/>
			</g>
			<g>
				<path class="st13" d="M141.83,139.31c0.06,0.03,0.11,0.12,0.11,0.19s-0.05,0.1-0.11,0.06l-0.58-0.34
					c-0.06-0.03-0.11-0.12-0.11-0.19c0-0.07,0.05-0.1,0.11-0.06L141.83,139.31z"/>
			</g>
			<g>
				<path class="st13" d="M141.82,141.79c0.06,0.03,0.11,0.12,0.11,0.19c0,0.07-0.05,0.1-0.11,0.06l-0.58-0.34
					c-0.06-0.03-0.11-0.12-0.11-0.19c0-0.07,0.05-0.1,0.11-0.06L141.82,141.79z"/>
			</g>
			<g>
				<path class="st13" d="M141.82,141.29c0.06,0.03,0.11,0.12,0.11,0.18c0,0.07-0.05,0.1-0.11,0.06l-0.58-0.34
					c-0.06-0.03-0.11-0.12-0.11-0.19c0-0.07,0.05-0.09,0.11-0.06L141.82,141.29z"/>
			</g>
			<g>
				<path class="st13" d="M141.83,140.8c0.06,0.03,0.11,0.12,0.11,0.18c0,0.07-0.05,0.1-0.11,0.06l-0.58-0.34
					c-0.06-0.03-0.11-0.12-0.11-0.19c0-0.07,0.05-0.09,0.11-0.06L141.83,140.8z"/>
			</g>
			<g>
				<path class="st13" d="M141.83,140.3c0.06,0.03,0.11,0.12,0.11,0.19c0,0.07-0.05,0.09-0.11,0.06l-0.58-0.34
					c-0.06-0.03-0.11-0.12-0.11-0.18c0-0.07,0.05-0.1,0.11-0.06L141.83,140.3z"/>
			</g>
			<g>
				<path class="st13" d="M148.19,144.97c0.06,0.03,0.11,0.12,0.11,0.18c0,0.07-0.05,0.1-0.11,0.06l-0.48-0.28
					c-0.06-0.03-0.11-0.12-0.11-0.19c0-0.07,0.05-0.09,0.11-0.06L148.19,144.97z"/>
			</g>
			<g>
				<path class="st13" d="M141.82,142.28c0.06,0.03,0.11,0.12,0.11,0.19c0,0.07-0.05,0.1-0.11,0.06l-0.58-0.34
					c-0.06-0.03-0.11-0.12-0.11-0.19c0-0.07,0.05-0.1,0.11-0.06L141.82,142.28z"/>
			</g>
			<g>
				<path class="st13" d="M148.19,146.95c0.06,0.03,0.11,0.12,0.11,0.19c0,0.07-0.05,0.09-0.11,0.06l-1.17-0.68
					c-0.06-0.03-0.11-0.12-0.11-0.18c0-0.07,0.05-0.1,0.11-0.06L148.19,146.95z"/>
			</g>
			<g>
				<path class="st13" d="M148.19,145.96c0.06,0.03,0.11,0.12,0.11,0.19c0,0.07-0.05,0.1-0.11,0.06l-0.48-0.28
					c-0.06-0.03-0.11-0.12-0.11-0.19c0-0.07,0.05-0.1,0.11-0.06L148.19,145.96z"/>
			</g>
			<g>
				<path class="st13" d="M141.84,135.84c0.06,0.03,0.11,0.12,0.11,0.19c0,0.07-0.05,0.09-0.11,0.06l-0.58-0.34
					c-0.06-0.03-0.11-0.12-0.11-0.18c0-0.07,0.05-0.1,0.11-0.06L141.84,135.84z"/>
			</g>
			<g>
				<path class="st13" d="M145.58,138.5c0.06,0.03,0.11,0.12,0.11,0.18c0,0.07-0.05,0.1-0.11,0.06l-1.88-1.09
					c-0.06-0.03-0.11-0.12-0.11-0.19c0-0.07,0.05-0.09,0.11-0.06L145.58,138.5z"/>
			</g>
			<g>
				<path class="st13" d="M144.08,137.13c0.06,0.03,0.11,0.12,0.11,0.19c0,0.07-0.05,0.09-0.11,0.06l-0.58-0.34
					c-0.06-0.03-0.11-0.12-0.11-0.18c0-0.07,0.05-0.1,0.11-0.06L144.08,137.13z"/>
			</g>
			<g>
				<path class="st13" d="M148.21,139.52c0.06,0.03,0.11,0.12,0.11,0.19c0,0.07-0.05,0.09-0.11,0.06l-0.48-0.28
					c-0.06-0.03-0.11-0.12-0.11-0.18c0-0.07,0.05-0.1,0.11-0.06L148.21,139.52z"/>
			</g>
			<g>
				<path class="st13" d="M148.21,140.51c0.06,0.03,0.11,0.12,0.11,0.18c0,0.07-0.05,0.1-0.11,0.06l-0.48-0.28
					c-0.06-0.03-0.11-0.12-0.11-0.19c0-0.07,0.05-0.09,0.11-0.06L148.21,140.51z"/>
			</g>
			<g>
				<path class="st13" d="M148.21,140.01c0.06,0.03,0.11,0.12,0.11,0.18c0,0.07-0.05,0.1-0.11,0.06l-1.29-0.74
					c-0.06-0.03-0.11-0.12-0.11-0.19c0-0.07,0.05-0.09,0.11-0.06L148.21,140.01z"/>
			</g>
			<g>
				<path class="st13" d="M141.82,142.78c0.06,0.03,0.11,0.12,0.11,0.19c0,0.07-0.05,0.09-0.11,0.06l-0.58-0.34
					c-0.06-0.03-0.11-0.12-0.11-0.18c0-0.07,0.05-0.1,0.11-0.06L141.82,142.78z"/>
			</g>
			<g>
				<path class="st13" d="M148.19,146.45c0.06,0.03,0.11,0.12,0.11,0.19c0,0.07-0.05,0.09-0.11,0.06l-0.93-0.54
					c-0.06-0.03-0.11-0.12-0.11-0.18c0-0.07,0.05-0.1,0.11-0.06L148.19,146.45z"/>
			</g>
			<g>
				<path class="st13" d="M141.82,143.27c0.06,0.03,0.11,0.12,0.11,0.19c0,0.07-0.05,0.09-0.11,0.06l-0.58-0.34
					c-0.06-0.03-0.11-0.12-0.11-0.18c0-0.07,0.05-0.1,0.11-0.06L141.82,143.27z"/>
			</g>
			<g>
				<path class="st13" d="M141.82,143.77c0.06,0.03,0.11,0.12,0.11,0.18c0,0.07-0.05,0.1-0.11,0.06l-0.58-0.34
					c-0.06-0.03-0.11-0.12-0.11-0.19c0-0.07,0.05-0.09,0.11-0.06L141.82,143.77z"/>
			</g>
		</g>
		<g>
			<g>
				<path class="st13" d="M156.66,142.66c0.06-0.03,0.11-0.01,0.11,0.06c0,0.07-0.05,0.15-0.11,0.18l-0.58,0.34
					c-0.06,0.03-0.11,0.01-0.11-0.06c0-0.07,0.05-0.15,0.11-0.18L156.66,142.66z"/>
			</g>
			<g>
				<path class="st13" d="M156.66,142.16c0.06-0.03,0.11-0.01,0.11,0.06c0,0.07-0.05,0.15-0.11,0.18l-0.58,0.34
					c-0.06,0.03-0.11,0.01-0.11-0.06c0-0.07,0.05-0.15,0.11-0.18L156.66,142.16z"/>
			</g>
			<g>
				<path class="st13" d="M156.66,141.67c0.06-0.03,0.11-0.01,0.11,0.06c0,0.07-0.05,0.15-0.11,0.18l-0.58,0.34
					c-0.06,0.03-0.11,0.01-0.11-0.06c0-0.07,0.05-0.15,0.11-0.19L156.66,141.67z"/>
			</g>
			<g>
				<path class="st13" d="M156.66,141.17c0.06-0.03,0.11-0.01,0.11,0.06c0,0.07-0.05,0.15-0.11,0.18l-0.58,0.34
					c-0.06,0.03-0.11,0.01-0.11-0.06c0-0.07,0.05-0.15,0.11-0.19L156.66,141.17z"/>
			</g>
			<g>
				<path class="st13" d="M163.03,138.49c0.06-0.03,0.11-0.01,0.11,0.06c0,0.07-0.05,0.15-0.11,0.19l-2.52,1.46
					c-0.06,0.03-0.11,0.01-0.11-0.06c0-0.07,0.05-0.15,0.11-0.18L163.03,138.49z"/>
			</g>
			<g>
				<path class="st13" d="M163.03,138.98c0.06-0.03,0.11-0.01,0.11,0.06c0,0.07-0.05,0.15-0.11,0.19l-1.2,0.69
					c-0.06,0.03-0.11,0.01-0.11-0.06c0-0.07,0.05-0.15,0.11-0.18L163.03,138.98z"/>
			</g>
			<g>
				<path class="st13" d="M158.9,143.84c0.06-0.03,0.11-0.01,0.11,0.06c0,0.07-0.05,0.15-0.11,0.19l-0.58,0.34
					c-0.06,0.03-0.11,0.01-0.11-0.06c0-0.07,0.05-0.15,0.11-0.18L158.9,143.84z"/>
			</g>
			<g>
				<path class="st13" d="M161.37,142.91c0.06-0.03,0.11-0.01,0.11,0.06c0,0.07-0.05,0.15-0.11,0.18l-0.58,0.34
					c-0.06,0.03-0.11,0.01-0.11-0.06c0-0.07,0.05-0.15,0.11-0.18L161.37,142.91z"/>
			</g>
			<g>
				<path class="st13" d="M163.04,143.43c0.06-0.03,0.11-0.01,0.11,0.06c0,0.07-0.05,0.15-0.11,0.18l-1.17,0.67
					c-0.06,0.03-0.11,0.01-0.11-0.06c0-0.07,0.05-0.15,0.11-0.19L163.04,143.43z"/>
			</g>
			<g class="st18">
				<g>
					<path class="st13" d="M161.53,144.31c0.06-0.03,0.11-0.01,0.11,0.06c0,0.07-0.05,0.15-0.11,0.18l-1.35,0.78
						c-0.06,0.03-0.11,0.01-0.11-0.06c0-0.07,0.05-0.15,0.11-0.19L161.53,144.31z"/>
				</g>
				<g>
					<path class="st13" d="M163.04,143.93c0.06-0.03,0.11-0.01,0.11,0.06c0,0.07-0.05,0.15-0.11,0.18l-3.69,2.13
						c-0.06,0.03-0.11,0.01-0.11-0.06c0-0.07,0.05-0.15,0.11-0.19L163.04,143.93z"/>
				</g>
				<g>
					<path class="st13" d="M160.68,144.3c0.06-0.03,0.11-0.01,0.11,0.06c0,0.07-0.05,0.15-0.11,0.18l-0.58,0.34
						c-0.06,0.03-0.11,0.01-0.11-0.06c0-0.07,0.05-0.15,0.11-0.19L160.68,144.3z"/>
				</g>
				<g>
					<path class="st13" d="M162.2,142.93c0.06-0.03,0.11-0.01,0.11,0.06c0,0.07-0.05,0.15-0.11,0.18l-3.87,2.24
						c-0.06,0.03-0.11,0.01-0.11-0.06c0-0.07,0.05-0.15,0.11-0.19L162.2,142.93z"/>
				</g>
				<g>
					<path class="st13" d="M160.41,143.46c0.06-0.03,0.11-0.01,0.11,0.06c0,0.07-0.05,0.15-0.11,0.18l-1.88,1.09
						c-0.06,0.03-0.11,0.01-0.11-0.06c0-0.07,0.05-0.15,0.11-0.18L160.41,143.46z"/>
				</g>
			</g>
			<g>
				<path class="st13" d="M163.04,142.44c0.06-0.03,0.11-0.01,0.11,0.06c0,0.07-0.05,0.15-0.11,0.19l-0.48,0.28
					c-0.06,0.03-0.11,0.01-0.11-0.06c0-0.07,0.05-0.15,0.11-0.19L163.04,142.44z"/>
			</g>
			<g>
				<path class="st13" d="M163.04,142.94c0.06-0.03,0.11-0.01,0.11,0.06c0,0.07-0.05,0.15-0.11,0.18l-0.93,0.54
					c-0.06,0.03-0.11,0.01-0.11-0.06c0-0.07,0.05-0.15,0.11-0.19L163.04,142.94z"/>
			</g>
			<g>
				<path class="st13" d="M163.03,141.95c0.06-0.03,0.11-0.01,0.11,0.06c0,0.07-0.05,0.15-0.11,0.19l-1.28,0.74
					c-0.06,0.03-0.11,0.01-0.11-0.06c0-0.07,0.05-0.15,0.11-0.18L163.03,141.95z"/>
			</g>
			<g>
				<path class="st13" d="M163.03,141.46c0.06-0.03,0.11-0.01,0.11,0.06c0,0.07-0.05,0.15-0.11,0.19l-0.48,0.28
					c-0.06,0.03-0.11,0.01-0.11-0.06c0-0.07,0.05-0.15,0.11-0.18L163.03,141.46z"/>
			</g>
			<g>
				<path class="st13" d="M161.72,143.7c0.06-0.03,0.11-0.01,0.11,0.06c0,0.07-0.05,0.15-0.11,0.18l-0.58,0.34
					c-0.06,0.03-0.11,0.01-0.11-0.06c0-0.07,0.05-0.15,0.11-0.18L161.72,143.7z"/>
			</g>
			<g>
				<path class="st13" d="M163.03,140.47c0.06-0.03,0.11-0.01,0.11,0.06c0,0.07-0.05,0.15-0.11,0.18l-1.62,0.94
					c-0.06,0.03-0.11,0.01-0.11-0.06c0-0.07,0.05-0.15,0.11-0.19L163.03,140.47z"/>
			</g>
			<g>
				<path class="st13" d="M162.02,142.04c0.06-0.03,0.11-0.01,0.11,0.06c0,0.07-0.05,0.15-0.11,0.18l-2.67,1.54
					c-0.06,0.03-0.11,0.01-0.11-0.06c0-0.07,0.05-0.15,0.11-0.18L162.02,142.04z"/>
			</g>
			<g>
				<path class="st13" d="M163.03,140.96c0.06-0.03,0.11-0.01,0.11,0.06c0,0.07-0.05,0.15-0.11,0.18l-3.69,2.13
					c-0.06,0.03-0.11,0.01-0.11-0.06c0-0.07,0.05-0.15,0.11-0.19L163.03,140.96z"/>
			</g>
			<g>
				<path class="st13" d="M163.03,139.97c0.06-0.03,0.11-0.01,0.11,0.06c0,0.07-0.05,0.15-0.11,0.18l-3.69,2.13
					c-0.06,0.03-0.11,0.01-0.11-0.06c0-0.07,0.05-0.15,0.11-0.19L163.03,139.97z"/>
			</g>
			<g>
				<path class="st13" d="M163.03,139.48c0.06-0.03,0.11-0.01,0.11,0.06c0,0.07-0.05,0.15-0.11,0.19l-3.69,2.13
					c-0.06,0.03-0.11,0.01-0.11-0.06c0-0.07,0.05-0.15,0.11-0.19L163.03,139.48z"/>
			</g>
			<g>
				<path class="st13" d="M161.42,139.92c0.06-0.03,0.11-0.01,0.11,0.06c0,0.07-0.05,0.15-0.11,0.19l-2.38,1.37
					c-0.06,0.03-0.11,0.01-0.11-0.06c0-0.07,0.05-0.15,0.11-0.18L161.42,139.92z"/>
			</g>
			<g>
				<path class="st13" d="M160.16,140.14c0.06-0.03,0.11-0.01,0.11,0.06c0,0.07-0.05,0.15-0.11,0.19l-1.13,0.65
					c-0.06,0.03-0.11,0.01-0.11-0.06c0-0.07,0.05-0.15,0.11-0.18L160.16,140.14z"/>
			</g>
			<g>
				<path class="st13" d="M158.89,139.89c0.06-0.03,0.11-0.01,0.11,0.06c0,0.07-0.05,0.15-0.11,0.18l-0.58,0.34
					c-0.06,0.03-0.11,0.01-0.11-0.06c0-0.07,0.05-0.15,0.11-0.19L158.89,139.89z"/>
			</g>
			<g>
				<path class="st13" d="M161.87,138.66c0.06-0.03,0.11-0.01,0.11,0.06c0,0.07-0.05,0.15-0.11,0.18l-0.58,0.34
					c-0.06,0.03-0.11,0.01-0.11-0.06c0-0.07,0.05-0.15,0.11-0.19L161.87,138.66z"/>
			</g>
			<g>
				<path class="st13" d="M160.9,139.22c0.06-0.03,0.11-0.01,0.11,0.06c0,0.07-0.05,0.15-0.11,0.18l-1.26,0.73
					c-0.06,0.03-0.11,0.01-0.11-0.06c0-0.07,0.05-0.15,0.11-0.19L160.9,139.22z"/>
			</g>
			<g>
				<path class="st13" d="M163.02,138c0.06-0.03,0.11-0.01,0.11,0.06c0,0.07-0.05,0.15-0.11,0.18l-0.8,0.46
					c-0.06,0.03-0.11,0.01-0.11-0.06c0-0.07,0.05-0.15,0.11-0.19L163.02,138z"/>
			</g>
			<g>
				<path class="st13" d="M163.02,137.5c0.06-0.03,0.11-0.01,0.11,0.06c0,0.07-0.05,0.15-0.11,0.18l-3.69,2.13
					c-0.06,0.03-0.11,0.01-0.11-0.06c0-0.07,0.05-0.15,0.11-0.19L163.02,137.5z"/>
			</g>
			<g>
				<path class="st13" d="M161.02,141.63c0.06-0.03,0.11-0.01,0.11,0.06c0,0.07-0.05,0.15-0.11,0.18l-2.07,1.2
					c-0.06,0.03-0.11,0.01-0.11-0.06c0-0.07,0.05-0.15,0.11-0.18L161.02,141.63z"/>
			</g>
			<g>
				<path class="st13" d="M158.9,141.86c0.06-0.03,0.11-0.01,0.11,0.06c0,0.07-0.05,0.15-0.11,0.19l-0.58,0.34
					c-0.06,0.03-0.11,0.01-0.11-0.06c0-0.07,0.05-0.15,0.11-0.19L158.9,141.86z"/>
			</g>
			<g>
				<path class="st13" d="M158.63,141.52c0.06-0.03,0.11-0.01,0.11,0.06c0,0.07-0.05,0.15-0.11,0.19l-0.58,0.34
					c-0.06,0.03-0.11,0.01-0.11-0.06c0-0.07,0.05-0.15,0.11-0.18L158.63,141.52z"/>
			</g>
			<g>
				<path class="st13" d="M156.67,144.14c0.06-0.03,0.11-0.01,0.11,0.06c0,0.07-0.05,0.15-0.11,0.18l-0.58,0.34
					c-0.06,0.03-0.11,0.01-0.11-0.06c0-0.07,0.05-0.15,0.11-0.19L156.67,144.14z"/>
			</g>
			<g class="st18">
				<g>
					<path class="st13" d="M156.67,143.65c0.06-0.03,0.11-0.01,0.11,0.06c0,0.07-0.05,0.15-0.11,0.18l-0.58,0.34
						c-0.06,0.03-0.11,0.01-0.11-0.06c0-0.07,0.05-0.15,0.11-0.19L156.67,143.65z"/>
				</g>
				<g>
					<path class="st13" d="M156.67,143.15c0.06-0.03,0.11-0.01,0.11,0.06c0,0.07-0.05,0.15-0.11,0.18l-0.58,0.34
						c-0.06,0.03-0.11,0.01-0.11-0.06c0-0.07,0.05-0.15,0.11-0.19L156.67,143.15z"/>
				</g>
			</g>
			<g>
				<path class="st13" d="M158.9,142.36c0.06-0.03,0.11-0.01,0.11,0.06c0,0.07-0.05,0.15-0.11,0.18l-0.58,0.34
					c-0.06,0.03-0.11,0.01-0.11-0.06c0-0.07,0.05-0.15,0.11-0.19L158.9,142.36z"/>
			</g>
			<g>
				<path class="st13" d="M156.66,139.67c0.06-0.03,0.11-0.01,0.11,0.06c0,0.07-0.05,0.15-0.11,0.18l-0.58,0.34
					c-0.06,0.03-0.11,0.01-0.11-0.06c0-0.07,0.05-0.15,0.11-0.18L156.66,139.67z"/>
			</g>
			<g>
				<path class="st13" d="M163.03,136c0.06-0.03,0.11-0.01,0.11,0.06c0,0.07-0.05,0.15-0.11,0.19l-1.2,0.69
					c-0.06,0.03-0.11,0.01-0.11-0.06c0-0.07,0.05-0.15,0.11-0.18L163.03,136z"/>
			</g>
			<g>
				<path class="st13" d="M163.03,136.99c0.06-0.03,0.11-0.01,0.11,0.06c0,0.07-0.05,0.15-0.11,0.18l-3.69,2.13
					c-0.06,0.03-0.11,0.01-0.11-0.06c0-0.07,0.05-0.15,0.11-0.19L163.03,136.99z"/>
			</g>
			<g>
				<path class="st13" d="M163.03,136.49c0.06-0.03,0.11-0.01,0.11,0.06c0,0.07-0.05,0.15-0.11,0.19l-3.69,2.13
					c-0.06,0.03-0.11,0.01-0.11-0.06c0-0.07,0.05-0.15,0.11-0.19L163.03,136.49z"/>
			</g>
			<g>
				<path class="st13" d="M161.42,136.93c0.06-0.03,0.11-0.01,0.11,0.06c0,0.07-0.05,0.15-0.11,0.19l-2.38,1.37
					c-0.06,0.03-0.11,0.01-0.11-0.06c0-0.07,0.05-0.15,0.11-0.18L161.42,136.93z"/>
			</g>
			<g>
				<path class="st13" d="M158.9,138.88c0.06-0.03,0.11-0.01,0.11,0.06c0,0.07-0.05,0.15-0.11,0.19l-0.58,0.34
					c-0.06,0.03-0.11,0.01-0.11-0.06c0-0.07,0.05-0.15,0.11-0.19L158.9,138.88z"/>
			</g>
			<g>
				<path class="st13" d="M158.63,138.54c0.06-0.03,0.11-0.01,0.11,0.06c0,0.07-0.05,0.15-0.11,0.19l-0.58,0.34
					c-0.06,0.03-0.11,0.01-0.11-0.06c0-0.07,0.05-0.15,0.11-0.18L158.63,138.54z"/>
			</g>
			<g class="st18">
				<g>
					<path class="st13" d="M156.67,140.66c0.06-0.03,0.11-0.01,0.11,0.06c0,0.07-0.05,0.15-0.11,0.18l-0.58,0.34
						c-0.06,0.03-0.11,0.01-0.11-0.06c0-0.07,0.05-0.15,0.11-0.19L156.67,140.66z"/>
				</g>
				<g>
					<path class="st13" d="M156.67,140.17c0.06-0.03,0.11-0.01,0.11,0.06c0,0.07-0.05,0.15-0.11,0.18l-0.58,0.34
						c-0.06,0.03-0.11,0.01-0.11-0.06c0-0.07,0.05-0.15,0.11-0.19L156.67,140.17z"/>
				</g>
			</g>
			<g>
				<path class="st13" d="M158.9,139.37c0.06-0.03,0.11-0.01,0.11,0.06c0,0.07-0.05,0.15-0.11,0.18l-0.58,0.34
					c-0.06,0.03-0.11,0.01-0.11-0.06c0-0.07,0.05-0.15,0.11-0.19L158.9,139.37z"/>
			</g>
			<g>
				<path class="st13" d="M156.67,146.61c0.06-0.03,0.11-0.01,0.11,0.06c0,0.07-0.05,0.15-0.11,0.18l-0.58,0.34
					c-0.06,0.03-0.11,0.01-0.11-0.06c0-0.07,0.05-0.15,0.11-0.19L156.67,146.61z"/>
			</g>
			<g>
				<path class="st13" d="M156.67,146.12c0.06-0.03,0.11-0.01,0.11,0.06c0,0.07-0.05,0.15-0.11,0.18l-0.58,0.34
					c-0.06,0.03-0.11,0.01-0.11-0.06c0-0.07,0.05-0.15,0.11-0.19L156.67,146.12z"/>
			</g>
			<g>
				<path class="st13" d="M156.67,145.62c0.06-0.03,0.11-0.01,0.11,0.06c0,0.07-0.05,0.15-0.11,0.18l-0.58,0.34
					c-0.06,0.03-0.11,0.01-0.11-0.06c0-0.07,0.05-0.15,0.11-0.18L156.67,145.62z"/>
			</g>
			<g>
				<path class="st13" d="M156.67,145.13c0.06-0.03,0.11-0.01,0.11,0.06c0,0.07-0.05,0.15-0.11,0.18l-0.58,0.34
					c-0.06,0.03-0.11,0.01-0.11-0.06c0-0.07,0.05-0.15,0.11-0.18L156.67,145.13z"/>
			</g>
			<g>
				<path class="st13" d="M156.67,144.64c0.06-0.03,0.11-0.01,0.11,0.06c0,0.07-0.05,0.15-0.11,0.18l-0.58,0.34
					c-0.06,0.03-0.11,0.01-0.11-0.06c0-0.07,0.05-0.15,0.11-0.19L156.67,144.64z"/>
			</g>
			<g>
				<path class="st13" d="M158.9,143.35c0.06-0.03,0.11-0.01,0.11,0.06c0,0.07-0.05,0.15-0.11,0.18l-0.58,0.34
					c-0.06,0.03-0.11,0.01-0.11-0.06c0-0.07,0.05-0.15,0.11-0.19L158.9,143.35z"/>
			</g>
			<g>
				<path class="st13" d="M156.68,147.6c0.06-0.03,0.11-0.01,0.11,0.06c0,0.07-0.05,0.15-0.11,0.18l-0.58,0.34
					c-0.06,0.03-0.11,0.01-0.11-0.06c0-0.07,0.05-0.15,0.11-0.19L156.68,147.6z"/>
			</g>
			<g>
				<path class="st13" d="M156.68,147.11c0.06-0.03,0.11-0.01,0.11,0.06c0,0.07-0.05,0.15-0.11,0.18l-0.58,0.34
					c-0.06,0.03-0.11,0.01-0.11-0.06c0-0.07,0.05-0.15,0.11-0.19L156.68,147.11z"/>
			</g>
			<g>
				<path class="st13" d="M158.91,146.31c0.06-0.03,0.11-0.01,0.11,0.06c0,0.07-0.05,0.15-0.11,0.18l-0.58,0.34
					c-0.06,0.03-0.11,0.01-0.11-0.06c0-0.07,0.05-0.15,0.11-0.19L158.91,146.31z"/>
			</g>
			<g>
				<path class="st13" d="M159.74,145.34c0.06-0.03,0.11-0.01,0.11,0.06c0,0.07-0.05,0.15-0.11,0.18l-1.67,0.96
					c-0.06,0.03-0.11,0.01-0.11-0.06c0-0.07,0.05-0.15,0.11-0.18L159.74,145.34z"/>
			</g>
		</g>
	</g>
	<g>
		<path class="st11" d="M46.08,79.55c0,0.02,0,0.04,0,0.06c0,0.02,0,0.03-0.01,0.05c0,0.02-0.01,0.04-0.01,0.06
			c0,0.02-0.01,0.03-0.01,0.05c0,0.02-0.01,0.04-0.01,0.06c0,0.02-0.01,0.03-0.01,0.05c-0.01,0.02-0.01,0.04-0.02,0.06
			c-0.01,0.02-0.01,0.03-0.02,0.05c-0.01,0.02-0.02,0.04-0.02,0.06c-0.01,0.02-0.01,0.03-0.02,0.05c-0.01,0.02-0.02,0.04-0.03,0.06
			c-0.01,0.02-0.02,0.03-0.03,0.05c-0.01,0.02-0.03,0.05-0.04,0.07c-0.01,0.01-0.02,0.03-0.03,0.04c-0.02,0.03-0.04,0.05-0.05,0.08
			c-0.01,0.01-0.02,0.02-0.02,0.03c-0.03,0.04-0.07,0.08-0.1,0.12c-0.01,0.01-0.02,0.02-0.03,0.03c-0.03,0.03-0.06,0.06-0.09,0.09
			c-0.01,0.01-0.03,0.03-0.04,0.04c-0.02,0.02-0.04,0.03-0.06,0.05c-0.02,0.01-0.04,0.03-0.05,0.04c-0.02,0.02-0.04,0.03-0.06,0.05
			c-0.02,0.01-0.04,0.03-0.06,0.04c-0.02,0.02-0.04,0.03-0.07,0.05c-0.02,0.01-0.04,0.03-0.06,0.04c-0.02,0.02-0.05,0.03-0.07,0.04
			c-0.03,0.02-0.06,0.04-0.09,0.05l-9.61,5.59c-0.08,0.05-0.17,0.09-0.26,0.14c-0.02,0.01-0.05,0.02-0.07,0.03
			c-0.08,0.04-0.16,0.07-0.25,0.11c-0.01,0-0.02,0.01-0.03,0.01c-0.09,0.03-0.18,0.07-0.28,0.1c-0.07,0.02-0.13,0.04-0.2,0.06
			c-0.05,0.01-0.1,0.03-0.15,0.04c-0.07,0.02-0.14,0.03-0.22,0.05c-0.05,0.01-0.1,0.02-0.16,0.03c-0.02,0-0.04,0.01-0.07,0.01
			c-0.09,0.01-0.18,0.03-0.27,0.04c-0.03,0-0.05,0.01-0.08,0.01c-0.05,0.01-0.1,0.01-0.16,0.01c-0.09,0.01-0.17,0.01-0.26,0.02
			c-0.06,0-0.11,0-0.17,0c-0.07,0-0.14,0-0.21,0c-0.06,0-0.12,0-0.18,0c-0.07,0-0.13-0.01-0.2-0.01c-0.06,0-0.12-0.01-0.18-0.01
			c-0.06-0.01-0.13-0.01-0.19-0.02c-0.06-0.01-0.12-0.02-0.17-0.02c-0.07-0.01-0.14-0.02-0.21-0.04c-0.05-0.01-0.11-0.02-0.16-0.03
			c-0.08-0.02-0.16-0.04-0.24-0.06c-0.05-0.01-0.1-0.03-0.15-0.04c-0.03-0.01-0.05-0.02-0.08-0.03c-0.08-0.03-0.16-0.05-0.24-0.08
			c-0.02-0.01-0.05-0.02-0.07-0.02c-0.07-0.03-0.14-0.06-0.21-0.09c-0.03-0.01-0.07-0.03-0.1-0.04c-0.1-0.05-0.19-0.1-0.28-0.15
			l-9.68-5.59c-0.77-0.44-1.15-1.02-1.15-1.6l-0.04,14.25c0,0.58,0.38,1.16,1.15,1.6l9.68,5.59c0.09,0.05,0.19,0.1,0.28,0.15
			c0.03,0.02,0.07,0.03,0.1,0.04c0.06,0.03,0.12,0.05,0.18,0.08c0.01,0,0.02,0.01,0.03,0.01c0.02,0.01,0.05,0.02,0.07,0.02
			c0.08,0.03,0.16,0.06,0.24,0.08c0.03,0.01,0.05,0.02,0.08,0.03c0.02,0.01,0.04,0.01,0.05,0.02c0.03,0.01,0.07,0.02,0.1,0.02
			c0.08,0.02,0.16,0.04,0.24,0.06c0.02,0,0.04,0.01,0.06,0.02c0.03,0.01,0.06,0.01,0.1,0.02c0.07,0.01,0.14,0.03,0.21,0.04
			c0.03,0,0.05,0.01,0.08,0.01c0.03,0,0.06,0.01,0.09,0.01c0.06,0.01,0.13,0.02,0.19,0.02c0.03,0,0.06,0.01,0.09,0.01
			c0.03,0,0.06,0,0.09,0c0.07,0,0.13,0.01,0.2,0.01c0.03,0,0.07,0,0.1,0.01c0.03,0,0.05,0,0.08,0c0.07,0,0.14,0,0.21,0
			c0.04,0,0.07,0,0.11,0c0.02,0,0.04,0,0.06,0c0.09,0,0.17-0.01,0.26-0.02c0.04,0,0.07,0,0.11-0.01c0.02,0,0.03,0,0.05-0.01
			c0.03,0,0.05-0.01,0.08-0.01c0.09-0.01,0.18-0.02,0.27-0.04c0.02,0,0.04-0.01,0.07-0.01c0.01,0,0.02,0,0.03,0
			c0.04-0.01,0.08-0.02,0.12-0.03c0.07-0.01,0.14-0.03,0.22-0.05c0.05-0.01,0.1-0.03,0.15-0.04c0.07-0.02,0.13-0.04,0.2-0.06
			c0.01,0,0.03-0.01,0.04-0.01c0.08-0.03,0.16-0.05,0.24-0.08c0.01,0,0.02-0.01,0.03-0.01c0.08-0.03,0.17-0.07,0.25-0.11
			c0.02-0.01,0.05-0.02,0.07-0.03c0.09-0.04,0.18-0.09,0.26-0.14l9.61-5.59c0.02-0.01,0.03-0.02,0.05-0.03
			c0.01-0.01,0.03-0.02,0.04-0.03c0.02-0.01,0.05-0.03,0.07-0.04c0.02-0.01,0.04-0.03,0.06-0.04c0.02-0.02,0.04-0.03,0.07-0.05
			c0.02-0.01,0.04-0.03,0.06-0.04c0.02-0.02,0.04-0.03,0.06-0.05c0.02-0.01,0.04-0.03,0.05-0.04c0.02-0.02,0.04-0.03,0.06-0.05
			c0.01-0.01,0.02-0.01,0.02-0.02c0.01-0.01,0.01-0.01,0.02-0.02c0.03-0.03,0.06-0.06,0.09-0.09c0.01-0.01,0.02-0.02,0.03-0.03
			c0.04-0.04,0.07-0.08,0.1-0.12c0,0,0,0,0,0c0.01-0.01,0.01-0.02,0.02-0.03c0.02-0.02,0.04-0.05,0.05-0.08
			c0.01-0.01,0.02-0.03,0.03-0.04c0.01-0.02,0.03-0.05,0.04-0.07c0-0.01,0.01-0.01,0.01-0.02c0.01-0.01,0.01-0.02,0.01-0.03
			c0.01-0.02,0.02-0.04,0.03-0.06c0.01-0.02,0.02-0.03,0.02-0.05c0.01-0.02,0.02-0.04,0.02-0.06c0-0.01,0.01-0.02,0.01-0.03
			c0-0.01,0.01-0.02,0.01-0.02c0.01-0.02,0.01-0.04,0.02-0.06c0.01-0.02,0.01-0.03,0.02-0.05c0.01-0.02,0.01-0.04,0.01-0.06
			c0-0.01,0.01-0.02,0.01-0.03c0-0.01,0-0.01,0-0.02c0-0.02,0.01-0.04,0.01-0.06c0-0.02,0-0.03,0.01-0.05c0-0.02,0-0.04,0-0.06
			c0-0.01,0-0.02,0-0.03c0-0.01,0-0.02,0-0.03l0.04-14.25C46.09,79.51,46.09,79.53,46.08,79.55z"/>
		<g>
			<path class="st6" d="M44.94,77.88c1.52,0.88,1.53,2.3,0.02,3.18l-9.61,5.59c-1.51,0.88-3.97,0.88-5.49,0l-9.68-5.59
				c-1.52-0.88-1.53-2.3-0.02-3.18l9.61-5.59c1.51-0.88,3.97-0.88,5.49,0L44.94,77.88z"/>
		</g>
		<g>
			<g>
				<g>
					<polygon class="st12" points="44.29,83.65 44.32,93.37 35.86,98.25 35.84,88.53 					"/>
				</g>
			</g>
			<g>
				<polygon class="st13" points="44.32,93.37 43.92,93.13 43.89,83.88 44.29,83.65 				"/>
			</g>
			<g>
				<polygon class="st13" points="35.86,98.25 35.86,97.79 43.92,93.13 44.32,93.37 				"/>
			</g>
		</g>
		<g>
			<g>
				<g>
					<polygon class="st12" points="20.77,83.16 20.74,92.88 29.2,97.76 29.23,88.04 					"/>
				</g>
			</g>
			<g>
				<polygon class="st13" points="20.74,92.88 21.14,92.64 21.17,83.39 20.77,83.16 				"/>
			</g>
			<g>
				<polygon class="st13" points="29.2,97.76 29.2,97.29 21.14,92.64 20.74,92.88 				"/>
			</g>
		</g>
		<g>
			<g>
				<path class="st14" d="M43.53,78.06c1.35,0.78,1.36,2.04,0.02,2.82l-8.52,4.95c-1.34,0.78-3.52,0.78-4.87,0l-8.58-4.95
					c-1.35-0.78-1.36-2.04-0.02-2.82l8.52-4.95c1.34-0.78,3.52-0.78,4.87,0L43.53,78.06z"/>
			</g>
		</g>
		<g>
			<path class="st13" d="M39.31,78.61c0.83,0.48,0.83,1.26,0.01,1.73l-5.24,3.04c-0.82,0.48-2.16,0.48-2.99,0l-5.27-3.04
				c-0.83-0.48-0.83-1.26-0.01-1.73l5.24-3.04c0.82-0.48,2.16-0.48,2.99,0L39.31,78.61z"/>
		</g>
		<g>
			<defs>
				<path id="SVGID_3_" d="M39.31,78.61c0.83,0.48,0.83,1.26,0.01,1.73l-5.24,3.04c-0.82,0.48-2.16,0.48-2.99,0l-5.27-3.04
					c-0.83-0.48-0.83-1.26-0.01-1.73l5.24-3.04c0.82-0.48,2.16-0.48,2.99,0L39.31,78.61z"/>
			</defs>
			<clipPath id="SVGID_4_">
				<use xlink:href="#SVGID_3_"  style="overflow:visible;"/>
			</clipPath>
			<g class="st19">
				<g>
					<path class="st8" d="M39.31,79.12c0.83,0.48,0.83,1.26,0.01,1.73l-5.24,3.04c-0.82,0.48-2.16,0.48-2.99,0l-5.27-3.04
						c-0.83-0.48-0.83-1.26-0.01-1.73l5.24-3.04c0.82-0.48,2.16-0.48,2.99,0L39.31,79.12z"/>
				</g>
				<path class="st16" d="M38.08,79.28c0.68,0.39,0.68,1.03,0.01,1.42l-4.28,2.49c-0.67,0.39-1.77,0.39-2.45,0l-4.31-2.49
					c-0.68-0.39-0.68-1.03-0.01-1.42l4.28-2.49c0.67-0.39,1.77-0.39,2.45,0L38.08,79.28z"/>
				<path class="st17" d="M36.85,79.44c0.53,0.3,0.53,0.8,0.01,1.1l-3.33,1.94c-0.52,0.3-1.38,0.3-1.9,0l-3.35-1.94
					c-0.53-0.3-0.53-0.8-0.01-1.1l3.33-1.94c0.52-0.3,1.38-0.3,1.9,0L36.85,79.44z"/>
				<g>
					<path class="st7" d="M35.62,79.6c0.38,0.22,0.38,0.57,0,0.79l-2.38,1.38c-0.37,0.22-0.98,0.22-1.36,0l-2.39-1.38
						c-0.38-0.22-0.38-0.57,0-0.79l2.38-1.38c0.37-0.22,0.98-0.22,1.36,0L35.62,79.6z"/>
				</g>
			</g>
		</g>
		<g>
			<g>
				<path class="st13" d="M22.23,85.07c0.06,0.03,0.11,0.12,0.11,0.18c0,0.07-0.05,0.1-0.11,0.06l-0.58-0.34
					c-0.06-0.03-0.11-0.12-0.11-0.19c0-0.07,0.05-0.09,0.11-0.06L22.23,85.07z"/>
			</g>
			<g>
				<path class="st13" d="M22.23,85.56c0.06,0.03,0.11,0.12,0.11,0.18s-0.05,0.1-0.11,0.06l-0.58-0.34
					c-0.06-0.03-0.11-0.12-0.11-0.19c0-0.07,0.05-0.09,0.11-0.06L22.23,85.56z"/>
			</g>
			<g>
				<path class="st13" d="M22.23,86.07c0.06,0.03,0.11,0.12,0.11,0.19c0,0.07-0.05,0.09-0.11,0.06l-0.58-0.34
					c-0.06-0.03-0.11-0.12-0.11-0.18c0-0.07,0.05-0.1,0.11-0.06L22.23,86.07z"/>
			</g>
			<g>
				<path class="st13" d="M24.46,87.36c0.06,0.03,0.11,0.12,0.11,0.19c0,0.07-0.05,0.09-0.11,0.06l-0.58-0.34
					c-0.06-0.03-0.11-0.12-0.11-0.18c0-0.07,0.05-0.1,0.11-0.06L24.46,87.36z"/>
			</g>
			<g>
				<path class="st13" d="M24.45,89.83c0.06,0.03,0.11,0.12,0.11,0.19c0,0.07-0.05,0.09-0.11,0.06l-0.58-0.34
					c-0.06-0.03-0.11-0.12-0.11-0.18c0-0.07,0.05-0.1,0.11-0.06L24.45,89.83z"/>
			</g>
			<g>
				<path class="st13" d="M24.46,89.33c0.06,0.03,0.11,0.12,0.11,0.19c0,0.07-0.05,0.1-0.11,0.06l-0.58-0.34
					c-0.06-0.03-0.11-0.12-0.11-0.19c0-0.07,0.05-0.1,0.11-0.06L24.46,89.33z"/>
			</g>
			<g>
				<path class="st13" d="M28.58,96.17c0.06,0.03,0.11,0.12,0.11,0.18c0,0.07-0.05,0.1-0.11,0.06l-3.69-2.13
					c-0.06-0.03-0.11-0.12-0.11-0.19c0-0.07,0.05-0.09,0.11-0.06L28.58,96.17z"/>
			</g>
			<g>
				<path class="st13" d="M27.06,94.8c0.06,0.03,0.11,0.12,0.11,0.19c0,0.07-0.05,0.09-0.11,0.06l-1.35-0.78
					c-0.06-0.03-0.11-0.12-0.11-0.18c0-0.07,0.05-0.1,0.11-0.06L27.06,94.8z"/>
			</g>
			<g>
				<path class="st13" d="M24.44,93.79c0.06,0.03,0.11,0.12,0.11,0.18c0,0.07-0.05,0.1-0.11,0.06l-0.58-0.34
					c-0.06-0.03-0.11-0.12-0.11-0.19c0-0.07,0.05-0.09,0.11-0.06L24.44,93.79z"/>
			</g>
			<g>
				<path class="st13" d="M24.19,88.69c0.06,0.03,0.11,0.12,0.11,0.19c0,0.07-0.05,0.1-0.11,0.06l-0.58-0.34
					c-0.06-0.03-0.11-0.12-0.11-0.19c0-0.07,0.05-0.1,0.11-0.06L24.19,88.69z"/>
			</g>
			<g class="st18">
				<g>
					<path class="st13" d="M25.27,93.77c0.06,0.03,0.11,0.12,0.11,0.19c0,0.07-0.05,0.09-0.11,0.06l-1.67-0.97
						c-0.06-0.03-0.11-0.12-0.11-0.18c0-0.07,0.05-0.1,0.11-0.06L25.27,93.77z"/>
				</g>
				<g>
					<path class="st13" d="M24.45,91.31c0.06,0.03,0.11,0.12,0.11,0.18c0,0.07-0.05,0.1-0.11,0.06l-0.58-0.34
						c-0.06-0.03-0.11-0.12-0.11-0.19c0-0.07,0.05-0.09,0.11-0.06L24.45,91.31z"/>
				</g>
				<g>
					<path class="st13" d="M24.45,90.82c0.06,0.03,0.11,0.12,0.11,0.18c0,0.07-0.05,0.1-0.11,0.06l-0.58-0.34
						c-0.06-0.03-0.11-0.12-0.11-0.19c0-0.07,0.05-0.09,0.11-0.06L24.45,90.82z"/>
				</g>
				<g>
					<path class="st13" d="M26.22,93.82c0.06,0.03,0.11,0.12,0.11,0.19c0,0.07-0.05,0.09-0.11,0.06l-0.58-0.34
						c-0.06-0.03-0.11-0.12-0.11-0.18c0-0.07,0.05-0.1,0.11-0.06L26.22,93.82z"/>
				</g>
				<g>
					<path class="st13" d="M25.96,92.68c0.06,0.03,0.11,0.12,0.11,0.19c0,0.07-0.05,0.1-0.11,0.06l-1.88-1.09
						c-0.06-0.03-0.11-0.12-0.11-0.19c0-0.07,0.05-0.1,0.11-0.06L25.96,92.68z"/>
				</g>
				<g>
					<path class="st13" d="M27.26,94.42c0.06,0.03,0.11,0.12,0.11,0.19c0,0.07-0.05,0.09-0.11,0.06l-0.58-0.34
						c-0.06-0.03-0.11-0.12-0.11-0.18c0-0.07,0.05-0.1,0.11-0.06L27.26,94.42z"/>
				</g>
				<g>
					<path class="st13" d="M26.92,93.23c0.06,0.03,0.11,0.12,0.11,0.19c0,0.07-0.05,0.1-0.11,0.06l-0.58-0.34
						c-0.06-0.03-0.11-0.12-0.11-0.19s0.05-0.1,0.11-0.06L26.92,93.23z"/>
				</g>
				<g>
					<path class="st13" d="M27.74,94.21c0.06,0.03,0.11,0.12,0.11,0.19s-0.05,0.1-0.11,0.06l-3.88-2.24
						c-0.06-0.03-0.11-0.12-0.11-0.19c0-0.07,0.05-0.1,0.11-0.06L27.74,94.21z"/>
				</g>
				<g>
					<path class="st13" d="M26.58,91.55c0.06,0.03,0.11,0.12,0.11,0.19c0,0.07-0.05,0.09-0.11,0.06l-2.08-1.2
						c-0.06-0.03-0.11-0.12-0.11-0.18c0-0.07,0.05-0.1,0.11-0.06L26.58,91.55z"/>
				</g>
				<g>
					<path class="st13" d="M27.57,93.12c0.06,0.03,0.11,0.12,0.11,0.18c0,0.07-0.05,0.1-0.11,0.06l-2.68-1.54
						c-0.06-0.03-0.11-0.12-0.11-0.19c0-0.07,0.05-0.09,0.11-0.06L27.57,93.12z"/>
				</g>
				<g>
					<path class="st13" d="M28.58,94.19c0.06,0.03,0.11,0.12,0.11,0.19c0,0.07-0.05,0.1-0.11,0.06l-1.29-0.74
						c-0.06-0.03-0.11-0.12-0.11-0.19s0.05-0.1,0.11-0.06L28.58,94.19z"/>
				</g>
				<g>
					<path class="st13" d="M25.72,89.08c0.06,0.03,0.11,0.12,0.11,0.18c0,0.07-0.05,0.1-0.11,0.06l-1.13-0.65
						c-0.06-0.03-0.11-0.12-0.11-0.19c0-0.07,0.05-0.09,0.11-0.06L25.72,89.08z"/>
				</g>
				<g>
					<path class="st13" d="M28.58,93.21c0.06,0.03,0.11,0.12,0.11,0.18c0,0.07-0.05,0.1-0.11,0.06l-3.69-2.13
						c-0.06-0.03-0.11-0.12-0.11-0.19c0-0.07,0.05-0.09,0.11-0.06L28.58,93.21z"/>
				</g>
				<g>
					<path class="st13" d="M26.98,90.29c0.06,0.03,0.11,0.12,0.11,0.19c0,0.07-0.05,0.1-0.11,0.06l-2.38-1.37
						c-0.06-0.03-0.11-0.12-0.11-0.19c0-0.07,0.05-0.1,0.11-0.06L26.98,90.29z"/>
				</g>
				<g>
					<path class="st13" d="M28.59,92.71c0.06,0.03,0.11,0.12,0.11,0.19c0,0.07-0.05,0.09-0.11,0.06l-1.62-0.94
						c-0.06-0.03-0.11-0.12-0.11-0.18c0-0.07,0.05-0.1,0.11-0.06L28.59,92.71z"/>
				</g>
				<g>
					<path class="st13" d="M26.46,89.01c0.06,0.03,0.11,0.12,0.11,0.18c0,0.07-0.05,0.1-0.11,0.06l-1.26-0.73
						c-0.06-0.03-0.11-0.12-0.11-0.19c0-0.07,0.05-0.09,0.11-0.06L26.46,89.01z"/>
				</g>
				<g>
					<path class="st13" d="M28.59,92.22c0.06,0.03,0.11,0.12,0.11,0.19c0,0.07-0.05,0.09-0.11,0.06l-3.69-2.13
						c-0.06-0.03-0.11-0.12-0.11-0.18c0-0.07,0.05-0.1,0.11-0.06L28.59,92.22z"/>
				</g>
				<g>
					<path class="st13" d="M28.59,91.72c0.06,0.03,0.11,0.12,0.11,0.19c0,0.07-0.05,0.1-0.11,0.06l-3.69-2.13
						c-0.06-0.03-0.11-0.12-0.11-0.19c0-0.07,0.05-0.1,0.11-0.06L28.59,91.72z"/>
				</g>
				<g>
					<path class="st13" d="M27.44,89.57c0.06,0.03,0.11,0.12,0.11,0.18c0,0.07-0.05,0.1-0.11,0.06l-0.58-0.34
						c-0.06-0.03-0.11-0.12-0.11-0.19c0-0.07,0.05-0.09,0.11-0.06L27.44,89.57z"/>
				</g>
				<g>
					<path class="st13" d="M28.59,90.73c0.06,0.03,0.11,0.12,0.11,0.18c0,0.07-0.05,0.1-0.11,0.06l-2.52-1.46
						c-0.06-0.03-0.11-0.12-0.11-0.19c0-0.07,0.05-0.09,0.11-0.06L28.59,90.73z"/>
				</g>
				<g>
					<path class="st13" d="M26.93,87.78c0.06,0.03,0.11,0.12,0.11,0.18c0,0.07-0.05,0.1-0.11,0.06l-0.58-0.34
						c-0.06-0.03-0.11-0.12-0.11-0.19c0-0.07,0.05-0.09,0.11-0.06L26.93,87.78z"/>
				</g>
				<g>
					<path class="st13" d="M28.59,90.24c0.06,0.03,0.11,0.12,0.11,0.18c0,0.07-0.05,0.1-0.11,0.06l-0.8-0.46
						c-0.06-0.03-0.11-0.12-0.11-0.19c0-0.07,0.05-0.09,0.11-0.06L28.59,90.24z"/>
				</g>
				<g>
					<path class="st13" d="M27.76,88.75c0.06,0.03,0.11,0.12,0.11,0.18c0,0.07-0.05,0.1-0.11,0.06l-3.88-2.24
						c-0.06-0.03-0.11-0.12-0.11-0.19s0.05-0.09,0.11-0.06L27.76,88.75z"/>
				</g>
				<g>
					<path class="st13" d="M28.59,89.74c0.06,0.03,0.11,0.12,0.11,0.19c0,0.07-0.05,0.09-0.11,0.06l-3.69-2.13
						c-0.06-0.03-0.11-0.12-0.11-0.18c0-0.07,0.05-0.1,0.11-0.06L28.59,89.74z"/>
				</g>
				<g>
					<path class="st13" d="M27.58,87.66c0.06,0.03,0.11,0.12,0.11,0.19c0,0.07-0.05,0.09-0.11,0.06l-2.68-1.54
						c-0.06-0.03-0.11-0.12-0.11-0.18c0-0.07,0.05-0.1,0.11-0.06L27.58,87.66z"/>
				</g>
			</g>
			<g>
				<path class="st13" d="M22.22,87.55c0.06,0.03,0.11,0.12,0.11,0.19c0,0.07-0.05,0.1-0.11,0.06l-0.58-0.34
					c-0.06-0.03-0.11-0.12-0.11-0.19c0-0.07,0.05-0.1,0.11-0.06L22.22,87.55z"/>
			</g>
			<g>
				<path class="st13" d="M22.22,87.06c0.06,0.03,0.11,0.12,0.11,0.18c0,0.07-0.05,0.1-0.11,0.06l-0.58-0.34
					c-0.06-0.03-0.11-0.12-0.11-0.19c0-0.07,0.05-0.09,0.11-0.06L22.22,87.06z"/>
			</g>
			<g>
				<path class="st13" d="M22.22,86.56c0.06,0.03,0.11,0.12,0.11,0.18c0,0.07-0.05,0.1-0.11,0.06l-0.58-0.34
					c-0.06-0.03-0.11-0.12-0.11-0.19c0-0.07,0.05-0.09,0.11-0.06L22.22,86.56z"/>
			</g>
			<g>
				<path class="st13" d="M28.59,91.23c0.06,0.03,0.11,0.12,0.11,0.19c0,0.07-0.05,0.1-0.11,0.06l-1.2-0.69
					c-0.06-0.03-0.11-0.12-0.11-0.19s0.05-0.1,0.11-0.06L28.59,91.23z"/>
			</g>
			<g>
				<path class="st13" d="M22.22,88.54c0.06,0.03,0.11,0.12,0.11,0.19c0,0.07-0.05,0.09-0.11,0.06l-0.58-0.34
					c-0.06-0.03-0.11-0.12-0.11-0.18c0-0.07,0.05-0.1,0.11-0.06L22.22,88.54z"/>
			</g>
			<g>
				<path class="st13" d="M22.22,88.04c0.06,0.03,0.11,0.12,0.11,0.19c0,0.07-0.05,0.1-0.11,0.06l-0.58-0.34
					c-0.06-0.03-0.11-0.12-0.11-0.19c0-0.07,0.05-0.1,0.11-0.06L22.22,88.04z"/>
			</g>
			<g>
				<path class="st13" d="M22.21,90.52c0.06,0.03,0.11,0.12,0.11,0.19s-0.05,0.1-0.11,0.06l-0.58-0.34
					c-0.06-0.03-0.11-0.12-0.11-0.19c0-0.07,0.05-0.1,0.11-0.06L22.21,90.52z"/>
			</g>
			<g>
				<path class="st13" d="M22.21,90.02c0.06,0.03,0.11,0.12,0.11,0.18c0,0.07-0.05,0.1-0.11,0.06l-0.58-0.34
					c-0.06-0.03-0.11-0.12-0.11-0.19c0-0.07,0.05-0.09,0.11-0.06L22.21,90.02z"/>
			</g>
			<g>
				<path class="st13" d="M22.22,89.53c0.06,0.03,0.11,0.12,0.11,0.18c0,0.07-0.05,0.1-0.11,0.06l-0.58-0.34
					c-0.06-0.03-0.11-0.12-0.11-0.19c0-0.07,0.05-0.09,0.11-0.06L22.22,89.53z"/>
			</g>
			<g>
				<path class="st13" d="M22.22,89.03c0.06,0.03,0.11,0.12,0.11,0.19c0,0.07-0.05,0.09-0.11,0.06l-0.58-0.34
					c-0.06-0.03-0.11-0.12-0.11-0.18c0-0.07,0.05-0.1,0.11-0.06L22.22,89.03z"/>
			</g>
			<g>
				<path class="st13" d="M28.58,93.7c0.06,0.03,0.11,0.12,0.11,0.18c0,0.07-0.05,0.1-0.11,0.06l-0.48-0.28
					C28.05,93.64,28,93.55,28,93.49c0-0.07,0.05-0.09,0.11-0.06L28.58,93.7z"/>
			</g>
			<g>
				<path class="st13" d="M22.21,91.01c0.06,0.03,0.11,0.12,0.11,0.19c0,0.07-0.05,0.1-0.11,0.06l-0.58-0.34
					c-0.06-0.03-0.11-0.12-0.11-0.19c0-0.07,0.05-0.1,0.11-0.06L22.21,91.01z"/>
			</g>
			<g>
				<path class="st13" d="M28.58,95.68c0.06,0.03,0.11,0.12,0.11,0.19c0,0.07-0.05,0.09-0.11,0.06l-1.17-0.68
					c-0.06-0.03-0.11-0.12-0.11-0.18c0-0.07,0.05-0.1,0.11-0.06L28.58,95.68z"/>
			</g>
			<g>
				<path class="st13" d="M28.58,94.69c0.06,0.03,0.11,0.12,0.11,0.19c0,0.07-0.05,0.1-0.11,0.06l-0.48-0.28
					c-0.06-0.03-0.11-0.12-0.11-0.19s0.05-0.1,0.11-0.06L28.58,94.69z"/>
			</g>
			<g>
				<path class="st13" d="M22.23,84.57c0.06,0.03,0.11,0.12,0.11,0.19c0,0.07-0.05,0.09-0.11,0.06l-0.58-0.34
					c-0.06-0.03-0.11-0.12-0.11-0.18c0-0.07,0.05-0.1,0.11-0.06L22.23,84.57z"/>
			</g>
			<g>
				<path class="st13" d="M25.97,87.23c0.06,0.03,0.11,0.12,0.11,0.18c0,0.07-0.05,0.1-0.11,0.06l-1.88-1.09
					c-0.06-0.03-0.11-0.12-0.11-0.19c0-0.07,0.05-0.09,0.11-0.06L25.97,87.23z"/>
			</g>
			<g>
				<path class="st13" d="M24.46,85.86c0.06,0.03,0.11,0.12,0.11,0.19c0,0.07-0.05,0.09-0.11,0.06l-0.58-0.34
					c-0.06-0.03-0.11-0.12-0.11-0.18c0-0.07,0.05-0.1,0.11-0.06L24.46,85.86z"/>
			</g>
			<g>
				<path class="st13" d="M28.6,88.25c0.06,0.03,0.11,0.12,0.11,0.19c0,0.07-0.05,0.09-0.11,0.06l-0.48-0.28
					c-0.06-0.03-0.11-0.12-0.11-0.18c0-0.07,0.05-0.1,0.11-0.06L28.6,88.25z"/>
			</g>
			<g>
				<path class="st13" d="M28.6,89.24c0.06,0.03,0.11,0.12,0.11,0.18c0,0.07-0.05,0.1-0.11,0.06l-0.48-0.28
					c-0.06-0.03-0.11-0.12-0.11-0.19s0.05-0.09,0.11-0.06L28.6,89.24z"/>
			</g>
			<g>
				<path class="st13" d="M28.6,88.74c0.06,0.03,0.11,0.12,0.11,0.18c0,0.07-0.05,0.1-0.11,0.06l-1.29-0.74
					c-0.06-0.03-0.11-0.12-0.11-0.19c0-0.07,0.05-0.09,0.11-0.06L28.6,88.74z"/>
			</g>
			<g>
				<path class="st13" d="M22.21,91.51c0.06,0.03,0.11,0.12,0.11,0.19c0,0.07-0.05,0.09-0.11,0.06l-0.58-0.34
					c-0.06-0.03-0.11-0.12-0.11-0.18c0-0.07,0.05-0.1,0.11-0.06L22.21,91.51z"/>
			</g>
			<g>
				<path class="st13" d="M28.58,95.18c0.06,0.03,0.11,0.12,0.11,0.19c0,0.07-0.05,0.09-0.11,0.06l-0.93-0.54
					c-0.06-0.03-0.11-0.12-0.11-0.18c0-0.07,0.05-0.1,0.11-0.06L28.58,95.18z"/>
			</g>
			<g>
				<path class="st13" d="M22.21,92c0.06,0.03,0.11,0.12,0.11,0.19c0,0.07-0.05,0.09-0.11,0.06l-0.58-0.34
					c-0.06-0.03-0.11-0.12-0.11-0.18c0-0.07,0.05-0.1,0.11-0.06L22.21,92z"/>
			</g>
			<g>
				<path class="st13" d="M22.21,92.5c0.06,0.03,0.11,0.12,0.11,0.18c0,0.07-0.05,0.1-0.11,0.06l-0.58-0.34
					c-0.06-0.03-0.11-0.12-0.11-0.19c0-0.07,0.05-0.09,0.11-0.06L22.21,92.5z"/>
			</g>
		</g>
		<g>
			<g>
				<path class="st13" d="M37.05,91.39c0.06-0.03,0.11-0.01,0.11,0.06c0,0.07-0.05,0.15-0.11,0.18l-0.58,0.34
					c-0.06,0.03-0.11,0.01-0.11-0.06c0-0.07,0.05-0.15,0.11-0.18L37.05,91.39z"/>
			</g>
			<g>
				<path class="st13" d="M37.05,90.89c0.06-0.03,0.11-0.01,0.11,0.06c0,0.07-0.05,0.15-0.11,0.18l-0.58,0.34
					c-0.06,0.03-0.11,0.01-0.11-0.06c0-0.07,0.05-0.15,0.11-0.18L37.05,90.89z"/>
			</g>
			<g>
				<path class="st13" d="M37.05,90.4c0.06-0.03,0.11-0.01,0.11,0.06c0,0.07-0.05,0.15-0.11,0.18l-0.58,0.34
					c-0.06,0.03-0.11,0.01-0.11-0.06c0-0.07,0.05-0.15,0.11-0.19L37.05,90.4z"/>
			</g>
			<g>
				<path class="st13" d="M37.05,89.9c0.06-0.03,0.11-0.01,0.11,0.06c0,0.07-0.05,0.15-0.11,0.18l-0.58,0.34
					c-0.06,0.03-0.11,0.01-0.11-0.06c0-0.07,0.05-0.15,0.11-0.19L37.05,89.9z"/>
			</g>
			<g>
				<path class="st13" d="M43.41,87.22c0.06-0.03,0.11-0.01,0.11,0.06c0,0.07-0.05,0.15-0.11,0.19l-2.52,1.46
					c-0.06,0.03-0.11,0.01-0.11-0.06c0-0.07,0.05-0.15,0.11-0.18L43.41,87.22z"/>
			</g>
			<g>
				<path class="st13" d="M43.42,87.71c0.06-0.03,0.11-0.01,0.11,0.06c0,0.07-0.05,0.15-0.11,0.19l-1.2,0.69
					c-0.06,0.03-0.11,0.01-0.11-0.06c0-0.07,0.05-0.15,0.11-0.18L43.42,87.71z"/>
			</g>
			<g>
				<path class="st13" d="M39.29,92.57c0.06-0.03,0.11-0.01,0.11,0.06c0,0.07-0.05,0.15-0.11,0.19l-0.58,0.34
					c-0.06,0.03-0.11,0.01-0.11-0.06c0-0.07,0.05-0.15,0.11-0.18L39.29,92.57z"/>
			</g>
			<g>
				<path class="st13" d="M41.76,91.64c0.06-0.03,0.11-0.01,0.11,0.06s-0.05,0.15-0.11,0.18l-0.58,0.34
					c-0.06,0.03-0.11,0.01-0.11-0.06c0-0.07,0.05-0.15,0.11-0.18L41.76,91.64z"/>
			</g>
			<g>
				<path class="st13" d="M43.43,92.16c0.06-0.03,0.11-0.01,0.11,0.06c0,0.07-0.05,0.15-0.11,0.18l-1.17,0.67
					c-0.06,0.03-0.11,0.01-0.11-0.06c0-0.07,0.05-0.15,0.11-0.19L43.43,92.16z"/>
			</g>
			<g class="st18">
				<g>
					<path class="st13" d="M41.91,93.04c0.06-0.03,0.11-0.01,0.11,0.06c0,0.07-0.05,0.15-0.11,0.18l-1.35,0.78
						c-0.06,0.03-0.11,0.01-0.11-0.06c0-0.07,0.05-0.15,0.11-0.19L41.91,93.04z"/>
				</g>
				<g>
					<path class="st13" d="M43.43,92.66c0.06-0.03,0.11-0.01,0.11,0.06c0,0.07-0.05,0.15-0.11,0.18l-3.69,2.13
						c-0.06,0.03-0.11,0.01-0.11-0.06c0-0.07,0.05-0.15,0.11-0.19L43.43,92.66z"/>
				</g>
				<g>
					<path class="st13" d="M41.07,93.03c0.06-0.03,0.11-0.01,0.11,0.06s-0.05,0.15-0.11,0.18l-0.58,0.34
						c-0.06,0.03-0.11,0.01-0.11-0.06c0-0.07,0.05-0.15,0.11-0.19L41.07,93.03z"/>
				</g>
				<g>
					<path class="st13" d="M42.59,91.66c0.06-0.03,0.11-0.01,0.11,0.06c0,0.07-0.05,0.15-0.11,0.18l-3.87,2.24
						c-0.06,0.03-0.11,0.01-0.11-0.06c0-0.07,0.05-0.15,0.11-0.19L42.59,91.66z"/>
				</g>
				<g>
					<path class="st13" d="M40.8,92.19c0.06-0.03,0.11-0.01,0.11,0.06c0,0.07-0.05,0.15-0.11,0.18l-1.88,1.09
						c-0.06,0.03-0.11,0.01-0.11-0.06s0.05-0.15,0.11-0.18L40.8,92.19z"/>
				</g>
			</g>
			<g>
				<path class="st13" d="M43.43,91.17c0.06-0.03,0.11-0.01,0.11,0.06c0,0.07-0.05,0.15-0.11,0.19l-0.48,0.28
					c-0.06,0.03-0.11,0.01-0.11-0.06s0.05-0.15,0.11-0.19L43.43,91.17z"/>
			</g>
			<g>
				<path class="st13" d="M43.43,91.67c0.06-0.03,0.11-0.01,0.11,0.06c0,0.07-0.05,0.15-0.11,0.18l-0.93,0.54
					c-0.06,0.03-0.11,0.01-0.11-0.06c0-0.07,0.05-0.15,0.11-0.19L43.43,91.67z"/>
			</g>
			<g>
				<path class="st13" d="M43.42,90.68c0.06-0.03,0.11-0.01,0.11,0.06c0,0.07-0.05,0.15-0.11,0.19l-1.28,0.74
					c-0.06,0.03-0.11,0.01-0.11-0.06c0-0.07,0.05-0.15,0.11-0.18L43.42,90.68z"/>
			</g>
			<g>
				<path class="st13" d="M43.42,90.19c0.06-0.03,0.11-0.01,0.11,0.06c0,0.07-0.05,0.15-0.11,0.19l-0.48,0.28
					c-0.06,0.03-0.11,0.01-0.11-0.06c0-0.07,0.05-0.15,0.11-0.18L43.42,90.19z"/>
			</g>
			<g>
				<path class="st13" d="M42.11,92.43c0.06-0.03,0.11-0.01,0.11,0.06c0,0.07-0.05,0.15-0.11,0.18l-0.58,0.34
					c-0.06,0.03-0.11,0.01-0.11-0.06c0-0.07,0.05-0.15,0.11-0.18L42.11,92.43z"/>
			</g>
			<g>
				<path class="st13" d="M43.42,89.2c0.06-0.03,0.11-0.01,0.11,0.06c0,0.07-0.05,0.15-0.11,0.18l-1.62,0.94
					c-0.06,0.03-0.11,0.01-0.11-0.06c0-0.07,0.05-0.15,0.11-0.19L43.42,89.2z"/>
			</g>
			<g>
				<path class="st13" d="M42.41,90.77c0.06-0.03,0.11-0.01,0.11,0.06c0,0.07-0.05,0.15-0.11,0.18l-2.67,1.54
					c-0.06,0.03-0.11,0.01-0.11-0.06c0-0.07,0.05-0.15,0.11-0.18L42.41,90.77z"/>
			</g>
			<g>
				<path class="st13" d="M43.42,89.69c0.06-0.03,0.11-0.01,0.11,0.06c0,0.07-0.05,0.15-0.11,0.18l-3.69,2.13
					c-0.06,0.03-0.11,0.01-0.11-0.06c0-0.07,0.05-0.15,0.11-0.19L43.42,89.69z"/>
			</g>
			<g>
				<path class="st13" d="M43.42,88.7c0.06-0.03,0.11-0.01,0.11,0.06c0,0.07-0.05,0.15-0.11,0.18l-3.69,2.13
					c-0.06,0.03-0.11,0.01-0.11-0.06c0-0.07,0.05-0.15,0.11-0.19L43.42,88.7z"/>
			</g>
			<g>
				<path class="st13" d="M43.42,88.21c0.06-0.03,0.11-0.01,0.11,0.06c0,0.07-0.05,0.15-0.11,0.19l-3.69,2.13
					c-0.06,0.03-0.11,0.01-0.11-0.06s0.05-0.15,0.11-0.19L43.42,88.21z"/>
			</g>
			<g>
				<path class="st13" d="M41.8,88.65c0.06-0.03,0.11-0.01,0.11,0.06s-0.05,0.15-0.11,0.19l-2.38,1.37
					c-0.06,0.03-0.11,0.01-0.11-0.06s0.05-0.15,0.11-0.18L41.8,88.65z"/>
			</g>
			<g>
				<path class="st13" d="M40.55,88.87c0.06-0.03,0.11-0.01,0.11,0.06c0,0.07-0.05,0.15-0.11,0.19l-1.13,0.65
					c-0.06,0.03-0.11,0.01-0.11-0.06c0-0.07,0.05-0.15,0.11-0.18L40.55,88.87z"/>
			</g>
			<g>
				<path class="st13" d="M39.28,88.62c0.06-0.03,0.11-0.01,0.11,0.06c0,0.07-0.05,0.15-0.11,0.18L38.7,89.2
					c-0.06,0.03-0.11,0.01-0.11-0.06c0-0.07,0.05-0.15,0.11-0.19L39.28,88.62z"/>
			</g>
			<g>
				<path class="st13" d="M42.26,87.39c0.06-0.03,0.11-0.01,0.11,0.06c0,0.07-0.05,0.15-0.11,0.18l-0.58,0.34
					c-0.06,0.03-0.11,0.01-0.11-0.06c0-0.07,0.05-0.15,0.11-0.19L42.26,87.39z"/>
			</g>
			<g>
				<path class="st13" d="M41.29,87.95c0.06-0.03,0.11-0.01,0.11,0.06c0,0.07-0.05,0.15-0.11,0.18l-1.26,0.73
					c-0.06,0.03-0.11,0.01-0.11-0.06c0-0.07,0.05-0.15,0.11-0.19L41.29,87.95z"/>
			</g>
			<g>
				<path class="st13" d="M43.41,86.73c0.06-0.03,0.11-0.01,0.11,0.06c0,0.07-0.05,0.15-0.11,0.18l-0.8,0.46
					c-0.06,0.03-0.11,0.01-0.11-0.06c0-0.07,0.05-0.15,0.11-0.19L43.41,86.73z"/>
			</g>
			<g>
				<path class="st13" d="M43.41,86.23c0.06-0.03,0.11-0.01,0.11,0.06c0,0.07-0.05,0.15-0.11,0.18l-3.69,2.13
					c-0.06,0.03-0.11,0.01-0.11-0.06c0-0.07,0.05-0.15,0.11-0.19L43.41,86.23z"/>
			</g>
			<g>
				<path class="st13" d="M41.41,90.36c0.06-0.03,0.11-0.01,0.11,0.06c0,0.07-0.05,0.15-0.11,0.18l-2.07,1.2
					c-0.06,0.03-0.11,0.01-0.11-0.06c0-0.07,0.05-0.15,0.11-0.18L41.41,90.36z"/>
			</g>
			<g>
				<path class="st13" d="M39.29,90.59c0.06-0.03,0.11-0.01,0.11,0.06s-0.05,0.15-0.11,0.19l-0.58,0.34
					c-0.06,0.03-0.11,0.01-0.11-0.06s0.05-0.15,0.11-0.19L39.29,90.59z"/>
			</g>
			<g>
				<path class="st13" d="M39.02,90.25c0.06-0.03,0.11-0.01,0.11,0.06c0,0.07-0.05,0.15-0.11,0.19l-0.58,0.34
					c-0.06,0.03-0.11,0.01-0.11-0.06s0.05-0.15,0.11-0.18L39.02,90.25z"/>
			</g>
			<g>
				<path class="st13" d="M37.06,92.87c0.06-0.03,0.11-0.01,0.11,0.06c0,0.07-0.05,0.15-0.11,0.18l-0.58,0.34
					c-0.06,0.03-0.11,0.01-0.11-0.06c0-0.07,0.05-0.15,0.11-0.19L37.06,92.87z"/>
			</g>
			<g class="st18">
				<g>
					<path class="st13" d="M37.06,92.38c0.06-0.03,0.11-0.01,0.11,0.06c0,0.07-0.05,0.15-0.11,0.18l-0.58,0.34
						c-0.06,0.03-0.11,0.01-0.11-0.06s0.05-0.15,0.11-0.19L37.06,92.38z"/>
				</g>
				<g>
					<path class="st13" d="M37.05,91.88c0.06-0.03,0.11-0.01,0.11,0.06c0,0.07-0.05,0.15-0.11,0.18l-0.58,0.34
						c-0.06,0.03-0.11,0.01-0.11-0.06s0.05-0.15,0.11-0.19L37.05,91.88z"/>
				</g>
			</g>
			<g>
				<path class="st13" d="M39.29,91.09c0.06-0.03,0.11-0.01,0.11,0.06c0,0.07-0.05,0.15-0.11,0.18l-0.58,0.34
					c-0.06,0.03-0.11,0.01-0.11-0.06c0-0.07,0.05-0.15,0.11-0.19L39.29,91.09z"/>
			</g>
			<g>
				<path class="st13" d="M37.05,88.4c0.06-0.03,0.11-0.01,0.11,0.06s-0.05,0.15-0.11,0.18l-0.58,0.34
					c-0.06,0.03-0.11,0.01-0.11-0.06s0.05-0.15,0.11-0.18L37.05,88.4z"/>
			</g>
			<g>
				<path class="st13" d="M43.42,84.73c0.06-0.03,0.11-0.01,0.11,0.06s-0.05,0.15-0.11,0.19l-1.2,0.69
					c-0.06,0.03-0.11,0.01-0.11-0.06c0-0.07,0.05-0.15,0.11-0.18L43.42,84.73z"/>
			</g>
			<g>
				<path class="st13" d="M43.42,85.72c0.06-0.03,0.11-0.01,0.11,0.06c0,0.07-0.05,0.15-0.11,0.18l-3.69,2.13
					c-0.06,0.03-0.11,0.01-0.11-0.06s0.05-0.15,0.11-0.19L43.42,85.72z"/>
			</g>
			<g>
				<path class="st13" d="M43.42,85.22c0.06-0.03,0.11-0.01,0.11,0.06s-0.05,0.15-0.11,0.19l-3.69,2.13
					c-0.06,0.03-0.11,0.01-0.11-0.06s0.05-0.15,0.11-0.19L43.42,85.22z"/>
			</g>
			<g>
				<path class="st13" d="M41.8,85.66c0.06-0.03,0.11-0.01,0.11,0.06s-0.05,0.15-0.11,0.19l-2.38,1.37
					c-0.06,0.03-0.11,0.01-0.11-0.06c0-0.07,0.05-0.15,0.11-0.18L41.8,85.66z"/>
			</g>
			<g>
				<path class="st13" d="M39.29,87.61c0.06-0.03,0.11-0.01,0.11,0.06c0,0.07-0.05,0.15-0.11,0.19l-0.58,0.34
					c-0.06,0.03-0.11,0.01-0.11-0.06s0.05-0.15,0.11-0.19L39.29,87.61z"/>
			</g>
			<g>
				<path class="st13" d="M39.02,87.27c0.06-0.03,0.11-0.01,0.11,0.06c0,0.07-0.05,0.15-0.11,0.19l-0.58,0.34
					c-0.06,0.03-0.11,0.01-0.11-0.06c0-0.07,0.05-0.15,0.11-0.18L39.02,87.27z"/>
			</g>
			<g class="st18">
				<g>
					<path class="st13" d="M37.06,89.39c0.06-0.03,0.11-0.01,0.11,0.06c0,0.07-0.05,0.15-0.11,0.18l-0.58,0.34
						c-0.06,0.03-0.11,0.01-0.11-0.06c0-0.07,0.05-0.15,0.11-0.19L37.06,89.39z"/>
				</g>
				<g>
					<path class="st13" d="M37.05,88.9c0.06-0.03,0.11-0.01,0.11,0.06s-0.05,0.15-0.11,0.18l-0.58,0.34
						c-0.06,0.03-0.11,0.01-0.11-0.06c0-0.07,0.05-0.15,0.11-0.19L37.05,88.9z"/>
				</g>
			</g>
			<g>
				<path class="st13" d="M39.29,88.1c0.06-0.03,0.11-0.01,0.11,0.06s-0.05,0.15-0.11,0.18l-0.58,0.34
					c-0.06,0.03-0.11,0.01-0.11-0.06c0-0.07,0.05-0.15,0.11-0.19L39.29,88.1z"/>
			</g>
			<g>
				<path class="st13" d="M37.06,95.34c0.06-0.03,0.11-0.01,0.11,0.06c0,0.07-0.05,0.15-0.11,0.18l-0.58,0.34
					c-0.06,0.03-0.11,0.01-0.11-0.06c0-0.07,0.05-0.15,0.11-0.19L37.06,95.34z"/>
			</g>
			<g>
				<path class="st13" d="M37.06,94.85c0.06-0.03,0.11-0.01,0.11,0.06c0,0.07-0.05,0.15-0.11,0.18l-0.58,0.34
					c-0.06,0.03-0.11,0.01-0.11-0.06c0-0.07,0.05-0.15,0.11-0.19L37.06,94.85z"/>
			</g>
			<g>
				<path class="st13" d="M37.06,94.35c0.06-0.03,0.11-0.01,0.11,0.06s-0.05,0.15-0.11,0.18l-0.58,0.34
					c-0.06,0.03-0.11,0.01-0.11-0.06c0-0.07,0.05-0.15,0.11-0.18L37.06,94.35z"/>
			</g>
			<g>
				<path class="st13" d="M37.06,93.86c0.06-0.03,0.11-0.01,0.11,0.06c0,0.07-0.05,0.15-0.11,0.18l-0.58,0.34
					c-0.06,0.03-0.11,0.01-0.11-0.06c0-0.07,0.05-0.15,0.11-0.18L37.06,93.86z"/>
			</g>
			<g>
				<path class="st13" d="M37.06,93.37c0.06-0.03,0.11-0.01,0.11,0.06c0,0.07-0.05,0.15-0.11,0.18l-0.58,0.34
					c-0.06,0.03-0.11,0.01-0.11-0.06c0-0.07,0.05-0.15,0.11-0.19L37.06,93.37z"/>
			</g>
			<g>
				<path class="st13" d="M39.29,92.08c0.06-0.03,0.11-0.01,0.11,0.06c0,0.07-0.05,0.15-0.11,0.18l-0.58,0.34
					c-0.06,0.03-0.11,0.01-0.11-0.06c0-0.07,0.05-0.15,0.11-0.19L39.29,92.08z"/>
			</g>
			<g>
				<path class="st13" d="M37.07,96.33c0.06-0.03,0.11-0.01,0.11,0.06c0,0.07-0.05,0.15-0.11,0.18l-0.58,0.34
					c-0.06,0.03-0.11,0.01-0.11-0.06c0-0.07,0.05-0.15,0.11-0.19L37.07,96.33z"/>
			</g>
			<g>
				<path class="st13" d="M37.07,95.84c0.06-0.03,0.11-0.01,0.11,0.06c0,0.07-0.05,0.15-0.11,0.18l-0.58,0.34
					c-0.06,0.03-0.11,0.01-0.11-0.06c0-0.07,0.05-0.15,0.11-0.19L37.07,95.84z"/>
			</g>
			<g>
				<path class="st13" d="M39.3,95.04c0.06-0.03,0.11-0.01,0.11,0.06c0,0.07-0.05,0.15-0.11,0.18l-0.58,0.34
					c-0.06,0.03-0.11,0.01-0.11-0.06c0-0.07,0.05-0.15,0.11-0.19L39.3,95.04z"/>
			</g>
			<g>
				<path class="st13" d="M40.12,94.07c0.06-0.03,0.11-0.01,0.11,0.06c0,0.07-0.05,0.15-0.11,0.18l-1.67,0.96
					c-0.06,0.03-0.11,0.01-0.11-0.06c0-0.07,0.05-0.15,0.11-0.18L40.12,94.07z"/>
			</g>
		</g>
	</g>
	<g>
		<g>
			<path class="st20" d="M129.44,122.24c-0.01,0.07-0.01,0.13-0.02,0.2c-0.01,0.05-0.03,0.11-0.04,0.16
				c-0.02,0.06-0.03,0.13-0.05,0.19c-0.02,0.05-0.04,0.1-0.06,0.15c-0.03,0.07-0.06,0.13-0.09,0.2c-0.05,0.09-0.1,0.18-0.16,0.26
				c-0.01,0.01-0.02,0.03-0.03,0.04c-0.06,0.09-0.13,0.17-0.2,0.26c-0.02,0.02-0.03,0.04-0.04,0.05c-0.08,0.09-0.17,0.17-0.26,0.26
				c-0.06,0.05-0.12,0.1-0.19,0.16c-0.06,0.05-0.11,0.09-0.18,0.14c-0.07,0.05-0.15,0.1-0.22,0.15c-0.08,0.05-0.15,0.1-0.24,0.15
				l-37.82,21.98c-0.19,0.11-0.38,0.21-0.59,0.3c-0.06,0.03-0.12,0.05-0.18,0.08c-0.16,0.07-0.32,0.13-0.49,0.18
				c-0.06,0.02-0.12,0.04-0.18,0.06c-0.11,0.03-0.21,0.06-0.32,0.09c-0.08,0.02-0.16,0.05-0.25,0.07c-0.11,0.03-0.23,0.05-0.35,0.07
				c-0.08,0.02-0.16,0.03-0.24,0.05c-0.24,0.04-0.47,0.07-0.72,0.1c-0.07,0.01-0.15,0.01-0.22,0.02c-0.14,0.01-0.29,0.02-0.43,0.03
				c-0.09,0-0.18,0.01-0.27,0.01c-0.12,0-0.23,0-0.35,0c-0.1,0-0.19,0-0.29-0.01c-0.11,0-0.21-0.01-0.32-0.02
				c-0.1-0.01-0.19-0.01-0.29-0.02c-0.11-0.01-0.21-0.02-0.32-0.04c-0.09-0.01-0.19-0.02-0.28-0.04c-0.11-0.02-0.22-0.04-0.33-0.06
				c-0.09-0.02-0.17-0.03-0.26-0.05c-0.13-0.03-0.26-0.06-0.39-0.1c-0.07-0.02-0.14-0.04-0.21-0.06c-0.23-0.07-0.45-0.14-0.67-0.23
				c-0.11-0.04-0.21-0.09-0.32-0.13c-0.05-0.02-0.11-0.05-0.16-0.07c-0.16-0.07-0.31-0.15-0.46-0.24l-38.07-21.98
				c-0.92-0.53-1.5-1.2-1.73-1.89c-0.08-0.23-0.11-0.47-0.11-0.7l0,1.28c0,0.94,0.61,1.88,1.85,2.59l38.07,21.98
				c0.15,0.08,0.3,0.16,0.46,0.24c0.05,0.02,0.11,0.05,0.16,0.07c0.09,0.04,0.18,0.08,0.28,0.12c0.01,0,0.02,0.01,0.04,0.01
				c0.22,0.08,0.44,0.16,0.67,0.23c0.02,0.01,0.03,0.01,0.05,0.02c0.05,0.02,0.11,0.03,0.16,0.04c0.13,0.03,0.26,0.07,0.39,0.1
				c0.03,0.01,0.07,0.02,0.1,0.02c0.05,0.01,0.11,0.02,0.16,0.03c0.11,0.02,0.22,0.04,0.33,0.06c0.04,0.01,0.09,0.02,0.13,0.02
				c0.05,0.01,0.1,0.01,0.15,0.02c0.11,0.01,0.21,0.03,0.32,0.04c0.05,0,0.1,0.01,0.15,0.02c0.05,0,0.1,0,0.14,0.01
				c0.11,0.01,0.21,0.01,0.32,0.02c0.05,0,0.1,0.01,0.16,0.01c0.04,0,0.09,0,0.13,0c0.12,0,0.23,0,0.35,0c0.06,0,0.11,0,0.17,0
				c0.03,0,0.07-0.01,0.1-0.01c0.14-0.01,0.29-0.02,0.43-0.03c0.06,0,0.11-0.01,0.17-0.01c0.02,0,0.03-0.01,0.05-0.01
				c0.24-0.03,0.48-0.06,0.72-0.1c0.01,0,0.03,0,0.04-0.01c0.07-0.01,0.13-0.03,0.2-0.04c0.12-0.02,0.23-0.05,0.35-0.07
				c0.08-0.02,0.17-0.04,0.25-0.07c0.11-0.03,0.22-0.06,0.32-0.09c0.02-0.01,0.05-0.01,0.07-0.02c0.04-0.01,0.07-0.03,0.11-0.04
				c0.17-0.06,0.33-0.12,0.49-0.18c0.06-0.03,0.12-0.05,0.18-0.08c0.2-0.09,0.4-0.19,0.59-0.3l37.82-21.98
				c0.03-0.01,0.05-0.03,0.08-0.04c0.06-0.04,0.11-0.07,0.16-0.11c0.07-0.05,0.15-0.1,0.22-0.15c0.06-0.05,0.12-0.09,0.18-0.14
				c0.06-0.05,0.13-0.1,0.19-0.16c0.01-0.01,0.03-0.02,0.04-0.03c0.08-0.08,0.16-0.15,0.23-0.23c0.02-0.02,0.03-0.03,0.04-0.05
				c0.04-0.05,0.08-0.09,0.12-0.14c0.03-0.04,0.06-0.08,0.09-0.12c0.01-0.01,0.02-0.03,0.03-0.04c0.05-0.07,0.09-0.14,0.14-0.21
				c0.01-0.02,0.01-0.03,0.02-0.05c0.03-0.07,0.06-0.13,0.09-0.2c0.02-0.04,0.04-0.07,0.05-0.11c0.01-0.01,0.01-0.03,0.01-0.04
				c0.02-0.06,0.04-0.13,0.05-0.19c0.01-0.04,0.03-0.08,0.04-0.12c0-0.01,0-0.02,0-0.03c0.01-0.07,0.02-0.13,0.02-0.2
				c0-0.04,0.01-0.08,0.01-0.13c0-0.02,0-0.04,0-0.06l0-1.28C129.46,122.11,129.45,122.17,129.44,122.24z"/>
			<g>
				<path class="st21" d="M127.61,119.47c2.45,1.41,2.46,3.73,0.03,5.14l-37.82,21.98c-2.43,1.41-6.43,1.41-8.88,0l-38.07-21.98
					c-2.45-1.41-2.46-3.73-0.03-5.14l37.82-21.98c2.43-1.41,6.43-1.41,8.88,0L127.61,119.47z"/>
			</g>
			<g>
				<g>
					
						<ellipse transform="matrix(2.834996e-03 -1 1 2.834996e-03 -68.8018 181.0824)" class="st22" cx="56.4" cy="125.04" rx="0.35" ry="0.6"/>
				</g>
				<g class="st18">
					<g>
						<path class="st23" d="M54.57,123.49c0.23,0.14,0.24,0.36,0,0.49c-0.23,0.14-0.61,0.14-0.85,0l-4.45-2.57
							c-0.23-0.14-0.24-0.36,0-0.49c0.23-0.14,0.62-0.14,0.85,0L54.57,123.49z"/>
					</g>
					<g>
						
							<ellipse transform="matrix(2.834996e-03 -1 1 2.834996e-03 -69.266 179.3399)" class="st24" cx="55.29" cy="124.4" rx="0.35" ry="0.6"/>
					</g>
				</g>
				<g>
					
						<ellipse transform="matrix(2.834996e-03 -1 1 2.834996e-03 -68.3375 182.825)" class="st25" cx="57.5" cy="125.68" rx="0.35" ry="0.6"/>
				</g>
				<g>
					
						<ellipse transform="matrix(2.834996e-03 -1 1 2.834996e-03 -71.9709 178.6192)" class="st24" cx="53.58" cy="125.4" rx="0.35" ry="0.6"/>
				</g>
				<g>
					<path class="st23" d="M52.85,124.49c0.23,0.14,0.24,0.36,0,0.49c-0.23,0.14-0.61,0.14-0.85,0l-4.45-2.57
						c-0.23-0.14-0.24-0.36,0-0.49c0.23-0.14,0.62-0.14,0.85,0L52.85,124.49z"/>
				</g>
				<g>
					
						<ellipse transform="matrix(2.834996e-03 -1 1 2.834996e-03 -71.0423 182.1044)" class="st25" cx="55.79" cy="126.67" rx="0.35" ry="0.6"/>
				</g>
				<g>
					
						<ellipse transform="matrix(2.834996e-03 -1 1 2.834996e-03 -71.5066 180.3617)" class="st22" cx="54.68" cy="126.04" rx="0.35" ry="0.6"/>
				</g>
				<g>
					<path class="st7" d="M86.82,142.11c0.71,0.41,0.72,1.08,0.01,1.49c-0.71,0.41-1.86,0.41-2.57,0c-0.71-0.41-0.71-1.08-0.01-1.49
						C84.96,141.7,86.11,141.7,86.82,142.11z"/>
				</g>
			</g>
		</g>
		<g>
			<g>
				<g>
					
						<ellipse transform="matrix(2.835083e-03 -1 1 2.835083e-03 -36.7347 207.2332)" class="st26" cx="85.54" cy="122.04" rx="14.61" ry="25.23"/>
				</g>
			</g>
			<g>
				<g>
					
						<ellipse transform="matrix(2.835083e-03 -1 1 2.835083e-03 -35.5241 206.026)" class="st27" cx="85.54" cy="120.83" rx="14.61" ry="25.23"/>
				</g>
			</g>
			<path class="st11" d="M109.55,101.08c0,0.14-0.01,0.28-0.02,0.42c-0.01,0.12-0.01,0.24-0.03,0.36c-0.01,0.11-0.03,0.21-0.04,0.32
				c-0.02,0.12-0.03,0.24-0.06,0.36c-0.02,0.11-0.04,0.21-0.07,0.32c-0.03,0.12-0.05,0.23-0.09,0.35c-0.03,0.11-0.06,0.21-0.09,0.32
				c-0.04,0.12-0.07,0.23-0.12,0.35c-0.04,0.1-0.08,0.21-0.12,0.31c-0.05,0.12-0.1,0.24-0.15,0.36c-0.05,0.1-0.09,0.2-0.14,0.3
				c-0.06,0.12-0.12,0.24-0.19,0.36c-0.07,0.13-0.14,0.26-0.21,0.38c-0.02,0.03-0.03,0.06-0.05,0.09c-0.11,0.18-0.23,0.36-0.36,0.55
				c-0.02,0.03-0.05,0.07-0.07,0.1c-0.13,0.18-0.26,0.36-0.4,0.54c-0.03,0.03-0.05,0.07-0.08,0.1c-0.13,0.15-0.26,0.31-0.39,0.46
				c-0.04,0.04-0.07,0.08-0.11,0.12c-0.16,0.18-0.33,0.35-0.5,0.52c-0.03,0.03-0.06,0.06-0.1,0.09c-0.13,0.13-0.27,0.26-0.41,0.38
				c-0.11,0.1-0.23,0.2-0.35,0.3c-0.11,0.09-0.22,0.18-0.33,0.28c-0.12,0.1-0.25,0.2-0.38,0.29c-0.12,0.09-0.24,0.18-0.36,0.27
				c-0.13,0.1-0.27,0.19-0.41,0.29c-0.13,0.09-0.25,0.17-0.38,0.26c-0.14,0.09-0.29,0.18-0.44,0.28c-0.18,0.11-0.36,0.23-0.56,0.34
				c-0.36,0.21-0.73,0.41-1.1,0.6c-0.11,0.06-0.22,0.11-0.33,0.16c-0.29,0.14-0.59,0.28-0.89,0.42c-0.1,0.05-0.2,0.09-0.3,0.14
				c-0.39,0.17-0.79,0.33-1.2,0.49c-0.07,0.03-0.15,0.05-0.22,0.08c-0.34,0.13-0.69,0.25-1.04,0.37c-0.14,0.05-0.29,0.1-0.44,0.14
				c-0.19,0.06-0.39,0.12-0.58,0.18c-0.17,0.05-0.33,0.1-0.5,0.14c-0.2,0.06-0.4,0.11-0.6,0.16c-0.17,0.04-0.34,0.09-0.5,0.13
				c-0.2,0.05-0.41,0.1-0.61,0.14c-0.17,0.04-0.34,0.08-0.51,0.11c-0.21,0.04-0.42,0.08-0.63,0.12c-0.16,0.03-0.32,0.06-0.48,0.09
				c-0.45,0.08-0.9,0.15-1.36,0.22c-0.06,0.01-0.13,0.02-0.19,0.02c-0.4,0.05-0.8,0.1-1.2,0.14c-0.15,0.02-0.31,0.03-0.46,0.04
				c-0.26,0.02-0.51,0.05-0.77,0.06c-0.16,0.01-0.32,0.02-0.49,0.03c-0.27,0.02-0.54,0.03-0.81,0.04c-0.15,0.01-0.3,0.01-0.46,0.02
				c-0.23,0.01-0.47,0.01-0.7,0.01c-0.16,0-0.33,0.01-0.49,0.01c-0.25,0-0.5,0-0.75-0.01c-0.15,0-0.3,0-0.45-0.01
				c-0.23-0.01-0.46-0.02-0.69-0.03c-0.16-0.01-0.32-0.01-0.48-0.02c-0.25-0.01-0.49-0.03-0.73-0.05c-0.14-0.01-0.29-0.02-0.43-0.03
				c-0.3-0.02-0.59-0.05-0.88-0.09c-0.09-0.01-0.18-0.02-0.27-0.03c-0.38-0.04-0.77-0.09-1.15-0.15c-0.06-0.01-0.13-0.02-0.19-0.03
				c-0.32-0.05-0.65-0.1-0.97-0.15c-0.14-0.02-0.27-0.05-0.41-0.08c-0.25-0.05-0.49-0.09-0.74-0.14c-0.13-0.03-0.26-0.06-0.38-0.08
				c-0.27-0.06-0.54-0.12-0.81-0.18c-0.15-0.04-0.3-0.07-0.45-0.11c-0.24-0.06-0.49-0.13-0.73-0.19c-0.14-0.04-0.27-0.08-0.41-0.12
				c-0.38-0.11-0.76-0.23-1.13-0.35c-0.07-0.02-0.13-0.04-0.2-0.06c-0.43-0.15-0.85-0.3-1.27-0.46c-0.17-0.07-0.34-0.13-0.51-0.2
				c-0.13-0.05-0.27-0.11-0.4-0.16c-0.19-0.08-0.37-0.17-0.56-0.25c-0.12-0.06-0.24-0.11-0.36-0.17c-0.2-0.1-0.4-0.2-0.6-0.3
				c-0.1-0.05-0.2-0.1-0.3-0.15c-0.29-0.15-0.58-0.31-0.86-0.47c-4.73-2.73-7.1-6.32-7.09-9.9l-0.05,19.18
				c-0.01,3.58,2.35,7.17,7.09,9.9c0.28,0.16,0.57,0.32,0.86,0.47c0.1,0.05,0.2,0.1,0.3,0.15c0.2,0.1,0.39,0.2,0.6,0.3
				c0.12,0.06,0.24,0.11,0.37,0.17c0.18,0.08,0.37,0.17,0.56,0.25c0.13,0.06,0.27,0.11,0.4,0.17c0.13,0.05,0.25,0.11,0.38,0.16
				c0.04,0.02,0.08,0.03,0.12,0.04c0.42,0.16,0.84,0.32,1.27,0.46c0.07,0.02,0.13,0.04,0.2,0.06c0.37,0.12,0.75,0.24,1.13,0.35
				c0.06,0.02,0.13,0.04,0.19,0.06c0.07,0.02,0.15,0.04,0.22,0.06c0.24,0.07,0.48,0.13,0.73,0.19c0.15,0.04,0.29,0.08,0.44,0.11
				c0.27,0.06,0.54,0.12,0.81,0.18c0.1,0.02,0.2,0.05,0.3,0.07c0.03,0.01,0.05,0.01,0.08,0.02c0.25,0.05,0.5,0.1,0.74,0.14
				c0.13,0.02,0.27,0.05,0.4,0.08c0.33,0.06,0.65,0.11,0.98,0.15c0.06,0.01,0.11,0.02,0.17,0.03c0,0,0.01,0,0.01,0
				c0.38,0.05,0.76,0.1,1.15,0.15c0.08,0.01,0.16,0.02,0.24,0.02c0.3,0.03,0.61,0.06,0.91,0.09c0.01,0,0.01,0,0.02,0
				c0.13,0.01,0.27,0.02,0.4,0.03c0.25,0.02,0.49,0.04,0.74,0.05c0.16,0.01,0.32,0.01,0.48,0.02c0.23,0.01,0.46,0.02,0.69,0.03
				c0.02,0,0.04,0,0.06,0c0.13,0,0.26,0,0.39,0c0.25,0,0.5,0.01,0.75,0.01c0.16,0,0.33,0,0.49-0.01c0.23,0,0.47-0.01,0.7-0.01
				c0.04,0,0.09,0,0.13,0c0.11,0,0.22-0.01,0.32-0.02c0.27-0.01,0.54-0.02,0.81-0.04c0.16-0.01,0.32-0.02,0.48-0.03
				c0.26-0.02,0.52-0.04,0.77-0.06c0.09-0.01,0.18-0.01,0.27-0.02c0.06-0.01,0.12-0.02,0.19-0.02c0.4-0.04,0.8-0.09,1.2-0.14
				c0.06-0.01,0.13-0.02,0.19-0.02c0.46-0.06,0.91-0.14,1.36-0.22c0.04-0.01,0.09-0.01,0.13-0.02c0.12-0.02,0.24-0.05,0.36-0.07
				c0.21-0.04,0.42-0.08,0.63-0.12c0.17-0.04,0.34-0.07,0.51-0.11c0.2-0.05,0.41-0.09,0.61-0.14c0.17-0.04,0.34-0.08,0.51-0.13
				c0.2-0.05,0.4-0.1,0.6-0.16c0.17-0.05,0.33-0.09,0.5-0.14c0.2-0.06,0.39-0.12,0.58-0.18c0.08-0.03,0.17-0.05,0.26-0.08
				c0.06-0.02,0.12-0.04,0.18-0.06c0.35-0.12,0.7-0.24,1.04-0.37c0.07-0.03,0.15-0.05,0.22-0.08c0.41-0.15,0.8-0.32,1.2-0.49
				c0.1-0.04,0.2-0.09,0.3-0.14c0.3-0.14,0.6-0.27,0.89-0.42c0.11-0.05,0.22-0.11,0.33-0.16c0.38-0.19,0.75-0.39,1.1-0.6
				c0.1-0.06,0.2-0.12,0.29-0.17c0.09-0.05,0.17-0.11,0.26-0.17c0.15-0.09,0.29-0.18,0.43-0.28c0.13-0.09,0.26-0.17,0.38-0.26
				c0.14-0.09,0.27-0.19,0.4-0.28c0.12-0.09,0.24-0.18,0.36-0.27c0.13-0.1,0.25-0.2,0.38-0.29c0.11-0.09,0.22-0.18,0.33-0.28
				c0.12-0.1,0.23-0.2,0.35-0.3c0.05-0.04,0.1-0.08,0.14-0.12c0.09-0.09,0.18-0.17,0.27-0.26c0.03-0.03,0.06-0.06,0.1-0.09
				c0.17-0.17,0.34-0.35,0.5-0.52c0.04-0.04,0.07-0.08,0.11-0.12c0.14-0.15,0.27-0.3,0.39-0.46c0.03-0.03,0.06-0.07,0.08-0.1
				c0.01-0.02,0.03-0.03,0.04-0.05c0.13-0.16,0.25-0.33,0.36-0.49c0.02-0.03,0.05-0.07,0.07-0.1c0.13-0.18,0.24-0.36,0.36-0.55
				c0.02-0.03,0.03-0.06,0.05-0.09c0.04-0.07,0.08-0.14,0.12-0.21c0.03-0.06,0.06-0.12,0.09-0.17c0.06-0.12,0.13-0.24,0.19-0.36
				c0.05-0.1,0.1-0.2,0.14-0.3c0.05-0.12,0.1-0.24,0.15-0.36c0.02-0.05,0.05-0.11,0.07-0.16c0.02-0.05,0.03-0.1,0.05-0.15
				c0.04-0.12,0.08-0.23,0.11-0.35c0.03-0.11,0.06-0.21,0.09-0.32c0.03-0.12,0.06-0.23,0.09-0.35c0.01-0.06,0.03-0.13,0.05-0.19
				c0.01-0.04,0.01-0.09,0.02-0.13c0.02-0.12,0.04-0.24,0.06-0.36c0.01-0.11,0.03-0.21,0.04-0.32c0.01-0.12,0.02-0.24,0.03-0.36
				c0-0.07,0.01-0.14,0.02-0.21c0-0.07,0-0.14,0-0.21v0L109.55,101.08z"/>
			<g>
				<path class="st28" d="M98.96,122.44l-1.52,0.54c-0.01,5.2-0.01,5.2,0,5.27c0.1,0.43,0.69,0.53,1.17,0.04
					c0.2-0.21,0.32-0.45,0.33-0.72C98.95,125.86,98.95,124.15,98.96,122.44"/>
				<path class="st7" d="M98.22,115.89c-0.44,0.18-0.74,0.57-0.77,0.99c0,0.58,0,1.34-0.01,1.92c0,0.58,0,1.34-0.01,1.92
					c0,0.58,0,1.34-0.01,1.92c0,0.11,0,0.25,0,0.36l1.52-0.54c0.02-6.15,0.02-6.15,0.01-6.18
					C98.93,115.91,98.61,115.75,98.22,115.89"/>
				<path class="st28" d="M73.53,120.49c-0.04-0.01-0.15-0.03-0.16,0.09c-0.01,2.66-0.11,5.32-0.02,7.97
					c0.01,0.16,0.2,0.27,0.29,0.19c0.02-0.02,0.03-0.06,0.04-0.09C73.69,120.55,73.69,120.55,73.53,120.49"/>
				<path class="st29" d="M72.37,121.42c-0.04-0.01-0.15-0.04-0.16,0.09c-0.01,2.21-0.1,4.42-0.02,6.63
					c0.01,0.16,0.2,0.27,0.28,0.21c0.01-0.01,0.03-0.03,0.04-0.08C72.53,121.48,72.53,121.48,72.37,121.42"/>
				<path class="st30" d="M71.23,122.3c-0.13-0.04-0.14,0.04-0.15,0.08c0,1.76-0.1,3.52-0.01,5.29c0.01,0.17,0.2,0.29,0.28,0.21
					c0.02-0.02,0.02-0.05,0.03-0.07C71.39,122.37,71.39,122.37,71.23,122.3"/>
				<path class="st31" d="M70.14,123.14c-0.09-0.03-0.14-0.01-0.15,0.08c0,1.32-0.09,2.63-0.01,3.95c0.01,0.18,0.2,0.29,0.27,0.22
					c0.02-0.02,0.02-0.05,0.03-0.07c0-1.32,0.05-2.63,0.01-3.95C70.28,123.27,70.21,123.18,70.14,123.14"/>
				<path class="st32" d="M69.08,123.95c-0.05-0.02-0.13-0.05-0.14,0.07c0,0.58,0,1.34-0.01,1.92c0,0.2,0,0.48,0,0.68
					c0,0,0,0.01,0,0.02c0.01,0.15,0.18,0.29,0.26,0.21c0.02-0.02,0.02-0.05,0.02-0.07c0-0.87,0.05-1.74,0.01-2.62
					C69.22,124.09,69.16,123.99,69.08,123.95"/>
			</g>
			<g>
				
					<ellipse transform="matrix(2.835083e-03 -1 1 2.835083e-03 -15.7136 186.2716)" class="st6" cx="85.54" cy="101.01" rx="13.9" ry="24"/>
			</g>
			<g>
				<g>
					
						<ellipse transform="matrix(2.835083e-03 -1 1 2.835083e-03 -15.7136 186.2716)" class="st33" cx="85.54" cy="101.01" rx="12.27" ry="21.18"/>
				</g>
			</g>
			<path class="st34" d="M103.93,99.45c0,0-2.68-4.37-5.43-5.96c-7.2-4.16-18.84-4.16-26,0c-2.96,1.72-5.34,5.96-5.34,5.96
				s0,1.05,0,1.5c-0.01,2.75,1.8,5.5,5.43,7.6c7.2,4.16,18.84,4.16,26,0c3.58-2.08,5.36-4.8,5.34-7.53
				C103.92,100.37,103.93,99.45,103.93,99.45z"/>
			<g>
				<g>
					
						<ellipse transform="matrix(2.835083e-03 -1 1 2.835083e-03 -14.1446 184.707)" class="st35" cx="85.54" cy="99.45" rx="10.65" ry="18.38"/>
				</g>
				
					<ellipse transform="matrix(2.835083e-03 -1 1 2.835083e-03 -14.1445 184.7069)" class="st36" cx="85.54" cy="99.45" rx="8.44" ry="14.57"/>
				
					<ellipse transform="matrix(2.835083e-03 -1 1 2.835083e-03 -14.1444 184.7069)" class="st37" cx="85.54" cy="99.45" rx="6.23" ry="10.75"/>
				<g>
					
						<ellipse transform="matrix(2.835083e-03 -1 1 2.835083e-03 -14.1444 184.7068)" class="st7" cx="85.54" cy="99.45" rx="4.02" ry="6.94"/>
				</g>
			</g>
		</g>
		<g>
			<g>
				<polygon class="st38" points="67.36,78.29 70.79,76.42 69.07,79.24 67.36,82.07 65.64,79.24 63.92,76.42 				"/>
				<polygon class="st38" points="67.36,77.73 70.79,75.86 69.07,72.66 67.36,69.46 65.64,72.66 63.92,75.86 				"/>
				<polygon class="st39" points="63.92,75.86 67.36,73.59 70.79,75.86 67.36,69.46 				"/>
				<polygon class="st40" points="67.36,77.73 67.36,69.46 65.64,72.66 63.92,75.86 				"/>
				<polygon class="st41" points="63.92,75.86 67.36,73.59 67.36,69.46 				"/>
				<polygon class="st40" points="67.36,78.29 67.36,82.07 65.64,79.24 63.92,76.42 				"/>
			</g>
			<g>
				<polygon class="st38" points="74.98,59.52 80.18,56.69 77.58,60.97 74.98,65.25 72.38,60.97 69.78,56.69 				"/>
				<polygon class="st38" points="74.98,58.68 80.18,55.85 77.58,50.99 74.98,46.14 72.38,50.99 69.78,55.85 				"/>
				<polygon class="st39" points="69.78,55.85 74.98,52.41 80.18,55.85 74.98,46.14 				"/>
				<polygon class="st40" points="74.98,58.68 74.98,46.14 72.38,50.99 69.78,55.85 				"/>
				<polygon class="st41" points="69.78,55.85 74.98,52.41 74.98,46.14 				"/>
				<polygon class="st40" points="74.98,59.52 74.98,65.25 72.38,60.97 69.78,56.69 				"/>
			</g>
			<g>
				<path class="st39" d="M99.16,49.06c0.79,2.44,1.21,4.87,1.5,7.31c0.28,2.44,0.41,4.87,0.42,7.31c0,2.44-0.13,4.87-0.41,7.31
					c-0.3,2.44-0.71,4.87-1.51,7.31c-0.8-2.44-1.21-4.87-1.51-7.31c-0.28-2.44-0.41-4.87-0.41-7.31c0-2.44,0.13-4.87,0.42-7.31
					C97.95,53.94,98.36,51.5,99.16,49.06z"/>
			</g>
			<g>
				<path class="st39" d="M86.65,43.3c0.79,2.44,1.21,4.87,1.5,7.31c0.28,2.44,0.41,4.87,0.42,7.31c0,2.44-0.13,4.87-0.41,7.31
					c-0.3,2.44-0.71,4.87-1.51,7.31c-0.8-2.44-1.21-4.87-1.51-7.31c-0.28-2.44-0.41-4.87-0.41-7.31c0-2.44,0.13-4.87,0.42-7.31
					C85.45,48.17,85.86,45.74,86.65,43.3z"/>
			</g>
			<g>
				<path class="st39" d="M68.55,56.48c0.61,1.88,0.93,3.76,1.16,5.64c0.22,1.88,0.32,3.76,0.32,5.64c0,1.88-0.1,3.76-0.32,5.64
					c-0.23,1.88-0.55,3.76-1.16,5.64c-0.62-1.88-0.94-3.76-1.16-5.64c-0.22-1.88-0.32-3.76-0.32-5.64c0-1.88,0.1-3.76,0.32-5.64
					C67.62,60.24,67.94,58.36,68.55,56.48z"/>
			</g>
			<g>
				<path class="st39" d="M64.06,68.09c0.61,1.88,0.93,3.76,1.16,5.64c0.22,1.88,0.32,3.76,0.32,5.64c0,1.88-0.1,3.76-0.32,5.64
					c-0.23,1.88-0.55,3.76-1.16,5.64c-0.62-1.88-0.94-3.76-1.16-5.64c-0.22-1.88-0.32-3.76-0.32-5.64c0-1.88,0.1-3.76,0.32-5.64
					C63.13,71.85,63.44,69.97,64.06,68.09z"/>
			</g>
			<g>
				<path class="st39" d="M74.98,78.31c0.61,1.88,0.93,3.76,1.16,5.64c0.22,1.88,0.32,3.76,0.32,5.64c0,1.88-0.1,3.76-0.32,5.64
					c-0.23,1.88-0.55,3.76-1.16,5.64c-0.62-1.88-0.94-3.76-1.16-5.64c-0.22-1.88-0.32-3.76-0.32-5.64c0-1.88,0.1-3.76,0.32-5.64
					C74.05,82.07,74.36,80.19,74.98,78.31z"/>
			</g>
			<g>
				<polygon class="st38" points="87.86,82.74 98.51,76.93 93.19,85.7 87.86,94.47 82.54,85.7 77.21,76.93 				"/>
				<polygon class="st38" points="87.86,81.01 98.51,75.21 93.19,65.27 87.86,55.34 82.54,65.27 77.21,75.21 				"/>
				<polygon class="st39" points="77.21,75.21 87.86,68.17 98.51,75.21 87.86,55.34 				"/>
				<polygon class="st40" points="87.86,81.01 87.86,55.34 82.54,65.27 77.21,75.21 				"/>
				<polygon class="st41" points="77.21,75.21 87.86,68.17 87.86,55.34 				"/>
				<polygon class="st40" points="87.86,82.74 87.86,94.47 82.54,85.7 77.21,76.93 				"/>
			</g>
			<g>
				<path class="st39" d="M93.82,75.07c0.61,1.88,0.93,3.76,1.16,5.64c0.22,1.88,0.32,3.76,0.32,5.64c0,1.88-0.1,3.76-0.32,5.64
					c-0.23,1.88-0.55,3.76-1.16,5.64c-0.62-1.88-0.94-3.76-1.16-5.64c-0.22-1.88-0.32-3.76-0.32-5.64c0-1.88,0.1-3.76,0.32-5.64
					C92.88,78.83,93.2,76.95,93.82,75.07z"/>
			</g>
			<circle class="st39" cx="110.77" cy="57.95" r="0.69"/>
			<circle class="st39" cx="113.91" cy="79.81" r="0.58"/>
			<circle class="st39" cx="99.47" cy="84.21" r="0.33"/>
			<circle class="st39" cx="111.79" cy="104.22" r="0.33"/>
			<circle class="st39" cx="46.51" cy="101.93" r="0.33"/>
			<circle class="st39" cx="70.94" cy="61.16" r="0.33"/>
			<circle class="st39" cx="89.77" cy="53.78" r="0.33"/>
			<circle class="st39" cx="94.18" cy="46.85" r="0.26"/>
			<circle class="st39" cx="66.13" cy="49.87" r="0.26"/>
			<circle class="st39" cx="81.95" cy="43.63" r="0.33"/>
			<circle class="st39" cx="58.46" cy="84.7" r="0.44"/>
			<circle class="st39" cx="52.87" cy="64.45" r="0.44"/>
			<circle class="st39" cx="43.33" cy="78.75" r="0.44"/>
		</g>
	</g>
</g>
</svg>
