<?xml version="1.0" encoding="utf-8"?>
<!-- Generator: Adobe Illustrator 25.1.0, SVG Export Plug-In . SVG Version: 6.00 Build 0)  -->
<svg version="1.1" id="Layer_1" xmlns="http://www.w3.org/2000/svg" xmlns:xlink="http://www.w3.org/1999/xlink" x="0px" y="0px"
	 viewBox="0 0 225.6 161.8" style="enable-background:new 0 0 225.6 161.8;" xml:space="preserve">
<style type="text/css">
	.st0{fill:none;stroke:#5960C8;stroke-width:6.4173;stroke-miterlimit:10;}
	.st1{fill:#121633;}
	.st2{fill:#9CABBE;}
	.st3{fill:#AEB9CA;}
	.st4{fill:#D0E8FE;}
	.st5{fill:#7D90AA;}
	.st6{fill:#FFFEFF;}
	.st7{fill:#36475D;}
	.st8{fill:#00FEFC;}
	.st9{fill:#FFA100;}
	.st10{fill:#FDDF00;}
	.st11{fill:#7579C0;}
	.st12{fill:#A1406C;}
	.st13{fill:#FE65A9;}
	.st14{fill:#FFFFFF;}
	.st15{fill:#00E9BE;}
</style>
<g>
	<g>
		<g>
			<g>
				<path class="st0" d="M95.6,29.9c0,0-27.8-16-33.1-19.1s-5.3,4.5-5.3,4.5v48.7"/>
			</g>
			<g>
				<path class="st0" d="M107.6,36.8c0,0-27.8-16-33.1-19.1c-5.3-3.1-5.3,4.5-5.3,4.5v32"/>
			</g>
			<g>
				<path class="st0" d="M119.7,43.8c0,0-27.8-16-33.1-19.1s-5.3,4.5-5.3,4.5v43.9"/>
			</g>
		</g>
	</g>
	<g>
		<g>
			<g>
				<path class="st0" d="M140.2,56.1c0,0,27.8,16,33.1,19.1c5.3,3,5.3,10.7,5.3,10.7v43.4"/>
			</g>
			<g>
				<path class="st0" d="M128.2,49.1c0,0,27.8,16,33.1,19.1c5.3,3.1,5.3,10.7,5.3,10.7v34.6"/>
			</g>
			<g>
				<path class="st0" d="M116.1,42.2c0,0,27.8,16,33.1,19.1c5.3,3,5.3,10.7,5.3,10.7v44.3"/>
			</g>
		</g>
	</g>
	<g>
		<g>
			<path class="st1" d="M126.6,107.5l-10.9-6.3c-1.3-0.7-3.7-0.7-5.3,0.2l-8.4,4.1c-0.5,0.2-0.8,0.6-1,0.9h-0.2v0.9l0,0
				c0,0.5,0.3,1,0.9,1.3l12.1,7c1.3,0.7,3.7,0.7,5.3-0.2l7.1-4.8C127.8,109.7,127.9,108.3,126.6,107.5z"/>
			<path class="st2" d="M113.9,114.7l-12.1-7c-1.3-0.7-1.1-2.1,0.4-3l8.4-4.1c1.6-0.9,3.9-1,5.3-0.2l10.9,6.3c1.3,0.7,1.1,2.1-0.4,3
				l-7.1,4.8C117.6,115.3,115.2,115.4,113.9,114.7z"/>
		</g>
		<g>
			<path class="st3" d="M143.3,71.2l-10.1-5.8l-5.7-3.3l-3.7-2.1l-11.3-6.5l-17.1-9.9c-0.7-0.4-1.3-0.4-1.8-0.1l0,0l-2.3,1.3
				l1.4,2.1v33.5v4.9c0,2.1,1.2,4.4,2.8,5.3l45.2,26.1l2.1,3l2.3-1.3l0,0c0.7-0.3,1-1.1,1-2.3v-4.9V76.5
				C146,74.5,144.8,72.1,143.3,71.2z"/>
			<g>
				<path class="st4" d="M93,91.9l47.9,27.7c1.6,0.9,2.8-0.1,2.8-2.1v-4.8L90.3,81.9v4.8C90.2,88.7,91.5,91,93,91.9z"/>
				<g>
					<rect x="98.3" y="74.7" transform="matrix(0.5 -0.866 0.866 0.5 -9.0746 137.9453)" class="st5" width="33.3" height="4.3"/>
					<path class="st5" d="M93,45c-1.6-0.9-2.8,0.1-2.8,2.1v34.7l3.2,1.9l16.7-28.8L93,45z"/>
					<path class="st5" d="M143.6,77.9c0-2.1-1.2-4.4-2.8-5.3l-10.1-5.8L114,95.6l29.5,17L143.6,77.9L143.6,77.9z"/>
					<rect x="90.8" y="66" transform="matrix(0.5 -0.866 0.866 0.5 -9.0522 129.3065)" class="st2" width="33.3" height="13.1"/>
					<rect x="103" y="76.3" transform="matrix(0.5 -0.866 0.866 0.5 -9.0995 143.372)" class="st2" width="33.3" height="6.6"/>
				</g>
				<g>
					<path class="st6" d="M111.5,73.7c-0.5-0.2-0.9,0-0.9,0.7c0,0.7,0.4,1.4,0.9,1.6c0.5,0.2,0.9,0,0.9-0.7
						C112.4,74.7,112,74,111.5,73.7z"/>
					<path class="st6" d="M115.1,75.8c-0.5-0.2-0.9,0-0.9,0.7c0,0.7,0.4,1.4,0.9,1.6c0.5,0.2,0.9,0,0.9-0.7
						C116,76.8,115.6,76,115.1,75.8z"/>
					<path class="st6" d="M118.7,77.8c-0.5-0.2-0.9,0-0.9,0.7c0,0.7,0.4,1.4,0.9,1.6c0.5,0.2,0.9,0,0.9-0.7
						C119.6,78.9,119.2,78.1,118.7,77.8z"/>
					<path class="st6" d="M122.3,80c-0.5-0.2-0.9,0-0.9,0.7c0,0.7,0.4,1.4,0.9,1.6c0.5,0.2,0.9,0,0.9-0.7
						C123.2,80.9,122.8,80.2,122.3,80z"/>
				</g>
			</g>
		</g>
	</g>
	<g>
		<path class="st7" d="M153.4,58.5c0-5-3-10.8-6.7-12.9c-0.6-0.3-1.1-0.6-1.6-0.7c-1.3-6.4-5.3-12.8-9.9-15.4
			c-0.1-0.1-0.2-0.1-0.2-0.2c-1.1-7.5-5.6-15.2-11.1-18.3c-3-1.7-5.6-1.7-7.6-0.5l0,0l-4.7,2.7L110,16c-1.2-1.4-2.5-2.5-3.9-3.3
			c-2.6-1.5-5-1.6-6.8-0.5l0,0l-4.5,2.5l-1.1,2.6L88.9,20l2.5,2c0,0.2,0,0.5,0,0.7c0,5,3,10.8,6.7,12.9l7.9,4.5l26,15l14.1,11.6
			l4.8-2.7l0,0C152.4,63.3,153.4,61.3,153.4,58.5z"/>
		<path class="st8" d="M91.1,19.7c1.2-5,5.2-6.9,9.9-4.2c2.5,1.4,4.8,3.9,6.5,6.9c0-8.3,5.1-12.1,11.3-8.5
			c5.4,3.1,9.9,10.8,11.1,18.3c0.1,0.1,0.2,0.1,0.2,0.2c4.7,2.7,8.6,9.1,9.9,15.4c0.5,0.2,1.1,0.3,1.6,0.7c3.8,2.1,6.7,8,6.7,12.9
			s-3,7.3-6.7,5.1l-11.5-6.7l-29.1-16.8l-7.9-4.5c-3.8-2.1-6.7-8-6.7-12.9C86.4,21.6,88.4,19.3,91.1,19.7z"/>
	</g>
	<g>
		<path class="st9" d="M76,67.7c0-4-2.5-8.6-5.4-10.3c-1.4-0.8-2.7-0.8-3.7-0.2l0,0l-1.7,1l0.4,0.8c-0.2,0.7-0.4,1.6-0.4,2.5
			c0,4,2.5,8.6,5.4,10.3c0.5,0.2,0.9,0.4,1.3,0.6l0.4,0.8l1.9-1.1l0,0C75.4,71.4,76,69.9,76,67.7z"/>
		<g>
			
				<ellipse transform="matrix(0.9201 -0.3916 0.3916 0.9201 -20.2306 32.1504)" class="st10" cx="68.7" cy="65.7" rx="4.7" ry="8.3"/>
			
				<ellipse transform="matrix(0.9201 -0.3916 0.3916 0.9201 -20.2306 32.1504)" class="st9" cx="68.7" cy="65.7" rx="3.7" ry="6.6"/>
		</g>
		<g>
			<g>
				<g>
					<polygon class="st6" points="68.7,70.2 68.7,67.9 66.7,64.9 					"/>
					<polygon class="st6" points="68.7,61.1 66.7,64.4 68.7,64.4 70.8,66.9 					"/>
				</g>
				<g>
					<polygon class="st6" points="68.7,70.2 70.8,67.4 68.7,67.9 					"/>
					<polygon class="st6" points="70.8,66.9 68.7,64.4 66.7,64.4 68.7,67.3 					"/>
				</g>
			</g>
		</g>
	</g>
	<g>
		<path class="st9" d="M63.5,77c0-4-2.5-8.6-5.4-10.3c-1.4-0.8-2.7-0.8-3.7-0.2l0,0l-1.7,1l0.4,0.8c-0.2,0.7-0.4,1.6-0.4,2.5
			c0,4,2.5,8.6,5.4,10.3c0.5,0.2,0.9,0.4,1.3,0.6l0.4,0.8l1.9-1.1l0,0C62.8,80.7,63.5,79.1,63.5,77z"/>
		<g>
			<ellipse transform="matrix(0.9201 -0.3916 0.3916 0.9201 -24.8595 28.0054)" class="st10" cx="56.2" cy="75" rx="4.7" ry="8.3"/>
			<ellipse transform="matrix(0.9201 -0.3916 0.3916 0.9201 -24.8595 28.0054)" class="st9" cx="56.2" cy="75" rx="3.7" ry="6.6"/>
			<g>
				<g>
					<g>
						<path class="st6" d="M58.9,74.1l-4.4-2.5l-0.3,1.1l3.3,1.9c0.2,0.1,0.2,0.3,0.2,0.6l-0.5,1.1c-0.1,0.2-0.2,0.2-0.4,0.2
							l-3.3-1.9l-0.3,1.1l4.4,2.5c0.3,0.2,0.7,0.1,0.8-0.3l0.8-2.6C59.5,74.9,59.3,74.4,58.9,74.1z"/>
					</g>
					<g>
						<path class="st6" d="M55.2,74.9c0.1,0.1,0.2,0,0.2-0.1l0.2-0.5c0-0.1,0-0.2-0.1-0.2L54,73.2l-0.7-0.4L53,73.6l0.7,0.4
							L55.2,74.9z"/>
					</g>
				</g>
			</g>
		</g>
	</g>
	<g>
		<path class="st9" d="M87.6,86.5c0-4-2.5-8.6-5.4-10.3c-1.4-0.8-2.7-0.8-3.7-0.2l0,0l-1.7,1l0.4,0.8c-0.2,0.7-0.4,1.6-0.4,2.5
			c0,4,2.5,8.6,5.4,10.3c0.5,0.2,0.9,0.4,1.3,0.6l0.4,0.8l1.9-1.1l0,0C86.9,90.2,87.6,88.7,87.6,86.5z"/>
		<g>
			
				<ellipse transform="matrix(0.9201 -0.3916 0.3916 0.9201 -26.6513 38.2199)" class="st10" cx="80.4" cy="84.5" rx="4.7" ry="8.3"/>
			
				<ellipse transform="matrix(0.9201 -0.3916 0.3916 0.9201 -26.6513 38.2199)" class="st9" cx="80.4" cy="84.5" rx="3.7" ry="6.6"/>
		</g>
		<path class="st6" d="M82.9,87.3c0-0.2-0.1-0.4-0.2-0.6c-0.1-0.2-0.1-0.3-0.2-0.4c-0.1-0.2-0.2-0.2-0.2-0.4
			c0.1-0.2,0.2-0.3,0.2-0.6v-0.6c-0.1-0.8-0.6-1.6-1.1-2.1l-0.2-0.1L81,82.5v-0.9l-0.9-0.5V82l-0.5-0.3v-0.9l-0.2-0.2l-0.7-0.3v0.9
			l-0.3-0.2l-0.6-0.3v0.9l0.6,0.3v1.4v1v1.4l-0.7-0.3v0.9l0.6,0.3l0.3,0.2v0.5l0.7,0.3l0.2,0.2v-0.5l0.5,0.3v0.5l0.9,0.5v-0.5
			l0.5,0.3l0,0l0.3,0.2h0.1c0.2,0.1,0.5,0.1,0.7-0.1c0.1-0.1,0.2-0.2,0.2-0.3c0-0.1,0.1-0.2,0.1-0.3c0-0.1,0-0.2,0-0.2
			S82.9,87.4,82.9,87.3z M79.6,82.5l0.5,0.3l0.1,0.1l0.7,0.4l0.1,0.1l0,0c0.2,0.2,0.4,0.6,0.5,0.9v0.2c0,0.3-0.2,0.4-0.5,0.3h-0.1
			v-0.2l-0.7-0.4H80L79.6,84L79.6,82.5z M81.8,87.1c-0.1,0.2-0.2,0.4-0.4,0.3l-0.2-0.1l-0.2-0.1l-0.5-0.3l-0.5-0.2l-0.5-0.3V85
			l0.5,0.3l0.5,0.3l0.3,0.2H81l0.2,0.1l0.1,0.1c0.1,0,0.1,0.1,0.1,0.1c0.2,0.2,0.3,0.5,0.3,0.7L81.8,87.1z"/>
	</g>
	<g>
		<path class="st9" d="M159.9,128.4c0-4-2.5-8.6-5.4-10.3c-1.4-0.8-2.7-0.8-3.7-0.2l0,0l-1.7,1l0.4,0.8c-0.2,0.7-0.4,1.6-0.4,2.5
			c0,4,2.5,8.6,5.4,10.3c0.5,0.2,0.9,0.4,1.3,0.6l0.4,0.8l1.9-1.1l0,0C159.2,132.1,159.9,130.6,159.9,128.4z"/>
		<g>
			
				<ellipse transform="matrix(0.9201 -0.3916 0.3916 0.9201 -37.2896 69.8605)" class="st10" cx="152.6" cy="126.4" rx="4.7" ry="8.3"/>
			
				<ellipse transform="matrix(0.9201 -0.3916 0.3916 0.9201 -37.2896 69.8605)" class="st9" cx="152.6" cy="126.4" rx="3.7" ry="6.6"/>
		</g>
		<polygon class="st6" points="152.4,127.9 152.7,126.4 153.4,126.5 153.5,125.7 152.9,125.6 153.5,123.2 151.8,122.2 151.1,125.4 
			150.6,125.4 150.4,126.3 150.9,126.3 150.5,128.2 152.1,129.1 154.6,130.5 154.9,129.3 		"/>
	</g>
	<g>
		<g>
			<path class="st9" d="M173.5,126.2c0-4-2.5-8.6-5.4-10.3c-1.4-0.8-2.7-0.8-3.7-0.2l0,0l-1.7,1l0.4,0.8c-0.2,0.7-0.4,1.6-0.4,2.5
				c0,4,2.5,8.6,5.4,10.3c0.5,0.2,0.9,0.4,1.3,0.6l0.4,0.8l1.9-1.1l0,0C172.8,129.9,173.5,128.3,173.5,126.2z"/>
			<g>
				
					<ellipse transform="matrix(0.9201 -0.3916 0.3916 0.9201 -35.3392 74.9931)" class="st10" cx="166.2" cy="124.1" rx="4.7" ry="8.3"/>
				
					<ellipse transform="matrix(0.9201 -0.3916 0.3916 0.9201 -35.3392 74.9931)" class="st9" cx="166.2" cy="124.1" rx="3.7" ry="6.6"/>
			</g>
		</g>
		<path class="st6" d="M167.9,126.2c0-0.1-0.1-0.2-0.1-0.2c-0.1-0.2-0.2-0.5-0.4-0.7c-0.2-0.2-0.2-0.2-0.4-0.3l-0.1-0.1
			c-0.1,0-0.1-0.1-0.1-0.1s-0.2-0.2-0.2-0.6c0-0.3,0.2-0.3,0.2-0.3l0,0l0,0c0.1,0,0.1,0,0.2,0c0.2,0.1,0.3,0.1,0.4,0.2
			c0.1,0,0.2,0,0.2,0c0.2,0,0.3-0.2,0.5-0.4c0.1-0.2,0.1-0.5,0-0.8c-0.1-0.5-0.3-1-0.7-1.3c-0.1-0.2-0.2-0.2-0.3-0.3
			c-0.2-0.2-0.5-0.2-0.7-0.2c-0.1,0.1-0.2,0.2-0.2,0.2s-0.1,0.1-0.1,0.2c-0.1,0.2-0.1,0.4-0.1,0.7c0,0.2,0.1,0.4,0.2,0.7
			c0,0.1,0,0.1,0.1,0.2c0,0.1,0,0.1,0,0.2l0,0c0,0.2,0,0.4-0.2,0.4c-0.2,0-0.3-0.2-0.4-0.2l0,0c-0.1-0.1-0.1-0.2-0.1-0.2
			c-0.1-0.2-0.2-0.4-0.3-0.7c-0.1-0.1-0.1-0.2-0.2-0.2c-0.2-0.2-0.4-0.5-0.7-0.6c-0.2-0.1-0.4-0.1-0.6,0.1c-0.2,0.2-0.3,0.5-0.3,1
			c0,0.2,0.1,0.3,0.1,0.5c0.1,0.4,0.3,0.7,0.6,1c0.2,0.2,0.2,0.2,0.4,0.3c0.1,0,0.2,0.1,0.2,0.1c0.2,0.1,0.3,0.1,0.5,0
			c0.1-0.1,0.2-0.2,0.2-0.2c0,0,0-0.1,0.1-0.1l0.1-0.1l0,0c0.1,0,0.2,0,0.5,0.3c0.2,0.3,0.2,0.7,0.2,0.7v0.1
			c-0.1,0.2-0.1,0.3-0.2,0.5c0,0.1,0,0.2,0,0.2c0,0.3,0.1,0.7,0.2,1c0.2,0.3,0.3,0.6,0.6,0.8c0.3,0.3,0.7,0.4,0.9,0.3
			c0.1,0,0.2-0.1,0.2-0.2c0.2-0.2,0.2-0.5,0.2-0.9C168.1,126.6,168,126.4,167.9,126.2z"/>
	</g>
	<g>
		<g>
			<path class="st9" d="M185,142c0-4-2.5-8.6-5.4-10.3c-1.4-0.8-2.7-0.8-3.7-0.2l0,0l-1.7,1l0.4,0.8c-0.2,0.7-0.4,1.6-0.4,2.5
				c0,4,2.5,8.6,5.4,10.3c0.5,0.2,0.9,0.4,1.3,0.6l0.4,0.8l1.9-1.1l0,0C184.3,145.7,185,144.2,185,142z"/>
			<g>
				
					<ellipse transform="matrix(0.9201 -0.3916 0.3916 0.9201 -40.5912 80.7514)" class="st10" cx="177.7" cy="139.9" rx="4.7" ry="8.3"/>
				
					<ellipse transform="matrix(0.9201 -0.3916 0.3916 0.9201 -40.5912 80.7514)" class="st9" cx="177.7" cy="139.9" rx="3.7" ry="6.6"/>
			</g>
		</g>
		<path class="st6" d="M177.9,143.1c0.3,0.2,0.7,0.2,0.9,0.1c0.1,0,0.1-0.1,0.1-0.1c0.2-0.2,0.3-0.6,0.3-1.1c0-0.3-0.1-0.7-0.2-1
			c-0.1-0.3-0.2-0.6-0.4-0.8c-0.2-0.2-0.4-0.6-0.7-0.9l0,0l0,0c0,0,0,0,0-0.1c-0.2-0.2-0.4-0.5-0.5-0.7c-0.1-0.2-0.2-0.3-0.2-0.5
			l0,0c0-0.2,0.1-0.2,0.2-0.3c0.1-0.1,0.2-0.1,0.4,0c0.3,0.2,0.6,0.6,0.7,1.2h0.7l0,0l0,0c-0.2-0.9-0.6-1.6-1.2-2.1l0,0l0,0v-0.7
			l-0.6-0.3v0.7c-0.2-0.1-0.4-0.1-0.5-0.1c-0.1,0-0.2,0-0.2,0.1l0,0l0,0c-0.1,0-0.1,0.1-0.2,0.2c-0.2,0.2-0.2,0.6-0.2,1
			c0,0.3,0.1,0.7,0.2,1c0.1,0.3,0.2,0.6,0.4,0.8c0.2,0.2,0.4,0.5,0.7,0.8c0.3,0.3,0.6,0.6,0.7,0.7c0.1,0.2,0.2,0.3,0.2,0.6
			c0,0.2-0.1,0.3-0.2,0.4c-0.1,0.1-0.2,0.1-0.4,0h-0.1c-0.4-0.2-0.7-0.7-0.8-1.4l-0.8-0.2c0.2,1.1,0.7,2,1.3,2.5v0.9l0,0l0.4,0.2
			l0.2,0.1v-0.4v-0.7H177.9z"/>
	</g>
	<g>
		<g>
			<g>
				<g>
					
						<ellipse transform="matrix(0.9201 -0.3916 0.3916 0.9201 -11.8703 51.2879)" class="st11" cx="119.8" cy="54.7" rx="4.1" ry="7.3"/>
				</g>
				<polygon class="st11" points="124.5,52.8 119,55.7 116.9,52.2 115.8,52.8 117.8,56.3 119,58.3 120.1,57.6 125.5,54.7 				"/>
			</g>
		</g>
		<path class="st12" d="M129.6,59.4c-0.1-0.8-0.7-1.6-1.2-2l-1.6-0.9c-0.2-1.1-0.5-2.1-0.8-3.2l1.1-0.9c0.4-0.3,0.5-1.1,0.2-2
			c-0.1-0.1-0.1-0.2-0.2-0.3l-0.3-0.7l0,0l-0.3-0.7c-0.1-0.1-0.2-0.2-0.2-0.3c-0.5-0.7-1.1-1-1.6-0.7l0,0l-1.2,0.7h-0.1l0,0
			c-0.6-0.8-1.2-1.5-1.9-2.1v-2.2c0-0.8-0.4-1.7-1-2.2c-0.1-0.1-0.2-0.2-0.2-0.2l-0.5-0.2l-0.5-0.2c-0.1-0.1-0.2-0.1-0.2-0.1
			c-0.2-0.1-0.4,0-0.6,0.1l0,0l-1.1,0.7l-0.5,2.3h-0.1c-0.2,0-0.4,0-0.7,0.1l-1.1-2.2c-0.4-0.8-1.1-1.2-1.6-1.1
			c-0.1,0-0.1,0.1-0.2,0.1l0,0l-1.2,0.7l0.3,5.1l-0.5,0.9l-0.7-0.4c-0.3-0.2-0.6-0.2-0.8-0.1l0,0l-1.2,0.7l0.8,0.3V49v0.7
			c0,0.1,0,0.2,0,0.3c0.1,0.8,0.7,1.6,1.2,2l0.7,0.4l0.5,4.5l0.1,0.2c-0.3,0.4-0.3,1.1-0.1,1.9c0.1,0.1,0.1,0.2,0.2,0.3l0.7,1.3
			l0.4,1.8l1.2-0.7l0,0l1.9,2.1l3,5.2l1.3-0.7l0,0c0.3-0.2,0.5-0.5,0.5-1v-1.2l0.7-0.1l2.9,3.2l1.2-0.7l0,0c0.1,0,0.1-0.1,0.2-0.1
			l0.3-0.2l0,0l0.3-0.2c0.1-0.1,0.1-0.1,0.2-0.2c0.3-0.5,0.2-1.4-0.2-2.1l-1.1-2.2c0.2-0.2,0.3-0.6,0.5-0.9l0,0l1.6,0.4l1.3-0.7l0,0
			c0.2-0.1,0.3-0.3,0.4-0.7c0-0.1,0-0.2,0-0.3v-0.7v-0.7C129.7,59.7,129.6,59.5,129.6,59.4z"/>
		<g>
			<g>
				<path class="st13" d="M128.3,60.2c-0.1-0.8-0.7-1.6-1.2-2l-1.6-0.9c-0.2-1.1-0.5-2.1-0.8-3.2l1.1-0.9c0.4-0.3,0.5-1.1,0.2-2
					c-0.1-0.1-0.1-0.2-0.2-0.3l-0.3-0.7l0,0l-0.3-0.7c-0.1-0.1-0.2-0.2-0.2-0.3c-0.5-0.7-1.1-1-1.6-0.7l-1.1,0.9
					c-0.7-0.8-1.3-1.6-2.1-2.3v-2.1c0-0.8-0.4-1.7-1-2.2c-0.1-0.1-0.2-0.2-0.2-0.2l-0.5-0.2l-0.5-0.2c-0.1-0.1-0.2-0.1-0.2-0.1
					c-0.6-0.2-1,0.2-1,1.1v2.1c-0.7-0.2-1.4-0.2-2.1-0.1l-1.1-2.2c-0.4-0.8-1.1-1.2-1.6-1.1c-0.1,0-0.2,0.1-0.2,0.1l-0.7,0.5
					c-0.1,0.1-0.1,0.1-0.2,0.2c-0.3,0.5-0.2,1.4,0.2,2.1l1.1,2.2c-0.4,0.6-0.7,1.3-0.8,2.2l-1.6-0.9c-0.6-0.3-1.1-0.1-1.2,0.6
					c0,0.1,0,0.2,0,0.3v0.7v0.7c0,0.1,0,0.2,0,0.3c0.1,0.8,0.7,1.6,1.2,2l1.6,0.9c0.2,1.1,0.5,2.1,0.8,3.2l-1.1,0.9
					c-0.4,0.3-0.5,1.1-0.2,2c0.1,0.1,0.1,0.2,0.2,0.3l0.7,1.3c0.1,0.1,0.2,0.2,0.2,0.3c0.5,0.7,1.1,1,1.6,0.7l1.1-0.9
					c0.7,0.8,1.3,1.6,2.1,2.3v2.1c0,0.8,0.4,1.7,1,2.2c0.1,0.1,0.2,0.2,0.2,0.2l0.5,0.2l0.5,0.2c0.1,0.1,0.2,0.1,0.2,0.1
					c0.6,0.2,1-0.2,1-1.1v-2.1c0.7,0.2,1.4,0.2,2.1,0.1l1.1,2.2c0.4,0.8,1.1,1.2,1.6,1.1c0.1,0,0.2-0.1,0.2-0.1l0.3-0.2l0,0l0.3-0.2
					c0.1-0.1,0.1-0.1,0.2-0.2c0.3-0.5,0.2-1.4-0.2-2.1l-1.1-2.2c0.4-0.6,0.7-1.3,0.8-2.2l1.6,0.9c0.6,0.3,1.1,0.1,1.2-0.6
					c0-0.1,0-0.2,0-0.3v-0.7v-0.7C128.4,60.4,128.3,60.2,128.3,60.2z"/>
				
					<ellipse transform="matrix(0.9201 -0.3916 0.3916 0.9201 -12.2662 50.8301)" class="st14" cx="118.5" cy="55.5" rx="4.1" ry="7.3"/>
			</g>
			<polygon class="st15" points="123.2,53.5 117.7,56.5 115.6,52.9 114.5,53.5 116.5,57.1 117.7,59 118.8,58.4 124.2,55.4 			"/>
		</g>
	</g>
</g>
</svg>
