<?xml version="1.0" encoding="utf-8"?>
<!-- Generator: Adobe Illustrator 25.1.0, SVG Export Plug-In . SVG Version: 6.00 Build 0)  -->
<svg version="1.1" id="Layer_1" xmlns="http://www.w3.org/2000/svg" xmlns:xlink="http://www.w3.org/1999/xlink" x="0px" y="0px"
	 viewBox="0 0 790.6 346.1" style="enable-background:new 0 0 790.6 346.1;" xml:space="preserve">
<style type="text/css">
	.st0{fill:url(#SVGID_1_);}
	.st1{fill:url(#SVGID_2_);}
	.st2{fill:url(#SVGID_3_);}
	.st3{fill:url(#SVGID_4_);}
	.st4{fill:url(#SVGID_5_);}
	.st5{fill:url(#SVGID_6_);}
	.st6{fill:url(#SVGID_7_);}
	.st7{fill:url(#SVGID_8_);}
	.st8{fill:url(#SVGID_9_);}
	.st9{fill:url(#SVGID_10_);}
	.st10{fill:url(#SVGID_11_);}
	.st11{fill:none;stroke:url(#SVGID_12_);stroke-width:6.6305;stroke-miterlimit:10;}
	.st12{fill:#11A7F6;}
	.st13{fill:#FFFFFF;}
	.st14{fill:none;stroke:url(#SVGID_13_);stroke-width:6.6305;stroke-miterlimit:10;}
	.st15{fill:none;stroke:url(#SVGID_14_);stroke-width:3.3978;stroke-miterlimit:10;}
	.st16{fill:none;stroke:url(#SVGID_15_);stroke-width:3.3978;stroke-miterlimit:10;}
	.st17{fill:none;stroke:url(#SVGID_16_);stroke-width:3.3978;stroke-miterlimit:10;}
	.st18{fill:none;stroke:url(#SVGID_17_);stroke-width:3.3978;stroke-miterlimit:10;}
	.st19{fill:none;stroke:url(#SVGID_18_);stroke-width:5.663;stroke-miterlimit:10;}
	.st20{fill:url(#SVGID_19_);}
	.st21{fill:url(#SVGID_20_);}
	.st22{fill:url(#SVGID_21_);}
	.st23{fill:none;stroke:url(#SVGID_22_);stroke-width:5.663;stroke-miterlimit:10;}
	.st24{fill:none;stroke:url(#SVGID_23_);stroke-width:3.3978;stroke-miterlimit:10;}
	.st25{fill:none;stroke:url(#SVGID_24_);stroke-width:5.663;stroke-miterlimit:10;}
	.st26{fill:none;stroke:url(#SVGID_25_);stroke-width:3.3978;stroke-miterlimit:10;}
	.st27{fill:none;stroke:url(#SVGID_26_);stroke-width:3.3978;stroke-miterlimit:10;}
	.st28{fill:url(#SVGID_27_);}
	.st29{fill:url(#SVGID_28_);}
	.st30{fill:url(#SVGID_29_);}
	.st31{fill:url(#SVGID_30_);}
	.st32{fill:url(#SVGID_31_);}
	.st33{fill:url(#SVGID_32_);}
	.st34{fill:#051A78;}
	.st35{fill:url(#SVGID_33_);}
	.st36{fill:url(#SVGID_34_);}
	.st37{fill:none;stroke:url(#SVGID_35_);stroke-width:0.9293;stroke-miterlimit:10;}
	.st38{fill:url(#SVGID_36_);}
	.st39{fill:url(#SVGID_37_);}
	.st40{fill:none;stroke:url(#SVGID_38_);stroke-width:0.9293;stroke-miterlimit:10;}
	.st41{fill:url(#SVGID_39_);}
	.st42{fill:none;stroke:url(#SVGID_40_);stroke-width:0.9293;stroke-miterlimit:10;}
	.st43{enable-background:new    ;}
	.st44{fill:#FCEDCA;}
	.st45{fill:#FAB406;}
	.st46{fill:#FFCB29;}
	.st47{fill:url(#SVGID_41_);}
	.st48{fill:url(#SVGID_42_);}
	.st49{fill:url(#SVGID_43_);}
	.st50{fill:#FFF1DE;}
	.st51{fill:url(#SVGID_44_);}
	.st52{fill:url(#SVGID_45_);}
	.st53{fill:url(#SVGID_46_);}
	.st54{fill:url(#SVGID_47_);}
	.st55{fill:url(#SVGID_48_);}
	.st56{fill:#D6E7F7;}
	.st57{fill:url(#SVGID_49_);}
	.st58{clip-path:url(#SVGID_51_);}
	.st59{fill:none;stroke:url(#SVGID_52_);stroke-width:1.1242;stroke-miterlimit:10;}
	.st60{fill:none;stroke:url(#SVGID_53_);stroke-width:1.1242;stroke-miterlimit:10;}
	.st61{fill:none;stroke:url(#SVGID_54_);stroke-width:1.1242;stroke-miterlimit:10;}
	.st62{fill:none;stroke:url(#SVGID_55_);stroke-width:1.1242;stroke-miterlimit:10;}
	.st63{fill:url(#SVGID_56_);}
	.st64{fill:none;stroke:url(#SVGID_57_);stroke-width:1.1242;stroke-miterlimit:10;}
	.st65{fill:none;stroke:url(#SVGID_58_);stroke-width:1.8737;stroke-miterlimit:10;}
	.st66{fill:none;stroke:url(#SVGID_59_);stroke-width:1.1242;stroke-miterlimit:10;}
	.st67{fill:none;stroke:url(#SVGID_60_);stroke-width:1.1242;stroke-miterlimit:10;}
	.st68{fill:none;stroke:url(#SVGID_61_);stroke-width:1.1242;stroke-miterlimit:10;}
	.st69{fill:none;stroke:url(#SVGID_62_);stroke-width:1.8737;stroke-miterlimit:10;}
	.st70{clip-path:url(#SVGID_64_);}
	.st71{fill:none;stroke:url(#SVGID_65_);stroke-width:1.0618;stroke-miterlimit:10;}
	.st72{fill:none;stroke:url(#SVGID_66_);stroke-width:1.0618;stroke-miterlimit:10;}
	.st73{fill:none;stroke:url(#SVGID_67_);stroke-width:1.0618;stroke-miterlimit:10;}
	.st74{fill:none;stroke:url(#SVGID_68_);stroke-width:1.0618;stroke-miterlimit:10;}
	.st75{fill:none;stroke:url(#SVGID_69_);stroke-width:1.7696;stroke-miterlimit:10;}
	.st76{fill:none;stroke:url(#SVGID_70_);stroke-width:1.0618;stroke-miterlimit:10;}
	.st77{fill:none;stroke:url(#SVGID_71_);stroke-width:1.0618;stroke-miterlimit:10;}
	.st78{fill:none;stroke:url(#SVGID_72_);stroke-width:1.7696;stroke-miterlimit:10;}
	.st79{fill:none;stroke:url(#SVGID_73_);stroke-width:1.0618;stroke-miterlimit:10;}
	.st80{fill:none;stroke:url(#SVGID_74_);stroke-width:1.0618;stroke-miterlimit:10;}
	.st81{fill:none;stroke:url(#SVGID_75_);stroke-width:1.0618;stroke-miterlimit:10;}
	.st82{fill:none;stroke:url(#SVGID_76_);stroke-width:1.0618;stroke-miterlimit:10;}
	.st83{fill:none;stroke:url(#SVGID_77_);stroke-width:1.7696;stroke-miterlimit:10;}
	.st84{fill:none;stroke:url(#SVGID_78_);stroke-width:1.0618;stroke-miterlimit:10;}
	.st85{fill:none;stroke:url(#SVGID_79_);stroke-width:1.0618;stroke-miterlimit:10;}
	.st86{fill:none;stroke:url(#SVGID_80_);stroke-width:1.7696;stroke-miterlimit:10;}
	.st87{fill:#F4A2BA;}
	.st88{fill:url(#SVGID_81_);}
	.st89{fill:url(#SVGID_82_);}
	.st90{fill:url(#SVGID_83_);}
	.st91{fill:url(#SVGID_84_);}
	.st92{fill:url(#SVGID_85_);}
	.st93{fill:url(#SVGID_86_);}
	.st94{fill:url(#SVGID_87_);}
	.st95{fill:url(#SVGID_88_);}
	.st96{fill:url(#SVGID_89_);}
	.st97{fill:#1B2C49;}
	.st98{fill:url(#SVGID_90_);}
	.st99{fill:#09BFFF;}
	.st100{fill:url(#SVGID_91_);}
	.st101{fill:#FFA800;}
	.st102{fill:#FFAF04;}
	.st103{fill:#FFC261;}
	.st104{fill:url(#SVGID_92_);}
	.st105{fill:#43515E;}
	.st106{fill:#F7D25D;}
	.st107{fill:#4486E4;}
	.st108{fill:url(#SVGID_93_);}
	.st109{fill:#1BAFF8;}
	.st110{fill:#15B3FB;}
	.st111{fill:url(#SVGID_94_);}
	.st112{fill:#6961DE;}
	.st113{fill:url(#SVGID_95_);}
	.st114{fill:url(#SVGID_96_);}
	.st115{fill:url(#SVGID_97_);}
	.st116{fill:url(#SVGID_98_);}
	.st117{fill:url(#SVGID_99_);}
	.st118{fill:url(#SVGID_100_);}
	.st119{fill:url(#SVGID_101_);}
	.st120{fill:url(#SVGID_102_);}
	.st121{fill:url(#SVGID_103_);}
</style>
<g>
	<g>
		<g>
			<linearGradient id="SVGID_1_" gradientUnits="userSpaceOnUse" x1="241.1082" y1="334.2224" x2="280.558" y2="334.2224">
				<stop  offset="0" style="stop-color:#7D57C4"/>
				<stop  offset="0.0766" style="stop-color:#8B6CCD;stop-opacity:0.9104"/>
				<stop  offset="0.2527" style="stop-color:#A898DE;stop-opacity:0.7044"/>
				<stop  offset="0.4232" style="stop-color:#BFBAEC;stop-opacity:0.5049"/>
				<stop  offset="0.5843" style="stop-color:#D0D2F6;stop-opacity:0.3164"/>
				<stop  offset="0.7323" style="stop-color:#DAE1FC;stop-opacity:0.1433"/>
				<stop  offset="0.8547" style="stop-color:#DDE6FE;stop-opacity:0"/>
			</linearGradient>
			<path class="st0" d="M275.04,326.63c-17.95-10.44-45.61,6.04-28.61,16.15c6.46,3.92,17.23-1.77,11.11-5.78
				c-2.15-1.38-1.78-2.86-0.59-3.85c8.79-5.03,15.33,6.31,10.06,10.41c-0.44,0.49-1.19,1-0.02,1.47c0.77,0.31,1.41,0.05,2.19-0.82
				c5.97-5.19-0.97-17.42-13.14-12.57c-7.82,4.57,5.19,6.88-0.94,10.26c-2.04,1.08-4.95,1.04-6.9-0.09
				c-16.99-11.76,17.69-25.12,29.56-10.7c0.48,0.49,0.8,1.36,2.12,1.04C282.63,331.54,276.29,327.29,275.04,326.63z"/>
			<linearGradient id="SVGID_2_" gradientUnits="userSpaceOnUse" x1="247.2467" y1="333.7608" x2="277.3156" y2="333.7608">
				<stop  offset="0" style="stop-color:#7D57C4"/>
				<stop  offset="0.0766" style="stop-color:#8B6CCD;stop-opacity:0.9104"/>
				<stop  offset="0.2527" style="stop-color:#A898DE;stop-opacity:0.7044"/>
				<stop  offset="0.4232" style="stop-color:#BFBAEC;stop-opacity:0.5049"/>
				<stop  offset="0.5843" style="stop-color:#D0D2F6;stop-opacity:0.3164"/>
				<stop  offset="0.7323" style="stop-color:#DAE1FC;stop-opacity:0.1433"/>
				<stop  offset="0.8547" style="stop-color:#DDE6FE;stop-opacity:0"/>
			</linearGradient>
			<path class="st1" d="M271.29,329.55c-11.9-7.59-32.15,2.97-20.6,10.62c0.55,0.37,1.24,0.61,1.99,0.23
				c0.75-0.38,0.42-0.77-0.14-1.16c-9.72-6.43,7.86-15.07,17.25-8.56c3.68,2.47,5.05,5.39,5.11,8.57c0.16,0.76,2.31,0.74,2.38-0.04
				c0.05-0.33,0.03-0.66,0.01-0.98C277.1,334.79,275.31,332.21,271.29,329.55z"/>
			<linearGradient id="SVGID_3_" gradientUnits="userSpaceOnUse" x1="235.1606" y1="329.1875" x2="267.2758" y2="329.1875">
				<stop  offset="0" style="stop-color:#7D57C4"/>
				<stop  offset="0.0766" style="stop-color:#8B6CCD;stop-opacity:0.9104"/>
				<stop  offset="0.2527" style="stop-color:#A898DE;stop-opacity:0.7044"/>
				<stop  offset="0.4232" style="stop-color:#BFBAEC;stop-opacity:0.5049"/>
				<stop  offset="0.5843" style="stop-color:#D0D2F6;stop-opacity:0.3164"/>
				<stop  offset="0.7323" style="stop-color:#DAE1FC;stop-opacity:0.1433"/>
				<stop  offset="0.8547" style="stop-color:#DDE6FE;stop-opacity:0"/>
			</linearGradient>
			<path class="st2" d="M235.9,338.27c0.67,0.37,2.02,0.14,2.03-0.43c-2.73-9.34,11.89-17.91,28.13-16.28
				c1.33,0.07,1.71-1.15,0.41-1.34C249.13,318.07,231.29,328.31,235.9,338.27z"/>
			<linearGradient id="SVGID_4_" gradientUnits="userSpaceOnUse" x1="231.2576" y1="324.1448" x2="253.5707" y2="324.1448">
				<stop  offset="0" style="stop-color:#7D57C4"/>
				<stop  offset="0.0766" style="stop-color:#8B6CCD;stop-opacity:0.9104"/>
				<stop  offset="0.2527" style="stop-color:#A898DE;stop-opacity:0.7044"/>
				<stop  offset="0.4232" style="stop-color:#BFBAEC;stop-opacity:0.5049"/>
				<stop  offset="0.5843" style="stop-color:#D0D2F6;stop-opacity:0.3164"/>
				<stop  offset="0.7323" style="stop-color:#DAE1FC;stop-opacity:0.1433"/>
				<stop  offset="0.8547" style="stop-color:#DDE6FE;stop-opacity:0"/>
			</linearGradient>
			<path class="st3" d="M237.46,323.01c-0.51-0.04-8.62,6.93-5.48,7.52c1.03,0.2,1.42-0.21,1.71-0.71
				c3.13-5.36,9.35-8.94,18.65-10.73c0.84-0.16,1.45-0.41,1.17-0.95C251.76,316.28,240.57,321.03,237.46,323.01z"/>
			<linearGradient id="SVGID_5_" gradientUnits="userSpaceOnUse" x1="257.1984" y1="340.0598" x2="265.4835" y2="340.0598">
				<stop  offset="0" style="stop-color:#7D57C4"/>
				<stop  offset="0.0766" style="stop-color:#8B6CCD;stop-opacity:0.9104"/>
				<stop  offset="0.2527" style="stop-color:#A898DE;stop-opacity:0.7044"/>
				<stop  offset="0.4232" style="stop-color:#BFBAEC;stop-opacity:0.5049"/>
				<stop  offset="0.5843" style="stop-color:#D0D2F6;stop-opacity:0.3164"/>
				<stop  offset="0.7323" style="stop-color:#DAE1FC;stop-opacity:0.1433"/>
				<stop  offset="0.8547" style="stop-color:#DDE6FE;stop-opacity:0"/>
			</linearGradient>
			<path class="st4" d="M261.32,344.94c5.18-2.99,5.54-7.26,1.01-10.39c-0.91-0.95-3.35-0.52-2.41,0.52c0.5,0.4,1.1,0.76,1.55,1.17
				c3.2,2.93,1.37,6.62-3.87,8.64c-0.44,0.26-0.55,0.57-0.18,0.89C258.59,346.72,260.46,345.33,261.32,344.94z"/>
		</g>
		<g>
			<linearGradient id="SVGID_6_" gradientUnits="userSpaceOnUse" x1="227.589" y1="313.2277" x2="235.0903" y2="317.8017">
				<stop  offset="0" style="stop-color:#5940E7"/>
				<stop  offset="1" style="stop-color:#1BAFF8"/>
			</linearGradient>
			<path class="st5" d="M275.04,325.37c-17.95-10.44-45.61,6.04-28.61,16.15c6.46,3.92,17.23-1.77,11.11-5.78
				c-2.15-1.38-1.78-2.86-0.59-3.85c8.79-5.03,15.33,6.31,10.06,10.41c-0.44,0.49-1.19,1-0.02,1.47c0.77,0.31,1.41,0.05,2.19-0.82
				c5.97-5.19-0.97-17.42-13.14-12.57c-7.82,4.57,5.19,6.88-0.94,10.26c-2.04,1.08-4.95,1.04-6.9-0.09
				c-16.99-11.76,17.69-25.12,29.56-10.7c0.48,0.49,0.8,1.36,2.12,1.04C282.63,330.28,276.29,326.03,275.04,325.37z"/>
			<linearGradient id="SVGID_7_" gradientUnits="userSpaceOnUse" x1="227.5862" y1="313.2323" x2="235.0875" y2="317.8062">
				<stop  offset="0" style="stop-color:#5940E7"/>
				<stop  offset="1" style="stop-color:#1BAFF8"/>
			</linearGradient>
			<path class="st6" d="M271.29,328.29c-11.9-7.59-32.15,2.97-20.6,10.62c0.55,0.37,1.24,0.61,1.99,0.23
				c0.75-0.38,0.42-0.77-0.14-1.16c-9.72-6.43,7.86-15.07,17.25-8.56c3.68,2.47,5.05,5.39,5.11,8.57c0.16,0.76,2.31,0.74,2.38-0.04
				c0.05-0.33,0.03-0.66,0.01-0.98C277.1,333.53,275.31,330.95,271.29,328.29z"/>
			<linearGradient id="SVGID_8_" gradientUnits="userSpaceOnUse" x1="227.4572" y1="313.4439" x2="234.9585" y2="318.0179">
				<stop  offset="0" style="stop-color:#5940E7"/>
				<stop  offset="1" style="stop-color:#1BAFF8"/>
			</linearGradient>
			<path class="st7" d="M235.9,337.01c0.67,0.37,2.02,0.14,2.03-0.43c-2.73-9.34,11.89-17.91,28.13-16.28
				c1.33,0.07,1.71-1.15,0.41-1.34C249.13,316.81,231.29,327.05,235.9,337.01z"/>
			<linearGradient id="SVGID_9_" gradientUnits="userSpaceOnUse" x1="227.3062" y1="313.6915" x2="234.8075" y2="318.2655">
				<stop  offset="0" style="stop-color:#5940E7"/>
				<stop  offset="1" style="stop-color:#1BAFF8"/>
			</linearGradient>
			<path class="st8" d="M237.46,321.75c-0.51-0.04-8.62,6.93-5.48,7.52c1.03,0.2,1.42-0.21,1.71-0.71
				c3.13-5.36,9.35-8.94,18.65-10.73c0.84-0.16,1.45-0.41,1.17-0.95C251.76,315.02,240.57,319.77,237.46,321.75z"/>
			<linearGradient id="SVGID_10_" gradientUnits="userSpaceOnUse" x1="224.9373" y1="317.5765" x2="232.4386" y2="322.1504">
				<stop  offset="0" style="stop-color:#5940E7"/>
				<stop  offset="1" style="stop-color:#1BAFF8"/>
			</linearGradient>
			<path class="st9" d="M261.32,343.68c5.18-2.99,5.54-7.26,1.01-10.39c-0.91-0.95-3.35-0.52-2.41,0.52c0.5,0.4,1.1,0.76,1.55,1.17
				c3.2,2.93,1.37,6.62-3.87,8.64c-0.44,0.26-0.55,0.57-0.18,0.89C258.59,345.46,260.46,344.07,261.32,343.68z"/>
		</g>
	</g>
	<linearGradient id="SVGID_11_" gradientUnits="userSpaceOnUse" x1="219.3481" y1="225.777" x2="66.639" y2="207.2373">
		<stop  offset="0" style="stop-color:#7D57C4"/>
		<stop  offset="0.0766" style="stop-color:#8B6CCD;stop-opacity:0.9104"/>
		<stop  offset="0.2527" style="stop-color:#A898DE;stop-opacity:0.7044"/>
		<stop  offset="0.4232" style="stop-color:#BFBAEC;stop-opacity:0.5049"/>
		<stop  offset="0.5843" style="stop-color:#D0D2F6;stop-opacity:0.3164"/>
		<stop  offset="0.7323" style="stop-color:#DAE1FC;stop-opacity:0.1433"/>
		<stop  offset="0.8547" style="stop-color:#DDE6FE;stop-opacity:0"/>
	</linearGradient>
	<path class="st10" d="M201.99,212.63l-19.89-11.48c-1.59-0.92-4.37-0.8-6.2,0.26l-27.48,15.86c-1.84,1.06-2.04,2.66-0.45,3.58
		l19.89,11.48c0.91,0.52,2.2,0.7,3.49,0.57l1.01,6.65c0.11,0.73,1.23,1.28,2.5,1.21c1.27-0.06,2.21-0.71,2.1-1.45l-1.24-8.2
		l25.82-14.91C203.38,215.16,203.58,213.55,201.99,212.63z"/>
	<g>
		
			<linearGradient id="SVGID_12_" gradientUnits="userSpaceOnUse" x1="1744.2101" y1="44.2444" x2="1809.601" y2="44.2444" gradientTransform="matrix(-1 0 0 1 2218.7783 0)">
			<stop  offset="0" style="stop-color:#5940E7"/>
			<stop  offset="1" style="stop-color:#1BAFF8"/>
		</linearGradient>
		<polyline class="st11" points="471.25,-16.93 471.25,11.26 446.6,25.5 446.84,82.02 410.82,102.54 		"/>
		<g>
			<path class="st12" d="M485.85-44.69c0,8.16-3.67,17.05-8.46,21.05c-0.53,0.44-1.06,0.82-1.61,1.13L442.7,2.91l-9.67-2.32
				c-2.77-0.65-4.68-4.22-4.69-9.6c-0.01-7.57,3.74-15.88,8.39-18.56c0.85-0.49,1.68-0.76,2.46-0.82c0,0,2.25,0.33,4.08,0.81
				c0.04-11.01,6.1-24.17,13.58-28.49c1.9-1.1,3.72-1.51,5.36-1.31l9.06,2.25c0.86,1.35-1.99,4.63-1.52,6.58
				c1.68-3.01,3.76-5.42,6.02-6.72c1.62-0.93,3.14-1.19,4.5-0.87l9.34,2.25C490.78-51.9,485.85-48.24,485.85-44.69z"/>
			<path class="st13" d="M495.38-42.4c0,8.16-3.67,17.05-8.46,21.05c-0.53,0.44-1.06,0.82-1.61,1.13L446.29,2.16
				c-4.65,2.67-8.42-1.31-8.43-8.88c-0.01-7.57,3.74-15.88,8.39-18.56c2.62-1.51,4.96-0.91,6.51,1.28
				c0.08-12.18,6.13-25.47,13.61-29.78c5.97-3.45,11.05-0.12,12.91,7.51c1.68-3.01,3.76-5.42,6.02-6.72
				C490.86-56.2,495.38-51.46,495.38-42.4z"/>
		</g>
		
			<linearGradient id="SVGID_13_" gradientUnits="userSpaceOnUse" x1="1781.0743" y1="68.7072" x2="1830.583" y2="68.7072" gradientTransform="matrix(-1 0 0 1 2218.7783 0)">
			<stop  offset="0" style="stop-color:#5940E7"/>
			<stop  offset="1" style="stop-color:#1BAFF8"/>
		</linearGradient>
		<polyline class="st14" points="409.92,27.93 409.92,46.17 434.39,32.41 434.39,81.91 389.86,107.81 		"/>
		<g>
			<path class="st12" d="M383.74,31.75c0,2.47,0.96,4.13,2.49,4.75l5.41,2.29c0.66-0.16-1.38-2.61-0.66-3.03l22.14-12.78
				c4-2.31,7.24-7.85,7.24-12.38c0-1.2,3.74-1.48,3.33-2.27l-4.79-1.82c-1.29-1.19-3.31-1.29-5.6-0.04
				c-0.18-1.89,2.68-2.72,1.8-3.84l-5.94-2.66c-1.94-0.52-4.83-0.11-7.44,1.4c-6.04,3.48-11,11.54-11.58,18.53
				C386.54,22.45,383.74,27.54,383.74,31.75z"/>
			<path class="st13" d="M389.43,34.18c0,4.53,3.24,6.32,7.24,4.02l22.14-12.78c4-2.31,7.24-7.85,7.24-12.38
				c0-4.46-3.14-6.28-7.06-4.13c-0.61-6.27-5.56-8.58-11.58-5.11c-6.04,3.48-11,11.54-11.58,18.53
				C392.23,24.88,389.43,29.97,389.43,34.18z"/>
		</g>
	</g>
	<g>
		<linearGradient id="SVGID_14_" gradientUnits="userSpaceOnUse" x1="403.4521" y1="195.8116" x2="444.7383" y2="195.8116">
			<stop  offset="0" style="stop-color:#5940E7"/>
			<stop  offset="1" style="stop-color:#1BAFF8"/>
		</linearGradient>
		<polyline class="st15" points="401.39,200.84 410.92,195.35 422.51,202.05 444.6,189.07 		"/>
		<linearGradient id="SVGID_15_" gradientUnits="userSpaceOnUse" x1="389.7885" y1="261.4594" x2="412.4072" y2="261.4594">
			<stop  offset="0" style="stop-color:#5940E7"/>
			<stop  offset="1" style="stop-color:#1BAFF8"/>
		</linearGradient>
		<line class="st16" x1="390.25" y1="255.07" x2="411.94" y2="267.85"/>
		<linearGradient id="SVGID_16_" gradientUnits="userSpaceOnUse" x1="410.8511" y1="228.2673" x2="421.9926" y2="228.2673">
			<stop  offset="0" style="stop-color:#5940E7"/>
			<stop  offset="1" style="stop-color:#1BAFF8"/>
		</linearGradient>
		<line class="st17" x1="411.31" y1="231.31" x2="421.53" y2="225.23"/>
		<linearGradient id="SVGID_17_" gradientUnits="userSpaceOnUse" x1="377.8233" y1="210.3286" x2="400.714" y2="210.3286">
			<stop  offset="0" style="stop-color:#5940E7"/>
			<stop  offset="1" style="stop-color:#1BAFF8"/>
		</linearGradient>
		<polyline class="st18" points="400.27,201.39 379.62,213.31 390.05,219.27 		"/>
		<linearGradient id="SVGID_18_" gradientUnits="userSpaceOnUse" x1="344.8966" y1="229.2005" x2="426.5121" y2="229.2005">
			<stop  offset="0" style="stop-color:#5940E7"/>
			<stop  offset="1" style="stop-color:#1BAFF8"/>
		</linearGradient>
		<polyline class="st19" points="384.26,191.8 421.33,213.07 400.68,225.11 421.53,237.27 384.12,258.56 372.89,252.17 
			348.53,265.4 345.63,266.38 		"/>
		<linearGradient id="SVGID_19_" gradientUnits="userSpaceOnUse" x1="387.4063" y1="219.3834" x2="393.4706" y2="219.3834">
			<stop  offset="0" style="stop-color:#5940E7"/>
			<stop  offset="1" style="stop-color:#1BAFF8"/>
		</linearGradient>
		<ellipse class="st20" cx="390.44" cy="219.38" rx="3.03" ry="1.75"/>
		<linearGradient id="SVGID_20_" gradientUnits="userSpaceOnUse" x1="418.2942" y1="225.1083" x2="424.3584" y2="225.1083">
			<stop  offset="0" style="stop-color:#5940E7"/>
			<stop  offset="1" style="stop-color:#1BAFF8"/>
		</linearGradient>
		<ellipse class="st21" cx="421.33" cy="225.11" rx="3.03" ry="1.75"/>
		<linearGradient id="SVGID_21_" gradientUnits="userSpaceOnUse" x1="409.5865" y1="268.2385" x2="415.6507" y2="268.2385">
			<stop  offset="0" style="stop-color:#5940E7"/>
			<stop  offset="1" style="stop-color:#1BAFF8"/>
		</linearGradient>
		<ellipse class="st22" cx="412.62" cy="268.24" rx="3.03" ry="1.75"/>
	</g>
	<g>
		<linearGradient id="SVGID_22_" gradientUnits="userSpaceOnUse" x1="260.1145" y1="294.1994" x2="319.5771" y2="294.1994">
			<stop  offset="0" style="stop-color:#5940E7"/>
			<stop  offset="1" style="stop-color:#1BAFF8"/>
		</linearGradient>
		<polyline class="st23" points="273.48,325.13 297.25,311.13 265.83,293.23 318.17,263.29 		"/>
		<linearGradient id="SVGID_23_" gradientUnits="userSpaceOnUse" x1="233.8655" y1="230.1529" x2="256.5073" y2="230.1529">
			<stop  offset="0" style="stop-color:#5940E7"/>
			<stop  offset="1" style="stop-color:#1BAFF8"/>
		</linearGradient>
		<polyline class="st24" points="255.66,226.92 245.19,232.91 234.71,226.92 		"/>
		<linearGradient id="SVGID_24_" gradientUnits="userSpaceOnUse" x1="189.0206" y1="243.3514" x2="347.5219" y2="243.3514">
			<stop  offset="0" style="stop-color:#5940E7"/>
			<stop  offset="1" style="stop-color:#1BAFF8"/>
		</linearGradient>
		<polyline class="st25" points="346.11,266.07 334.91,272.54 234.92,214.94 213.45,226.77 190.45,213.34 		"/>
		<linearGradient id="SVGID_25_" gradientUnits="userSpaceOnUse" x1="231.3355" y1="244.7208" x2="277.9052" y2="244.7208">
			<stop  offset="0" style="stop-color:#5940E7"/>
			<stop  offset="1" style="stop-color:#1BAFF8"/>
		</linearGradient>
		<polyline class="st26" points="255.82,262.89 234.76,251.01 265.67,233.12 277.06,226.55 		"/>
		<linearGradient id="SVGID_26_" gradientUnits="userSpaceOnUse" x1="275.7895" y1="263.3002" x2="308.5367" y2="263.3002">
			<stop  offset="0" style="stop-color:#5940E7"/>
			<stop  offset="1" style="stop-color:#1BAFF8"/>
		</linearGradient>
		<polyline class="st27" points="276.61,263.09 287.1,268.91 307.7,257.22 		"/>
		<linearGradient id="SVGID_27_" gradientUnits="userSpaceOnUse" x1="230.7579" y1="226.7684" x2="237.701" y2="226.7684">
			<stop  offset="0" style="stop-color:#5940E7"/>
			<stop  offset="1" style="stop-color:#1BAFF8"/>
		</linearGradient>
		<ellipse class="st28" cx="234.23" cy="226.77" rx="3.47" ry="2"/>
		<linearGradient id="SVGID_28_" gradientUnits="userSpaceOnUse" x1="270.0131" y1="325.1292" x2="276.9561" y2="325.1292">
			<stop  offset="0" style="stop-color:#5940E7"/>
			<stop  offset="1" style="stop-color:#1BAFF8"/>
		</linearGradient>
		<ellipse class="st29" cx="273.48" cy="325.13" rx="3.47" ry="2"/>
		<linearGradient id="SVGID_29_" gradientUnits="userSpaceOnUse" x1="186.9761" y1="213.3429" x2="193.9192" y2="213.3429">
			<stop  offset="0" style="stop-color:#5940E7"/>
			<stop  offset="1" style="stop-color:#1BAFF8"/>
		</linearGradient>
		<ellipse class="st30" cx="190.45" cy="213.34" rx="3.47" ry="2"/>
		<linearGradient id="SVGID_30_" gradientUnits="userSpaceOnUse" x1="253.4531" y1="262.8351" x2="258.3626" y2="262.8351">
			<stop  offset="0" style="stop-color:#5940E7"/>
			<stop  offset="1" style="stop-color:#1BAFF8"/>
		</linearGradient>
		<ellipse class="st31" cx="255.91" cy="262.84" rx="2.45" ry="1.42"/>
		<linearGradient id="SVGID_31_" gradientUnits="userSpaceOnUse" x1="273.8917" y1="262.8866" x2="278.4205" y2="262.8866">
			<stop  offset="0" style="stop-color:#5940E7"/>
			<stop  offset="1" style="stop-color:#1BAFF8"/>
		</linearGradient>
		<ellipse class="st32" cx="276.16" cy="262.89" rx="2.26" ry="1.31"/>
	</g>
	<g>
		<linearGradient id="SVGID_32_" gradientUnits="userSpaceOnUse" x1="207.2501" y1="192.4472" x2="429.0926" y2="192.4472">
			<stop  offset="0" style="stop-color:#7D57C4"/>
			<stop  offset="0.0766" style="stop-color:#8B6CCD;stop-opacity:0.9104"/>
			<stop  offset="0.2527" style="stop-color:#A898DE;stop-opacity:0.7044"/>
			<stop  offset="0.4232" style="stop-color:#BFBAEC;stop-opacity:0.5049"/>
			<stop  offset="0.5843" style="stop-color:#D0D2F6;stop-opacity:0.3164"/>
			<stop  offset="0.7323" style="stop-color:#DAE1FC;stop-opacity:0.1433"/>
			<stop  offset="0.8547" style="stop-color:#DDE6FE;stop-opacity:0"/>
		</linearGradient>
		<polygon class="st33" points="207.25,203.09 336.96,128.62 429.09,181.39 299.38,256.28 		"/>
		<polygon class="st34" points="210.57,202.4 334.92,131.01 423.24,181.6 298.89,253.39 		"/>
		<linearGradient id="SVGID_33_" gradientUnits="userSpaceOnUse" x1="431.5085" y1="128.5373" x2="228.8196" y2="46.9958">
			<stop  offset="0" style="stop-color:#5940E7"/>
			<stop  offset="1" style="stop-color:#1BAFF8"/>
		</linearGradient>
		<polygon class="st35" points="210.57,92.63 334.92,21.24 423.24,71.83 298.89,143.62 		"/>
		<linearGradient id="SVGID_34_" gradientUnits="userSpaceOnUse" x1="455.1076" y1="63.8416" x2="156.3636" y2="104.0745">
			<stop  offset="0" style="stop-color:#5940E7"/>
			<stop  offset="1" style="stop-color:#1BAFF8"/>
		</linearGradient>
		<polygon class="st36" points="219.11,91.83 333.5,26.16 414.76,72.7 300.36,138.74 		"/>
		<linearGradient id="SVGID_35_" gradientUnits="userSpaceOnUse" x1="221.1081" y1="82.4509" x2="412.7495" y2="82.4509">
			<stop  offset="0" style="stop-color:#5940E7"/>
			<stop  offset="0.3446" style="stop-color:#5842E7"/>
			<stop  offset="0.5173" style="stop-color:#534AE9"/>
			<stop  offset="0.6518" style="stop-color:#4C57EB"/>
			<stop  offset="0.7666" style="stop-color:#426AED"/>
			<stop  offset="0.8687" style="stop-color:#3482F1"/>
			<stop  offset="0.9605" style="stop-color:#24A0F6"/>
			<stop  offset="1" style="stop-color:#1BAFF8"/>
		</linearGradient>
		<polygon class="st37" points="222.04,91.55 333,27.85 411.82,72.99 300.85,137.05 		"/>
		<linearGradient id="SVGID_36_" gradientUnits="userSpaceOnUse" x1="209.2546" y1="81.6127" x2="323.9341" y2="301.6735">
			<stop  offset="0" style="stop-color:#5940E7"/>
			<stop  offset="1" style="stop-color:#1BAFF8"/>
		</linearGradient>
		<polygon class="st38" points="210.92,194.81 210.57,92.63 298.89,143.62 299.24,245.8 		"/>
		<linearGradient id="SVGID_37_" gradientUnits="userSpaceOnUse" x1="182.4547" y1="68.7204" x2="418.8978" y2="396.5882">
			<stop  offset="0" style="stop-color:#5940E7"/>
			<stop  offset="1" style="stop-color:#1BAFF8"/>
		</linearGradient>
		<polygon class="st39" points="216.63,191.43 216.32,102.54 293.16,146.9 293.46,235.79 		"/>
		<linearGradient id="SVGID_38_" gradientUnits="userSpaceOnUse" x1="217.417" y1="169.1717" x2="292.4043" y2="169.1717">
			<stop  offset="0" style="stop-color:#5940E7"/>
			<stop  offset="0.3446" style="stop-color:#5842E7"/>
			<stop  offset="0.5173" style="stop-color:#534AE9"/>
			<stop  offset="0.6518" style="stop-color:#4C57EB"/>
			<stop  offset="0.7666" style="stop-color:#426AED"/>
			<stop  offset="0.8687" style="stop-color:#3482F1"/>
			<stop  offset="0.9605" style="stop-color:#24A0F6"/>
			<stop  offset="1" style="stop-color:#1BAFF8"/>
		</linearGradient>
		<polygon class="st40" points="218.18,190.55 217.88,105.21 291.65,147.79 291.94,233.13 		"/>
		<linearGradient id="SVGID_39_" gradientUnits="userSpaceOnUse" x1="504.704" y1="234.9366" x2="283.123" y2="117.3906">
			<stop  offset="0" style="stop-color:#5940E7"/>
			<stop  offset="1" style="stop-color:#1BAFF8"/>
		</linearGradient>
		<path class="st41" d="M423.24,71.83l0.7,101.98c0,0-125.1,74.06-124.69,71.99c0.41-2.07-0.35-102.18-0.35-102.18L423.24,71.83z"/>
		<linearGradient id="SVGID_40_" gradientUnits="userSpaceOnUse" x1="317.5638" y1="131.5054" x2="405.3199" y2="191.3544">
			<stop  offset="0" style="stop-color:#5940E7"/>
			<stop  offset="0.3446" style="stop-color:#5842E7"/>
			<stop  offset="0.5173" style="stop-color:#534AE9"/>
			<stop  offset="0.6518" style="stop-color:#4C57EB"/>
			<stop  offset="0.7666" style="stop-color:#426AED"/>
			<stop  offset="0.8687" style="stop-color:#3482F1"/>
			<stop  offset="0.9605" style="stop-color:#24A0F6"/>
			<stop  offset="1" style="stop-color:#1BAFF8"/>
		</linearGradient>
		<path class="st42" d="M417.04,86.05l0.63,86.25c0,0-112.56,66.63-112.19,64.77c0.37-1.86-0.31-86.44-0.31-86.44L417.04,86.05z"/>
		<g>
			<g>
				<g class="st43">
					<path class="st34" d="M333.63,175.29c0.06-0.02,0.12-0.04,0.18-0.06c0.04-0.01,0.08-0.02,0.11-0.03
						c0.04-0.01,0.07-0.02,0.11-0.02c0.05-0.01,0.09-0.02,0.14-0.02c0.03,0,0.05-0.01,0.08-0.01c0.06,0,0.11,0,0.16,0
						c0.01,0,0.03,0,0.04,0c0.07,0,0.13,0.01,0.19,0.02c0.02,0,0.03,0.01,0.05,0.01c0.05,0.01,0.1,0.02,0.14,0.04
						c0.01,0.01,0.03,0.01,0.04,0.02c0.06,0.02,0.11,0.05,0.17,0.08l0,0c0,0,0,0,0,0l-3.4-1.97c0,0-0.01-0.01-0.01-0.01
						c-0.04-0.02-0.08-0.04-0.13-0.06c-0.01,0-0.02-0.01-0.03-0.01c-0.01-0.01-0.03-0.01-0.04-0.02c-0.02-0.01-0.04-0.02-0.07-0.02
						c-0.02-0.01-0.05-0.01-0.07-0.02c-0.02,0-0.03-0.01-0.05-0.01c-0.01,0-0.02,0-0.02-0.01c-0.05-0.01-0.1-0.01-0.16-0.02
						c0,0-0.01,0-0.01,0c-0.01,0-0.03,0-0.04,0c-0.04,0-0.08,0-0.12,0c-0.01,0-0.03,0-0.04,0c-0.03,0-0.05,0-0.08,0.01
						c-0.02,0-0.05,0-0.07,0.01c-0.02,0-0.04,0.01-0.06,0.01c-0.03,0.01-0.07,0.01-0.11,0.02c-0.02,0-0.04,0.01-0.06,0.01
						c-0.02,0.01-0.04,0.01-0.06,0.02c-0.06,0.02-0.12,0.04-0.18,0.06c-0.02,0.01-0.04,0.01-0.06,0.02
						c-0.02,0.01-0.04,0.02-0.06,0.03c-0.02,0.01-0.04,0.02-0.06,0.03c-0.08,0.04-0.16,0.08-0.24,0.12
						c-0.08,0.05-0.16,0.1-0.25,0.16c-0.03,0.02-0.05,0.04-0.08,0.06c-0.05,0.04-0.11,0.08-0.16,0.12
						c-0.03,0.02-0.06,0.05-0.09,0.07c-0.05,0.04-0.1,0.08-0.15,0.13c-0.03,0.03-0.06,0.05-0.09,0.08
						c-0.02,0.02-0.04,0.03-0.05,0.05c-0.02,0.02-0.04,0.04-0.05,0.06c-0.06,0.06-0.12,0.12-0.17,0.18
						c-0.02,0.02-0.04,0.04-0.05,0.06c-0.01,0.02-0.03,0.04-0.04,0.05c-0.03,0.04-0.07,0.08-0.1,0.12
						c-0.02,0.03-0.04,0.05-0.07,0.08c-0.02,0.02-0.03,0.05-0.05,0.07c-0.02,0.03-0.05,0.06-0.07,0.1
						c-0.02,0.02-0.03,0.04-0.05,0.07c-0.03,0.04-0.05,0.08-0.08,0.12c-0.02,0.03-0.03,0.05-0.05,0.08
						c-0.01,0.01-0.01,0.02-0.02,0.03c-0.05,0.07-0.09,0.14-0.13,0.22c0,0-0.01,0.01-0.01,0.01c-0.01,0.01-0.02,0.03-0.03,0.04
						c-0.03,0.05-0.06,0.1-0.09,0.16c-0.01,0.02-0.02,0.05-0.04,0.07c-0.01,0.03-0.03,0.05-0.04,0.08
						c-0.01,0.02-0.02,0.04-0.03,0.07c-0.03,0.06-0.06,0.12-0.08,0.18c0,0.01-0.01,0.02-0.01,0.03c0,0,0,0.01,0,0.01
						c-0.03,0.08-0.06,0.15-0.09,0.23c-0.01,0.01-0.01,0.03-0.02,0.04c-0.01,0.03-0.02,0.06-0.03,0.08
						c-0.01,0.04-0.03,0.08-0.04,0.12c-0.01,0.03-0.02,0.06-0.03,0.09c-0.01,0.04-0.02,0.07-0.03,0.11
						c-0.01,0.02-0.01,0.04-0.02,0.07c-0.01,0.04-0.02,0.08-0.03,0.12c-0.01,0.04-0.02,0.09-0.03,0.13c0,0.02-0.01,0.03-0.01,0.05
						c-0.01,0.03-0.01,0.06-0.02,0.09c-0.01,0.07-0.03,0.14-0.04,0.21c0,0.02-0.01,0.04-0.01,0.06c-0.01,0.04-0.01,0.09-0.01,0.13
						c0,0.03-0.01,0.06-0.01,0.09c-0.01,0.1-0.01,0.19-0.01,0.28c0,0.81,0.29,1.38,0.75,1.65l3.4,1.97
						c-0.46-0.27-0.75-0.84-0.75-1.65c0-0.09,0-0.19,0.01-0.28c0-0.03,0.01-0.06,0.01-0.09c0.01-0.06,0.01-0.12,0.02-0.18
						c0.01-0.07,0.02-0.14,0.04-0.21c0.01-0.05,0.02-0.09,0.03-0.14c0.01-0.04,0.02-0.09,0.03-0.13c0.02-0.06,0.03-0.12,0.05-0.18
						c0.01-0.04,0.02-0.07,0.03-0.11c0.02-0.07,0.04-0.14,0.07-0.21c0.01-0.03,0.02-0.06,0.03-0.09c0.04-0.09,0.07-0.19,0.11-0.28
						c0-0.01,0.01-0.02,0.01-0.03c0.04-0.08,0.08-0.17,0.12-0.25c0.01-0.03,0.03-0.05,0.04-0.08c0.04-0.08,0.08-0.16,0.13-0.23
						c0.01-0.01,0.02-0.03,0.02-0.04c0.05-0.09,0.11-0.18,0.16-0.26c0.02-0.03,0.03-0.05,0.05-0.08c0.04-0.06,0.08-0.12,0.13-0.18
						c0.02-0.03,0.05-0.06,0.07-0.1c0.04-0.05,0.08-0.1,0.12-0.15c0.03-0.04,0.07-0.08,0.1-0.12c0.03-0.04,0.06-0.07,0.1-0.11
						c0.06-0.06,0.11-0.12,0.17-0.18c0.04-0.04,0.07-0.07,0.11-0.11c0.03-0.03,0.06-0.05,0.09-0.08c0.05-0.04,0.1-0.09,0.15-0.13
						c0.03-0.02,0.06-0.05,0.09-0.07c0.05-0.04,0.11-0.08,0.16-0.12c0.03-0.02,0.05-0.04,0.08-0.06c0.08-0.06,0.16-0.11,0.25-0.16
						c0.08-0.05,0.16-0.09,0.24-0.12c0.02-0.01,0.04-0.02,0.06-0.03C333.55,175.32,333.59,175.31,333.63,175.29z"/>
					<path class="st44" d="M333.21,175.49c1.42-0.82,2.58-0.16,2.58,1.47c0,1.63-1.14,3.62-2.56,4.44
						c-1.42,0.82-2.58,0.16-2.58-1.47C330.64,178.3,331.79,176.31,333.21,175.49z"/>
				</g>
			</g>
			<g>
				<g class="st43">
					<g>
						<path class="st45" d="M343.65,187.13c-2.3,3.49-5.14,6.68-8.57,9.1l2.64,1.53c3.43-2.42,6.27-5.6,8.57-9.1L343.65,187.13z"/>
						<path class="st45" d="M351.82,175.04c0.13-0.77,0.23-1.54,0.29-2.31l-2.64-1.53c-0.35,4.14-1.66,8.17-3.5,11.88l-8.6-4.9
							c1.74,1.03,9.33,5.34,11.23,6.43C350.11,181.59,351.25,178.37,351.82,175.04z"/>
						<path class="st45" d="M334.4,199.7l-0.04-14.02l-2.64-1.53l0,0.02l-2.35-1.37l-8.65,14.98l2.64,1.53l0.02-0.04
							C326.61,201.81,330.87,201.44,334.4,199.7z M331.72,184.82l0.04,13.35c-2.57,1.2-5.57,1.88-8.35,1.04L331.72,184.82z"/>
						<path class="st45" d="M337.66,174.54l2.34,1.36l12.1-6.99c-0.46-4.86-2.45-7.62-6.19-9.34c0,0,0,0,0,0l-2.34-1.36l-8.55,14.81
							l2.64,1.53L337.66,174.54z M346.16,159.81c1.79,1.65,2.98,4.21,3.3,7.58l-11.51,6.65L346.16,159.81z"/>
						<polygon class="st45" points="319.7,187.62 331.99,180.52 329.36,178.99 317.06,186.09 						"/>
						<path class="st45" d="M334.29,162.45l-2.64-1.53l0.04,14.02l-8.69-4.95c1.73,1.03,9.43,5.4,11.33,6.49L334.29,162.45z"/>
						<path class="st45" d="M315.07,192.2c0.25-12.23,6.55-24.02,15.5-32.16c5.28-4.59,13.24-9.02,20.09-5.27
							c-21.87-15.94-53.95,40.18-29.51,50.79C317.41,203.39,315.09,198.77,315.07,192.2z"/>
					</g>
					<g>
						<path class="st46" d="M335.84,156.23c11.51-6.64,20.86-1.31,20.9,11.91c0.04,13.22-9.26,29.33-20.77,35.97
							c-11.51,6.64-20.87,1.31-20.9-11.91C315.03,178.98,324.33,162.88,335.84,156.23z M323.29,175.56
							c-1.97,3.92-3.27,8.1-3.59,12.06l12.3-7.1L323.29,175.56 M319.71,191.43c0.34,3.58,1.66,6.26,3.65,7.88l8.65-14.98
							L319.71,191.43 M334.4,199.7l-0.04-14.02l-8.64,14.96C328.14,201.49,331.13,201.23,334.4,199.7 M334.33,176.48l-0.04-14.02
							c-3.26,2.24-6.25,5.43-8.65,9.07L334.33,176.48 M337.61,160.56l0.04,14l8.55-14.81C343.81,158.87,340.85,159.09,337.61,160.56
							 M337.71,197.76c3.24-2.27,6.19-5.46,8.57-9.1l-8.61-4.91L337.71,197.76 M352.1,168.92c-0.34-3.52-1.62-6.18-3.56-7.81
							L340,175.9L352.1,168.92 M348.61,184.61c1.92-3.86,3.19-7.99,3.5-11.88l-12.1,6.99L348.61,184.61"/>
					</g>
				</g>
			</g>
			<g>
				<g class="st43">
					<g>
						<path class="st34" d="M337.5,176.65c-0.05-0.03-0.11-0.06-0.17-0.08c-0.75-0.28-1.56,0.13-2.15,0.59
							c-1.48,1.17-3.08,4.34-1.33,5.76c0,0,1.54,0.9,1.54,0.9c-1.94-1.71,3.61-6.29,3.61-6.29L337.5,176.65z"/>
					</g>
					<path class="st44" d="M337.19,177.73c1.42-0.82,2.58-0.16,2.58,1.47c0,1.63-1.14,3.62-2.56,4.44
						c-1.42,0.82-2.58,0.16-2.58-1.47C334.62,180.54,335.76,178.55,337.19,177.73z"/>
				</g>
			</g>
		</g>
		<g>
			<g>
				<linearGradient id="SVGID_41_" gradientUnits="userSpaceOnUse" x1="358.2261" y1="149.408" x2="415.1949" y2="149.408">
					<stop  offset="0" style="stop-color:#5940E7"/>
					<stop  offset="1" style="stop-color:#1BAFF8"/>
				</linearGradient>
				<path class="st47" d="M414.1,119.54c0.03-0.01,0.07-0.02,0.1-0.03c0.03-0.01,0.06-0.01,0.09-0.02c0.04-0.01,0.08-0.01,0.12-0.02
					c0.02,0,0.05-0.01,0.07-0.01c0.05,0,0.1,0,0.15,0c0.01,0,0.02,0,0.03,0c0.06,0,0.11,0.01,0.17,0.02c0.01,0,0.03,0.01,0.04,0.01
					c0.04,0.01,0.09,0.02,0.13,0.04c0.01,0,0.03,0.01,0.04,0.01c0.05,0.02,0.1,0.04,0.15,0.07l0,0c0,0,0,0,0,0l-3.15-1.83
					c0,0-0.01,0-0.01-0.01c-0.04-0.02-0.08-0.04-0.12-0.06c-0.01,0-0.02-0.01-0.02-0.01c-0.01-0.01-0.03-0.01-0.04-0.01
					c-0.02-0.01-0.04-0.02-0.06-0.02c-0.02-0.01-0.04-0.01-0.07-0.02c-0.01,0-0.03-0.01-0.04-0.01c-0.01,0-0.01,0-0.02-0.01
					c-0.05-0.01-0.09-0.01-0.14-0.02c0,0-0.01,0-0.01,0c-0.01,0-0.02,0-0.03,0c-0.04,0-0.07,0-0.11,0c-0.01,0-0.03,0-0.04,0
					c-0.02,0-0.05,0-0.07,0.01c-0.02,0-0.04,0-0.06,0.01c-0.02,0-0.04,0.01-0.06,0.01c-0.03,0.01-0.06,0.01-0.09,0.02
					c-0.02,0-0.03,0.01-0.05,0.01c-0.02,0-0.03,0.01-0.05,0.02c-0.05,0.02-0.11,0.03-0.16,0.06c-0.02,0.01-0.04,0.01-0.06,0.02
					c-0.01,0-0.02,0.01-0.03,0.02c-0.09,0.04-0.19,0.09-0.29,0.14l-49.9,28.81c-0.15,0.09-0.29,0.19-0.43,0.3
					c-0.05,0.04-0.09,0.08-0.13,0.12c-0.07,0.06-0.14,0.11-0.2,0.18c-0.03,0.03-0.06,0.06-0.09,0.09c-0.03,0.03-0.05,0.05-0.08,0.08
					c-0.03,0.03-0.06,0.06-0.09,0.09c-0.06,0.07-0.13,0.15-0.19,0.23c-0.02,0.03-0.04,0.06-0.06,0.08
					c-0.01,0.01-0.02,0.03-0.03,0.04c-0.02,0.03-0.04,0.05-0.06,0.08c-0.05,0.07-0.09,0.13-0.13,0.2c-0.04,0.06-0.08,0.13-0.12,0.19
					c0,0.01-0.01,0.01-0.01,0.02c0,0.01-0.01,0.01-0.01,0.02c-0.03,0.05-0.06,0.11-0.09,0.16c-0.03,0.06-0.07,0.13-0.1,0.2
					c-0.03,0.06-0.06,0.12-0.08,0.18c0,0,0,0.01,0,0.01c0,0,0,0.01,0,0.01c-0.03,0.07-0.06,0.14-0.08,0.21
					c-0.03,0.07-0.05,0.14-0.08,0.22c-0.01,0.04-0.02,0.07-0.03,0.11c0,0.02-0.01,0.03-0.01,0.05c-0.01,0.03-0.02,0.05-0.02,0.08
					c-0.02,0.09-0.05,0.18-0.06,0.26c-0.01,0.05-0.02,0.11-0.03,0.16c0,0.03-0.01,0.06-0.01,0.08c0,0.03-0.01,0.05-0.01,0.08
					c-0.02,0.15-0.03,0.3-0.03,0.45l0.08,27.17c0,0.72,0.26,1.23,0.67,1.47l3.15,1.83c-0.41-0.24-0.67-0.75-0.67-1.47l-0.08-27.17
					c0-0.17,0.02-0.35,0.04-0.53c0-0.03,0.01-0.06,0.01-0.08c0.03-0.17,0.07-0.33,0.12-0.5c0-0.02,0.01-0.03,0.01-0.05
					c0.06-0.18,0.12-0.36,0.2-0.54c0,0,0-0.01,0-0.01c0.08-0.18,0.17-0.36,0.27-0.54c0-0.01,0.01-0.01,0.01-0.02
					c0.1-0.17,0.21-0.33,0.32-0.49c0.01-0.01,0.02-0.03,0.03-0.04c0.11-0.14,0.22-0.28,0.34-0.4c0.03-0.03,0.05-0.05,0.08-0.08
					c0.09-0.1,0.19-0.18,0.29-0.27c0.04-0.04,0.09-0.08,0.13-0.12c0.14-0.11,0.28-0.21,0.43-0.3l49.9-28.81
					c0.1-0.06,0.19-0.1,0.29-0.14c0.03-0.01,0.06-0.02,0.09-0.04C414,119.57,414.05,119.55,414.1,119.54z"/>
				<linearGradient id="SVGID_42_" gradientUnits="userSpaceOnUse" x1="477.2553" y1="234.5666" x2="369.4802" y2="132.1803">
					<stop  offset="0" style="stop-color:#5940E7"/>
					<stop  offset="0.6627" style="stop-color:#308AF2"/>
					<stop  offset="1" style="stop-color:#1BAFF8"/>
				</linearGradient>
				<path class="st48" d="M413.56,119.77c1.27-0.73,2.3-0.14,2.3,1.32l0.08,27.17c0,1.46-1.02,3.23-2.29,3.96l-49.9,28.81
					c-1.27,0.73-2.3,0.15-2.3-1.31l-0.08-27.17c0-1.46,1.02-3.24,2.29-3.97L413.56,119.77z"/>
				<path class="st46" d="M410.59,123.42c1.12-0.65,2.03-0.13,2.03,1.16l0.07,23.93c0,1.28-0.9,2.85-2.02,3.49l-43.94,25.37
					c-1.12,0.64-2.03,0.13-2.03-1.16l-0.07-23.93c0-1.28,0.9-2.85,2.02-3.49L410.59,123.42z"/>
				<linearGradient id="SVGID_43_" gradientUnits="userSpaceOnUse" x1="365.6834" y1="150.3674" x2="411.7532" y2="150.3674">
					<stop  offset="0" style="stop-color:#5940E7"/>
					<stop  offset="0.6627" style="stop-color:#308AF2"/>
					<stop  offset="1" style="stop-color:#1BAFF8"/>
				</linearGradient>
				<path class="st49" d="M409.82,125c1.03-0.59,1.87-0.12,1.87,1.07l0.06,22.04c0,1.18-0.83,2.62-1.86,3.22l-42.28,24.41
					c-1.03,0.59-1.86,0.12-1.87-1.06l-0.06-22.04c0-1.18,0.83-2.62,1.86-3.22L409.82,125z"/>
			</g>
			<g>
				<path class="st50" d="M378.87,157.88l-1.41,0.81c-0.34,0.2-0.61-0.01-0.61-0.46v-0.43c0-0.45,0.27-0.97,0.61-1.17l1.41-0.81
					c0.34-0.2,0.61,0.01,0.61,0.46v0.43C379.48,157.16,379.2,157.69,378.87,157.88z"/>
				<path class="st50" d="M378.87,161.12l-1.41,0.81c-0.34,0.2-0.61-0.01-0.61-0.46v-0.43c0-0.45,0.27-0.97,0.61-1.17l1.41-0.81
					c0.34-0.2,0.61,0.01,0.61,0.46v0.43C379.48,160.4,379.2,160.92,378.87,161.12z"/>
				<path class="st50" d="M378.87,164.35l-1.41,0.81c-0.34,0.2-0.61-0.01-0.61-0.46v-0.43c0-0.45,0.27-0.97,0.61-1.17l1.41-0.81
					c0.34-0.2,0.61,0.01,0.61,0.46v0.43C379.48,163.63,379.2,164.16,378.87,164.35z"/>
				<path class="st50" d="M383.51,155.2l-1.41,0.81c-0.34,0.2-0.61-0.01-0.61-0.46v-0.43c0-0.45,0.27-0.97,0.61-1.17l1.41-0.81
					c0.34-0.2,0.61,0.01,0.61,0.46v0.43C384.12,154.48,383.85,155,383.51,155.2z"/>
				<path class="st50" d="M383.51,158.43l-1.41,0.81c-0.34,0.2-0.61-0.01-0.61-0.46v-0.43c0-0.45,0.27-0.97,0.61-1.17l1.41-0.81
					c0.34-0.2,0.61,0.01,0.61,0.46v0.43C384.12,157.72,383.85,158.24,383.51,158.43z"/>
				<path class="st50" d="M383.51,161.67l-1.41,0.81c-0.34,0.2-0.61-0.01-0.61-0.46v-0.43c0-0.45,0.27-0.97,0.61-1.17l1.41-0.81
					c0.34-0.2,0.61,0.01,0.61,0.46v0.43C384.12,160.95,383.85,161.47,383.51,161.67z"/>
				<path class="st50" d="M388.16,152.52l-1.41,0.81c-0.34,0.2-0.61-0.01-0.61-0.46v-0.43c0-0.45,0.27-0.97,0.61-1.17l1.41-0.81
					c0.34-0.2,0.61,0.01,0.61,0.46v0.43C388.77,151.8,388.5,152.32,388.16,152.52z"/>
				<path class="st50" d="M388.16,155.75l-1.41,0.81c-0.34,0.2-0.61-0.01-0.61-0.46v-0.43c0-0.45,0.27-0.97,0.61-1.17l1.41-0.81
					c0.34-0.2,0.61,0.01,0.61,0.46v0.43C388.77,155.03,388.5,155.56,388.16,155.75z"/>
				<path class="st50" d="M388.16,158.99l-1.41,0.81c-0.34,0.2-0.61-0.01-0.61-0.46v-0.43c0-0.45,0.27-0.97,0.61-1.17l1.41-0.81
					c0.34-0.2,0.61,0.01,0.61,0.46v0.43C388.77,158.27,388.5,158.79,388.16,158.99z"/>
				<path class="st50" d="M392.81,149.83l-1.41,0.81c-0.34,0.2-0.61-0.01-0.61-0.46v-0.43c0-0.45,0.27-0.97,0.61-1.17l1.41-0.81
					c0.34-0.2,0.61,0.01,0.61,0.46v0.43C393.42,149.12,393.14,149.64,392.81,149.83z"/>
				<path class="st50" d="M378.71,154.8l-1.09,0.63c-0.42,0.25-0.77-0.02-0.77-0.58v-1.2c0-0.57,0.34-1.22,0.77-1.47l1.09-0.63
					c0.42-0.25,0.77,0.02,0.77,0.58v1.2C379.48,153.9,379.13,154.56,378.71,154.8z"/>
				<path class="st50" d="M371.93,162.57l-3.19,1.84c-0.65,0.38-1.18-0.02-1.18-0.9v-3.95c0-0.87,0.53-1.89,1.18-2.26l3.19-1.84
					c0.65-0.38,1.18,0.02,1.18,0.9v3.95C373.11,161.18,372.58,162.2,371.93,162.57z"/>
				<path class="st50" d="M408.59,143.96l-2.96,1.71c-0.72,0.41-1.3-0.03-1.3-0.98v-5.07c0-0.96,0.58-2.07,1.3-2.48l2.96-1.71
					c0.72-0.41,1.3,0.03,1.3,0.98v5.07C409.88,142.43,409.3,143.54,408.59,143.96z"/>
				<path class="st50" d="M383.51,150.84l-1.41,0.81c-0.34,0.2-0.61-0.01-0.61-0.46v-0.43c0-0.45,0.27-0.97,0.61-1.17l1.41-0.81
					c0.34-0.2,0.61,0.01,0.61,0.46v0.43C384.12,150.12,383.85,150.64,383.51,150.84z"/>
				<path class="st50" d="M388.16,148.16l-1.41,0.81c-0.34,0.2-0.61-0.01-0.61-0.46v-0.43c0-0.45,0.27-0.97,0.61-1.17l1.41-0.81
					c0.34-0.2,0.61,0.01,0.61,0.46v0.43C388.77,147.44,388.5,147.96,388.16,148.16z"/>
				<path class="st50" d="M392.81,145.47l-1.41,0.81c-0.34,0.2-0.61-0.01-0.61-0.46v-0.43c0-0.45,0.27-0.97,0.61-1.17l1.41-0.81
					c0.34-0.2,0.61,0.01,0.61,0.46v0.43C393.42,144.75,393.14,145.28,392.81,145.47z"/>
				<path class="st50" d="M392.81,153.07l-1.41,0.81c-0.34,0.2-0.61-0.01-0.61-0.46v-0.43c0-0.45,0.27-0.97,0.61-1.17l1.41-0.81
					c0.34-0.2,0.61,0.01,0.61,0.46v0.43C393.42,152.35,393.14,152.87,392.81,153.07z"/>
				<path class="st50" d="M392.81,156.3l-1.41,0.81c-0.34,0.2-0.61-0.01-0.61-0.46v-0.43c0-0.45,0.27-0.97,0.61-1.17l1.41-0.81
					c0.34-0.2,0.61,0.01,0.61,0.46v0.43C393.42,155.58,393.14,156.11,392.81,156.3z"/>
			</g>
			<linearGradient id="SVGID_44_" gradientUnits="userSpaceOnUse" x1="395.2708" y1="147.0076" x2="399.5074" y2="147.0076">
				<stop  offset="0" style="stop-color:#5940E7"/>
				<stop  offset="1" style="stop-color:#1BAFF8"/>
			</linearGradient>
			<polygon class="st51" points="395.27,136.2 395.27,156.21 398.04,157.81 399.51,154.98 399.51,150.22 396.13,136.7 			"/>
			<linearGradient id="SVGID_45_" gradientUnits="userSpaceOnUse" x1="402.0597" y1="143.088" x2="406.2963" y2="143.088">
				<stop  offset="0" style="stop-color:#5940E7"/>
				<stop  offset="1" style="stop-color:#1BAFF8"/>
			</linearGradient>
			<polygon class="st52" points="402.06,132.28 402.06,152.29 404.83,153.89 406.3,151.06 406.3,146.3 402.92,132.78 			"/>
			<linearGradient id="SVGID_46_" gradientUnits="userSpaceOnUse" x1="410.2264" y1="150.7065" x2="393.9492" y2="158.2412">
				<stop  offset="0" style="stop-color:#5940E7"/>
				<stop  offset="1" style="stop-color:#1BAFF8"/>
			</linearGradient>
			<polygon class="st53" points="398.04,157.81 404.83,153.89 406.3,151.06 399.51,154.98 			"/>
			<linearGradient id="SVGID_47_" gradientUnits="userSpaceOnUse" x1="399.4013" y1="150.6416" x2="406.2963" y2="150.6416">
				<stop  offset="0" style="stop-color:#5940E7"/>
				<stop  offset="1" style="stop-color:#1BAFF8"/>
			</linearGradient>
			<polygon class="st54" points="399.4,149.8 399.51,154.98 406.3,151.06 406.3,146.3 			"/>
			<linearGradient id="SVGID_48_" gradientUnits="userSpaceOnUse" x1="426.8886" y1="161.4442" x2="392.6373" y2="134.6125">
				<stop  offset="0" style="stop-color:#5940E7"/>
				<stop  offset="1" style="stop-color:#1BAFF8"/>
			</linearGradient>
			<polygon class="st55" points="396.13,136.7 402.92,132.78 406.3,146.3 399.4,149.8 			"/>
			<polygon class="st56" points="395.27,136.2 402.06,132.28 402.92,132.78 396.13,136.7 			"/>
			<linearGradient id="SVGID_49_" gradientUnits="userSpaceOnUse" x1="402.3285" y1="130.8022" x2="400.1428" y2="152.1985">
				<stop  offset="0" style="stop-color:#172C51"/>
				<stop  offset="1" style="stop-color:#051A78"/>
			</linearGradient>
			<path class="st57" d="M403.77,145.73l-2.68,1.36c-0.88,0.44-1.79-0.29-2.08-1.6l-1.3-5.79c-0.22-0.99,0.22-2.15,0.95-2.57
				l2.55-1.47c0.76-0.44,1.64-0.01,1.92,0.99l1.62,5.85C405.1,143.81,404.68,145.26,403.77,145.73z"/>
		</g>
		<g>
			<defs>
				<polygon id="SVGID_50_" points="219.11,91.83 333.5,26.16 414.76,72.7 300.36,138.74 				"/>
			</defs>
			<clipPath id="SVGID_51_">
				<use xlink:href="#SVGID_50_"  style="overflow:visible;"/>
			</clipPath>
			<g class="st58">
				<linearGradient id="SVGID_52_" gradientUnits="userSpaceOnUse" x1="239.106" y1="68.5469" x2="374.9628" y2="68.5469">
					<stop  offset="0" style="stop-color:#5940E7"/>
					<stop  offset="1" style="stop-color:#1BAFF8"/>
				</linearGradient>
				<polyline class="st59" points="374.68,31.95 280.22,86.15 280.2,94.68 273.49,98.63 264.11,93.42 261.95,92.17 239.39,105.15 
									"/>
				<linearGradient id="SVGID_53_" gradientUnits="userSpaceOnUse" x1="230.8227" y1="65.5963" x2="382.8003" y2="65.5963">
					<stop  offset="0" style="stop-color:#5940E7"/>
					<stop  offset="1" style="stop-color:#1BAFF8"/>
				</linearGradient>
				<polyline class="st60" points="231.1,106.14 262.32,88.05 280.4,98.41 286.63,94.95 271.47,86.44 303.39,68.1 298.15,64.92 
					302.01,62.78 305.85,64.93 309.59,62.78 301.94,58.36 305.8,56.21 317.1,62.73 382.52,25.05 				"/>
				<linearGradient id="SVGID_54_" gradientUnits="userSpaceOnUse" x1="227.0878" y1="66.1499" x2="370.5066" y2="66.1499">
					<stop  offset="0" style="stop-color:#5940E7"/>
					<stop  offset="1" style="stop-color:#1BAFF8"/>
				</linearGradient>
				<polyline class="st61" points="370.23,28.17 316.33,59.26 304.97,52.7 296.82,57.34 300.65,59.59 293.03,63.91 298.27,67.09 
					266.35,85.43 263.16,83.52 227.37,104.13 				"/>
				<linearGradient id="SVGID_55_" gradientUnits="userSpaceOnUse" x1="236.8189" y1="86.042" x2="411.8397" y2="86.042">
					<stop  offset="0" style="stop-color:#5940E7"/>
					<stop  offset="1" style="stop-color:#1BAFF8"/>
				</linearGradient>
				<polyline class="st62" points="411.56,38.84 388.95,51.81 377.66,45.29 373.79,47.43 381.45,51.85 377.7,54.01 373.87,51.85 
					370,54 375.24,57.18 343.32,75.52 348.44,78.14 342.21,81.6 334.18,77.12 329.52,77.02 312.26,86.83 314.75,88.21 237.1,133.24 
									"/>
				<g>
					<linearGradient id="SVGID_56_" gradientUnits="userSpaceOnUse" x1="438.4161" y1="56.015" x2="253.465" y2="64.8222">
						<stop  offset="0" style="stop-color:#5940E7"/>
						<stop  offset="1" style="stop-color:#1BAFF8"/>
					</linearGradient>
					<polygon class="st63" points="402.14,40.01 388.19,48.04 376.83,41.48 368.16,46.42 371.99,48.67 364.38,52.98 369.62,56.16 
						338.21,74.21 332.16,70.44 321.04,76.8 325.26,79.13 325.8,78.85 322.08,76.79 332.15,71.03 338.2,74.8 370.62,56.17 
						365.38,52.99 373.01,48.67 369.18,46.42 376.82,42.07 388.19,48.63 402.4,40.45 402.14,40.01 					"/>
				</g>
				<linearGradient id="SVGID_57_" gradientUnits="userSpaceOnUse" x1="223.0981" y1="76.2808" x2="372.054" y2="76.2808">
					<stop  offset="0" style="stop-color:#5940E7"/>
					<stop  offset="1" style="stop-color:#1BAFF8"/>
				</linearGradient>
				<polyline class="st64" points="371.77,35.63 336.13,56.21 340.16,58.26 332.34,62.78 328.62,60.55 324.68,62.82 328.55,64.97 
					305.73,78.14 305.64,86.94 275.48,104.41 259.97,95.8 223.38,116.93 				"/>
				<linearGradient id="SVGID_58_" gradientUnits="userSpaceOnUse" x1="226.1958" y1="81.6763" x2="374.4122" y2="81.6763">
					<stop  offset="0" style="stop-color:#5940E7"/>
					<stop  offset="1" style="stop-color:#1BAFF8"/>
				</linearGradient>
				<polyline class="st65" points="373.95,38.84 343.49,56.19 347.52,58.24 308.78,80.6 308.7,89.4 277.46,107.75 266.26,101.65 
					226.66,124.51 				"/>
				<linearGradient id="SVGID_59_" gradientUnits="userSpaceOnUse" x1="232.1463" y1="95.732" x2="415.7479" y2="95.732">
					<stop  offset="0" style="stop-color:#5940E7"/>
					<stop  offset="1" style="stop-color:#1BAFF8"/>
				</linearGradient>
				<polyline class="st66" points="232.43,145.41 282.12,116.65 300.2,127.01 306.43,123.55 291.27,115.04 323.19,96.7 
					317.95,93.52 321.81,91.37 325.65,93.53 329.39,91.37 321.74,86.95 325.6,84.81 336.9,91.33 415.47,46.06 				"/>
				<linearGradient id="SVGID_60_" gradientUnits="userSpaceOnUse" x1="226.2129" y1="91.1203" x2="423.5445" y2="91.1203">
					<stop  offset="0" style="stop-color:#5940E7"/>
					<stop  offset="1" style="stop-color:#1BAFF8"/>
				</linearGradient>
				<polyline class="st67" points="423.26,37.58 336.13,87.85 324.77,81.3 316.62,85.94 320.45,88.19 312.83,92.51 318.07,95.69 
					286.15,114.03 282.96,112.12 226.49,144.66 				"/>
				<linearGradient id="SVGID_61_" gradientUnits="userSpaceOnUse" x1="237.4991" y1="99.4631" x2="416.0105" y2="99.4631">
					<stop  offset="0" style="stop-color:#5940E7"/>
					<stop  offset="1" style="stop-color:#1BAFF8"/>
				</linearGradient>
				<polyline class="st68" points="415.73,50.28 355.93,84.81 359.96,86.86 352.14,91.37 348.42,89.14 344.48,91.42 348.35,93.56 
					325.53,106.74 325.44,115.54 295.28,133.01 279.77,124.4 237.78,148.64 				"/>
				<linearGradient id="SVGID_62_" gradientUnits="userSpaceOnUse" x1="224.4258" y1="104.5056" x2="428.3599" y2="104.5056">
					<stop  offset="0" style="stop-color:#5940E7"/>
					<stop  offset="1" style="stop-color:#1BAFF8"/>
				</linearGradient>
				<polyline class="st69" points="427.89,47.73 363.28,84.79 367.32,86.83 328.58,109.2 328.5,118 297.26,136.35 282.25,128.17 
					224.89,161.29 				"/>
			</g>
		</g>
		<g>
			<defs>
				<polygon id="SVGID_63_" points="219.35,189.85 219.06,107.28 290.44,148.48 290.72,231.06 				"/>
			</defs>
			<clipPath id="SVGID_64_">
				<use xlink:href="#SVGID_63_"  style="overflow:visible;"/>
			</clipPath>
			<g class="st70">
				
					<linearGradient id="SVGID_65_" gradientUnits="userSpaceOnUse" x1="933.9069" y1="-798.9861" x2="1011.8542" y2="-798.9861" gradientTransform="matrix(0.5 -0.2887 0.866 1.5 425.4845 1613.0701)">
					<stop  offset="0" style="stop-color:#5940E7"/>
					<stop  offset="1" style="stop-color:#1BAFF8"/>
				</linearGradient>
				<polyline class="st71" points="216.65,172.68 216.69,169.26 218.73,170.44 227.43,175.29 227.36,168.86 220.4,165.68 
					220.67,129.46 219.35,128.74 219.35,87.96 				"/>
				
					<linearGradient id="SVGID_66_" gradientUnits="userSpaceOnUse" x1="934.7233" y1="-794.6657" x2="977.7286" y2="-794.6657" gradientTransform="matrix(0.5 -0.2887 0.866 1.5 425.4845 1613.0701)">
					<stop  offset="0" style="stop-color:#5940E7"/>
					<stop  offset="1" style="stop-color:#1BAFF8"/>
				</linearGradient>
				<polyline class="st72" points="213.39,166.07 213.33,162.76 230.34,172.51 230.46,166.81 216.34,158.86 216.41,128.83 
					211.34,125.77 211.41,122.23 214.98,124.25 214.99,120.72 207.76,116.55 207.83,113.01 				"/>
				
					<linearGradient id="SVGID_67_" gradientUnits="userSpaceOnUse" x1="930.8512" y1="-802.4108" x2="992.5687" y2="-802.4108" gradientTransform="matrix(0.5 -0.2887 0.866 1.5 425.4845 1613.0701)">
					<stop  offset="0" style="stop-color:#5940E7"/>
					<stop  offset="1" style="stop-color:#1BAFF8"/>
				</linearGradient>
				<polyline class="st73" points="214.1,101.12 214.07,114.38 203.35,108.2 203.29,115.81 206.94,117.95 206.87,125.04 
					211.95,128.1 211.88,158.13 208.81,156.3 208.76,162.54 				"/>
				
					<linearGradient id="SVGID_68_" gradientUnits="userSpaceOnUse" x1="934.8658" y1="-796.0976" x2="1011.8996" y2="-796.0976" gradientTransform="matrix(0.5 -0.2887 0.866 1.5 425.4845 1613.0701)">
					<stop  offset="0" style="stop-color:#5940E7"/>
					<stop  offset="1" style="stop-color:#1BAFF8"/>
				</linearGradient>
				<polyline class="st74" points="217.35,172.78 231.71,180.79 231.67,152.23 224.51,147.91 224.51,119.31 220.93,117.31 
					220.93,113.59 224.51,115.73 224.51,108.34 220.93,106.5 220.93,90.64 				"/>
				
					<linearGradient id="SVGID_69_" gradientUnits="userSpaceOnUse" x1="933.943" y1="-797.5348" x2="1029.7518" y2="-797.5348" gradientTransform="matrix(0.5 -0.2887 0.866 1.5 425.4845 1613.0701)">
					<stop  offset="0" style="stop-color:#5940E7"/>
					<stop  offset="1" style="stop-color:#1BAFF8"/>
				</linearGradient>
				<polyline class="st75" points="218.33,175.35 235.38,184.7 235.12,151.95 227.96,147.51 227.96,106.84 224.38,105.01 
					224.58,76.55 				"/>
				
					<linearGradient id="SVGID_70_" gradientUnits="userSpaceOnUse" x1="936.9808" y1="-785.5842" x2="1025.6309" y2="-785.5842" gradientTransform="matrix(0.5 -0.2887 0.866 1.5 425.4845 1613.0701)">
					<stop  offset="0" style="stop-color:#5940E7"/>
					<stop  offset="1" style="stop-color:#1BAFF8"/>
				</linearGradient>
				<polyline class="st76" points="236.81,204.03 236.77,191.14 239.76,192.76 239.81,151.51 234.8,148.75 234.8,98.8 				"/>
				
					<linearGradient id="SVGID_71_" gradientUnits="userSpaceOnUse" x1="928.2608" y1="-777.4571" x2="1038.5425" y2="-777.4571" gradientTransform="matrix(0.5 -0.2887 0.866 1.5 425.4845 1613.0701)">
					<stop  offset="0" style="stop-color:#5940E7"/>
					<stop  offset="1" style="stop-color:#1BAFF8"/>
				</linearGradient>
				<polyline class="st77" points="243.75,226.13 243.97,205.78 250.49,209.6 250.18,157.68 243.66,154.03 243.65,131.91 
					247.6,134.09 247.6,119.84 244.02,114.12 244.02,99.87 				"/>
				
					<linearGradient id="SVGID_72_" gradientUnits="userSpaceOnUse" x1="925.0768" y1="-773.2701" x2="1018.5027" y2="-773.2701" gradientTransform="matrix(0.5 -0.2887 0.866 1.5 425.4845 1613.0701)">
					<stop  offset="0" style="stop-color:#5940E7"/>
					<stop  offset="1" style="stop-color:#1BAFF8"/>
				</linearGradient>
				<polyline class="st78" points="241.75,226.15 241.94,198.71 248.46,202.53 248.17,158.94 241.66,155.29 241.66,119.12 				"/>
				
					<linearGradient id="SVGID_73_" gradientUnits="userSpaceOnUse" x1="950.2545" y1="-770.3166" x2="1059.9597" y2="-770.3166" gradientTransform="matrix(0.5 -0.2887 0.866 1.5 425.4845 1613.0701)">
					<stop  offset="0" style="stop-color:#5940E7"/>
					<stop  offset="1" style="stop-color:#1BAFF8"/>
				</linearGradient>
				<polyline class="st79" points="262.93,107.89 262.66,184.62 269.63,188.27 269.69,202.06 260.99,197.21 258.96,196.03 
					258.91,227 				"/>
				
					<linearGradient id="SVGID_74_" gradientUnits="userSpaceOnUse" x1="951.9804" y1="-768.4037" x2="1041.5319" y2="-768.4037" gradientTransform="matrix(0.5 -0.2887 0.866 1.5 425.4845 1613.0701)">
					<stop  offset="0" style="stop-color:#5940E7"/>
					<stop  offset="1" style="stop-color:#1BAFF8"/>
				</linearGradient>
				<polyline class="st80" points="255.82,219.64 255.76,190.64 272.77,200.4 272.89,194.7 258.77,186.74 258.84,156.71 
					253.76,153.66 253.83,150.12 257.41,152.13 257.41,148.6 250.18,144.43 250.25,140.89 260.92,147.05 260.99,125.81 				"/>
				
					<linearGradient id="SVGID_75_" gradientUnits="userSpaceOnUse" x1="951.2838" y1="-769.7299" x2="1033.4969" y2="-769.7299" gradientTransform="matrix(0.5 -0.2887 0.866 1.5 425.4845 1613.0701)">
					<stop  offset="0" style="stop-color:#5940E7"/>
					<stop  offset="1" style="stop-color:#1BAFF8"/>
				</linearGradient>
				<polyline class="st81" points="257.74,129.46 257.72,142.72 246.99,136.53 246.94,144.14 250.59,146.28 250.52,153.37 
					255.59,156.43 255.52,186.46 252.46,184.64 252.41,214.54 				"/>
				
					<linearGradient id="SVGID_76_" gradientUnits="userSpaceOnUse" x1="955.8178" y1="-765.2742" x2="1052.828" y2="-765.2742" gradientTransform="matrix(0.5 -0.2887 0.866 1.5 425.4845 1613.0701)">
					<stop  offset="0" style="stop-color:#5940E7"/>
					<stop  offset="1" style="stop-color:#1BAFF8"/>
				</linearGradient>
				<polyline class="st82" points="264.57,118.97 264.57,134.84 268.15,136.68 268.15,144.06 264.57,141.93 264.57,145.65 
					268.15,147.64 268.15,176.86 275.31,180.56 275.35,209.12 265.22,203.47 265.22,231.5 				"/>
				
					<linearGradient id="SVGID_77_" gradientUnits="userSpaceOnUse" x1="956.1592" y1="-769.9468" x2="1070.6802" y2="-769.9468" gradientTransform="matrix(0.5 -0.2887 0.866 1.5 425.4845 1613.0701)">
					<stop  offset="0" style="stop-color:#5940E7"/>
					<stop  offset="1" style="stop-color:#1BAFF8"/>
				</linearGradient>
				<polyline class="st83" points="268.23,104.88 268.03,133.34 271.61,135.18 271.61,175.56 278.77,178.76 279.02,216.33 
					261.97,206.97 261.97,225.27 				"/>
				
					<linearGradient id="SVGID_78_" gradientUnits="userSpaceOnUse" x1="972.1334" y1="-758.8447" x2="1066.5592" y2="-758.8447" gradientTransform="matrix(0.5 -0.2887 0.866 1.5 425.4845 1613.0701)">
					<stop  offset="0" style="stop-color:#5940E7"/>
					<stop  offset="1" style="stop-color:#1BAFF8"/>
				</linearGradient>
				<polyline class="st84" points="280.45,232.36 274.15,227.37 274,217.73 283.4,223.05 283.45,178.45 278.44,175.88 
					278.44,127.14 				"/>
				
					<linearGradient id="SVGID_79_" gradientUnits="userSpaceOnUse" x1="969.1892" y1="-750.6912" x2="1079.4708" y2="-750.6912" gradientTransform="matrix(0.5 -0.2887 0.866 1.5 425.4845 1613.0701)">
					<stop  offset="0" style="stop-color:#5940E7"/>
					<stop  offset="1" style="stop-color:#1BAFF8"/>
				</linearGradient>
				<polyline class="st85" points="287.39,254.46 287.62,234.11 294.13,237.93 293.82,186.01 287.31,182.36 287.29,160.24 
					291.25,162.42 291.25,148.17 287.67,142.45 287.67,128.21 				"/>
				
					<linearGradient id="SVGID_80_" gradientUnits="userSpaceOnUse" x1="966.0062" y1="-748.2531" x2="1065.4907" y2="-748.2531" gradientTransform="matrix(0.5 -0.2887 0.866 1.5 425.4845 1613.0701)">
					<stop  offset="0" style="stop-color:#5940E7"/>
					<stop  offset="1" style="stop-color:#1BAFF8"/>
				</linearGradient>
				<polyline class="st86" points="285.4,254.48 285.58,231.28 292.1,235.11 291.82,187.27 285.3,183.62 285.3,140.45 				"/>
			</g>
		</g>
	</g>
	<g>
		<path class="st87" d="M315.4,201.99c-1.75-0.42-2.44-2.55-1.9-4.11c3.06-1.38,6.07,2.67,5.7,5.47
			C318.45,203.73,316.44,202.19,315.4,201.99z"/>
		<path class="st87" d="M357.87,166.75c-0.27-0.83-0.55-0.89-1.23-0.96c0.17,1.27-0.75,2.43-1.03,1.79
			c-0.16-0.37-0.36-1.63-0.69-1.65c-0.25-0.02-0.29,1.45-0.12,2.84c0.13,1.12,1.4,3.43,2.2,1.97c0.31-0.14,0.75-0.25,0.74-0.52
			C357.66,169.09,358.53,168.75,357.87,166.75z"/>
		<g>
			
				<linearGradient id="SVGID_81_" gradientUnits="userSpaceOnUse" x1="1837.3204" y1="240.1005" x2="1920.2755" y2="305.6149" gradientTransform="matrix(-1 0 0 1 2218.082 0)">
				<stop  offset="0" style="stop-color:#7D57C4"/>
				<stop  offset="0.0766" style="stop-color:#8B6CCD;stop-opacity:0.9104"/>
				<stop  offset="0.2527" style="stop-color:#A898DE;stop-opacity:0.7044"/>
				<stop  offset="0.4232" style="stop-color:#BFBAEC;stop-opacity:0.5049"/>
				<stop  offset="0.5843" style="stop-color:#D0D2F6;stop-opacity:0.3164"/>
				<stop  offset="0.7323" style="stop-color:#DAE1FC;stop-opacity:0.1433"/>
				<stop  offset="0.8547" style="stop-color:#DDE6FE;stop-opacity:0"/>
			</linearGradient>
			<ellipse class="st88" cx="347.34" cy="266.49" rx="27.03" ry="15.61"/>
			
				<linearGradient id="SVGID_82_" gradientUnits="userSpaceOnUse" x1="1845.5588" y1="246.6068" x2="1908.063" y2="295.97" gradientTransform="matrix(-1 0 0 1 2218.082 0)">
				<stop  offset="0" style="stop-color:#7D57C4"/>
				<stop  offset="0.0766" style="stop-color:#8B6CCD;stop-opacity:0.9104"/>
				<stop  offset="0.2527" style="stop-color:#A898DE;stop-opacity:0.7044"/>
				<stop  offset="0.4232" style="stop-color:#BFBAEC;stop-opacity:0.5049"/>
				<stop  offset="0.5843" style="stop-color:#D0D2F6;stop-opacity:0.3164"/>
				<stop  offset="0.7323" style="stop-color:#DAE1FC;stop-opacity:0.1433"/>
				<stop  offset="0.8547" style="stop-color:#DDE6FE;stop-opacity:0"/>
			</linearGradient>
			<ellipse class="st89" cx="347.34" cy="266.49" rx="20.37" ry="11.76"/>
			
				<linearGradient id="SVGID_83_" gradientUnits="userSpaceOnUse" x1="1852.5088" y1="252.0956" x2="1897.7604" y2="287.8335" gradientTransform="matrix(-1 0 0 1 2218.082 0)">
				<stop  offset="0" style="stop-color:#7D57C4"/>
				<stop  offset="0.0766" style="stop-color:#8B6CCD;stop-opacity:0.9104"/>
				<stop  offset="0.2527" style="stop-color:#A898DE;stop-opacity:0.7044"/>
				<stop  offset="0.4232" style="stop-color:#BFBAEC;stop-opacity:0.5049"/>
				<stop  offset="0.5843" style="stop-color:#D0D2F6;stop-opacity:0.3164"/>
				<stop  offset="0.7323" style="stop-color:#DAE1FC;stop-opacity:0.1433"/>
				<stop  offset="0.8547" style="stop-color:#DDE6FE;stop-opacity:0"/>
			</linearGradient>
			<ellipse class="st90" cx="347.34" cy="266.49" rx="14.75" ry="8.51"/>
			<g>
				<path class="st34" d="M345.89,266.94c0.19,0.5,0.8,3.47-0.69,4.01s-2.61-0.04-3.79-1.2c-0.13-0.13,0.42-0.31,0.21-0.39
					c-2.15-0.86-4.16-3.48-4.16-4.06c0-0.65-0.17-1.18,1.24-1.18s4,2.1,4,2.1l2.31-0.66C345,265.54,345.7,266.44,345.89,266.94z"/>
				<path class="st34" d="M354.57,262.71c0,0,0.24,1.25,0.01,2.44c-0.11,0.58,0.03,1.13-0.42,1.45c-0.41,0.29-1.23,0.44-2.14,0.44
					c-1.09,0-1.39-0.72-1.85-1.4c-0.1-0.15,0.36-0.42,0.22-0.51c-0.51-0.34-1.39-0.93-1.65-1.26c-0.85-1.06-1.64-2.53-1.52-3.4
					s1.02-1.08,1.51-1.08c0.49,0,4.04,2.85,4.04,2.85L354.57,262.71z"/>
				
					<linearGradient id="SVGID_84_" gradientUnits="userSpaceOnUse" x1="2222.2534" y1="239.5937" x2="2231.4297" y2="239.5937" gradientTransform="matrix(-1 0 0 1 2578.7737 0)">
					<stop  offset="0" style="stop-color:#AA00BE"/>
					<stop  offset="0.1539" style="stop-color:#9001AF"/>
					<stop  offset="0.3923" style="stop-color:#6E039A"/>
					<stop  offset="0.6191" style="stop-color:#56058C"/>
					<stop  offset="0.8275" style="stop-color:#470683"/>
					<stop  offset="1" style="stop-color:#420680"/>
				</linearGradient>
				<path class="st91" d="M354.39,263.17c-1.1,1.59-3.66,1.3-4.02-0.65c-1.28-6.97-2.13-19.14-2.2-29.16
					c-0.04-7.08-0.97-14.65-0.81-16.41c2.68-1.53,7.2-2.61,7.77-1.48c3.51,7.04-0.76,9.01-0.53,12.16
					C354.82,230.78,354.39,263.17,354.39,263.17z"/>
				
					<linearGradient id="SVGID_85_" gradientUnits="userSpaceOnUse" x1="2227.0632" y1="241.6397" x2="2239.1428" y2="241.6397" gradientTransform="matrix(-1 0 0 1 2578.7737 0)">
					<stop  offset="0" style="stop-color:#AA00BE"/>
					<stop  offset="0.1539" style="stop-color:#9001AF"/>
					<stop  offset="0.3923" style="stop-color:#6E039A"/>
					<stop  offset="0.6191" style="stop-color:#56058C"/>
					<stop  offset="0.8275" style="stop-color:#470683"/>
					<stop  offset="1" style="stop-color:#420680"/>
				</linearGradient>
				<path class="st92" d="M340.92,216.1c-1.6,0.89-1.57,12.25-0.69,20.14s0.93,29.93,1.72,30.59c0.79,0.67,3.3,1.54,3.72,0.52
					c0.42-1.02,1.34-34.68,2.54-36.51c4.7-8.21,3.59-10.76,2.73-13.33C350.08,214.93,342.53,215.21,340.92,216.1z"/>
				<path class="st87" d="M342.93,175.74c0,0-0.91,7.27,0.24,8.04c1.15,0.77,5.24,0.81,6.38-0.81c1.15-1.62,3.59-6.93,0.89-8.82
					C347.74,172.26,344.15,172,342.93,175.74z"/>
				<linearGradient id="SVGID_86_" gradientUnits="userSpaceOnUse" x1="352.4768" y1="196.2287" x2="369.8965" y2="152.2532">
					<stop  offset="0" style="stop-color:#F6E2F1"/>
					<stop  offset="0.0351" style="stop-color:#F6DDF2"/>
					<stop  offset="0.307" style="stop-color:#F2BBF6"/>
					<stop  offset="0.5657" style="stop-color:#F0A3F9"/>
					<stop  offset="0.8033" style="stop-color:#EE94FB"/>
					<stop  offset="1" style="stop-color:#EE8FFC"/>
				</linearGradient>
				<path class="st93" d="M357.8,169.46c0.73,0.37,5.47,14.83,5.42,16.28c-0.03,0.93-0.63,4.63-7.14,8.45
					c-1.27,0.75-6.81-6.92-3.3-7.06c6.18-0.24,5.81-3.16,5.81-4.33c0-1.46-2.48-9.62-3.14-10.83
					C355.03,171.21,357.07,169.09,357.8,169.46z"/>
				<linearGradient id="SVGID_87_" gradientUnits="userSpaceOnUse" x1="328.4632" y1="194.7552" x2="356.7607" y2="210.1237">
					<stop  offset="0" style="stop-color:#F6E2F1"/>
					<stop  offset="0.0351" style="stop-color:#F6DDF2"/>
					<stop  offset="0.307" style="stop-color:#F2BBF6"/>
					<stop  offset="0.5657" style="stop-color:#F0A3F9"/>
					<stop  offset="0.8033" style="stop-color:#EE94FB"/>
					<stop  offset="1" style="stop-color:#EE8FFC"/>
				</linearGradient>
				<path class="st94" d="M341.81,203.13c-1.56-7.3-3.99-12.9-0.28-14.17c0.26-0.09,0.5-0.16,0.76-0.24
					c1.98,5.58,5.29,10.66,3.49,16.92c-1.4,2.92-3.19,6.45-5.58,9.02C340.03,211.05,341.81,203.13,341.81,203.13z"/>
				<linearGradient id="SVGID_88_" gradientUnits="userSpaceOnUse" x1="370.3219" y1="180.145" x2="322.7527" y2="228.4459">
					<stop  offset="0" style="stop-color:#F6E2F1"/>
					<stop  offset="0.0351" style="stop-color:#F6DDF2"/>
					<stop  offset="0.307" style="stop-color:#F2BBF6"/>
					<stop  offset="0.5657" style="stop-color:#F0A3F9"/>
					<stop  offset="0.8033" style="stop-color:#EE94FB"/>
					<stop  offset="1" style="stop-color:#EE8FFC"/>
				</linearGradient>
				<path class="st95" d="M342.28,188.72c3.41-1.09,6.47-1.58,8.92-1.56c2.63,0.02,5.64-0.35,6.42,3.28
					c0.78,3.62-2.55,17.89-2.5,25.03c-4.35,3.08-11.94,2.12-14.46,0.88c-0.3-0.21-0.45-0.83-0.48-1.68c2.39-2.58,4.18-6.1,5.58-9.02
					C347.57,199.38,344.26,194.29,342.28,188.72z"/>
				<linearGradient id="SVGID_89_" gradientUnits="userSpaceOnUse" x1="324.6823" y1="187.4471" x2="339.7764" y2="210.9572">
					<stop  offset="0" style="stop-color:#F6E2F1"/>
					<stop  offset="0.0351" style="stop-color:#F6DDF2"/>
					<stop  offset="0.307" style="stop-color:#F2BBF6"/>
					<stop  offset="0.5657" style="stop-color:#F0A3F9"/>
					<stop  offset="0.8033" style="stop-color:#EE94FB"/>
					<stop  offset="1" style="stop-color:#EE8FFC"/>
				</linearGradient>
				<path class="st96" d="M342.22,188.82c-5.29,1.09-6.13,11.4-8.25,11.93c-2.09,0.53-12.82,0.03-14.32-0.55
					c-0.81-0.31-2.42,1.16-2.05,3.2c0.37,2.06,14.17,3.35,17.69,2.18c2.28-0.76,5.86-5.74,7.42-9.15
					C344.49,192.58,343.92,188.47,342.22,188.82z"/>
				<path class="st87" d="M351.08,188.02l-1.05-6.55l-4.77,0.32l0.57,6.45C345.83,188.23,350.03,191.21,351.08,188.02z"/>
				<path class="st97" d="M353.22,179.17c0,0-1.22,4.36-4.25,4.13c-1.95-0.15-3.35-2.96-3.35-2.96l-0.61-1.62h-0.87l-0.77,0.87
					c0,0-0.13-3.6-0.78-3.59c-1.43,0.11-0.92-1.69-0.18-2.95c0.81-1.4,3.54-2.83,5.7-2.83s4.98,1.88,5.27,4.36
					C353.66,177.06,353.22,179.17,353.22,179.17z"/>
				
					<linearGradient id="SVGID_90_" gradientUnits="userSpaceOnUse" x1="2230.5085" y1="185.4527" x2="2230.3511" y2="191.3587" gradientTransform="matrix(-1 0 0 1 2578.7737 0)">
					<stop  offset="0" style="stop-color:#F6E2F1"/>
					<stop  offset="0.0351" style="stop-color:#F6DDF2"/>
					<stop  offset="0.307" style="stop-color:#F2BBF6"/>
					<stop  offset="0.5657" style="stop-color:#F0A3F9"/>
					<stop  offset="0.8033" style="stop-color:#EE94FB"/>
					<stop  offset="1" style="stop-color:#EE8FFC"/>
				</linearGradient>
				<path class="st98" d="M352.05,187.68c0,0-0.22-2.13-0.97-1.93s-1.89,2.6-4.54,1.4c-1.28-0.83-1.46-0.22-1.46-0.22l-0.48,1.11
					c0,0,1.97,1.21,2.12,1.6c0.42,0.51,3.65,1.48,4.8-0.3C351.52,189.35,352.18,188.43,352.05,187.68z"/>
			</g>
		</g>
	</g>
	<g>
		<g>
			<g>
				<path class="st99" d="M366.14,122.98v8.78c-1.69,7.29-5.29,11.05-8.07,14.01c-0.47,0.5-1.02,0.82-1.49,0.87
					c-2.78,0.27-6.38,0.68-8.07-4.65v-8.78c-0.11-0.36,0.53-1.53,1.25-2.18l6.74-5.57c0.55-0.45,1.12-0.78,1.67-0.97l6.74-2.24
					C365.61,122.07,366.25,122.49,366.14,122.98z"/>
			</g>
			<g>
				<path class="st13" d="M364.69,125.06v7.33c-1.41,6.09-4.42,9.23-6.74,11.7c-0.39,0.42-0.85,0.69-1.25,0.72
					c-2.32,0.22-5.33,0.57-6.75-3.88v-7.33c-0.1-0.3,0.44-1.28,1.04-1.82l5.63-4.66c0.46-0.38,0.94-0.66,1.39-0.81l5.63-1.87
					C364.24,124.3,364.78,124.65,364.69,125.06z"/>
			</g>
		</g>
		<g>
			<polygon class="st99" points="352.78,137.7 356.25,139.16 363.62,127.52 362.41,127.01 356.25,136.75 353.98,135.8 352.78,137.7 
							"/>
		</g>
	</g>
	<g>
		<g>
			<g>
				<path class="st99" d="M478.14-41.52v8.78c-1.69,7.29-5.29,11.05-8.07,14.01c-0.47,0.5-1.02,0.82-1.49,0.87
					c-2.78,0.27-6.38,0.68-8.07-4.65v-8.78c-0.11-0.36,0.53-1.53,1.25-2.18l6.74-5.57c0.55-0.45,1.12-0.78,1.67-0.97l6.74-2.24
					C477.61-42.43,478.26-42.01,478.14-41.52z"/>
			</g>
			<g>
				<path class="st13" d="M476.69-39.44v7.33c-1.41,6.09-4.42,9.23-6.74,11.7c-0.39,0.42-0.85,0.69-1.25,0.72
					c-2.32,0.22-5.33,0.57-6.75-3.88v-7.33c-0.1-0.3,0.44-1.28,1.04-1.82l5.63-4.66c0.46-0.38,0.94-0.66,1.39-0.81l5.63-1.87
					C476.25-40.2,476.79-39.85,476.69-39.44z"/>
			</g>
		</g>
		<g>
			<polygon class="st99" points="464.78,-26.8 468.25,-25.34 475.62,-36.99 474.41,-37.49 468.25,-27.75 465.99,-28.7 464.78,-26.8 
							"/>
		</g>
	</g>
	<g>
		<g>
			<g>
				<path class="st99" d="M414.4,9.9v6.62c-1.27,5.5-3.99,8.33-6.09,10.56c-0.36,0.38-0.77,0.62-1.13,0.65
					c-2.1,0.2-4.81,0.52-6.09-3.5v-6.62c-0.09-0.27,0.4-1.16,0.94-1.64l5.08-4.2c0.41-0.34,0.84-0.59,1.26-0.73l5.08-1.69
					C413.99,9.21,414.48,9.53,414.4,9.9z"/>
			</g>
			<g>
				<path class="st13" d="M413.3,11.47V17c-1.07,4.59-3.33,6.96-5.09,8.83c-0.3,0.32-0.64,0.52-0.94,0.55
					c-1.75,0.17-4.02,0.43-5.09-2.93v-5.53c-0.07-0.23,0.34-0.97,0.79-1.37l4.25-3.51c0.35-0.29,0.71-0.49,1.05-0.61l4.25-1.41
					C412.97,10.89,413.37,11.16,413.3,11.47z"/>
			</g>
		</g>
		<g>
			<polygon class="st99" points="404.32,21 406.93,22.1 412.49,13.32 411.58,12.94 406.93,20.29 405.23,19.57 404.32,21 			"/>
		</g>
	</g>
	<linearGradient id="SVGID_91_" gradientUnits="userSpaceOnUse" x1="233.2235" y1="168.6975" x2="272.1388" y2="168.6975">
		<stop  offset="0" style="stop-color:#172C51"/>
		<stop  offset="1" style="stop-color:#051A78"/>
	</linearGradient>
	<path class="st100" d="M272.14,179.93c0,4.33-1.06,7.76-2.9,10.13c-0.73,0.94-1.59,1.72-2.54,2.31l-0.1,0.06
		c-3.53,2.14-8.46,1.89-13.92-1.26c-10.75-6.2-19.46-21.29-19.46-33.7c0-6.32,2.27-10.73,5.91-12.71c1.01-0.55,2.13-0.91,3.33-1.07
		c2.97-0.41,6.47,0.39,10.22,2.55C263.43,152.43,272.14,167.52,272.14,179.93z"/>
	<g>
		<g>
			<path class="st46" d="M264,184.06c0,4.19-1.02,7.51-2.8,9.8c-0.71,0.91-1.53,1.66-2.46,2.24l-0.09,0.06
				c-3.41,2.07-8.19,1.83-13.46-1.22c-10.4-6-18.82-20.6-18.82-32.6c0-6.12,2.19-10.38,5.72-12.3c0.98-0.53,2.06-0.88,3.22-1.04
				c2.88-0.39,6.26,0.38,9.89,2.47C255.58,157.47,264,172.06,264,184.06z"/>
			<path class="st101" d="M258.91,181.12c0,3.05-0.75,5.48-2.04,7.15c-0.52,0.67-1.12,1.21-1.79,1.63l-0.07,0.04
				c-2.49,1.51-5.97,1.33-9.82-0.89c-7.58-4.38-13.73-15.02-13.73-23.78c0-4.46,1.6-7.57,4.17-8.97c0.71-0.39,1.5-0.64,2.35-0.76
				c2.1-0.29,4.57,0.27,7.21,1.8C252.77,161.72,258.91,172.37,258.91,181.12z"/>
			<path class="st102" d="M258.91,180.54c0,2.99-0.73,5.35-2,6.98c-0.51,0.65-1.09,1.19-1.75,1.6l-0.07,0.04
				c-2.43,1.48-5.84,1.3-9.6-0.87c-7.41-4.28-13.42-14.68-13.42-23.24c0-4.36,1.56-7.4,4.08-8.76c0.7-0.38,1.47-0.63,2.3-0.74
				c2.05-0.28,4.46,0.27,7.05,1.76C252.91,161.58,258.91,171.99,258.91,180.54z"/>
			<path class="st45" d="M270.14,180.53c0,5.71-1.91,9.81-5.04,11.88l-0.02,0.01l-0.91,0.53l-5.43,3.15
				c0.93-0.57,1.75-1.32,2.46-2.24c1.78-2.29,2.8-5.61,2.8-9.8c0-12-8.42-26.6-18.82-32.6c-3.63-2.09-7.01-2.86-9.89-2.47
				c-1.16,0.16-2.24,0.51-3.22,1.04l5.13-2.9l0,0l1.77-1c3.3-1.4,7.61-0.92,12.33,1.8C261.71,153.93,270.14,168.52,270.14,180.53z"
				/>
		</g>
		<g>
			<path class="st50" d="M256.93,171.95c3.61,9.32,1.47,17.39-4.83,18.01c-6.33,0.63-14.43-6.5-18.06-15.91
				c-3.63-9.4-1.4-17.44,4.95-17.98C245.31,155.54,253.32,162.64,256.93,171.95z"/>
			<path class="st103" d="M250,174.64c0,0,1.56,0.34,1.49-2.73c-0.03-3.17-3.31-5.47-4.26-6.07l0.01-3.85l-1.95-1.12l-0.01,3.85
				l-1.39-0.8l0.01-3.85l-1.95-1.12l-0.01,3.85l-3.7-2.13l0,2.19c0,0,0.58,0.33,1.44,0.83c0.86,0.5,0.93,1.41,0.93,1.41
				s-0.02,9.36-0.04,9.84c-0.02,0.48-0.39,0.28-0.39,0.28l-1.64-0.94l-0.5,2.5l3.84,2.2l-0.01,3.67l1.96,1.12l0.01-3.67l1.4,0.8
				l-0.01,3.67l1.96,1.12l0.01-3.67c0.1,0.05,0.32,0.17,0.77,0.42c3.22,1.63,4.73,0.55,4.73-2.55
				C252.69,176.78,250,174.64,250,174.64z M243.87,166.35l1.9,1.09c0,0,2.39,1.5,2.39,3.51c0,2.01-2.56,0.68-2.56,0.68l-1.74-1
				L243.87,166.35z M245.94,178.67l-2.1-1.2l0.02-4.72l2.29,1.31c0,0,2.88,1.8,2.88,4.01C249.02,180.29,245.94,178.67,245.94,178.67
				z"/>
		</g>
	</g>
	<g>
		<linearGradient id="SVGID_92_" gradientUnits="userSpaceOnUse" x1="523.9014" y1="261.6349" x2="396.3795" y2="196.6847">
			<stop  offset="0" style="stop-color:#7D57C4"/>
			<stop  offset="0.0766" style="stop-color:#8B6CCD;stop-opacity:0.9104"/>
			<stop  offset="0.2527" style="stop-color:#A898DE;stop-opacity:0.7044"/>
			<stop  offset="0.4232" style="stop-color:#BFBAEC;stop-opacity:0.5049"/>
			<stop  offset="0.5843" style="stop-color:#D0D2F6;stop-opacity:0.3164"/>
			<stop  offset="0.7323" style="stop-color:#DAE1FC;stop-opacity:0.1433"/>
			<stop  offset="0.8547" style="stop-color:#DDE6FE;stop-opacity:0"/>
		</linearGradient>
		<path class="st104" d="M519.3,237.91l-57.03-32.93c-2.31-1.33-6.06-1.33-8.37,0l-3.1,1.79l-6.2,3.58l-25.26,14.58
			c-2.31,1.33-2.31,3.5,0,4.83l57.03,32.93c2.31,1.33,6.06,1.33,8.37,0L510,248.11l6.2-3.58l3.1-1.79
			C521.61,241.41,521.61,239.24,519.3,237.91z"/>
		<path class="st56" d="M519.3,239.55c2.31-1.33,2.31-3.5,0-4.83l-57.03-32.93c-2.31-1.33-6.06-1.33-8.37,0l-3.1,1.79l65.4,37.76
			L519.3,239.55z"/>
		<path class="st56" d="M444.6,207.16l-25.26,14.58c-2.31,1.33-2.31,3.5,0,4.83l57.03,32.93c2.31,1.33,6.06,1.33,8.37,0L510,244.92
			L444.6,207.16z"/>
		<polygon class="st105" points="516.2,241.34 450.8,203.58 444.6,207.16 510,244.92 		"/>
		<g>
			<polygon class="st99" points="463.57,221.99 447.66,212.8 449.1,211.97 465.02,221.16 			"/>
			<path class="st99" d="M451.43,219.99l-7.46-4.31c-0.36-0.21-0.32-0.57,0.1-0.81l1.48-0.86c0.42-0.24,1.05-0.27,1.41-0.06
				l7.46,4.31c0.36,0.21,0.32,0.57-0.1,0.81l-1.48,0.86C452.43,220.18,451.79,220.2,451.43,219.99z"/>
			<path class="st99" d="M462.38,226.32l-7.46-4.31c-0.36-0.21-0.32-0.57,0.1-0.81l1.48-0.86c0.42-0.24,1.05-0.27,1.41-0.06
				l7.46,4.31c0.36,0.21,0.32,0.57-0.1,0.81l-1.48,0.86C463.38,226.5,462.75,226.53,462.38,226.32z"/>
			<path class="st99" d="M473.34,232.64l-7.46-4.31c-0.36-0.21-0.32-0.57,0.1-0.81l1.48-0.86c0.42-0.24,1.05-0.27,1.41-0.06
				l7.46,4.31c0.36,0.21,0.32,0.57-0.1,0.81l-1.48,0.86C474.33,232.82,473.7,232.85,473.34,232.64z"/>
			<path class="st99" d="M484.29,238.96l-7.46-4.31c-0.36-0.21-0.32-0.57,0.1-0.81l1.48-0.86c0.42-0.24,1.05-0.27,1.41-0.06
				l7.46,4.31c0.36,0.21,0.32,0.57-0.1,0.81l-1.48,0.86C485.28,239.15,484.65,239.17,484.29,238.96z"/>
			<path class="st99" d="M495.24,245.29l-7.46-4.31c-0.36-0.21-0.32-0.57,0.1-0.81l1.48-0.86c0.42-0.24,1.05-0.27,1.41-0.06
				l7.46,4.31c0.36,0.21,0.32,0.57-0.1,0.81l-1.48,0.86C496.23,245.47,495.6,245.5,495.24,245.29z"/>
		</g>
		<g>
			<ellipse class="st99" cx="470.3" cy="243.22" rx="8.77" ry="5.06"/>
			<ellipse class="st106" cx="479.38" cy="248.46" rx="8.77" ry="5.06"/>
			<g>
				<path class="st106" d="M446,223.34l-5.54-3.2c-0.72-0.42-1.66-0.62-2.61-0.62c-0.95,0-1.89,0.21-2.61,0.62l-5.54,3.2
					c-0.72,0.42-1.08,0.96-1.08,1.51c0,0.55,0.36,1.09,1.08,1.51l5.54,3.2c0.72,0.42,1.66,0.62,2.61,0.62
					c0.95,0,1.89-0.21,2.61-0.62l5.54-3.2c0.72-0.42,1.08-0.96,1.08-1.51C447.08,224.3,446.73,223.76,446,223.34z"/>
				<path class="st107" d="M444.18,227.53l0.65-0.38l-7.76-4.48l1.68-0.97l7.72,4.46c0.19-0.15,0.34-0.32,0.46-0.49l-7.52-4.34
					l1.66-0.96l-0.43-0.25c-0.08-0.04-0.16-0.09-0.24-0.13l-5.15,2.97l-2.56-1.48l-0.65,0.38l2.56,1.48l-1.68,0.97l-2.56-1.48
					l-0.65,0.38l2.56,1.48l-2.82,1.63c0.07,0.05,0.14,0.09,0.22,0.14l0.43,0.25l1.66-0.96l7.52,4.34c0.3-0.07,0.58-0.15,0.85-0.26
					l-7.72-4.46l1.68-0.97l7.76,4.48l0.65-0.38l-7.76-4.48l1.68-0.97L444.18,227.53z"/>
				
					<linearGradient id="SVGID_93_" gradientUnits="userSpaceOnUse" x1="640.6313" y1="635.7567" x2="654.8407" y2="635.7567" gradientTransform="matrix(0.866 0.5 -1 0.5774 512.6531 -466.0757)">
					<stop  offset="0" style="stop-color:#5940E7"/>
					<stop  offset="1" style="stop-color:#1BAFF8"/>
				</linearGradient>
				<path class="st108" d="M447.8,224.85c0-0.65-0.43-1.3-1.29-1.8l-5.54-3.2c-0.86-0.5-1.99-0.75-3.12-0.75
					c-1.13,0-2.26,0.25-3.12,0.75l-5.54,3.2c-0.86,0.5-1.29,1.15-1.29,1.8c0,0.65,0.43,1.3,1.29,1.8l5.54,3.2
					c0.86,0.5,1.99,0.75,3.12,0.75c1.13,0,2.26-0.25,3.12-0.75l5.54-3.2C447.37,226.15,447.8,225.5,447.8,224.85z M440.46,229.55
					c-0.72,0.42-1.66,0.62-2.61,0.62c-0.95,0-1.89-0.21-2.61-0.62l-5.54-3.2c-0.72-0.42-1.08-0.96-1.08-1.51
					c0-0.55,0.36-1.09,1.08-1.51l5.54-3.2c0.72-0.42,1.66-0.62,2.61-0.62c0.95,0,1.89,0.21,2.61,0.62l5.54,3.2
					c0.72,0.42,1.08,0.96,1.08,1.51c0,0.55-0.36,1.09-1.08,1.51L440.46,229.55z"/>
			</g>
		</g>
	</g>
	<g>
		<path class="st99" d="M167.86,228.66l-19.89-11.48c-1.59-0.92-1.39-2.52,0.45-3.58l27.48-15.86c1.84-1.06,4.61-1.18,6.2-0.26
			l19.89,11.48c1.59,0.92,1.39,2.52-0.45,3.58l-27.48,15.86C172.23,229.47,169.45,229.58,167.86,228.66z"/>
		<g>
			<g>
				<g>
					<path class="st13" d="M171,211.63c-5.85,0.3-10.18,3.27-9.67,6.65c0.51,3.38,5.67,5.88,11.52,5.58
						c5.85-0.3,10.18-3.27,9.67-6.65S176.85,211.34,171,211.63z M172.7,222.79c-4.82,0.24-9.07-1.82-9.49-4.6
						c-0.42-2.78,3.14-5.24,7.97-5.48c4.82-0.24,9.07,1.82,9.49,4.6C181.08,220.09,177.52,222.55,172.7,222.79z"/>
				</g>
				<polygon class="st13" points="174.92,228.57 172.25,228.7 171.51,223.83 174.18,223.7 				"/>
				<path class="st13" d="M174.86,237.09L174.86,237.09c-1.27,0.06-2.39-0.48-2.5-1.21l-1.33-8.79c-0.11-0.73,0.83-1.38,2.1-1.45h0
					c1.27-0.06,2.39,0.48,2.5,1.21l1.33,8.79C177.08,236.38,176.14,237.03,174.86,237.09z"/>
			</g>
			<g>
				<path class="st13" d="M172.12,215.52l-4-0.67c-0.79-0.13-1.51,0.29-1.27,0.75l1.23,2.3c0.53,0.99,1.88,1.75,3.6,2.04l4.15,0.69
					c0.72,0.12,1.39-0.27,1.16-0.69l-1.28-2.38C175.19,216.58,173.83,215.81,172.12,215.52z"/>
				<ellipse class="st109" cx="171.93" cy="217.75" rx="3.11" ry="1.8"/>
				<ellipse class="st110" cx="171.93" cy="217.75" rx="2.47" ry="1.43"/>
			</g>
		</g>
		<g>
			<polygon class="st13" points="195.69,211.92 176.98,201.11 178.62,200.17 197.33,210.97 			"/>
			<polygon class="st13" points="192.21,213.92 173.5,203.12 175.14,202.17 193.85,212.98 			"/>
			<polygon class="st13" points="188.73,215.93 170.02,205.13 171.66,204.18 190.37,214.98 			"/>
			<polygon class="st13" points="172.16,210.38 166.54,207.14 168.19,206.19 173.8,209.43 			"/>
			<polygon class="st13" points="165.87,210.77 163.07,209.15 164.71,208.2 167.52,209.82 			"/>
			<polygon class="st13" points="162.4,212.77 159.59,211.15 161.23,210.21 164.04,211.83 			"/>
			<polygon class="st13" points="159.21,214.95 156.11,213.16 157.75,212.21 160.86,214.01 			"/>
			<polygon class="st13" points="158.01,218.27 152.63,215.17 154.28,214.22 159.65,217.32 			"/>
		</g>
	</g>
	<g>
		<linearGradient id="SVGID_94_" gradientUnits="userSpaceOnUse" x1="400.4453" y1="274.9064" x2="442.2072" y2="274.9064">
			<stop  offset="0" style="stop-color:#7D57C4"/>
			<stop  offset="0.0766" style="stop-color:#8B6CCD;stop-opacity:0.9104"/>
			<stop  offset="0.2527" style="stop-color:#A898DE;stop-opacity:0.7044"/>
			<stop  offset="0.4232" style="stop-color:#BFBAEC;stop-opacity:0.5049"/>
			<stop  offset="0.5843" style="stop-color:#D0D2F6;stop-opacity:0.3164"/>
			<stop  offset="0.7323" style="stop-color:#DAE1FC;stop-opacity:0.1433"/>
			<stop  offset="0.8547" style="stop-color:#DDE6FE;stop-opacity:0"/>
		</linearGradient>
		<path class="st111" d="M436.19,283.49c-8.1,4.68-21.32,4.63-29.53-0.11s-8.29-12.37-0.19-17.05c8.1-4.68,21.32-4.63,29.53,0.11
			S444.29,278.81,436.19,283.49z"/>
		
			<ellipse transform="matrix(0.0111 -0.9999 0.9999 0.0111 144.13 690.8123)" class="st99" cx="421.33" cy="272.54" rx="12.05" ry="20.88"/>
		<g>
			<path class="st50" d="M421.72,267.02l-9.95-1.69c-1.95-0.33-3.73,0.72-3.12,1.84l3.12,5.71c1.34,2.45,4.71,4.36,8.98,5.08
				l10.32,1.75c1.79,0.3,3.43-0.66,2.86-1.69l-3.24-5.92C429.36,269.65,425.99,267.74,421.72,267.02z"/>
			
				<ellipse transform="matrix(0.0111 -0.9999 0.9999 0.0111 144.1313 690.8126)" class="st112" cx="421.33" cy="272.54" rx="4.46" ry="7.72"/>
			
				<ellipse transform="matrix(0.0111 -0.9999 0.9999 0.0111 144.1313 690.8126)" class="st99" cx="421.33" cy="272.54" rx="3.54" ry="6.13"/>
		</g>
	</g>
	<radialGradient id="SVGID_95_" cx="276.4335" cy="262.8866" r="11.7706" gradientUnits="userSpaceOnUse">
		<stop  offset="0" style="stop-color:#FFFFFF"/>
		<stop  offset="2.193928e-03" style="stop-color:#FEFEFE"/>
		<stop  offset="0.1695" style="stop-color:#BCBCBC"/>
		<stop  offset="0.3339" style="stop-color:#838383"/>
		<stop  offset="0.4911" style="stop-color:#545454"/>
		<stop  offset="0.64" style="stop-color:#2F2F2F"/>
		<stop  offset="0.7784" style="stop-color:#151515"/>
		<stop  offset="0.9025" style="stop-color:#060606"/>
		<stop  offset="1" style="stop-color:#000000"/>
	</radialGradient>
	<circle class="st113" cx="276.43" cy="262.89" r="11.77"/>
	<radialGradient id="SVGID_96_" cx="255.9079" cy="263.2879" r="11.7706" gradientUnits="userSpaceOnUse">
		<stop  offset="0" style="stop-color:#FFFFFF"/>
		<stop  offset="2.193928e-03" style="stop-color:#FEFEFE"/>
		<stop  offset="0.1695" style="stop-color:#BCBCBC"/>
		<stop  offset="0.3339" style="stop-color:#838383"/>
		<stop  offset="0.4911" style="stop-color:#545454"/>
		<stop  offset="0.64" style="stop-color:#2F2F2F"/>
		<stop  offset="0.7784" style="stop-color:#151515"/>
		<stop  offset="0.9025" style="stop-color:#060606"/>
		<stop  offset="1" style="stop-color:#000000"/>
	</radialGradient>
	<circle class="st114" cx="255.91" cy="263.29" r="11.77"/>
	<radialGradient id="SVGID_97_" cx="234.7087" cy="226.5466" r="11.7706" gradientUnits="userSpaceOnUse">
		<stop  offset="0" style="stop-color:#FFFFFF"/>
		<stop  offset="2.193928e-03" style="stop-color:#FEFEFE"/>
		<stop  offset="0.1695" style="stop-color:#BCBCBC"/>
		<stop  offset="0.3339" style="stop-color:#838383"/>
		<stop  offset="0.4911" style="stop-color:#545454"/>
		<stop  offset="0.64" style="stop-color:#2F2F2F"/>
		<stop  offset="0.7784" style="stop-color:#151515"/>
		<stop  offset="0.9025" style="stop-color:#060606"/>
		<stop  offset="1" style="stop-color:#000000"/>
	</radialGradient>
	<circle class="st115" cx="234.71" cy="226.55" r="11.77"/>
	<radialGradient id="SVGID_98_" cx="195.4472" cy="216.3216" r="11.7706" gradientUnits="userSpaceOnUse">
		<stop  offset="0" style="stop-color:#FFFFFF"/>
		<stop  offset="2.193928e-03" style="stop-color:#FEFEFE"/>
		<stop  offset="0.1695" style="stop-color:#BCBCBC"/>
		<stop  offset="0.3339" style="stop-color:#838383"/>
		<stop  offset="0.4911" style="stop-color:#545454"/>
		<stop  offset="0.64" style="stop-color:#2F2F2F"/>
		<stop  offset="0.7784" style="stop-color:#151515"/>
		<stop  offset="0.9025" style="stop-color:#060606"/>
		<stop  offset="1" style="stop-color:#000000"/>
	</radialGradient>
	<circle class="st116" cx="195.45" cy="216.32" r="11.77"/>
	<radialGradient id="SVGID_99_" cx="389.9435" cy="219.3834" r="11.7706" gradientUnits="userSpaceOnUse">
		<stop  offset="0" style="stop-color:#FFFFFF"/>
		<stop  offset="2.193928e-03" style="stop-color:#FEFEFE"/>
		<stop  offset="0.1695" style="stop-color:#BCBCBC"/>
		<stop  offset="0.3339" style="stop-color:#838383"/>
		<stop  offset="0.4911" style="stop-color:#545454"/>
		<stop  offset="0.64" style="stop-color:#2F2F2F"/>
		<stop  offset="0.7784" style="stop-color:#151515"/>
		<stop  offset="0.9025" style="stop-color:#060606"/>
		<stop  offset="1" style="stop-color:#000000"/>
	</radialGradient>
	<circle class="st117" cx="389.94" cy="219.38" r="11.77"/>
	<radialGradient id="SVGID_100_" cx="418.833" cy="227.2135" r="11.7706" gradientUnits="userSpaceOnUse">
		<stop  offset="0" style="stop-color:#FFFFFF"/>
		<stop  offset="2.193928e-03" style="stop-color:#FEFEFE"/>
		<stop  offset="0.1695" style="stop-color:#BCBCBC"/>
		<stop  offset="0.3339" style="stop-color:#838383"/>
		<stop  offset="0.4911" style="stop-color:#545454"/>
		<stop  offset="0.64" style="stop-color:#2F2F2F"/>
		<stop  offset="0.7784" style="stop-color:#151515"/>
		<stop  offset="0.9025" style="stop-color:#060606"/>
		<stop  offset="1" style="stop-color:#000000"/>
	</radialGradient>
	<circle class="st118" cx="418.83" cy="227.21" r="11.77"/>
	<radialGradient id="SVGID_101_" cx="404.363" cy="263.6338" r="11.7706" gradientUnits="userSpaceOnUse">
		<stop  offset="0" style="stop-color:#FFFFFF"/>
		<stop  offset="2.193928e-03" style="stop-color:#FEFEFE"/>
		<stop  offset="0.1695" style="stop-color:#BCBCBC"/>
		<stop  offset="0.3339" style="stop-color:#838383"/>
		<stop  offset="0.4911" style="stop-color:#545454"/>
		<stop  offset="0.64" style="stop-color:#2F2F2F"/>
		<stop  offset="0.7784" style="stop-color:#151515"/>
		<stop  offset="0.9025" style="stop-color:#060606"/>
		<stop  offset="1" style="stop-color:#000000"/>
	</radialGradient>
	<circle class="st119" cx="404.36" cy="263.63" r="11.77"/>
	<radialGradient id="SVGID_102_" cx="273.4846" cy="325.4378" r="11.7706" gradientUnits="userSpaceOnUse">
		<stop  offset="0" style="stop-color:#FFFFFF"/>
		<stop  offset="2.193928e-03" style="stop-color:#FEFEFE"/>
		<stop  offset="0.1695" style="stop-color:#BCBCBC"/>
		<stop  offset="0.3339" style="stop-color:#838383"/>
		<stop  offset="0.4911" style="stop-color:#545454"/>
		<stop  offset="0.64" style="stop-color:#2F2F2F"/>
		<stop  offset="0.7784" style="stop-color:#151515"/>
		<stop  offset="0.9025" style="stop-color:#060606"/>
		<stop  offset="1" style="stop-color:#000000"/>
	</radialGradient>
	<circle class="st120" cx="273.48" cy="325.44" r="11.77"/>
	<g>
		
			<ellipse transform="matrix(0.0572 -0.9984 0.9984 0.0572 247.8015 624.7724)" class="st99" cx="454.68" cy="181.19" rx="10.74" ry="18.65"/>
		<g>
			<path class="st50" d="M452.61,174.72c0,0,12.73,7.52,13.18,7.87c-0.14-0.35-1.37-6.84-1.37-6.84L452.61,174.72z M462.5,177.92
				c-0.51,0.28-1.34,0.26-1.86-0.05c-0.52-0.31-0.53-0.79-0.03-1.07c0.5-0.28,1.34-0.25,1.86,0.06
				C462.99,177.16,463,177.64,462.5,177.92z"/>
			<polygon class="st50" points="465.27,183.84 450.46,174.99 451.63,174.34 466.43,183.19 			"/>
			<polygon class="st50" points="456.65,188.64 441.84,179.79 443,179.14 457.81,188 			"/>
			<polygon class="st50" points="457.36,190.58 438.52,179.31 439.68,178.67 458.52,189.93 			"/>
			<g>
				<g>
					<polygon class="st50" points="446.7,180.57 445.18,179.66 451.11,176.36 452.62,177.27 					"/>
					<polygon class="st50" points="452.65,177.74 450.29,176.33 451.36,175.73 453.72,177.15 					"/>
					<polygon class="st50" points="446.59,181.12 444.22,179.71 445.29,179.11 447.66,180.52 					"/>
				</g>
				<g>
					<polygon class="st50" points="451.84,183.64 450.33,182.74 456.26,179.44 457.77,180.34 					"/>
					<polygon class="st50" points="457.8,180.82 455.43,179.41 456.5,178.81 458.87,180.22 					"/>
					<polygon class="st50" points="451.73,184.2 449.37,182.78 450.44,182.19 452.8,183.6 					"/>
				</g>
				<g>
					<polygon class="st50" points="456.99,186.72 455.48,185.82 461.4,182.52 462.92,183.42 					"/>
					<polygon class="st50" points="462.94,183.89 460.58,182.48 461.65,181.89 464.01,183.3 					"/>
					<polygon class="st50" points="456.88,187.27 454.52,185.86 455.59,185.26 457.95,186.68 					"/>
				</g>
			</g>
		</g>
	</g>
	<radialGradient id="SVGID_103_" cx="444.6028" cy="189.0744" r="11.7706" gradientUnits="userSpaceOnUse">
		<stop  offset="0" style="stop-color:#FFFFFF"/>
		<stop  offset="2.193928e-03" style="stop-color:#FEFEFE"/>
		<stop  offset="0.1695" style="stop-color:#BCBCBC"/>
		<stop  offset="0.3339" style="stop-color:#838383"/>
		<stop  offset="0.4911" style="stop-color:#545454"/>
		<stop  offset="0.64" style="stop-color:#2F2F2F"/>
		<stop  offset="0.7784" style="stop-color:#151515"/>
		<stop  offset="0.9025" style="stop-color:#060606"/>
		<stop  offset="1" style="stop-color:#000000"/>
	</radialGradient>
	<circle class="st121" cx="444.6" cy="189.07" r="11.77"/>
</g>
</svg>
