<?xml version="1.0" encoding="utf-8"?>
<!-- Generator: Adobe Illustrator 25.1.0, SVG Export Plug-In . SVG Version: 6.00 Build 0)  -->
<svg version="1.1" id="Layer_1" xmlns="http://www.w3.org/2000/svg" xmlns:xlink="http://www.w3.org/1999/xlink" x="0px" y="0px"
	 viewBox="0 0 225.6 161.8" style="enable-background:new 0 0 225.6 161.8;" xml:space="preserve">
<style type="text/css">
	.st0{fill:#121633;}
	.st1{fill:#9CABBE;}
	.st2{fill:#AEB9CA;}
	.st3{fill:#D0E8FE;}
	.st4{fill:#7D90AA;}
	.st5{fill:#00F64F;}
	.st6{fill:#ECF0F7;}
	.st7{fill:#4B4E85;}
	.st8{fill:#EDA0E3;}
	.st9{fill:none;stroke:#4B4E85;stroke-width:7.3075;stroke-miterlimit:10;}
	.st10{fill:none;stroke:#4B4E85;stroke-width:3.6538;stroke-miterlimit:10;}
	.st11{fill:#7579C0;}
	.st12{fill:#00B594;}
	.st13{fill:#00E9BE;}
	.st14{fill:#F7F8FA;}
	.st15{fill:#FFA100;}
	.st16{fill:#FDE800;}
	.st17{fill:#FFFEFF;}
	.st18{fill:#FFBF51;}
	.st19{fill:#00B4FE;}
	.st20{fill:#2475FE;}
	.st21{fill:#4ADC00;}
</style>
<g>
	<g>
		<g>
			<path class="st0" d="M113.8,80.7l-12.5-7.2c-1.5-0.9-4.2-0.8-6,0.2l-9.6,4.7c-0.5,0.3-0.9,0.6-1.1,1l-0.3,0l0,1l0,0
				c0,0.6,0.3,1.1,1,1.5l13.9,8c1.5,0.9,4.2,0.8,6-0.2l8.2-5.5C115.2,83.1,115.3,81.5,113.8,80.7z"/>
			<path class="st1" d="M99.2,88.8l-13.9-8c-1.5-0.9-1.3-2.4,0.4-3.5l9.6-4.7c1.8-1,4.5-1.1,6-0.2l12.5,7.2c1.5,0.9,1.3,2.4-0.4,3.5
				l-8.2,5.5C103.4,89.6,100.7,89.7,99.2,88.8z"/>
		</g>
		<path class="st2" d="M132.9,39l-11.6-6.7l-6.6-3.8l-4.2-2.4l-13-7.5L78,7.3c-0.8-0.5-1.6-0.5-2.1-0.1l0,0l-2.7,1.5l1.6,2.4v38.5
			v5.6c0,2.3,1.4,5,3.2,6l51.9,29.9l2.4,3.5l2.7-1.5l0,0c0.7-0.4,1.2-1.3,1.2-2.6v-5.6V45C136.1,42.7,134.7,40,132.9,39z"/>
		<path class="st3" d="M75.3,62.8l55,31.7c1.7,1,3.2-0.1,3.2-2.4v-5.6L72.1,51.1v5.6C72.1,59.1,73.5,61.8,75.3,62.8z"/>
		<g>
			<rect x="81.3" y="43" transform="matrix(0.5 -0.866 0.866 0.5 10.8731 109.6539)" class="st4" width="38.2" height="4.9"/>
			<path class="st4" d="M75.3,8.8c-1.7-1-3.2,0.1-3.2,2.4v39.9l3.7,2.1l19.1-33.1L75.3,8.8z"/>
			<path class="st4" d="M133.4,46.6c0-2.3-1.4-5-3.2-6l-11.6-6.7L99.5,67l33.8,19.5V46.6z"/>
			<rect x="72.7" y="33" transform="matrix(0.5 -0.866 0.866 0.5 10.8731 99.7196)" class="st1" width="38.2" height="15"/>
			<rect x="86.7" y="44.7" transform="matrix(0.5 -0.866 0.866 0.5 10.873 115.8907)" class="st1" width="38.2" height="7.6"/>
		</g>
	</g>
	<g>
		<g>
			<g>
				<path class="st5" d="M111,45.3l-1.8,1.8c0.2,0.9,0.3,1.8,0.3,2.7c0,5.4-3.3,7.9-7.3,5.5c-0.2-0.1-0.4-0.3-0.7-0.4l-0.2,0.2
					l-0.2-0.5c-3.5-2.7-6.3-8.3-6.3-13.2c0-0.1,0-0.2,0-0.3c0.1-2.5,0.8-4.3,2-5.3c1.3-1.1,3.2-1.2,5.3,0c1.6,0.9,3.1,2.5,4.3,4.4
					l1.6-1.6c-1.6-2.6-3.7-4.8-5.9-6c-2.7-1.5-5.1-1.5-6.9-0.2c-1.2,0.9-2,2.3-2.5,4.2c-0.2,1-0.4,2.1-0.4,3.4
					c0,7.2,4.4,15.5,9.7,18.6s9.7-0.2,9.7-7.4C111.9,49.3,111.6,47.2,111,45.3z"/>
			</g>
			<g>
				<polygon class="st5" points="102.4,46.7 98.7,38.7 97.2,40.3 100.8,48.2 102.4,51.5 103.9,50 109.5,44.3 108,41 				"/>
			</g>
		</g>
	</g>
	<g>
		<g>
			<g>
				<g>
					<path class="st0" d="M70.4,41.4l-6.4-3.7c-0.1-0.1-0.3-0.3-0.3-0.5v0c0-0.2,0.1-0.3,0.3-0.2l6.4,3.7c0.1,0.1,0.3,0.3,0.3,0.5
						l0,0C70.7,41.4,70.6,41.5,70.4,41.4z"/>
				</g>
				<g>
					<path class="st0" d="M62.4,37L62.4,37c-0.2-0.1-0.4-0.5-0.4-0.8l0,0c0-0.3,0.2-0.4,0.4-0.3l0,0c0.2,0.1,0.4,0.5,0.4,0.8l0,0
						C62.8,37,62.6,37.2,62.4,37z"/>
				</g>
			</g>
		</g>
		<path class="st4" d="M77.3,41.3L57.2,29.7c-0.6-0.3-1.1-0.3-1.5-0.1l0,0l-2.2,1.3l1.5,4.4v0.6l0.2,0.1l0,0l-0.2-0.1v41.9l0,0v4.4
			c0,1.7,1,3.7,2.3,4.4l18.5,10.7l0.8,2.4l2.3-1.3l0,0c0.5-0.3,0.8-0.9,0.8-1.9V92l0,0V50.1v-4.4C79.6,44,78.6,42.1,77.3,41.3z"/>
		<path class="st6" d="M77.3,47c0-1.7-1-3.7-2.3-4.4L54.9,31c-1.3-0.7-2.3,0.1-2.3,1.7v4.4l24.7,14.3V47z"/>
		<path class="st6" d="M52.6,83.5c0,1.7,1,3.7,2.3,4.4L75,99.5c1.3,0.7,2.3-0.1,2.3-1.7v-4.4L52.6,79.1V83.5z"/>
		<path class="st7" d="M68.2,42.8l-6.4-3.7c-0.1-0.1-0.3-0.3-0.3-0.5l0,0c0-0.2,0.1-0.3,0.3-0.2l6.4,3.7c0.1,0.1,0.3,0.3,0.3,0.5v0
			C68.4,42.7,68.3,42.8,68.2,42.8z"/>
		<path class="st7" d="M60.1,38.3L60.1,38.3c-0.2-0.1-0.4-0.5-0.4-0.8v0c0-0.3,0.2-0.4,0.4-0.3h0c0.2,0.1,0.4,0.5,0.4,0.8l0,0
			C60.6,38.3,60.4,38.5,60.1,38.3z"/>
		<g>
			<polygon class="st2" points="62.4,42.8 52.6,59.7 52.6,69.9 66.8,45.4 			"/>
			<polygon class="st2" points="77.3,51.4 73.7,49.3 55.5,80.7 77.3,93.3 			"/>
			<polygon class="st4" points="52.6,37.2 52.6,59.7 62.4,42.8 			"/>
			<polygon class="st4" points="66.8,45.4 52.6,69.9 52.6,79.1 55.5,80.7 73.7,49.3 			"/>
		</g>
		<g>
			<path class="st5" d="M68.2,64.1l-0.9,0.9c0.1,0.4,0.1,0.9,0.1,1.3c0,2.6-1.6,3.8-3.6,2.7c-0.1-0.1-0.2-0.1-0.3-0.2l-0.1,0.1
				l-0.1-0.2c-1.7-1.3-3-4.1-3-6.4c0,0,0-0.1,0-0.1c0-1.2,0.4-2.1,1-2.6c0.6-0.5,1.6-0.6,2.6,0c0.8,0.5,1.5,1.2,2.1,2.1l0.8-0.8
				c-0.8-1.3-1.8-2.3-2.9-2.9c-1.3-0.8-2.5-0.7-3.3-0.1c-0.6,0.4-1,1.1-1.2,2c-0.1,0.5-0.2,1-0.2,1.6c0,3.5,2.1,7.5,4.7,9
				c2.6,1.5,4.7-0.1,4.7-3.6C68.7,66,68.5,65,68.2,64.1z"/>
			<polygon class="st5" points="64,64.7 62.2,60.9 61.5,61.6 63.3,65.5 64,67.1 64.7,66.3 67.5,63.6 66.8,62 			"/>
		</g>
	</g>
	<g>
		<g>
			<g>
				<path class="st5" d="M167,67.8l-1.1,1.2c0.1,0.6,0.2,1.2,0.2,1.7c0,3.4-2.1,5-4.6,3.5c-0.1-0.1-0.3-0.2-0.4-0.3l-0.1,0.1
					l-0.1-0.3c-2.2-1.7-4-5.3-4-8.4c0-0.1,0-0.1,0-0.2c0-1.6,0.5-2.7,1.3-3.3c0.8-0.7,2-0.7,3.4,0c1,0.6,2,1.6,2.7,2.8l1-1
					c-1-1.7-2.3-3-3.7-3.8c-1.7-1-3.2-1-4.4-0.1c-0.7,0.6-1.3,1.5-1.6,2.7c-0.2,0.6-0.2,1.3-0.2,2.1c0,4.6,2.8,9.8,6.2,11.8
					c3.4,2,6.2-0.1,6.2-4.7C167.6,70.3,167.4,69,167,67.8z"/>
			</g>
			<g>
				<polygon class="st5" points="161.5,68.7 159.1,63.6 158.2,64.6 160.5,69.7 161.5,71.7 162.4,70.8 166,67.1 165.1,65.1 				"/>
			</g>
		</g>
	</g>
	<g>
		<polygon class="st8" points="164.5,88.2 135.2,71.3 135.2,133.9 171.2,154.8 171.2,101 164.5,97.1 		"/>
		<g>
			<g>
				<polygon class="st7" points="164.5,97.1 171.2,101 164.5,88.2 				"/>
			</g>
		</g>
		<polygon class="st9" points="166.8,146.1 139.6,130.4 139.6,90.5 166.8,106.2 		"/>
		<polygon class="st7" points="145.9,134 139.6,130.4 139.6,90.5 145.9,94.1 		"/>
		<polygon class="st9" points="166.8,126.1 139.6,110.5 139.6,90.5 166.8,106.2 		"/>
		<polygon class="st10" points="166.8,116.1 139.6,100.5 139.6,90.5 166.8,106.2 		"/>
		<polygon class="st9" points="166.8,111.2 139.6,95.5 139.6,90.5 166.8,106.2 		"/>
		<polygon class="st9" points="166.8,121.1 139.6,105.5 139.6,100.5 166.8,116.1 		"/>
		<polygon class="st10" points="166.8,146.1 139.6,130.4 139.6,125.4 166.8,141.1 		"/>
		<polygon class="st9" points="166.8,141.1 139.6,125.4 139.6,120.4 166.8,136.1 		"/>
		<polygon class="st9" points="166.8,136.1 139.6,120.4 139.6,115.5 166.8,131.1 		"/>
		<polygon class="st7" points="146.1,89.8 139.4,85.9 139.4,84.2 146.1,88 		"/>
	</g>
	<g>
		<g>
			<g>
				<g>
					<path class="st11" d="M94.3,110.7v3.8c0,1.3,0.8,2.8,1.8,3.4l2.8,1.6C98.9,116.1,96.9,112.2,94.3,110.7z"/>
				</g>
				<g>
					
						<ellipse transform="matrix(0.9202 -0.3916 0.3916 0.9202 -35.7705 53.1121)" class="st11" cx="112.3" cy="114.3" rx="5.2" ry="9.2"/>
				</g>
				
					<ellipse transform="matrix(0.9202 -0.3916 0.3916 0.9202 -35.7705 53.1121)" class="st11" cx="112.3" cy="114.3" rx="4.7" ry="8.3"/>
				<g>
					<path class="st11" d="M112.8,119.2c0.6,0.2,1,0.3,1.4,0.1c0.1,0,0.1-0.1,0.2-0.1c0.4-0.3,0.5-0.9,0.5-1.7c0-0.5-0.1-1-0.3-1.5
						c-0.2-0.5-0.4-0.9-0.7-1.3c-0.3-0.4-0.7-0.9-1.2-1.4c0,0,0,0,0,0l-0.1,0c0,0,0-0.1,0-0.1c-0.4-0.4-0.7-0.8-0.8-1
						c-0.1-0.2-0.2-0.5-0.2-0.8c0,0,0,0,0-0.1c0-0.2,0.1-0.4,0.2-0.5c0.1-0.1,0.3-0.1,0.6,0c0.5,0.3,0.8,0.9,1.1,1.9l1.2,0l0,0l0,0
						c-0.3-1.5-0.9-2.5-1.9-3.2l0,0l0,0l0-1.1l-0.9-0.5l0,1.1c-0.3-0.1-0.6-0.2-0.8-0.1c-0.1,0-0.2,0-0.3,0.1c0,0,0,0,0,0l0,0
						c-0.1,0.1-0.2,0.1-0.3,0.2c-0.3,0.4-0.4,0.9-0.4,1.6c0,0.5,0.1,1,0.2,1.5c0.2,0.5,0.4,0.9,0.6,1.3c0.3,0.4,0.6,0.8,1.1,1.3
						c0.5,0.6,0.9,1,1,1.2c0.2,0.2,0.2,0.5,0.2,0.8c0,0.3-0.1,0.5-0.2,0.6c-0.1,0.1-0.3,0.1-0.6,0c0,0-0.1,0-0.1-0.1
						c-0.7-0.4-1.1-1.1-1.2-2.2l-1.3-0.3c0.3,1.7,1,3,2.1,3.8l0,1.4l0,0l0.6,0.4l0.2,0.1l0-0.7V119.2z"/>
				</g>
				<g>
					<polygon class="st11" points="120.3,118.1 120.3,119.6 123.7,121.6 123.7,120.1 					"/>
					<polygon class="st11" points="101,108.4 104.4,110.4 104.4,108.9 101,107 					"/>
				</g>
			</g>
		</g>
		<path class="st12" d="M128.6,110.7l-2.8-1.6L98.9,93.5l-2.8-1.6c-0.5-0.3-0.9-0.3-1.2-0.1l0,0l-1,0.6l0.4,0.5c0,0.1,0,0.2,0,0.3
			V97v13.7c2.5,1.5,4.6,5.4,4.6,8.8l26.8,15.5l2.2,1.3l0.8,1l1-0.6l0,0c0.4-0.2,0.6-0.7,0.6-1.4v-3.8v-13.7V114
			C130.3,112.7,129.6,111.2,128.6,110.7z"/>
		<g>
			<path class="st13" d="M129.3,132.1v-13.7c-2.5-1.5-4.6-5.4-4.6-8.8L97.9,94.1c0,3.4-2.1,4.9-4.6,3.5v13.7
				c2.5,1.5,4.6,5.4,4.6,8.8l26.8,15.5C124.7,132.2,126.8,130.6,129.3,132.1z"/>
			<path class="st7" d="M129.3,118.4v-3.8c0-1.3-0.8-2.8-1.8-3.4l-2.8-1.6C124.7,113,126.8,116.9,129.3,118.4z"/>
			<path class="st7" d="M129.3,135.9v-3.8c-2.5-1.5-4.6,0.1-4.6,3.5l2.8,1.6C128.5,137.8,129.3,137.2,129.3,135.9z"/>
			<path class="st7" d="M93.3,111.3v3.8c0,1.3,0.8,2.8,1.8,3.4l2.8,1.6C97.9,116.7,95.9,112.8,93.3,111.3z"/>
			<path class="st7" d="M97.9,94.1l-2.8-1.6c-1-0.6-1.8,0-1.8,1.3v3.8C95.9,99.1,97.9,97.5,97.9,94.1z"/>
			
				<ellipse transform="matrix(0.9202 -0.3916 0.3916 0.9202 -36.0838 52.7608)" class="st14" cx="111.3" cy="114.9" rx="5.2" ry="9.2"/>
			
				<ellipse transform="matrix(0.9202 -0.3916 0.3916 0.9202 -36.0838 52.7608)" class="st13" cx="111.3" cy="114.9" rx="4.7" ry="8.3"/>
			<path class="st14" d="M111.8,119.8c0.6,0.2,1,0.3,1.4,0.1c0.1,0,0.1-0.1,0.2-0.1c0.4-0.3,0.5-0.9,0.5-1.7c0-0.5-0.1-1-0.3-1.5
				c-0.2-0.5-0.4-0.9-0.7-1.3c-0.3-0.4-0.7-0.9-1.2-1.4c0,0,0,0,0,0l-0.1,0c0,0,0-0.1,0-0.1c-0.4-0.4-0.7-0.8-0.8-1
				c-0.1-0.2-0.2-0.5-0.2-0.8c0,0,0,0,0-0.1c0-0.2,0.1-0.4,0.2-0.5c0.1-0.1,0.3-0.1,0.6,0c0.5,0.3,0.8,0.9,1.1,1.9l1.2,0l0,0l0,0
				c-0.3-1.5-0.9-2.5-1.9-3.2l0,0l0,0l0-1.1l-0.9-0.5l0,1.1c-0.3-0.1-0.6-0.2-0.8-0.1c-0.1,0-0.2,0-0.3,0.1c0,0,0,0,0,0l0,0
				c-0.1,0.1-0.2,0.1-0.3,0.2c-0.3,0.4-0.4,0.9-0.4,1.6c0,0.5,0.1,1,0.2,1.5c0.2,0.5,0.4,0.9,0.6,1.3c0.3,0.4,0.6,0.8,1.1,1.3
				c0.5,0.6,0.9,1,1,1.2c0.2,0.2,0.2,0.5,0.2,0.8c0,0.3-0.1,0.5-0.2,0.6c-0.1,0.1-0.3,0.1-0.6,0c0,0-0.1,0-0.1-0.1
				c-0.7-0.4-1.1-1.1-1.2-2.2l-1.3-0.3c0.3,1.7,1,3,2.1,3.8l0,1.4l0,0l0.6,0.4l0.2,0.1l0-0.7V119.8z"/>
			<g>
				<polygon class="st14" points="119.3,118.7 119.3,120.2 122.7,122.2 122.7,120.7 				"/>
				<polygon class="st14" points="100,109 103.4,111 103.4,109.5 100,107.6 				"/>
			</g>
		</g>
	</g>
	<g>
		<path class="st15" d="M144.3,142.4c0-6.5-4-14.1-8.8-16.9c-2.3-1.3-4.4-1.4-6-0.3l0,0l-2.8,1.6l0.6,1.3c-0.4,1.1-0.7,2.5-0.7,4.1
			c0,6.5,4,14.1,8.8,16.9c0.7,0.4,1.5,0.7,2.2,0.9l0.6,1.3l3.1-1.8l0,0C143.1,148.4,144.3,145.9,144.3,142.4z"/>
		<g>
			
				<ellipse transform="matrix(0.9202 -0.3916 0.3916 0.9202 -43.8833 62.9552)" class="st16" cx="132.4" cy="139.1" rx="7.7" ry="13.6"/>
			
				<ellipse transform="matrix(0.9202 -0.3916 0.3916 0.9202 -43.8833 62.9552)" class="st15" cx="132.4" cy="139.1" rx="6" ry="10.6"/>
		</g>
		<path class="st17" d="M136.6,143.8c0-0.3-0.1-0.6-0.2-0.9c-0.1-0.2-0.2-0.5-0.3-0.7c-0.1-0.2-0.3-0.5-0.4-0.7
			c0.2-0.2,0.3-0.5,0.4-1l0-1c-0.2-1.3-0.9-2.7-1.9-3.3l-0.3-0.2l-0.4-0.2l0-1.5l-1.4-0.8l0,1.5l-0.8-0.5l0-1.5l-0.4-0.2l-1-0.6
			l0,1.5l-0.6-0.3l-1-0.6l0,1.4l1,0.6l0,2.3l0,1.6l0,2.3l-1-0.6l0,1.5l1,0.6l0.6,0.3l0,0.8l1,0.6l0.4,0.2l0-0.8l0.8,0.5l0,0.8
			l1.4,0.8l0-0.8l0.8,0.5l0,0l0.5,0.3l0.1,0.1c0.4,0.2,0.8,0.1,1.1-0.1c0.2-0.1,0.3-0.3,0.4-0.5c0.1-0.2,0.1-0.3,0.1-0.5
			c0-0.1,0-0.3,0-0.5S136.6,143.9,136.6,143.8z M131.3,135.9l0.8,0.5l0.2,0.1l1.1,0.6l0.2,0.1l0,0c0.4,0.3,0.7,0.9,0.8,1.4l0,0.3
			c-0.1,0.5-0.4,0.7-0.7,0.6l-0.1,0l-0.2-0.1l-1.2-0.7l-0.1,0l-0.8-0.5L131.3,135.9z M134.8,143.4c-0.1,0.4-0.4,0.7-0.7,0.5
			l-0.3-0.2l-0.3-0.2l-0.7-0.4l-0.8-0.4l-0.8-0.5l0-2.3l0.8,0.5l0.8,0.5l0.6,0.3l0.1,0.1l0.3,0.2l0.2,0.1c0.1,0,0.1,0.1,0.2,0.2
			c0.3,0.3,0.5,0.8,0.6,1.2L134.8,143.4z"/>
	</g>
	<g>
		<g>
			<path class="st18" d="M81.3,97.4l-0.9,0.9c0.1,0.4,0.1,0.9,0.1,1.3c0,2.6-1.6,3.8-3.5,2.7c-0.1-0.1-0.2-0.1-0.3-0.2l-0.1,0.1
				l-0.1-0.2c-1.7-1.3-3-4-3-6.4c0,0,0-0.1,0-0.1c0-1.2,0.4-2.1,1-2.6c0.6-0.5,1.6-0.6,2.6,0c0.8,0.5,1.5,1.2,2.1,2.1l0.8-0.8
				c-0.8-1.3-1.8-2.3-2.9-2.9c-1.3-0.7-2.5-0.7-3.3-0.1c-0.6,0.4-1,1.1-1.2,2c-0.1,0.5-0.2,1-0.2,1.6c0,3.5,2.1,7.5,4.7,9
				s4.7-0.1,4.7-3.6C81.8,99.3,81.6,98.3,81.3,97.4z"/>
			<polygon class="st18" points="77.1,98.1 75.3,94.2 74.6,95 76.4,98.8 77.1,100.4 77.9,99.6 80.6,96.9 79.8,95.3 			"/>
		</g>
		<path class="st19" d="M84.5,91.7l-15.1-8.6l-1.3-0.7l-2.6,1.5l2.6,5.5l0,0.4c0,0.8,0,1.5,0.1,2.3c0.7,6.8,4.1,14.1,8.7,19.1
			c0.6,0,1.1,0,1.6,0l0.2,0.5l2.2-1.3c0.1-0.1,0.2-0.1,0.3-0.2l0.1,0l0,0c2.2-1.4,3.7-4.2,4.1-8.1c0.1-0.7,0.1-1.4,0.1-2.2l0-7.4
			L84.5,91.7z"/>
		<g>
			<path class="st20" d="M81.9,93.3l-15.1-8.6l-1.3-0.7l0,7.4c0,0.8,0,1.5,0.1,2.3c0.7,6.8,4.1,14.1,8.7,19.1c4.6,0.4,8-3,8.6-9.1
				c0.1-0.7,0.1-1.4,0.1-2.2l0-7.4L81.9,93.3z"/>
			<g>
				<path class="st21" d="M78.7,98.9l-0.9,0.9c0.1,0.4,0.1,0.9,0.1,1.3c0,2.6-1.6,3.8-3.5,2.7c-0.1-0.1-0.2-0.1-0.3-0.2l-0.1,0.1
					l-0.1-0.2c-1.7-1.3-3-4-3-6.4c0,0,0-0.1,0-0.1c0-1.2,0.4-2.1,1-2.6c0.6-0.5,1.6-0.6,2.6,0c0.8,0.5,1.5,1.2,2.1,2.1l0.8-0.8
					c-0.8-1.3-1.8-2.3-2.9-2.9c-1.3-0.7-2.5-0.7-3.3-0.1c-0.6,0.4-1,1.1-1.2,2c-0.1,0.5-0.2,1-0.2,1.6c0,3.5,2.1,7.5,4.7,9
					s4.7-0.1,4.7-3.6C79.1,100.8,79,99.8,78.7,98.9z"/>
				<polygon class="st21" points="74.5,99.6 72.7,95.7 72,96.5 73.8,100.3 74.5,101.9 75.2,101.2 78,98.4 77.2,96.8 				"/>
			</g>
		</g>
	</g>
</g>
</svg>
