<?xml version="1.0" encoding="utf-8"?>
<!-- Generator: Adobe Illustrator 25.1.0, SVG Export Plug-In . SVG Version: 6.00 Build 0)  -->
<svg version="1.1" id="Layer_1" xmlns="http://www.w3.org/2000/svg" xmlns:xlink="http://www.w3.org/1999/xlink" x="0px" y="0px"
	 viewBox="0 0 790.6 346.1" style="enable-background:new 0 0 790.6 346.1;" xml:space="preserve">
<style type="text/css">
	.st0{fill:none;stroke:url(#SVGID_1_);stroke-width:5;stroke-miterlimit:10;}
	.st1{fill:none;stroke:url(#SVGID_2_);stroke-width:5;stroke-miterlimit:10;}
	.st2{fill:none;stroke:url(#SVGID_3_);stroke-width:5;stroke-miterlimit:10;}
	.st3{fill:none;stroke:url(#SVGID_4_);stroke-width:5;stroke-miterlimit:10;}
	.st4{fill:none;stroke:url(#SVGID_5_);stroke-width:5;stroke-miterlimit:10;}
	.st5{fill:none;stroke:url(#SVGID_6_);stroke-width:5;stroke-miterlimit:10;}
	.st6{fill:none;stroke:url(#SVGID_7_);stroke-width:5;stroke-miterlimit:10;}
	.st7{fill:none;stroke:url(#SVGID_8_);stroke-width:5;stroke-miterlimit:10;}
	.st8{fill:#051A78;}
	.st9{fill:url(#SVGID_9_);}
	.st10{fill:url(#SVGID_10_);}
	.st11{fill:url(#SVGID_11_);}
	.st12{fill:url(#SVGID_12_);}
	.st13{fill:url(#SVGID_13_);}
	.st14{fill:#09BFFF;}
	.st15{fill:url(#SVGID_14_);}
	.st16{clip-path:url(#SVGID_16_);}
	.st17{fill:none;stroke:url(#SVGID_17_);stroke-width:1.23;stroke-miterlimit:10;}
	.st18{fill:none;stroke:url(#SVGID_18_);stroke-width:1.23;stroke-miterlimit:10;}
	.st19{fill:none;stroke:url(#SVGID_19_);stroke-width:1.23;stroke-miterlimit:10;}
	.st20{fill:none;stroke:url(#SVGID_20_);stroke-width:1.23;stroke-miterlimit:10;}
	.st21{fill:none;stroke:url(#SVGID_21_);stroke-width:2.0499;stroke-miterlimit:10;}
	.st22{fill:none;stroke:url(#SVGID_22_);stroke-width:1.23;stroke-miterlimit:10;}
	.st23{fill:none;stroke:url(#SVGID_23_);stroke-width:1.23;stroke-miterlimit:10;}
	.st24{fill:none;stroke:url(#SVGID_24_);stroke-width:2.0499;stroke-miterlimit:10;}
	.st25{fill:none;stroke:url(#SVGID_25_);stroke-width:1.23;stroke-miterlimit:10;}
	.st26{fill:none;stroke:url(#SVGID_26_);stroke-width:1.23;stroke-miterlimit:10;}
	.st27{fill:none;stroke:url(#SVGID_27_);stroke-width:1.23;stroke-miterlimit:10;}
	.st28{fill:none;stroke:url(#SVGID_28_);stroke-width:1.23;stroke-miterlimit:10;}
	.st29{fill:none;stroke:url(#SVGID_29_);stroke-width:2.0499;stroke-miterlimit:10;}
	.st30{fill:none;stroke:url(#SVGID_30_);stroke-width:1.23;stroke-miterlimit:10;}
	.st31{fill:none;stroke:url(#SVGID_31_);stroke-width:1.23;stroke-miterlimit:10;}
	.st32{fill:none;stroke:url(#SVGID_32_);stroke-width:2.0499;stroke-miterlimit:10;}
	.st33{opacity:0.5;fill:#09BFFF;}
	.st34{fill:url(#SVGID_33_);}
	.st35{fill:url(#SVGID_34_);}
	.st36{fill:url(#SVGID_35_);}
	.st37{fill:#FFFFFF;}
	.st38{fill:url(#SVGID_36_);}
	.st39{fill:url(#SVGID_37_);}
	.st40{fill:url(#SVGID_38_);}
	.st41{fill:url(#SVGID_39_);}
	.st42{fill:url(#SVGID_40_);}
	.st43{opacity:0.9127;fill:url(#SVGID_41_);}
	.st44{opacity:0.8255;fill:url(#SVGID_42_);}
	.st45{opacity:0.7382;fill:url(#SVGID_43_);}
	.st46{opacity:0.6509;fill:url(#SVGID_44_);}
	.st47{opacity:0.5636;fill:url(#SVGID_45_);}
	.st48{opacity:0.4764;fill:url(#SVGID_46_);}
	.st49{opacity:0.3891;fill:url(#SVGID_47_);}
	.st50{opacity:0.3018;fill:url(#SVGID_48_);}
	.st51{opacity:0.2145;fill:url(#SVGID_49_);}
	.st52{opacity:0.1273;fill:url(#SVGID_50_);}
	.st53{opacity:0.04;fill:#09BFFF;}
	.st54{fill:#FFCB29;}
	.st55{fill:#FFA800;}
	.st56{fill:#FFAF04;}
	.st57{fill:#FAB406;}
	.st58{fill:#FFF1DE;}
	.st59{fill:#FFC261;}
	.st60{fill:url(#SVGID_51_);}
	.st61{fill:url(#SVGID_52_);}
	.st62{fill:url(#SVGID_53_);}
	.st63{fill:url(#SVGID_54_);}
	.st64{fill:url(#SVGID_55_);}
	.st65{opacity:0.9127;fill:url(#SVGID_56_);}
	.st66{opacity:0.8255;fill:url(#SVGID_57_);}
	.st67{opacity:0.7382;fill:url(#SVGID_58_);}
	.st68{opacity:0.6509;fill:url(#SVGID_59_);}
	.st69{opacity:0.5636;fill:url(#SVGID_60_);}
	.st70{opacity:0.4764;fill:url(#SVGID_61_);}
	.st71{opacity:0.3891;fill:url(#SVGID_62_);}
	.st72{opacity:0.3018;fill:url(#SVGID_63_);}
	.st73{opacity:0.2145;fill:url(#SVGID_64_);}
	.st74{opacity:0.1273;fill:url(#SVGID_65_);}
	.st75{fill:url(#SVGID_66_);}
	.st76{fill:url(#SVGID_67_);}
	.st77{fill:url(#SVGID_68_);}
	.st78{fill:url(#SVGID_69_);}
	.st79{fill:url(#SVGID_70_);}
	.st80{opacity:0.9127;fill:url(#SVGID_71_);}
	.st81{opacity:0.8255;fill:url(#SVGID_72_);}
	.st82{opacity:0.7382;fill:url(#SVGID_73_);}
	.st83{opacity:0.6509;fill:url(#SVGID_74_);}
	.st84{opacity:0.5636;fill:url(#SVGID_75_);}
	.st85{opacity:0.4764;fill:url(#SVGID_76_);}
	.st86{opacity:0.3891;fill:url(#SVGID_77_);}
	.st87{opacity:0.3018;fill:url(#SVGID_78_);}
	.st88{opacity:0.2145;fill:url(#SVGID_79_);}
	.st89{opacity:0.1273;fill:url(#SVGID_80_);}
	.st90{fill:url(#SVGID_81_);}
	.st91{fill:url(#SVGID_82_);}
	.st92{fill:url(#SVGID_83_);}
	.st93{fill:url(#SVGID_84_);}
	.st94{fill:url(#SVGID_85_);}
	.st95{opacity:0.9127;fill:url(#SVGID_86_);}
	.st96{opacity:0.8255;fill:url(#SVGID_87_);}
	.st97{opacity:0.7382;fill:url(#SVGID_88_);}
	.st98{opacity:0.6509;fill:url(#SVGID_89_);}
	.st99{opacity:0.5636;fill:url(#SVGID_90_);}
	.st100{opacity:0.4764;fill:url(#SVGID_91_);}
	.st101{opacity:0.3891;fill:url(#SVGID_92_);}
	.st102{opacity:0.3018;fill:url(#SVGID_93_);}
	.st103{opacity:0.2145;fill:url(#SVGID_94_);}
	.st104{opacity:0.1273;fill:url(#SVGID_95_);}
	.st105{fill:#FCAB49;}
	.st106{fill:url(#SVGID_96_);}
	.st107{fill:url(#SVGID_97_);}
	.st108{fill:url(#SVGID_98_);}
	.st109{fill:url(#SVGID_99_);}
	.st110{fill:url(#SVGID_100_);}
	.st111{fill:#DD8AA6;}
	.st112{fill:#F2B1C7;}
	.st113{fill:url(#SVGID_101_);}
	.st114{fill:url(#SVGID_102_);}
	.st115{fill:#F4A2BA;}
	.st116{fill:url(#SVGID_103_);}
	.st117{fill:url(#SVGID_104_);}
	.st118{fill:url(#SVGID_105_);}
	.st119{fill:url(#SVGID_106_);}
	.st120{fill:#1B2C49;}
	.st121{fill:url(#SVGID_107_);}
	.st122{opacity:0.65;}
	.st123{fill:#11A7F6;}
	.st124{opacity:0.8;fill:#FFFFFF;}
</style>
<g>
	<g>
		<linearGradient id="SVGID_1_" gradientUnits="userSpaceOnUse" x1="388.1552" y1="250.5745" x2="431.179" y2="250.5745">
			<stop  offset="0" style="stop-color:#5940E7"/>
			<stop  offset="1" style="stop-color:#1BAFF8"/>
		</linearGradient>
		<polyline class="st0" points="429.38,258.72 417.76,252.01 426.18,247.15 421.03,244.18 406.29,252.44 389.43,242.41 		"/>
		<linearGradient id="SVGID_2_" gradientUnits="userSpaceOnUse" x1="378.7605" y1="188.2528" x2="487.3429" y2="188.2528">
			<stop  offset="0" style="stop-color:#5940E7"/>
			<stop  offset="1" style="stop-color:#1BAFF8"/>
		</linearGradient>
		<polyline class="st1" points="380.07,211.5 389.04,205.98 398.47,211.29 414.96,201.77 422.04,205.86 405.2,215.59 409.99,218.35 
			482.21,176.66 467.73,168.89 476.17,164.02 464.48,157.44 		"/>
		<linearGradient id="SVGID_3_" gradientUnits="userSpaceOnUse" x1="220.7181" y1="212.7322" x2="317.209" y2="212.7322">
			<stop  offset="0" style="stop-color:#5940E7"/>
			<stop  offset="1" style="stop-color:#1BAFF8"/>
		</linearGradient>
		<polyline class="st2" points="295.31,233.9 312.2,224.2 286.93,209.61 270.09,219.34 261.66,214.48 278.51,204.75 256.92,192.29 
			240.43,201.8 231,196.5 222.03,202.01 		"/>
		<linearGradient id="SVGID_4_" gradientUnits="userSpaceOnUse" x1="366.4981" y1="260.0835" x2="441.6557" y2="260.0835">
			<stop  offset="0" style="stop-color:#5940E7"/>
			<stop  offset="1" style="stop-color:#1BAFF8"/>
		</linearGradient>
		<polyline class="st3" points="367.75,242.59 404.38,263.74 391.11,271.21 401.34,276.87 416.98,267.84 428.86,274.7 
			440.44,268.25 		"/>
		<linearGradient id="SVGID_5_" gradientUnits="userSpaceOnUse" x1="305.302" y1="280.7473" x2="355.4272" y2="280.7473">
			<stop  offset="0" style="stop-color:#5940E7"/>
			<stop  offset="1" style="stop-color:#1BAFF8"/>
		</linearGradient>
		<polyline class="st4" points="354.15,245.51 330.01,259.82 344.49,268.09 310.28,287.84 346.11,308.76 337.22,315.16 
			320.37,305.44 309.68,311.61 		"/>
		<linearGradient id="SVGID_6_" gradientUnits="userSpaceOnUse" x1="209.8059" y1="294.1843" x2="340.5717" y2="294.1843">
			<stop  offset="0" style="stop-color:#5940E7"/>
			<stop  offset="1" style="stop-color:#1BAFF8"/>
		</linearGradient>
		<polyline class="st5" points="339.32,245.71 279.05,280.51 264.37,272.56 214.81,301.1 235.97,313.31 244.97,308.09 
			252.02,312.64 226.59,327.32 251.86,341.91 268.87,331.33 		"/>
		<linearGradient id="SVGID_7_" gradientUnits="userSpaceOnUse" x1="204.9126" y1="231.1122" x2="308.7662" y2="231.1122">
			<stop  offset="0" style="stop-color:#5940E7"/>
			<stop  offset="1" style="stop-color:#1BAFF8"/>
		</linearGradient>
		<polyline class="st6" points="307.49,235.43 281.29,251.02 245.96,230.43 254.21,225.67 271.06,235.39 279.48,230.73 
			245.96,211.18 219.6,225.84 209.91,220.25 221.14,213.76 		"/>
		<linearGradient id="SVGID_8_" gradientUnits="userSpaceOnUse" x1="391.8126" y1="173.2496" x2="455.4106" y2="173.2496">
			<stop  offset="0" style="stop-color:#5940E7"/>
			<stop  offset="1" style="stop-color:#1BAFF8"/>
		</linearGradient>
		<polyline class="st7" points="454.16,155.86 432.64,168.3 423.52,163.06 407.88,172.09 423.73,181.49 416.8,185.48 409.69,180.71 
			393.1,190.65 		"/>
	</g>
	<g>
		<ellipse class="st8" cx="346.78" cy="230.78" rx="55.96" ry="32.31"/>
		<linearGradient id="SVGID_9_" gradientUnits="userSpaceOnUse" x1="439.0598" y1="222.3439" x2="265.7672" y2="222.3439">
			<stop  offset="0.1459" style="stop-color:#09BFFF"/>
			<stop  offset="0.1682" style="stop-color:#16ABFB"/>
			<stop  offset="0.238" style="stop-color:#3A72F0"/>
			<stop  offset="0.2898" style="stop-color:#504EEA"/>
			<stop  offset="0.3173" style="stop-color:#5940E7"/>
			<stop  offset="0.4348" style="stop-color:#524CE9"/>
			<stop  offset="0.6493" style="stop-color:#406DEE"/>
			<stop  offset="0.9348" style="stop-color:#22A2F6"/>
			<stop  offset="1" style="stop-color:#1BAFF8"/>
		</linearGradient>
		<path class="st9" d="M386.35,203.38c5.94,3.43,13.68-21,16.39-16.72l-0.13,41.8c-0.89,7.51-6.31,14.88-16.26,20.62
			c-21.86,12.62-57.29,12.62-79.15,0c-10.93-6.31-16.39-14.58-16.39-22.85c0-4.02,0-36.77,0-36.77
			C293.54,185.45,364.49,190.76,386.35,203.38z"/>
		<linearGradient id="SVGID_10_" gradientUnits="userSpaceOnUse" x1="361.3956" y1="169.9632" x2="315.9723" y2="223.2182">
			<stop  offset="0" style="stop-color:#5940E7"/>
			<stop  offset="1" style="stop-color:#1BAFF8"/>
		</linearGradient>
		<ellipse class="st10" cx="346.78" cy="187.1" rx="55.96" ry="32.31"/>
		<linearGradient id="SVGID_11_" gradientUnits="userSpaceOnUse" x1="290.8106" y1="185.8586" x2="402.7401" y2="185.8586">
			<stop  offset="0" style="stop-color:#5940E7"/>
			<stop  offset="1" style="stop-color:#1BAFF8"/>
		</linearGradient>
		<ellipse class="st11" cx="346.78" cy="185.86" rx="55.96" ry="32.31"/>
		<linearGradient id="SVGID_12_" gradientUnits="userSpaceOnUse" x1="399.8608" y1="167.7745" x2="304.8372" y2="200.1452">
			<stop  offset="0" style="stop-color:#5940E7"/>
			<stop  offset="1" style="stop-color:#1BAFF8"/>
		</linearGradient>
		<ellipse class="st12" cx="346.78" cy="185.86" rx="41.95" ry="24.22"/>
		<radialGradient id="SVGID_13_" cx="345.8268" cy="181.7943" r="35.1046" gradientUnits="userSpaceOnUse">
			<stop  offset="0" style="stop-color:#1BAFF8"/>
			<stop  offset="1" style="stop-color:#5940E7"/>
		</radialGradient>
		<ellipse class="st13" cx="346.78" cy="185.86" rx="29.66" ry="17.12"/>
	</g>
	<g>
		<ellipse class="st14" cx="346.78" cy="143.48" rx="65.27" ry="37.69"/>
		<linearGradient id="SVGID_14_" gradientUnits="userSpaceOnUse" x1="422.764" y1="228.7078" x2="262.2627" y2="48.6981">
			<stop  offset="0" style="stop-color:#6929E2"/>
			<stop  offset="1" style="stop-color:#15B3FB"/>
		</linearGradient>
		<ellipse class="st15" cx="346.78" cy="143.48" rx="58.34" ry="33.68"/>
		<g>
			<defs>
				<ellipse id="SVGID_15_" cx="346.78" cy="143.48" rx="58.34" ry="33.68"/>
			</defs>
			<clipPath id="SVGID_16_">
				<use xlink:href="#SVGID_15_"  style="overflow:visible;"/>
			</clipPath>
			<g class="st16">
				<linearGradient id="SVGID_17_" gradientUnits="userSpaceOnUse" x1="274.6727" y1="121.5273" x2="379.0401" y2="121.5273">
					<stop  offset="0" style="stop-color:#5940E7"/>
					<stop  offset="1" style="stop-color:#1BAFF8"/>
				</linearGradient>
				<polyline class="st17" points="378.73,91.76 296.95,138.63 296.93,147.17 290.22,151.12 280.83,145.91 278.67,144.66 
					274.97,146.74 				"/>
				<linearGradient id="SVGID_18_" gradientUnits="userSpaceOnUse" x1="275.3108" y1="126.6454" x2="356.8061" y2="126.6454">
					<stop  offset="0" style="stop-color:#5940E7"/>
					<stop  offset="1" style="stop-color:#1BAFF8"/>
				</linearGradient>
				<polyline class="st18" points="275.63,142.58 279.04,140.53 297.14,150.9 303.37,147.45 288.2,138.93 320.15,120.57 
					314.9,117.39 318.77,115.24 322.61,117.39 326.36,115.24 318.7,110.81 322.56,108.67 333.87,115.19 356.5,102.22 				"/>
				<linearGradient id="SVGID_19_" gradientUnits="userSpaceOnUse" x1="272.8845" y1="121.7079" x2="347.5063" y2="121.7079">
					<stop  offset="0" style="stop-color:#5940E7"/>
					<stop  offset="1" style="stop-color:#1BAFF8"/>
				</linearGradient>
				<polyline class="st19" points="347.2,103.61 333.1,111.71 321.73,105.15 313.57,109.8 317.41,112.05 309.78,116.37 
					315.02,119.56 283.07,137.91 279.88,136.01 273.19,139.81 				"/>
				<linearGradient id="SVGID_20_" gradientUnits="userSpaceOnUse" x1="276.3912" y1="128.0194" x2="370.0431" y2="128.0194">
					<stop  offset="0" style="stop-color:#5940E7"/>
					<stop  offset="1" style="stop-color:#1BAFF8"/>
				</linearGradient>
				<polyline class="st20" points="276.69,148.3 292.21,156.91 322.4,139.42 322.49,130.62 345.33,117.43 341.46,115.28 345.4,113 
					349.12,115.24 356.95,110.72 352.92,108.67 369.74,98.96 				"/>
				<linearGradient id="SVGID_21_" gradientUnits="userSpaceOnUse" x1="275.114" y1="125.9107" x2="391.2811" y2="125.9107">
					<stop  offset="0" style="stop-color:#5940E7"/>
					<stop  offset="1" style="stop-color:#1BAFF8"/>
				</linearGradient>
				<polyline class="st21" points="275.6,150.12 294.19,160.25 325.46,141.89 325.55,133.08 364.32,110.69 360.28,108.64 
					390.77,91.28 				"/>
				<linearGradient id="SVGID_22_" gradientUnits="userSpaceOnUse" x1="275.7868" y1="139.9927" x2="384.5735" y2="139.9927">
					<stop  offset="0" style="stop-color:#5940E7"/>
					<stop  offset="1" style="stop-color:#1BAFF8"/>
				</linearGradient>
				<polyline class="st22" points="276.1,172.45 280.75,169.72 280.82,161.83 284.2,159.79 284.2,163.74 291.17,159.76 
					290.9,167.51 331.32,144.24 331.32,138.11 384.27,107.54 				"/>
				<linearGradient id="SVGID_23_" gradientUnits="userSpaceOnUse" x1="263.9779" y1="149.1738" x2="398.8621" y2="149.1738">
					<stop  offset="0" style="stop-color:#5940E7"/>
					<stop  offset="1" style="stop-color:#1BAFF8"/>
				</linearGradient>
				<polyline class="st23" points="264.28,187.76 286.23,175.37 293.07,179.39 347.57,147.55 340.55,143.63 363.97,130.09 
					368.28,132.44 383.38,123.72 383.45,119.3 398.55,110.58 				"/>
				<linearGradient id="SVGID_24_" gradientUnits="userSpaceOnUse" x1="260.4206" y1="144.7413" x2="405.9641" y2="144.7413">
					<stop  offset="0" style="stop-color:#5940E7"/>
					<stop  offset="1" style="stop-color:#1BAFF8"/>
				</linearGradient>
				<polyline class="st24" points="260.93,187.26 285.82,173.11 292.67,177.14 342.89,147.8 335.86,143.88 374.2,121.74 
					374.2,126.39 379.51,123.41 379.58,117.15 405.45,102.22 				"/>
				<linearGradient id="SVGID_25_" gradientUnits="userSpaceOnUse" x1="317.6049" y1="150.152" x2="421.9722" y2="150.152">
					<stop  offset="0" style="stop-color:#5940E7"/>
					<stop  offset="1" style="stop-color:#1BAFF8"/>
				</linearGradient>
				<polyline class="st25" points="421.67,120.38 339.89,167.26 339.86,175.8 333.15,179.75 323.76,174.53 321.6,173.28 
					317.91,175.37 				"/>
				<linearGradient id="SVGID_26_" gradientUnits="userSpaceOnUse" x1="318.243" y1="155.2701" x2="399.7383" y2="155.2701">
					<stop  offset="0" style="stop-color:#5940E7"/>
					<stop  offset="1" style="stop-color:#1BAFF8"/>
				</linearGradient>
				<polyline class="st26" points="318.56,171.2 321.98,169.16 340.07,179.53 346.31,176.07 331.13,167.55 363.08,149.19 
					357.83,146.01 361.7,143.86 365.54,146.02 369.29,143.86 361.63,139.44 365.5,137.29 376.8,143.82 399.43,130.84 				"/>
				<linearGradient id="SVGID_27_" gradientUnits="userSpaceOnUse" x1="315.8167" y1="150.3326" x2="390.4384" y2="150.3326">
					<stop  offset="0" style="stop-color:#5940E7"/>
					<stop  offset="1" style="stop-color:#1BAFF8"/>
				</linearGradient>
				<polyline class="st27" points="390.13,132.23 376.04,140.34 364.66,133.78 356.5,138.42 360.34,140.68 352.71,145 
					357.95,148.18 326.01,166.54 322.81,164.63 316.12,168.43 				"/>
				<linearGradient id="SVGID_28_" gradientUnits="userSpaceOnUse" x1="319.3234" y1="156.6441" x2="412.9753" y2="156.6441">
					<stop  offset="0" style="stop-color:#5940E7"/>
					<stop  offset="1" style="stop-color:#1BAFF8"/>
				</linearGradient>
				<polyline class="st28" points="319.62,176.92 335.14,185.53 365.34,168.05 365.42,159.24 388.26,146.05 384.39,143.91 
					388.34,141.63 392.06,143.86 399.89,139.34 395.85,137.29 412.67,127.58 				"/>
				<linearGradient id="SVGID_29_" gradientUnits="userSpaceOnUse" x1="318.0462" y1="154.5354" x2="434.2133" y2="154.5354">
					<stop  offset="0" style="stop-color:#5940E7"/>
					<stop  offset="1" style="stop-color:#1BAFF8"/>
				</linearGradient>
				<polyline class="st29" points="318.54,178.74 337.12,188.88 368.4,170.51 368.48,161.7 407.25,139.32 403.21,137.27 
					433.71,119.91 				"/>
				<linearGradient id="SVGID_30_" gradientUnits="userSpaceOnUse" x1="318.7189" y1="168.6174" x2="427.5056" y2="168.6174">
					<stop  offset="0" style="stop-color:#5940E7"/>
					<stop  offset="1" style="stop-color:#1BAFF8"/>
				</linearGradient>
				<polyline class="st30" points="319.03,201.07 323.68,198.35 323.75,190.45 327.13,188.42 327.13,192.37 334.1,188.38 
					333.84,196.14 374.26,172.86 374.26,166.73 427.2,136.16 				"/>
				<linearGradient id="SVGID_31_" gradientUnits="userSpaceOnUse" x1="306.9101" y1="177.7984" x2="441.7942" y2="177.7984">
					<stop  offset="0" style="stop-color:#5940E7"/>
					<stop  offset="1" style="stop-color:#1BAFF8"/>
				</linearGradient>
				<polyline class="st31" points="307.21,216.39 329.16,203.99 336.01,208.02 390.51,176.17 383.48,172.25 406.9,158.71 
					411.21,161.07 426.31,152.35 426.38,147.92 441.49,139.2 				"/>
				<linearGradient id="SVGID_32_" gradientUnits="userSpaceOnUse" x1="303.3527" y1="173.366" x2="448.8963" y2="173.366">
					<stop  offset="0" style="stop-color:#5940E7"/>
					<stop  offset="1" style="stop-color:#1BAFF8"/>
				</linearGradient>
				<polyline class="st32" points="303.86,215.89 328.75,201.74 335.6,205.76 385.82,176.42 378.79,172.5 417.13,150.37 
					417.13,155.01 422.44,152.04 422.52,145.78 448.38,130.84 				"/>
			</g>
		</g>
	</g>
	<g>
		<path class="st33" d="M380.18,36.56v68.16c0-4.94-3.26-9.88-9.78-13.64c-13.05-7.53-34.19-7.53-47.24,0
			c-6.52,3.76-9.78,8.7-9.78,13.63V36.56c0-4.94,3.26-9.87,9.78-13.64c13.05-7.53,34.19-7.53,47.24,0
			C376.92,26.69,380.18,31.62,380.18,36.56z"/>
		<linearGradient id="SVGID_33_" gradientUnits="userSpaceOnUse" x1="403.7462" y1="45.003" x2="279.6016" y2="46.1854">
			<stop  offset="0" style="stop-color:#7D57C4"/>
			<stop  offset="0.0148" style="stop-color:#8969CB;stop-opacity:0.968"/>
			<stop  offset="0.0467" style="stop-color:#9F8AD9;stop-opacity:0.8987"/>
			<stop  offset="0.0824" style="stop-color:#B3A7E4;stop-opacity:0.8214"/>
			<stop  offset="0.122" style="stop-color:#C2BEEE;stop-opacity:0.7354"/>
			<stop  offset="0.1673" style="stop-color:#CED0F5;stop-opacity:0.6373"/>
			<stop  offset="0.2217" style="stop-color:#D7DDFA;stop-opacity:0.5193"/>
			<stop  offset="0.2944" style="stop-color:#DCE4FD;stop-opacity:0.3617"/>
			<stop  offset="0.4612" style="stop-color:#DDE6FE;stop-opacity:0"/>
			<stop  offset="0.5329" style="stop-color:#DAE1FC;stop-opacity:0.128"/>
			<stop  offset="0.6205" style="stop-color:#CFD2F6;stop-opacity:0.2843"/>
			<stop  offset="0.7163" style="stop-color:#BFB9EC;stop-opacity:0.4554"/>
			<stop  offset="0.8181" style="stop-color:#A897DE;stop-opacity:0.6371"/>
			<stop  offset="0.9234" style="stop-color:#8A6BCC;stop-opacity:0.8252"/>
			<stop  offset="0.9653" style="stop-color:#7D57C4;stop-opacity:0.9"/>
		</linearGradient>
		<path class="st34" d="M385.4,17.11v78.81c0-5.71-3.77-11.42-11.31-15.77c-15.08-8.71-39.53-8.71-54.62,0
			c-7.54,4.35-11.31,10.06-11.31,15.76V17.11c0-5.71,3.77-11.41,11.31-15.77c15.08-8.7,39.53-8.7,54.62,0
			C381.63,5.69,385.4,11.4,385.4,17.11z"/>
		<g>
			<path class="st33" d="M361.58,71.26v30.88c-5.92,0.7-12.18,0.14-17.52-1.69c-1.74-0.59-3.38-1.31-4.87-2.18
				c-4.81-2.78-7.22-6.42-7.22-10.06V57.5c0.07,3.58,2.48,7.16,7.22,9.89c1.28,0.74,2.67,1.37,4.14,1.91
				c0.24,0.09,0.49,0.18,0.74,0.27C349.4,71.4,355.67,71.96,361.58,71.26z"/>
			<path class="st33" d="M343.33,45.36V69.3c-1.46-0.54-2.86-1.17-4.14-1.91c-4.74-2.73-7.14-6.3-7.22-9.89v-0.34
				c0-0.06,0-0.12,0.01-0.18c0.15-3.52,2.55-7.02,7.21-9.71C340.47,46.53,341.86,45.9,343.33,45.36z"/>
			<line class="st14" x1="331.97" y1="57.16" x2="331.97" y2="56.98"/>
			<path class="st14" d="M331.98,56.98c0,0.06-0.01,0.12-0.01,0.18L331.98,56.98L331.98,56.98z"/>
		</g>
		<linearGradient id="SVGID_34_" gradientUnits="userSpaceOnUse" x1="424.4732" y1="115.5723" x2="272.396" y2="112.9121">
			<stop  offset="0" style="stop-color:#7D57C4"/>
			<stop  offset="0.0148" style="stop-color:#8969CB;stop-opacity:0.968"/>
			<stop  offset="0.0467" style="stop-color:#9F8AD9;stop-opacity:0.8987"/>
			<stop  offset="0.0824" style="stop-color:#B3A7E4;stop-opacity:0.8214"/>
			<stop  offset="0.122" style="stop-color:#C2BEEE;stop-opacity:0.7354"/>
			<stop  offset="0.1673" style="stop-color:#CED0F5;stop-opacity:0.6373"/>
			<stop  offset="0.2217" style="stop-color:#D7DDFA;stop-opacity:0.5193"/>
			<stop  offset="0.2944" style="stop-color:#DCE4FD;stop-opacity:0.3617"/>
			<stop  offset="0.4612" style="stop-color:#DDE6FE;stop-opacity:0"/>
			<stop  offset="0.5329" style="stop-color:#DAE1FC;stop-opacity:0.128"/>
			<stop  offset="0.6205" style="stop-color:#CFD2F6;stop-opacity:0.2843"/>
			<stop  offset="0.7163" style="stop-color:#BFB9EC;stop-opacity:0.4554"/>
			<stop  offset="0.8181" style="stop-color:#A897DE;stop-opacity:0.6371"/>
			<stop  offset="0.9234" style="stop-color:#8A6BCC;stop-opacity:0.8252"/>
			<stop  offset="0.9653" style="stop-color:#7D57C4;stop-opacity:0.9"/>
		</linearGradient>
		<path class="st35" d="M403.12,144.72c-0.9,7.57-6.37,15-16.39,20.78c-22.03,12.72-57.74,12.72-79.77,0
			c-11.01-6.36-16.52-14.69-16.52-23.03V52.39c0,8.33,5.51,16.67,16.52,23.03c22.03,12.72,57.74,12.72,79.77,0
			c10.03-5.78,15.49-13.21,16.39-20.78V144.72z"/>
		<linearGradient id="SVGID_35_" gradientUnits="userSpaceOnUse" x1="296.5929" y1="127.4136" x2="396.9578" y2="127.4136">
			<stop  offset="0" style="stop-color:#7D57C4"/>
			<stop  offset="0.0148" style="stop-color:#8969CB;stop-opacity:0.968"/>
			<stop  offset="0.0467" style="stop-color:#9F8AD9;stop-opacity:0.8987"/>
			<stop  offset="0.0824" style="stop-color:#B3A7E4;stop-opacity:0.8214"/>
			<stop  offset="0.122" style="stop-color:#C2BEEE;stop-opacity:0.7354"/>
			<stop  offset="0.1673" style="stop-color:#CED0F5;stop-opacity:0.6373"/>
			<stop  offset="0.2217" style="stop-color:#D7DDFA;stop-opacity:0.5193"/>
			<stop  offset="0.2944" style="stop-color:#DCE4FD;stop-opacity:0.3617"/>
			<stop  offset="0.4612" style="stop-color:#DDE6FE;stop-opacity:0"/>
			<stop  offset="0.5329" style="stop-color:#DAE1FC;stop-opacity:0.128"/>
			<stop  offset="0.6205" style="stop-color:#CFD2F6;stop-opacity:0.2843"/>
			<stop  offset="0.7163" style="stop-color:#BFB9EC;stop-opacity:0.4554"/>
			<stop  offset="0.8181" style="stop-color:#A897DE;stop-opacity:0.6371"/>
			<stop  offset="0.9234" style="stop-color:#8A6BCC;stop-opacity:0.8252"/>
			<stop  offset="0.9653" style="stop-color:#7D57C4;stop-opacity:0.9"/>
		</linearGradient>
		<path class="st36" d="M396.96,131.46c-0.8,6.74-5.67,13.36-14.6,18.51c-19.62,11.33-51.43,11.33-71.05,0
			c-9.81-5.67-14.71-13.09-14.71-20.51v-33.1c0,7.42,4.91,14.85,14.71,20.51c19.62,11.33,51.43,11.33,71.05,0
			c8.93-5.15,13.79-11.77,14.6-18.51V131.46z"/>
		<path class="st14" d="M376.56,73.97c-0.84,0.48-1.7,0.94-2.58,1.38v30.39c0.88-0.44,1.75-0.9,2.58-1.38
			c8.2-4.73,12.67-10.8,13.41-17V56.98C389.23,63.17,384.76,69.24,376.56,73.97z"/>
		<path class="st14" d="M315.59,85.59c-8.8-5.08-13.2-11.74-13.2-18.39v29.68c0,6.66,4.4,13.31,13.2,18.39
			c3.62,2.09,7.71,3.74,12.07,4.97V90.57C323.3,89.33,319.21,87.68,315.59,85.59z"/>
		<path class="st37" d="M315.59,124.86c-2.12-1.23-3.99-2.55-5.6-3.93v2.49c1.61,1.39,3.48,2.71,5.6,3.94
			c3.62,2.09,7.71,3.74,12.07,4.97v-2.49C323.3,128.61,319.21,126.95,315.59,124.86z"/>
		<path class="st37" d="M315.59,119.32c-2.12-1.23-3.99-2.55-5.6-3.93v2.49c1.61,1.39,3.48,2.71,5.6,3.94
			c3.62,2.09,7.71,3.74,12.07,4.97v-2.49C323.3,123.06,319.21,121.41,315.59,119.32z"/>
	</g>
	<g>
		<g>
			<ellipse class="st8" cx="285.71" cy="325.02" rx="24.82" ry="14.33"/>
			<linearGradient id="SVGID_36_" gradientUnits="userSpaceOnUse" x1="326.6362" y1="317.9243" x2="249.7911" y2="317.9243">
				<stop  offset="0.1459" style="stop-color:#09BFFF"/>
				<stop  offset="0.1682" style="stop-color:#16ABFB"/>
				<stop  offset="0.238" style="stop-color:#3A72F0"/>
				<stop  offset="0.2898" style="stop-color:#504EEA"/>
				<stop  offset="0.3173" style="stop-color:#5940E7"/>
				<stop  offset="0.4348" style="stop-color:#524CE9"/>
				<stop  offset="0.6493" style="stop-color:#406DEE"/>
				<stop  offset="0.9348" style="stop-color:#22A2F6"/>
				<stop  offset="1" style="stop-color:#1BAFF8"/>
			</linearGradient>
			<path class="st38" d="M303.26,309.51c2.64,1.52,6.07-9.31,7.27-7.42l-0.06,18.54c-0.4,3.33-2.8,6.6-7.21,9.14
				c-9.69,5.6-25.4,5.6-35.1,0c-4.85-2.8-7.27-6.46-7.27-10.13c0-1.78,0-16.3,0-16.3C262.11,301.56,293.57,303.92,303.26,309.51z"/>
			<linearGradient id="SVGID_37_" gradientUnits="userSpaceOnUse" x1="292.1967" y1="294.6966" x2="272.0541" y2="318.312">
				<stop  offset="0" style="stop-color:#5940E7"/>
				<stop  offset="1" style="stop-color:#1BAFF8"/>
			</linearGradient>
			<ellipse class="st39" cx="285.71" cy="302.3" rx="24.82" ry="14.33"/>
			<linearGradient id="SVGID_38_" gradientUnits="userSpaceOnUse" x1="260.8965" y1="301.7452" x2="310.5305" y2="301.7452">
				<stop  offset="0" style="stop-color:#5940E7"/>
				<stop  offset="1" style="stop-color:#1BAFF8"/>
			</linearGradient>
			<ellipse class="st40" cx="285.71" cy="301.75" rx="24.82" ry="14.33"/>
			<linearGradient id="SVGID_39_" gradientUnits="userSpaceOnUse" x1="309.2538" y1="293.726" x2="267.1164" y2="308.0805">
				<stop  offset="0" style="stop-color:#5940E7"/>
				<stop  offset="1" style="stop-color:#1BAFF8"/>
			</linearGradient>
			<ellipse class="st41" cx="285.71" cy="301.75" rx="18.6" ry="10.74"/>
			<ellipse class="st14" cx="285.71" cy="301.75" rx="13.15" ry="7.59"/>
		</g>
		<g>
			<linearGradient id="SVGID_40_" gradientUnits="userSpaceOnUse" x1="277.7062" y1="303.4625" x2="293.7149" y2="303.4625">
				<stop  offset="0" style="stop-color:#5940E7"/>
				<stop  offset="1" style="stop-color:#1BAFF8"/>
			</linearGradient>
			<path class="st42" d="M279.98,306.61c-1.08-0.65-1.77-1.43-2.08-2.25c-0.12-0.32-0.19-0.65-0.19-0.98l0-0.03
				c0-1.2,0.81-2.39,2.41-3.27c3.16-1.74,8.23-1.63,11.32,0.24c1.57,0.95,2.33,2.18,2.27,3.39c-0.02,0.33-0.09,0.67-0.23,0.99
				c-0.35,0.8-1.07,1.55-2.18,2.16C288.14,308.59,283.07,308.48,279.98,306.61z"/>
			<linearGradient id="SVGID_41_" gradientUnits="userSpaceOnUse" x1="274.1561" y1="295.5302" x2="297.2654" y2="295.5302">
				<stop  offset="0" style="stop-color:#524CE9"/>
				<stop  offset="1" style="stop-color:#19B0F9"/>
			</linearGradient>
			<path class="st43" d="M277.44,300.07c-1.56-0.94-2.56-2.07-3.01-3.25c-0.18-0.47-0.27-0.94-0.28-1.42l0-0.05
				c0-1.73,1.16-3.45,3.48-4.72c4.57-2.51,11.88-2.36,16.34,0.34c2.27,1.38,3.36,3.15,3.28,4.89c-0.02,0.48-0.14,0.96-0.34,1.43
				c-0.5,1.16-1.55,2.24-3.14,3.12C289.21,302.93,281.9,302.77,277.44,300.07z"/>
			<linearGradient id="SVGID_42_" gradientUnits="userSpaceOnUse" x1="270.6059" y1="287.598" x2="300.8159" y2="287.598">
				<stop  offset="0" style="stop-color:#4A57EB"/>
				<stop  offset="1" style="stop-color:#18B2F9"/>
			</linearGradient>
			<path class="st44" d="M274.9,293.54c-2.03-1.23-3.34-2.71-3.93-4.24c-0.23-0.61-0.36-1.23-0.36-1.85l0-0.06
				c0-2.27,1.52-4.51,4.55-6.18c5.97-3.28,15.54-3.08,21.36,0.45c2.97,1.8,4.4,4.12,4.29,6.39c-0.03,0.63-0.18,1.26-0.44,1.87
				c-0.65,1.51-2.02,2.93-4.11,4.07C290.29,297.27,280.73,297.07,274.9,293.54z"/>
			<linearGradient id="SVGID_43_" gradientUnits="userSpaceOnUse" x1="267.0558" y1="279.6657" x2="304.3663" y2="279.6657">
				<stop  offset="0" style="stop-color:#4363EE"/>
				<stop  offset="1" style="stop-color:#16B3FA"/>
			</linearGradient>
			<path class="st45" d="M272.36,287c-2.51-1.52-4.13-3.34-4.86-5.24c-0.29-0.76-0.44-1.52-0.45-2.29l0-0.08
				c0-2.8,1.88-5.57,5.62-7.63c7.37-4.05,19.19-3.8,26.38,0.56c3.67,2.22,5.43,5.09,5.3,7.89c-0.04,0.78-0.22,1.55-0.55,2.31
				c-0.81,1.87-2.5,3.62-5.07,5.03C291.37,291.61,279.55,291.36,272.36,287z"/>
			<linearGradient id="SVGID_44_" gradientUnits="userSpaceOnUse" x1="263.5056" y1="271.7334" x2="307.9168" y2="271.7334">
				<stop  offset="0" style="stop-color:#3C6EF0"/>
				<stop  offset="1" style="stop-color:#14B5FB"/>
			</linearGradient>
			<path class="st46" d="M269.82,280.47c-2.99-1.81-4.92-3.98-5.78-6.24c-0.34-0.9-0.52-1.81-0.53-2.72l0-0.09
				c0-3.33,2.24-6.63,6.69-9.08c8.78-4.83,22.84-4.53,31.41,0.66c4.36,2.64,6.46,6.05,6.3,9.4c-0.04,0.93-0.26,1.85-0.65,2.75
				c-0.96,2.22-2.97,4.3-6.04,5.99C292.44,285.96,278.38,285.66,269.82,280.47z"/>
			<linearGradient id="SVGID_45_" gradientUnits="userSpaceOnUse" x1="259.9555" y1="263.8012" x2="311.4673" y2="263.8012">
				<stop  offset="0" style="stop-color:#357AF2"/>
				<stop  offset="1" style="stop-color:#13B6FB"/>
			</linearGradient>
			<path class="st47" d="M267.28,273.93c-3.47-2.1-5.7-4.61-6.71-7.23c-0.4-1.04-0.61-2.1-0.62-3.16l0-0.1
				c0-3.86,2.59-7.69,7.76-10.53c10.18-5.6,26.49-5.25,36.43,0.77c5.06,3.07,7.5,7.02,7.31,10.9c-0.05,1.08-0.3,2.14-0.76,3.19
				c-1.12,2.58-3.45,4.99-7,6.95C293.52,280.3,277.21,279.95,267.28,273.93z"/>
			<linearGradient id="SVGID_46_" gradientUnits="userSpaceOnUse" x1="256.4054" y1="255.8689" x2="315.0178" y2="255.8689">
				<stop  offset="0" style="stop-color:#2D85F4"/>
				<stop  offset="1" style="stop-color:#11B8FC"/>
			</linearGradient>
			<path class="st48" d="M264.74,267.4c-3.94-2.39-6.49-5.25-7.63-8.23c-0.46-1.19-0.69-2.39-0.7-3.59l0-0.12
				c0-4.4,2.95-8.75,8.83-11.98c11.58-6.37,30.14-5.98,41.45,0.87c5.76,3.49,8.53,7.99,8.32,12.4c-0.06,1.22-0.34,2.44-0.86,3.62
				c-1.27,2.93-3.93,5.68-7.97,7.9C294.6,274.64,276.04,274.24,264.74,267.4z"/>
			<linearGradient id="SVGID_47_" gradientUnits="userSpaceOnUse" x1="252.8552" y1="247.9366" x2="318.5683" y2="247.9366">
				<stop  offset="0" style="stop-color:#2691F6"/>
				<stop  offset="1" style="stop-color:#10B9FC"/>
			</linearGradient>
			<path class="st49" d="M262.2,260.86c-4.42-2.68-7.28-5.89-8.55-9.23c-0.51-1.33-0.78-2.68-0.79-4.03l0-0.13
				c0-4.93,3.31-9.81,9.9-13.43c12.99-7.14,33.79-6.7,46.47,0.98c6.46,3.91,9.56,8.96,9.33,13.9c-0.06,1.37-0.39,2.73-0.96,4.06
				c-1.42,3.29-4.4,6.37-8.93,8.86C295.67,268.98,274.87,268.54,262.2,260.86z"/>
			<linearGradient id="SVGID_48_" gradientUnits="userSpaceOnUse" x1="249.3051" y1="240.0043" x2="322.1187" y2="240.0043">
				<stop  offset="0" style="stop-color:#1F9CF8"/>
				<stop  offset="1" style="stop-color:#0EBBFD"/>
			</linearGradient>
			<path class="st50" d="M259.66,254.32c-4.9-2.97-8.06-6.52-9.48-10.23c-0.57-1.48-0.86-2.97-0.87-4.46l0-0.15
				c0-5.46,3.67-10.87,10.97-14.89c14.39-7.91,37.44-7.42,51.49,1.09c7.16,4.34,10.59,9.92,10.33,15.41
				c-0.07,1.52-0.43,3.03-1.07,4.5c-1.58,3.65-4.88,7.06-9.9,9.82C296.75,263.32,273.7,262.83,259.66,254.32z"/>
			<linearGradient id="SVGID_49_" gradientUnits="userSpaceOnUse" x1="245.755" y1="232.0721" x2="325.6692" y2="232.0721">
				<stop  offset="0" style="stop-color:#18A8FB"/>
				<stop  offset="1" style="stop-color:#0CBCFE"/>
			</linearGradient>
			<path class="st51" d="M257.12,247.79c-5.38-3.26-8.85-7.16-10.4-11.22c-0.62-1.62-0.94-3.26-0.96-4.9l0-0.16
				c0-6,4.02-11.93,12.05-16.34c15.79-8.68,41.1-8.15,56.51,1.19c7.85,4.76,11.63,10.89,11.34,16.91c-0.08,1.67-0.47,3.33-1.17,4.94
				c-1.73,4-5.35,7.75-10.86,10.78C297.83,257.66,272.53,257.12,257.12,247.79z"/>
			<linearGradient id="SVGID_50_" gradientUnits="userSpaceOnUse" x1="242.2048" y1="224.1398" x2="329.2197" y2="224.1398">
				<stop  offset="0" style="stop-color:#10B3FD"/>
				<stop  offset="1" style="stop-color:#0BBEFE"/>
			</linearGradient>
			<path class="st52" d="M254.58,241.25c-5.86-3.55-9.63-7.79-11.33-12.22c-0.68-1.76-1.03-3.55-1.04-5.34l0-0.18
				c0-6.53,4.38-12.99,13.12-17.79c17.2-9.45,44.75-8.87,61.53,1.3c8.55,5.18,12.66,11.86,12.35,18.41
				c-0.08,1.82-0.51,3.62-1.28,5.38c-1.89,4.36-5.83,8.43-11.83,11.73C298.9,252.01,271.36,251.42,254.58,241.25z"/>
			<path class="st53" d="M252.04,234.72c-6.33-3.84-10.42-8.43-12.25-13.22c-0.73-1.91-1.11-3.84-1.13-5.77l0-0.19
				c0-7.06,4.74-14.05,14.19-19.24c18.6-10.23,48.4-9.6,66.55,1.4c9.25,5.6,13.69,12.83,13.36,19.91c-0.09,1.97-0.55,3.92-1.38,5.82
				c-2.04,4.71-6.3,9.12-12.79,12.69C299.98,246.35,270.18,245.71,252.04,234.72z"/>
		</g>
		<g>
			<g>
				<path class="st54" d="M270.22,266.89c-3.35-1.69-5.59-3.85-6.7-6.19c-0.44-0.93-0.71-1.9-0.79-2.87l-0.01-0.1
					c-0.28-3.56,1.85-7.28,6.41-10.26c8.99-5.88,24.05-6.72,33.64-1.88c4.89,2.47,7.41,5.94,7.51,9.53c0.03,1-0.13,2-0.47,2.99
					c-0.85,2.46-2.83,4.85-5.96,6.9C294.86,270.9,279.8,271.74,270.22,266.89z"/>
				<path class="st55" d="M274.62,264.01c-2.44-1.23-4.07-2.81-4.88-4.52c-0.32-0.68-0.52-1.38-0.58-2.09l-0.01-0.07
					c-0.2-2.6,1.35-5.31,4.68-7.49c6.56-4.29,17.54-4.9,24.54-1.37c3.56,1.8,5.4,4.33,5.48,6.95c0.02,0.73-0.09,1.46-0.34,2.18
					c-0.62,1.79-2.06,3.54-4.35,5.03C292.6,266.93,281.61,267.54,274.62,264.01z"/>
				<path class="st56" d="M275.09,264.25c-2.38-1.2-3.98-2.74-4.77-4.42c-0.32-0.67-0.51-1.35-0.57-2.04l0-0.07
					c-0.2-2.54,1.32-5.19,4.57-7.31c6.41-4.19,17.14-4.79,23.98-1.34c3.48,1.76,5.28,4.23,5.36,6.79c0.02,0.71-0.09,1.42-0.34,2.13
					c-0.6,1.75-2.01,3.46-4.25,4.92C292.66,267.1,281.92,267.7,275.09,264.25z"/>
				<path class="st57" d="M270.57,273.22c-4.56-2.31-7.07-5.49-7.46-8.82l0-0.02l-0.06-0.94l-0.32-5.61
					c0.08,0.97,0.35,1.93,0.79,2.87c1.11,2.34,3.35,4.5,6.7,6.19c9.59,4.84,24.65,4.01,33.63-1.88c3.14-2.05,5.12-4.44,5.96-6.9
					c0.34-0.99,0.5-1.99,0.47-2.99l0.25,5.27l0,0.01l0.09,1.82c-0.21,3.21-2.34,6.45-6.42,9.12
					C295.22,277.22,280.16,278.06,270.57,273.22z"/>
			</g>
			<g>
				<path class="st58" d="M290.27,247c8.9,0.88,14.48,5.85,12.44,11.13c-2.05,5.31-11.01,8.9-20,8c-8.97-0.9-14.5-5.92-12.37-11.21
					C272.47,249.66,281.38,246.12,290.27,247z"/>
				<path class="st59" d="M289.62,253.62c0,0,0.9-1.11-1.58-2.29c-2.54-1.25-5.7,0.44-6.57,0.95l-3.07-1.56l-1.68,1.1l3.07,1.56
					l-1.2,0.79l-3.07-1.56l-1.69,1.1l3.07,1.56l-3.19,2.1l1.74,0.89c0,0,0.5-0.33,1.24-0.82c0.74-0.49,1.5-0.17,1.5-0.17
					s7.47,3.8,7.84,4c0.37,0.21,0.06,0.43,0.06,0.43l-1.41,0.93l1.8,1.41l3.31-2.18l2.93,1.49l1.68-1.11l-2.93-1.49l1.2-0.8
					l2.93,1.49l1.68-1.11l-2.93-1.49c0.09-0.06,0.27-0.18,0.64-0.44c2.61-1.92,2.34-3.55-0.13-4.81
					C292.41,252.34,289.62,253.62,289.62,253.62z M280.52,255.17l1.64-1.08c0,0,2.17-1.3,3.77-0.49c1.6,0.82-0.49,2.31-0.49,2.31
					l-1.5,0.99L280.52,255.17z M291.21,258.49l-1.81,1.19l-3.76-1.92l1.97-1.3c0,0,2.6-1.58,4.37-0.68
					C293.74,256.68,291.21,258.49,291.21,258.49z"/>
			</g>
		</g>
	</g>
	<g>
		<g>
			<ellipse class="st8" cx="446.79" cy="157.44" rx="19.82" ry="11.44"/>
			<linearGradient id="SVGID_51_" gradientUnits="userSpaceOnUse" x1="479.4666" y1="151.7755" x2="418.101" y2="151.7755">
				<stop  offset="0.1459" style="stop-color:#09BFFF"/>
				<stop  offset="0.1682" style="stop-color:#16ABFB"/>
				<stop  offset="0.238" style="stop-color:#3A72F0"/>
				<stop  offset="0.2898" style="stop-color:#504EEA"/>
				<stop  offset="0.3173" style="stop-color:#5940E7"/>
				<stop  offset="0.4348" style="stop-color:#524CE9"/>
				<stop  offset="0.6493" style="stop-color:#406DEE"/>
				<stop  offset="0.9348" style="stop-color:#22A2F6"/>
				<stop  offset="1" style="stop-color:#1BAFF8"/>
			</linearGradient>
			<path class="st60" d="M460.8,145.06c2.1,1.21,4.84-7.44,5.8-5.92l-0.05,14.8c-0.32,2.66-2.24,5.27-5.76,7.3
				c-7.74,4.47-20.29,4.47-28.03,0c-3.87-2.23-5.8-5.16-5.8-8.09c0-1.42,0-13.02,0-13.02C427.94,138.71,453.06,140.59,460.8,145.06z
				"/>
			<linearGradient id="SVGID_52_" gradientUnits="userSpaceOnUse" x1="451.9645" y1="133.2267" x2="435.8794" y2="152.0851">
				<stop  offset="0" style="stop-color:#5940E7"/>
				<stop  offset="1" style="stop-color:#1BAFF8"/>
			</linearGradient>
			<ellipse class="st61" cx="446.79" cy="139.3" rx="19.82" ry="11.44"/>
			<linearGradient id="SVGID_53_" gradientUnits="userSpaceOnUse" x1="426.9693" y1="138.8555" x2="466.6053" y2="138.8555">
				<stop  offset="0" style="stop-color:#5940E7"/>
				<stop  offset="1" style="stop-color:#1BAFF8"/>
			</linearGradient>
			<ellipse class="st62" cx="446.79" cy="138.86" rx="19.82" ry="11.44"/>
			<linearGradient id="SVGID_54_" gradientUnits="userSpaceOnUse" x1="465.5857" y1="132.4516" x2="431.9363" y2="143.9146">
				<stop  offset="0" style="stop-color:#5940E7"/>
				<stop  offset="1" style="stop-color:#1BAFF8"/>
			</linearGradient>
			<ellipse class="st63" cx="446.79" cy="138.86" rx="14.85" ry="8.58"/>
			<ellipse class="st14" cx="446.79" cy="138.86" rx="10.5" ry="6.06"/>
		</g>
		<g>
			<linearGradient id="SVGID_55_" gradientUnits="userSpaceOnUse" x1="440.3929" y1="140.2269" x2="453.1769" y2="140.2269">
				<stop  offset="0" style="stop-color:#5940E7"/>
				<stop  offset="1" style="stop-color:#1BAFF8"/>
			</linearGradient>
			<path class="st64" d="M442.21,142.74c-0.86-0.52-1.42-1.14-1.66-1.8c-0.1-0.26-0.15-0.52-0.15-0.78l0-0.03
				c0-0.96,0.64-1.91,1.93-2.61c2.53-1.39,6.57-1.3,9.04,0.19c1.26,0.76,1.86,1.74,1.81,2.7c-0.01,0.27-0.08,0.53-0.19,0.79
				c-0.28,0.64-0.86,1.24-1.74,1.72C448.72,144.32,444.68,144.23,442.21,142.74z"/>
			<linearGradient id="SVGID_56_" gradientUnits="userSpaceOnUse" x1="437.558" y1="133.8925" x2="456.0122" y2="133.8925">
				<stop  offset="0" style="stop-color:#524CE9"/>
				<stop  offset="1" style="stop-color:#19B0F9"/>
			</linearGradient>
			<path class="st65" d="M440.18,137.52c-1.24-0.75-2.04-1.65-2.4-2.59c-0.14-0.37-0.22-0.75-0.22-1.13l0-0.04
				c0-1.38,0.93-2.76,2.78-3.77c3.65-2.01,9.49-1.88,13.05,0.28c1.81,1.1,2.69,2.52,2.62,3.9c-0.02,0.39-0.11,0.77-0.27,1.14
				c-0.4,0.92-1.24,1.79-2.51,2.49C449.58,139.8,443.74,139.68,440.18,137.52z"/>
			<linearGradient id="SVGID_57_" gradientUnits="userSpaceOnUse" x1="434.723" y1="127.5581" x2="458.8475" y2="127.5581">
				<stop  offset="0" style="stop-color:#4A57EB"/>
				<stop  offset="1" style="stop-color:#18B2F9"/>
			</linearGradient>
			<path class="st66" d="M438.15,132.3c-1.62-0.98-2.67-2.16-3.14-3.39c-0.19-0.49-0.28-0.99-0.29-1.48l0-0.05
				c0-1.81,1.22-3.6,3.64-4.93c4.77-2.62,12.41-2.46,17.06,0.36c2.37,1.44,3.51,3.29,3.42,5.1c-0.02,0.5-0.14,1-0.35,1.49
				c-0.52,1.21-1.62,2.34-3.28,3.25C450.44,135.28,442.8,135.12,438.15,132.3z"/>
			<linearGradient id="SVGID_58_" gradientUnits="userSpaceOnUse" x1="431.8879" y1="121.2236" x2="461.6828" y2="121.2236">
				<stop  offset="0" style="stop-color:#4363EE"/>
				<stop  offset="1" style="stop-color:#16B3FA"/>
			</linearGradient>
			<path class="st67" d="M436.12,127.08c-2.01-1.21-3.3-2.67-3.88-4.18c-0.23-0.6-0.35-1.22-0.36-1.83l0-0.06
				c0-2.24,1.5-4.45,4.49-6.09c5.89-3.24,15.32-3.04,21.07,0.44c2.93,1.77,4.34,4.06,4.23,6.3c-0.03,0.62-0.18,1.24-0.44,1.84
				c-0.65,1.49-2,2.89-4.05,4.02C451.3,130.77,441.87,130.56,436.12,127.08z"/>
			<linearGradient id="SVGID_59_" gradientUnits="userSpaceOnUse" x1="429.0529" y1="114.8892" x2="464.518" y2="114.8892">
				<stop  offset="0" style="stop-color:#3C6EF0"/>
				<stop  offset="1" style="stop-color:#14B5FB"/>
			</linearGradient>
			<path class="st68" d="M434.1,121.86c-2.39-1.45-3.93-3.18-4.62-4.98c-0.28-0.72-0.42-1.45-0.43-2.17l0-0.07
				c0-2.66,1.79-5.3,5.35-7.25c7.01-3.85,18.24-3.62,25.08,0.53c3.49,2.11,5.16,4.83,5.03,7.5c-0.03,0.74-0.21,1.48-0.52,2.19
				c-0.77,1.78-2.37,3.44-4.82,4.78C452.16,126.25,440.93,126.01,434.1,121.86z"/>
			<linearGradient id="SVGID_60_" gradientUnits="userSpaceOnUse" x1="426.2179" y1="108.5548" x2="467.3533" y2="108.5548">
				<stop  offset="0" style="stop-color:#357AF2"/>
				<stop  offset="1" style="stop-color:#13B6FB"/>
			</linearGradient>
			<path class="st69" d="M432.07,116.64c-2.77-1.68-4.55-3.68-5.35-5.78c-0.32-0.83-0.49-1.68-0.49-2.52l0-0.08
				c0-3.09,2.07-6.14,6.2-8.41c8.13-4.47,21.15-4.19,29.09,0.61c4.04,2.45,5.99,5.61,5.84,8.7c-0.04,0.86-0.24,1.71-0.6,2.54
				c-0.89,2.06-2.75,3.99-5.59,5.55C453.02,121.73,440,121.45,432.07,116.64z"/>
			<linearGradient id="SVGID_61_" gradientUnits="userSpaceOnUse" x1="423.3829" y1="102.2204" x2="470.1886" y2="102.2204">
				<stop  offset="0" style="stop-color:#2D85F4"/>
				<stop  offset="1" style="stop-color:#11B8FC"/>
			</linearGradient>
			<path class="st70" d="M430.04,111.43c-3.15-1.91-5.18-4.19-6.09-6.57c-0.36-0.95-0.55-1.91-0.56-2.87l0-0.1
				c0-3.51,2.36-6.99,7.05-9.57c9.25-5.09,24.07-4.77,33.1,0.7c4.6,2.79,6.81,6.38,6.64,9.9c-0.04,0.98-0.28,1.95-0.69,2.89
				c-1.01,2.34-3.13,4.54-6.36,6.31C453.88,117.21,439.06,116.89,430.04,111.43z"/>
			<linearGradient id="SVGID_62_" gradientUnits="userSpaceOnUse" x1="420.5479" y1="95.886" x2="473.0239" y2="95.886">
				<stop  offset="0" style="stop-color:#2691F6"/>
				<stop  offset="1" style="stop-color:#10B9FC"/>
			</linearGradient>
			<path class="st71" d="M428.01,106.21c-3.53-2.14-5.81-4.7-6.83-7.37c-0.41-1.06-0.62-2.14-0.63-3.22l0-0.11
				c0-3.94,2.64-7.84,7.91-10.73c10.37-5.7,26.99-5.35,37.11,0.78c5.16,3.12,7.64,7.15,7.45,11.1c-0.05,1.1-0.31,2.18-0.77,3.25
				c-1.14,2.63-3.51,5.09-7.13,7.08C454.74,112.69,438.13,112.34,428.01,106.21z"/>
			<linearGradient id="SVGID_63_" gradientUnits="userSpaceOnUse" x1="417.7129" y1="89.5516" x2="475.8592" y2="89.5516">
				<stop  offset="0" style="stop-color:#1F9CF8"/>
				<stop  offset="1" style="stop-color:#0EBBFD"/>
			</linearGradient>
			<path class="st72" d="M425.98,100.99c-3.91-2.37-6.44-5.21-7.57-8.17c-0.45-1.18-0.69-2.37-0.7-3.57l0-0.12
				c0-4.36,2.93-8.68,8.76-11.89c11.49-6.32,29.9-5.93,41.12,0.87c5.71,3.46,8.46,7.92,8.25,12.3c-0.06,1.21-0.34,2.42-0.85,3.6
				c-1.26,2.91-3.89,5.64-7.9,7.84C455.6,108.17,437.19,107.78,425.98,100.99z"/>
			<linearGradient id="SVGID_64_" gradientUnits="userSpaceOnUse" x1="414.8779" y1="83.2172" x2="478.6944" y2="83.2172">
				<stop  offset="0" style="stop-color:#18A8FB"/>
				<stop  offset="1" style="stop-color:#0CBCFE"/>
			</linearGradient>
			<path class="st73" d="M423.95,95.77c-4.29-2.6-7.07-5.72-8.31-8.96c-0.5-1.29-0.75-2.61-0.77-3.91l0-0.13
				c0-4.79,3.21-9.53,9.62-13.05c12.61-6.93,32.82-6.51,45.13,0.95c6.27,3.8,9.29,8.7,9.06,13.5c-0.06,1.33-0.38,2.66-0.94,3.95
				c-1.38,3.2-4.27,6.19-8.67,8.6C456.46,103.65,436.26,103.22,423.95,95.77z"/>
			<linearGradient id="SVGID_65_" gradientUnits="userSpaceOnUse" x1="412.0429" y1="76.8827" x2="481.5297" y2="76.8827">
				<stop  offset="0" style="stop-color:#10B3FD"/>
				<stop  offset="1" style="stop-color:#0BBEFE"/>
			</linearGradient>
			<path class="st74" d="M421.92,90.55c-4.68-2.83-7.69-6.22-9.05-9.76c-0.54-1.41-0.82-2.84-0.83-4.26l0-0.14
				c0-5.21,3.5-10.38,10.47-14.21c13.73-7.55,35.73-7.08,49.14,1.04c6.83,4.14,10.11,9.47,9.86,14.7c-0.07,1.45-0.41,2.89-1.02,4.3
				c-1.51,3.48-4.65,6.74-9.45,9.37C457.32,99.14,435.32,98.67,421.92,90.55z"/>
			<path class="st53" d="M419.89,85.33c-5.06-3.06-8.32-6.73-9.78-10.55c-0.58-1.52-0.89-3.07-0.9-4.61l0-0.15
				c0-5.64,3.79-11.22,11.33-15.37c14.85-8.17,38.65-7.66,53.15,1.12c7.39,4.47,10.94,10.24,10.67,15.9
				c-0.07,1.57-0.44,3.13-1.1,4.65c-1.63,3.76-5.03,7.28-10.22,10.13C458.18,94.62,434.39,94.11,419.89,85.33z"/>
		</g>
		<g>
			<g>
				<path class="st54" d="M434.24,98.62c-1.57-2.36-2.24-4.61-2.1-6.57c0.06-0.78,0.24-1.51,0.54-2.18l0.03-0.07
					c1.14-2.45,3.92-4.1,8.04-4.37c8.1-0.53,18.33,4.53,22.84,11.28c2.3,3.44,2.66,6.67,1.4,9.07c-0.35,0.67-0.83,1.27-1.42,1.79
					c-1.47,1.3-3.66,2.14-6.49,2.32C448.97,110.43,438.74,105.37,434.24,98.62z"/>
				<path class="st55" d="M438.21,98.36c-1.15-1.72-1.64-3.36-1.53-4.79c0.04-0.57,0.17-1.1,0.4-1.59l0.02-0.05
					c0.83-1.79,2.86-2.99,5.86-3.19c5.91-0.38,13.37,3.3,16.66,8.23c1.67,2.51,1.94,4.86,1.02,6.61c-0.26,0.49-0.6,0.92-1.04,1.31
					c-1.07,0.95-2.67,1.56-4.74,1.69C448.95,106.97,441.49,103.29,438.21,98.36z"/>
				<path class="st56" d="M438.43,98.69c-1.12-1.68-1.6-3.29-1.5-4.68c0.04-0.56,0.17-1.08,0.39-1.56l0.02-0.05
					c0.82-1.74,2.8-2.92,5.73-3.11c5.78-0.38,13.07,3.23,16.28,8.04c1.64,2.45,1.9,4.75,1,6.46c-0.25,0.48-0.59,0.9-1.01,1.28
					c-1.05,0.93-2.61,1.52-4.63,1.66C448.93,107.11,441.64,103.5,438.43,98.69z"/>
				<path class="st57" d="M432.11,102.91c-2.14-3.22-2.61-6.24-1.63-8.58l0.01-0.01l0.31-0.64l1.88-3.81
					c-0.31,0.67-0.49,1.4-0.54,2.18c-0.14,1.96,0.53,4.21,2.1,6.57c4.51,6.75,14.73,11.81,22.83,11.28
					c2.83-0.18,5.02-1.02,6.49-2.32c0.6-0.53,1.07-1.13,1.42-1.79l-1.8,3.56l0,0l-0.62,1.23c-1.33,2.03-3.94,3.37-7.62,3.61
					C446.84,114.72,436.62,109.67,432.11,102.91z"/>
			</g>
			<g>
				<path class="st58" d="M454.84,92.99c5.53,3.89,7.36,9.24,4.05,11.95c-3.33,2.73-10.56,1.76-16.14-2.18
					c-5.57-3.93-7.33-9.29-3.97-11.98C442.13,88.11,449.31,89.1,454.84,92.99z"/>
				<path class="st59" d="M451.94,97.11c0,0,1-0.39-0.19-2.09c-1.21-1.77-3.92-1.84-4.68-1.82l-1.44-2.17l-1.52,0.1l1.44,2.17
					l-1.09,0.07l-1.44-2.17l-1.52,0.1l1.44,2.17l-2.88,0.19l0.82,1.23c0,0,0.45-0.03,1.12-0.07c0.67-0.04,1.05,0.45,1.05,0.45
					s3.5,5.28,3.67,5.55c0.17,0.28-0.12,0.31-0.12,0.31l-1.27,0.09l0.66,1.6l2.99-0.21l1.37,2.07l1.52-0.11l-1.37-2.07l1.09-0.08
					l1.37,2.07l1.52-0.11l-1.37-2.07c0.08-0.01,0.24-0.02,0.59-0.05c2.43-0.29,2.87-1.47,1.71-3.21
					C454.26,97.3,451.94,97.11,451.94,97.11z M445.38,94.74l1.48-0.1c0,0,1.91-0.05,2.66,1.08c0.75,1.13-1.18,1.34-1.18,1.34
					l-1.36,0.09L445.38,94.74z M451.18,100.9l-1.64,0.11l-1.76-2.66l1.78-0.12c0,0,2.3-0.07,3.13,1.18
					C453.52,100.65,451.18,100.9,451.18,100.9z"/>
			</g>
		</g>
	</g>
	<g>
		<g>
			<ellipse class="st8" cx="221.04" cy="204.45" rx="20.69" ry="11.95"/>
			<linearGradient id="SVGID_66_" gradientUnits="userSpaceOnUse" x1="255.1656" y1="198.5267" x2="191.0908" y2="198.5267">
				<stop  offset="0.1459" style="stop-color:#09BFFF"/>
				<stop  offset="0.1682" style="stop-color:#16ABFB"/>
				<stop  offset="0.238" style="stop-color:#3A72F0"/>
				<stop  offset="0.2898" style="stop-color:#504EEA"/>
				<stop  offset="0.3173" style="stop-color:#5940E7"/>
				<stop  offset="0.4348" style="stop-color:#524CE9"/>
				<stop  offset="0.6493" style="stop-color:#406DEE"/>
				<stop  offset="0.9348" style="stop-color:#22A2F6"/>
				<stop  offset="1" style="stop-color:#1BAFF8"/>
			</linearGradient>
			<path class="st75" d="M235.68,191.51c2.2,1.27,5.06-7.76,6.06-6.18l-0.05,15.46c-0.33,2.78-2.33,5.5-6.01,7.62
				c-8.08,4.67-21.18,4.67-29.26,0c-4.04-2.33-6.06-5.39-6.06-8.45c0-1.49,0-13.6,0-13.6C201.36,184.88,227.59,186.85,235.68,191.51
				z"/>
			<linearGradient id="SVGID_67_" gradientUnits="userSpaceOnUse" x1="226.4493" y1="179.159" x2="209.6541" y2="198.85">
				<stop  offset="0" style="stop-color:#5940E7"/>
				<stop  offset="1" style="stop-color:#1BAFF8"/>
			</linearGradient>
			<ellipse class="st76" cx="221.04" cy="185.5" rx="20.69" ry="11.95"/>
			<linearGradient id="SVGID_68_" gradientUnits="userSpaceOnUse" x1="200.3506" y1="185.0363" x2="241.7364" y2="185.0363">
				<stop  offset="0" style="stop-color:#5940E7"/>
				<stop  offset="1" style="stop-color:#1BAFF8"/>
			</linearGradient>
			<ellipse class="st77" cx="221.04" cy="185.04" rx="20.69" ry="11.95"/>
			<linearGradient id="SVGID_69_" gradientUnits="userSpaceOnUse" x1="240.6718" y1="178.3497" x2="205.5369" y2="190.3188">
				<stop  offset="0" style="stop-color:#5940E7"/>
				<stop  offset="1" style="stop-color:#1BAFF8"/>
			</linearGradient>
			<ellipse class="st78" cx="221.04" cy="185.04" rx="15.51" ry="8.95"/>
			<ellipse class="st14" cx="221.04" cy="185.04" rx="10.97" ry="6.33"/>
		</g>
		<g>
			<linearGradient id="SVGID_70_" gradientUnits="userSpaceOnUse" x1="214.3669" y1="186.4682" x2="227.7152" y2="186.4682">
				<stop  offset="0" style="stop-color:#5940E7"/>
				<stop  offset="1" style="stop-color:#1BAFF8"/>
			</linearGradient>
			<path class="st79" d="M216.26,189.09c-0.9-0.54-1.48-1.2-1.74-1.87c-0.1-0.27-0.16-0.55-0.16-0.82l0-0.03
				c0-1,0.67-1.99,2.01-2.73c2.64-1.45,6.86-1.36,9.44,0.2c1.31,0.79,1.94,1.82,1.89,2.82c-0.01,0.28-0.08,0.56-0.2,0.83
				c-0.29,0.67-0.89,1.29-1.81,1.8C223.06,190.74,218.84,190.65,216.26,189.09z"/>
			<linearGradient id="SVGID_71_" gradientUnits="userSpaceOnUse" x1="211.4067" y1="179.8542" x2="230.6757" y2="179.8542">
				<stop  offset="0" style="stop-color:#524CE9"/>
				<stop  offset="1" style="stop-color:#19B0F9"/>
			</linearGradient>
			<path class="st80" d="M214.15,183.64c-1.3-0.79-2.13-1.73-2.51-2.71c-0.15-0.39-0.23-0.79-0.23-1.18l0-0.04
				c0-1.45,0.97-2.88,2.9-3.94c3.81-2.09,9.91-1.96,13.63,0.29c1.89,1.15,2.8,2.63,2.73,4.08c-0.02,0.4-0.11,0.8-0.28,1.19
				c-0.42,0.96-1.29,1.87-2.62,2.6C223.96,186.03,217.86,185.89,214.15,183.64z"/>
			<linearGradient id="SVGID_72_" gradientUnits="userSpaceOnUse" x1="208.4465" y1="173.2401" x2="233.6362" y2="173.2401">
				<stop  offset="0" style="stop-color:#4A57EB"/>
				<stop  offset="1" style="stop-color:#18B2F9"/>
			</linearGradient>
			<path class="st81" d="M212.03,178.19c-1.7-1.03-2.79-2.26-3.28-3.54c-0.2-0.51-0.3-1.03-0.3-1.54l0-0.05
				c0-1.89,1.27-3.76,3.8-5.15c4.98-2.74,12.95-2.57,17.81,0.38c2.48,1.5,3.67,3.43,3.58,5.33c-0.02,0.53-0.15,1.05-0.37,1.56
				c-0.55,1.26-1.69,2.44-3.42,3.4C224.86,181.31,216.89,181.14,212.03,178.19z"/>
			<linearGradient id="SVGID_73_" gradientUnits="userSpaceOnUse" x1="205.4864" y1="166.626" x2="236.5966" y2="166.626">
				<stop  offset="0" style="stop-color:#4363EE"/>
				<stop  offset="1" style="stop-color:#16B3FA"/>
			</linearGradient>
			<path class="st82" d="M209.91,172.74c-2.09-1.27-3.44-2.79-4.05-4.37c-0.24-0.63-0.37-1.27-0.37-1.91l0-0.06
				c0-2.33,1.57-4.65,4.69-6.36c6.15-3.38,16-3.17,22,0.46c3.06,1.85,4.53,4.24,4.42,6.58c-0.03,0.65-0.18,1.29-0.46,1.92
				c-0.67,1.56-2.08,3.02-4.23,4.19C225.76,176.59,215.91,176.38,209.91,172.74z"/>
			<linearGradient id="SVGID_74_" gradientUnits="userSpaceOnUse" x1="202.5262" y1="160.012" x2="239.5571" y2="160.012">
				<stop  offset="0" style="stop-color:#3C6EF0"/>
				<stop  offset="1" style="stop-color:#14B5FB"/>
			</linearGradient>
			<path class="st83" d="M207.79,167.29c-2.49-1.51-4.1-3.32-4.82-5.2c-0.29-0.75-0.44-1.51-0.44-2.27l0-0.08
				c0-2.78,1.87-5.53,5.58-7.57c7.32-4.02,19.04-3.78,26.19,0.55c3.64,2.2,5.39,5.05,5.26,7.83c-0.04,0.77-0.22,1.54-0.54,2.29
				c-0.8,1.85-2.48,3.59-5.03,4.99C226.66,171.87,214.93,171.62,207.79,167.29z"/>
			<linearGradient id="SVGID_75_" gradientUnits="userSpaceOnUse" x1="199.566" y1="153.3979" x2="242.5175" y2="153.3979">
				<stop  offset="0" style="stop-color:#357AF2"/>
				<stop  offset="1" style="stop-color:#13B6FB"/>
			</linearGradient>
			<path class="st84" d="M205.67,161.84c-2.89-1.75-4.76-3.85-5.59-6.03c-0.33-0.87-0.51-1.75-0.52-2.63l0-0.09
				c0-3.22,2.16-6.41,6.47-8.78c8.49-4.67,22.09-4.38,30.37,0.64c4.22,2.56,6.25,5.85,6.1,9.09c-0.04,0.9-0.25,1.79-0.63,2.66
				c-0.93,2.15-2.88,4.16-5.84,5.79C227.55,167.15,213.95,166.86,205.67,161.84z"/>
			<linearGradient id="SVGID_76_" gradientUnits="userSpaceOnUse" x1="196.6059" y1="146.7838" x2="245.478" y2="146.7838">
				<stop  offset="0" style="stop-color:#2D85F4"/>
				<stop  offset="1" style="stop-color:#11B8FC"/>
			</linearGradient>
			<path class="st85" d="M203.55,156.39c-3.29-1.99-5.41-4.38-6.36-6.86c-0.38-0.99-0.58-2-0.59-3l0-0.1c0-3.67,2.46-7.3,7.37-9.99
				c9.66-5.31,25.13-4.98,34.56,0.73c4.8,2.91,7.11,6.66,6.94,10.34c-0.05,1.02-0.29,2.03-0.72,3.02c-1.06,2.45-3.27,4.74-6.64,6.59
				C228.45,162.43,212.98,162.1,203.55,156.39z"/>
			<linearGradient id="SVGID_77_" gradientUnits="userSpaceOnUse" x1="193.6457" y1="140.1698" x2="248.4384" y2="140.1698">
				<stop  offset="0" style="stop-color:#2691F6"/>
				<stop  offset="1" style="stop-color:#10B9FC"/>
			</linearGradient>
			<path class="st86" d="M201.44,150.95c-3.69-2.23-6.07-4.91-7.13-7.69c-0.43-1.11-0.65-2.24-0.66-3.36l0-0.11
				c0-4.11,2.76-8.18,8.26-11.2c10.83-5.95,28.18-5.59,38.75,0.82c5.38,3.26,7.97,7.47,7.78,11.59c-0.05,1.14-0.32,2.28-0.8,3.39
				c-1.19,2.74-3.67,5.31-7.45,7.39C229.35,157.72,212,157.35,201.44,150.95z"/>
			<linearGradient id="SVGID_78_" gradientUnits="userSpaceOnUse" x1="190.6855" y1="133.5557" x2="251.3989" y2="133.5557">
				<stop  offset="0" style="stop-color:#1F9CF8"/>
				<stop  offset="1" style="stop-color:#0EBBFD"/>
			</linearGradient>
			<path class="st87" d="M199.32,145.5c-4.09-2.48-6.72-5.44-7.9-8.53c-0.47-1.23-0.72-2.48-0.73-3.72l0-0.12
				c0-4.56,3.06-9.07,9.15-12.41c12-6.6,31.22-6.19,42.93,0.9c5.97,3.61,8.83,8.27,8.62,12.85c-0.06,1.27-0.36,2.53-0.89,3.75
				c-1.32,3.04-4.07,5.88-8.25,8.19C230.25,153,211.02,152.59,199.32,145.5z"/>
			<linearGradient id="SVGID_79_" gradientUnits="userSpaceOnUse" x1="187.7254" y1="126.9416" x2="254.3593" y2="126.9416">
				<stop  offset="0" style="stop-color:#18A8FB"/>
				<stop  offset="1" style="stop-color:#0CBCFE"/>
			</linearGradient>
			<path class="st88" d="M197.2,140.05c-4.48-2.72-7.38-5.97-8.67-9.36c-0.52-1.35-0.79-2.72-0.8-4.09l0-0.14
				c0-5,3.36-9.95,10.04-13.62c13.17-7.24,34.27-6.79,47.12,0.99c6.55,3.97,9.7,9.08,9.46,14.1c-0.06,1.39-0.39,2.77-0.98,4.12
				c-1.44,3.34-4.46,6.46-9.06,8.98C231.14,148.28,210.05,147.83,197.2,140.05z"/>
			<linearGradient id="SVGID_80_" gradientUnits="userSpaceOnUse" x1="184.7652" y1="120.3275" x2="257.3198" y2="120.3275">
				<stop  offset="0" style="stop-color:#10B3FD"/>
				<stop  offset="1" style="stop-color:#0BBEFE"/>
			</linearGradient>
			<path class="st89" d="M195.08,134.6c-4.88-2.96-8.03-6.5-9.44-10.19c-0.56-1.47-0.86-2.96-0.87-4.45l0-0.15
				c0-5.44,3.65-10.83,10.94-14.83c14.34-7.88,37.31-7.4,51.31,1.08c7.13,4.32,10.56,9.89,10.3,15.35
				c-0.07,1.52-0.43,3.02-1.06,4.49c-1.57,3.63-4.86,7.03-9.86,9.78C232.04,143.56,209.07,143.07,195.08,134.6z"/>
			<path class="st53" d="M192.96,129.15c-5.28-3.2-8.69-7.03-10.22-11.02c-0.61-1.59-0.93-3.2-0.94-4.81l0-0.16
				c0-5.89,3.95-11.72,11.83-16.04c15.51-8.53,40.36-8,55.49,1.17c7.71,4.67,11.42,10.7,11.14,16.6c-0.07,1.64-0.46,3.27-1.15,4.85
				c-1.7,3.93-5.26,7.61-10.67,10.58C232.94,138.84,208.09,138.31,192.96,129.15z"/>
		</g>
	</g>
	<g>
		<g>
			<ellipse class="st8" cx="449.78" cy="257.82" rx="24.82" ry="14.33"/>
			<linearGradient id="SVGID_81_" gradientUnits="userSpaceOnUse" x1="490.7064" y1="250.7218" x2="413.8613" y2="250.7218">
				<stop  offset="0.1459" style="stop-color:#09BFFF"/>
				<stop  offset="0.1682" style="stop-color:#16ABFB"/>
				<stop  offset="0.238" style="stop-color:#3A72F0"/>
				<stop  offset="0.2898" style="stop-color:#504EEA"/>
				<stop  offset="0.3173" style="stop-color:#5940E7"/>
				<stop  offset="0.4348" style="stop-color:#524CE9"/>
				<stop  offset="0.6493" style="stop-color:#406DEE"/>
				<stop  offset="0.9348" style="stop-color:#22A2F6"/>
				<stop  offset="1" style="stop-color:#1BAFF8"/>
			</linearGradient>
			<path class="st90" d="M467.33,242.31c2.64,1.52,6.07-9.31,7.27-7.42l-0.06,18.54c-0.4,3.33-2.8,6.6-7.21,9.14
				c-9.69,5.6-25.4,5.6-35.1,0c-4.85-2.8-7.27-6.46-7.27-10.13c0-1.78,0-16.3,0-16.3C426.18,234.36,457.64,236.72,467.33,242.31z"/>
			<linearGradient id="SVGID_82_" gradientUnits="userSpaceOnUse" x1="456.2669" y1="227.4941" x2="436.1243" y2="251.1095">
				<stop  offset="0" style="stop-color:#5940E7"/>
				<stop  offset="1" style="stop-color:#1BAFF8"/>
			</linearGradient>
			<ellipse class="st91" cx="449.78" cy="235.1" rx="24.82" ry="14.33"/>
			<linearGradient id="SVGID_83_" gradientUnits="userSpaceOnUse" x1="424.9666" y1="234.5427" x2="474.6007" y2="234.5427">
				<stop  offset="0" style="stop-color:#5940E7"/>
				<stop  offset="1" style="stop-color:#1BAFF8"/>
			</linearGradient>
			<ellipse class="st92" cx="449.78" cy="234.54" rx="24.82" ry="14.33"/>
			<linearGradient id="SVGID_84_" gradientUnits="userSpaceOnUse" x1="473.3239" y1="226.5235" x2="431.1866" y2="240.878">
				<stop  offset="0" style="stop-color:#5940E7"/>
				<stop  offset="1" style="stop-color:#1BAFF8"/>
			</linearGradient>
			<ellipse class="st93" cx="449.78" cy="234.54" rx="18.6" ry="10.74"/>
			<ellipse class="st14" cx="449.78" cy="234.54" rx="13.15" ry="7.59"/>
		</g>
		<g>
			<linearGradient id="SVGID_85_" gradientUnits="userSpaceOnUse" x1="441.7764" y1="236.26" x2="457.7851" y2="236.26">
				<stop  offset="0" style="stop-color:#5940E7"/>
				<stop  offset="1" style="stop-color:#1BAFF8"/>
			</linearGradient>
			<path class="st94" d="M444.05,239.41c-1.08-0.65-1.77-1.43-2.08-2.25c-0.12-0.32-0.19-0.65-0.19-0.98l0-0.03
				c0-1.2,0.81-2.39,2.41-3.27c3.16-1.74,8.23-1.63,11.32,0.24c1.57,0.95,2.33,2.18,2.27,3.39c-0.02,0.33-0.09,0.67-0.23,0.99
				c-0.35,0.8-1.07,1.55-2.18,2.16C452.21,241.39,447.14,241.28,444.05,239.41z"/>
			<linearGradient id="SVGID_86_" gradientUnits="userSpaceOnUse" x1="438.2263" y1="228.3277" x2="461.3356" y2="228.3277">
				<stop  offset="0" style="stop-color:#524CE9"/>
				<stop  offset="1" style="stop-color:#19B0F9"/>
			</linearGradient>
			<path class="st95" d="M441.51,232.87c-1.56-0.94-2.56-2.07-3.01-3.25c-0.18-0.47-0.27-0.94-0.28-1.42l0-0.05
				c0-1.73,1.16-3.45,3.48-4.72c4.57-2.51,11.88-2.36,16.34,0.34c2.27,1.38,3.36,3.15,3.28,4.89c-0.02,0.48-0.14,0.96-0.34,1.43
				c-0.5,1.16-1.55,2.24-3.14,3.12C453.28,235.73,445.97,235.57,441.51,232.87z"/>
			<linearGradient id="SVGID_87_" gradientUnits="userSpaceOnUse" x1="434.6761" y1="220.3955" x2="464.886" y2="220.3955">
				<stop  offset="0" style="stop-color:#4A57EB"/>
				<stop  offset="1" style="stop-color:#18B2F9"/>
			</linearGradient>
			<path class="st96" d="M438.97,226.34c-2.03-1.23-3.34-2.71-3.93-4.24c-0.23-0.61-0.36-1.23-0.36-1.85l0-0.06
				c0-2.27,1.52-4.51,4.55-6.18c5.97-3.28,15.54-3.08,21.36,0.45c2.97,1.8,4.4,4.12,4.29,6.39c-0.03,0.63-0.18,1.26-0.44,1.87
				c-0.65,1.51-2.02,2.93-4.11,4.07C454.36,230.07,444.8,229.87,438.97,226.34z"/>
			<linearGradient id="SVGID_88_" gradientUnits="userSpaceOnUse" x1="431.126" y1="212.4632" x2="468.4365" y2="212.4632">
				<stop  offset="0" style="stop-color:#4363EE"/>
				<stop  offset="1" style="stop-color:#16B3FA"/>
			</linearGradient>
			<path class="st97" d="M436.43,219.8c-2.51-1.52-4.13-3.34-4.86-5.24c-0.29-0.76-0.44-1.52-0.45-2.29l0-0.08
				c0-2.8,1.88-5.57,5.62-7.63c7.37-4.05,19.19-3.8,26.38,0.56c3.67,2.22,5.43,5.09,5.3,7.89c-0.04,0.78-0.22,1.55-0.55,2.31
				c-0.81,1.87-2.5,3.62-5.07,5.03C455.44,224.41,443.63,224.16,436.43,219.8z"/>
			<linearGradient id="SVGID_89_" gradientUnits="userSpaceOnUse" x1="427.5758" y1="204.5309" x2="471.987" y2="204.5309">
				<stop  offset="0" style="stop-color:#3C6EF0"/>
				<stop  offset="1" style="stop-color:#14B5FB"/>
			</linearGradient>
			<path class="st98" d="M433.89,213.26c-2.99-1.81-4.92-3.98-5.78-6.24c-0.34-0.9-0.52-1.81-0.53-2.72l0-0.09
				c0-3.33,2.24-6.63,6.69-9.08c8.78-4.83,22.84-4.53,31.41,0.66c4.36,2.64,6.46,6.05,6.3,9.4c-0.04,0.93-0.26,1.85-0.65,2.75
				c-0.96,2.22-2.97,4.3-6.04,5.99C456.51,218.75,442.45,218.45,433.89,213.26z"/>
			<linearGradient id="SVGID_90_" gradientUnits="userSpaceOnUse" x1="424.0257" y1="196.5987" x2="475.5375" y2="196.5987">
				<stop  offset="0" style="stop-color:#357AF2"/>
				<stop  offset="1" style="stop-color:#13B6FB"/>
			</linearGradient>
			<path class="st99" d="M431.35,206.73c-3.47-2.1-5.7-4.61-6.71-7.23c-0.4-1.04-0.61-2.1-0.62-3.16l0-0.1
				c0-3.86,2.59-7.69,7.76-10.53c10.18-5.6,26.49-5.25,36.43,0.77c5.06,3.07,7.5,7.02,7.31,10.9c-0.05,1.08-0.3,2.14-0.76,3.19
				c-1.12,2.58-3.45,4.99-7,6.95C457.59,213.1,441.28,212.75,431.35,206.73z"/>
			<linearGradient id="SVGID_91_" gradientUnits="userSpaceOnUse" x1="420.4756" y1="188.6664" x2="479.088" y2="188.6664">
				<stop  offset="0" style="stop-color:#2D85F4"/>
				<stop  offset="1" style="stop-color:#11B8FC"/>
			</linearGradient>
			<path class="st100" d="M428.81,200.19c-3.94-2.39-6.49-5.25-7.63-8.23c-0.46-1.19-0.69-2.39-0.7-3.59l0-0.12
				c0-4.4,2.95-8.75,8.83-11.98c11.58-6.37,30.14-5.98,41.45,0.87c5.76,3.49,8.53,7.99,8.32,12.4c-0.06,1.22-0.34,2.44-0.86,3.62
				c-1.27,2.93-3.93,5.68-7.97,7.9C458.67,207.44,440.11,207.04,428.81,200.19z"/>
			<linearGradient id="SVGID_92_" gradientUnits="userSpaceOnUse" x1="416.9254" y1="180.7341" x2="482.6385" y2="180.7341">
				<stop  offset="0" style="stop-color:#2691F6"/>
				<stop  offset="1" style="stop-color:#10B9FC"/>
			</linearGradient>
			<path class="st101" d="M426.27,193.66c-4.42-2.68-7.28-5.89-8.55-9.23c-0.51-1.33-0.78-2.68-0.79-4.03l0-0.13
				c0-4.93,3.31-9.81,9.9-13.43c12.99-7.14,33.79-6.7,46.47,0.98c6.46,3.91,9.56,8.96,9.33,13.9c-0.06,1.37-0.39,2.73-0.96,4.06
				c-1.42,3.29-4.4,6.37-8.93,8.86C459.74,201.78,438.94,201.33,426.27,193.66z"/>
			<linearGradient id="SVGID_93_" gradientUnits="userSpaceOnUse" x1="413.3753" y1="172.8018" x2="486.1889" y2="172.8018">
				<stop  offset="0" style="stop-color:#1F9CF8"/>
				<stop  offset="1" style="stop-color:#0EBBFD"/>
			</linearGradient>
			<path class="st102" d="M423.73,187.12c-4.9-2.97-8.06-6.52-9.48-10.23c-0.57-1.48-0.86-2.97-0.87-4.46l0-0.15
				c0-5.46,3.67-10.87,10.97-14.89c14.39-7.91,37.44-7.42,51.49,1.09c7.16,4.34,10.59,9.92,10.33,15.41
				c-0.07,1.52-0.43,3.03-1.07,4.5c-1.58,3.65-4.88,7.06-9.9,9.82C460.82,196.12,437.77,195.63,423.73,187.12z"/>
			<linearGradient id="SVGID_94_" gradientUnits="userSpaceOnUse" x1="409.8252" y1="164.8696" x2="489.7394" y2="164.8696">
				<stop  offset="0" style="stop-color:#18A8FB"/>
				<stop  offset="1" style="stop-color:#0CBCFE"/>
			</linearGradient>
			<path class="st103" d="M421.19,180.59c-5.38-3.26-8.85-7.16-10.4-11.22c-0.62-1.62-0.94-3.26-0.96-4.9l0-0.16
				c0-6,4.02-11.93,12.05-16.34c15.79-8.68,41.1-8.15,56.51,1.19c7.85,4.76,11.63,10.89,11.34,16.91c-0.08,1.67-0.47,3.33-1.17,4.94
				c-1.73,4-5.35,7.75-10.86,10.78C461.9,190.46,436.6,189.92,421.19,180.59z"/>
			<linearGradient id="SVGID_95_" gradientUnits="userSpaceOnUse" x1="406.275" y1="156.9373" x2="493.2899" y2="156.9373">
				<stop  offset="0" style="stop-color:#10B3FD"/>
				<stop  offset="1" style="stop-color:#0BBEFE"/>
			</linearGradient>
			<path class="st104" d="M418.65,174.05c-5.86-3.55-9.63-7.79-11.33-12.22c-0.68-1.76-1.03-3.55-1.04-5.34l0-0.18
				c0-6.53,4.38-12.99,13.12-17.79c17.2-9.45,44.75-8.87,61.53,1.3c8.55,5.18,12.66,11.86,12.35,18.41
				c-0.08,1.82-0.51,3.62-1.28,5.38c-1.89,4.36-5.83,8.43-11.83,11.73C462.97,184.8,435.43,184.21,418.65,174.05z"/>
			<path class="st53" d="M416.11,167.51c-6.33-3.84-10.42-8.43-12.25-13.22c-0.73-1.91-1.11-3.84-1.13-5.77l0-0.19
				c0-7.06,4.74-14.05,14.19-19.24c18.6-10.23,48.4-9.6,66.55,1.4c9.25,5.6,13.69,12.83,13.36,19.91c-0.09,1.97-0.55,3.92-1.38,5.82
				c-2.04,4.71-6.3,9.12-12.79,12.69C464.05,179.15,434.25,178.51,416.11,167.51z"/>
		</g>
		<g>
			<g>
				<path class="st54" d="M434.74,195.22c-3.42-1.26-5.83-3.1-7.17-5.25c-0.53-0.85-0.9-1.76-1.09-2.69l-0.02-0.09
					c-0.66-3.42,0.98-7.24,5.06-10.64c8.04-6.69,22.51-9.18,32.33-5.56c5,1.84,7.83,4.92,8.33,8.38c0.14,0.96,0.1,1.95-0.12,2.95
					c-0.55,2.47-2.19,5-5,7.34C459.03,196.35,444.55,198.84,434.74,195.22z"/>
				<path class="st55" d="M438.68,191.94c-2.5-0.92-4.25-2.26-5.23-3.83c-0.39-0.62-0.65-1.28-0.79-1.96l-0.01-0.07
					c-0.48-2.49,0.71-5.28,3.69-7.76c5.86-4.88,16.42-6.7,23.58-4.06c3.65,1.34,5.71,3.59,6.08,6.11c0.1,0.7,0.07,1.42-0.09,2.15
					c-0.4,1.8-1.6,3.65-3.65,5.35C456.39,192.77,445.84,194.58,438.68,191.94z"/>
				<path class="st56" d="M439.16,192.12c-2.44-0.9-4.16-2.21-5.11-3.74c-0.38-0.61-0.64-1.25-0.78-1.91l-0.01-0.07
					c-0.47-2.43,0.7-5.16,3.61-7.58c5.73-4.77,16.05-6.54,23.04-3.96c3.56,1.31,5.58,3.51,5.94,5.97c0.1,0.68,0.07,1.39-0.09,2.1
					c-0.39,1.76-1.56,3.57-3.56,5.23C456.47,192.93,446.15,194.7,439.16,192.12z"/>
				<path class="st57" d="M435.78,201.3c-4.67-1.72-7.45-4.52-8.2-7.7l0-0.02l-0.16-0.9l-0.94-5.39c0.19,0.93,0.56,1.83,1.09,2.69
					c1.33,2.14,3.74,3.98,7.17,5.25c9.81,3.62,24.28,1.13,32.32-5.56c2.81-2.33,4.45-4.87,5-7.34c0.22-1,0.26-1.99,0.12-2.95
					l0.83,5.07l0,0.01l0.28,1.75c0.15,3.12-1.54,6.5-5.19,9.54C460.07,202.43,445.6,204.92,435.78,201.3z"/>
			</g>
			<g>
				<path class="st58" d="M451.92,173.75c8.71-0.14,14.66,4.04,13.27,9.38c-1.39,5.36-9.66,9.84-18.45,9.97
					c-8.78,0.13-14.68-4.12-13.21-9.47C435,178.3,443.22,173.89,451.92,173.75z"/>
				<path class="st59" d="M452.03,180.23c0,0,0.75-1.17-1.78-2.04c-2.6-0.93-5.47,1.06-6.25,1.65l-3.15-1.17l-1.5,1.25l3.14,1.17
					l-1.08,0.9l-3.14-1.17l-1.51,1.26l3.14,1.17l-2.86,2.38l1.79,0.66c0,0,0.45-0.37,1.11-0.93c0.66-0.56,1.43-0.33,1.43-0.33
					s7.65,2.84,8.03,3c0.39,0.16,0.11,0.41,0.11,0.41l-1.26,1.06l1.9,1.16l2.95-2.48l3,1.12l1.51-1.27l-3-1.12l1.08-0.9l3,1.12
					l1.5-1.26l-3-1.11c0.08-0.07,0.24-0.21,0.57-0.5c2.31-2.14,1.87-3.7-0.66-4.64C454.59,178.67,452.03,180.23,452.03,180.23z
					 M443.4,182.73l1.46-1.22c0,0,1.95-1.5,3.59-0.89c1.64,0.61-0.22,2.29-0.22,2.29l-1.34,1.12L443.4,182.73z M454.11,184.76
					l-1.62,1.36l-3.85-1.44l1.76-1.48c0,0,2.34-1.82,4.15-1.14C456.36,182.73,454.11,184.76,454.11,184.76z"/>
			</g>
		</g>
	</g>
	<g>
		<polygon class="st14" points="231.45,121.89 255.45,135.75 255.45,108.03 231.45,94.17 		"/>
		<g>
			<path class="st54" d="M250.47,118.14l-8.17-4.72c-0.2-0.12-0.36-0.43-0.36-0.69l0,0c0-0.27,0.16-0.39,0.36-0.27l8.17,4.72
				c0.2,0.12,0.36,0.43,0.36,0.69l0,0C250.83,118.14,250.67,118.26,250.47,118.14z"/>
			<path class="st54" d="M250.47,120.09l-8.17-4.72c-0.2-0.12-0.36-0.43-0.36-0.69l0,0c0-0.27,0.16-0.39,0.36-0.27l8.17,4.72
				c0.2,0.12,0.36,0.43,0.36,0.69l0,0C250.83,120.09,250.67,120.21,250.47,120.09z"/>
			<path class="st54" d="M250.47,122.04l-8.17-4.72c-0.2-0.12-0.36-0.43-0.36-0.69l0,0c0-0.27,0.16-0.39,0.36-0.27l8.17,4.72
				c0.2,0.12,0.36,0.43,0.36,0.69l0,0C250.83,122.04,250.67,122.16,250.47,122.04z"/>
			<path class="st54" d="M250.47,123.99l-8.17-4.72c-0.2-0.12-0.36-0.43-0.36-0.69l0,0c0-0.27,0.16-0.39,0.36-0.27l8.17,4.72
				c0.2,0.12,0.36,0.43,0.36,0.69l0,0C250.83,123.99,250.67,124.11,250.47,123.99z"/>
			<path class="st54" d="M250.47,128.51l-8.17-4.72c-0.2-0.12-0.36-0.43-0.36-0.69l0,0c0-0.27,0.16-0.39,0.36-0.27l8.17,4.72
				c0.2,0.12,0.36,0.43,0.36,0.69l0,0C250.83,128.5,250.67,128.62,250.47,128.51z"/>
			<path class="st54" d="M250.47,130.46l-8.17-4.72c-0.2-0.12-0.36-0.43-0.36-0.69l0,0c0-0.27,0.16-0.39,0.36-0.27l8.17,4.72
				c0.2,0.12,0.36,0.43,0.36,0.69l0,0C250.83,130.45,250.67,130.57,250.47,130.46z"/>
		</g>
		<g>
			<path class="st105" d="M236.69,102.38c1.27,0.74,2.31,2.52,2.31,3.99c0,0.02,0,0.04,0,0.05l0.78,0.45c0-0.02,0-0.04,0-0.05
				c0-1.97-1.38-4.36-3.09-5.35c-0.01,0-0.01-0.01-0.02-0.01v0.9C236.67,102.37,236.68,102.37,236.69,102.38z"/>
			
				<radialGradient id="SVGID_96_" cx="175.8335" cy="354.8676" r="16.2605" gradientTransform="matrix(0.866 0.5 0 1 89.4932 -333.9925)" gradientUnits="userSpaceOnUse">
				<stop  offset="0" style="stop-color:#1BAFF8"/>
				<stop  offset="1" style="stop-color:#5940E7"/>
			</radialGradient>
			<path class="st106" d="M238.99,106.43c-0.03,1.43-1.05,2-2.31,1.28c-1.27-0.74-2.31-2.52-2.31-4c0-1.46,1.02-2.06,2.28-1.34v-0.9
				c-1.7-0.97-3.07-0.17-3.07,1.8c0,1.97,1.38,4.36,3.09,5.35c1.69,0.98,3.06,0.2,3.09-1.73L238.99,106.43z"/>
		</g>
		<g>
			<path class="st105" d="M236.34,111.22c0.85,0.49,1.54,1.68,1.54,2.66c0,0.01,0,0.02,0,0.04l0.52,0.3c0-0.01,0-0.02,0-0.04
				c0-1.31-0.92-2.91-2.06-3.56c0,0-0.01-0.01-0.01-0.01v0.6C236.33,111.22,236.34,111.22,236.34,111.22z"/>
			
				<radialGradient id="SVGID_97_" cx="173.4788" cy="362.7504" r="10.8355" gradientTransform="matrix(0.866 0.5 0 1 89.4932 -333.9925)" gradientUnits="userSpaceOnUse">
				<stop  offset="0" style="stop-color:#1BAFF8"/>
				<stop  offset="1" style="stop-color:#5940E7"/>
			</radialGradient>
			<path class="st107" d="M237.88,113.92c-0.02,0.95-0.7,1.33-1.54,0.85c-0.85-0.49-1.54-1.68-1.54-2.66c0-0.97,0.68-1.37,1.52-0.9
				v-0.6c-1.13-0.64-2.04-0.11-2.04,1.2c0,1.31,0.92,2.91,2.06,3.56c1.13,0.65,2.04,0.13,2.06-1.15L237.88,113.92z"/>
		</g>
		<g>
			<linearGradient id="SVGID_98_" gradientUnits="userSpaceOnUse" x1="192.5697" y1="158.871" x2="259.5798" y2="211.7927">
				<stop  offset="0" style="stop-color:#7D57C4"/>
				<stop  offset="0.0766" style="stop-color:#8B6CCD;stop-opacity:0.9104"/>
				<stop  offset="0.2527" style="stop-color:#A898DE;stop-opacity:0.7044"/>
				<stop  offset="0.4232" style="stop-color:#BFBAEC;stop-opacity:0.5049"/>
				<stop  offset="0.5843" style="stop-color:#D0D2F6;stop-opacity:0.3164"/>
				<stop  offset="0.7323" style="stop-color:#DAE1FC;stop-opacity:0.1433"/>
				<stop  offset="0.8547" style="stop-color:#DDE6FE;stop-opacity:0"/>
			</linearGradient>
			<ellipse class="st108" cx="219.56" cy="180.19" rx="21.84" ry="12.61"/>
			<linearGradient id="SVGID_99_" gradientUnits="userSpaceOnUse" x1="199.2246" y1="164.1267" x2="249.7147" y2="204.0016">
				<stop  offset="0" style="stop-color:#7D57C4"/>
				<stop  offset="0.0766" style="stop-color:#8B6CCD;stop-opacity:0.9104"/>
				<stop  offset="0.2527" style="stop-color:#A898DE;stop-opacity:0.7044"/>
				<stop  offset="0.4232" style="stop-color:#BFBAEC;stop-opacity:0.5049"/>
				<stop  offset="0.5843" style="stop-color:#D0D2F6;stop-opacity:0.3164"/>
				<stop  offset="0.7323" style="stop-color:#DAE1FC;stop-opacity:0.1433"/>
				<stop  offset="0.8547" style="stop-color:#DDE6FE;stop-opacity:0"/>
			</linearGradient>
			<ellipse class="st109" cx="219.56" cy="180.19" rx="16.45" ry="9.5"/>
			<linearGradient id="SVGID_100_" gradientUnits="userSpaceOnUse" x1="204.8387" y1="168.5605" x2="241.3924" y2="197.4291">
				<stop  offset="0" style="stop-color:#7D57C4"/>
				<stop  offset="0.0766" style="stop-color:#8B6CCD;stop-opacity:0.9104"/>
				<stop  offset="0.2527" style="stop-color:#A898DE;stop-opacity:0.7044"/>
				<stop  offset="0.4232" style="stop-color:#BFBAEC;stop-opacity:0.5049"/>
				<stop  offset="0.5843" style="stop-color:#D0D2F6;stop-opacity:0.3164"/>
				<stop  offset="0.7323" style="stop-color:#DAE1FC;stop-opacity:0.1433"/>
				<stop  offset="0.8547" style="stop-color:#DDE6FE;stop-opacity:0"/>
			</linearGradient>
			<ellipse class="st110" cx="219.56" cy="180.19" rx="11.91" ry="6.88"/>
			<g>
				<g>
					<path class="st111" d="M235.82,121.34c-0.66,0.66-0.19,1.32,0.02,1.98c0.06-0.24,0.03-0.49,0.04-0.74
						c0.02-0.28,0.13-0.6,0.4-0.69c0.16-0.06,0.34-0.02,0.51-0.06c0.2-0.05,0.32-0.19,0.43-0.36
						C236.86,121.12,236.44,121.03,235.82,121.34z"/>
					<path class="st112" d="M237.79,120.27c0.01-0.12-0.04-0.24-0.09-0.34c-0.19-0.37-0.5-0.67-0.87-0.85
						c-0.19-0.09-0.41-0.18-0.47-0.37c-0.1-0.32,0.28-0.56,0.6-0.65c0.32-0.09,0.72-0.26,0.7-0.59c-0.53-0.25-1.19,0-1.6,0.42
						c-0.41,0.42-0.64,0.98-0.91,1.5c-0.3,0.59-0.41,1.67-0.63,2.3c-0.2,0.58-0.62,1.14-0.34,1.74c0.31,0.66,1.35,0.74,1.62,0
						c0.01-0.03,0.02-0.07,0.02-0.1c-0.21-0.66-0.68-1.32-0.02-1.98c0.62-0.31,1.04-0.22,1.39,0.14c0.13-0.23,0.22-0.51,0.36-0.74
						C237.66,120.59,237.78,120.45,237.79,120.27z"/>
				</g>
				<path class="st8" d="M220.74,180.55c-0.15,0.4-0.65,2.8,0.56,3.24s2.11-0.03,3.06-0.97c0.11-0.1-0.34-0.25-0.17-0.32
					c1.74-0.69,3.36-2.81,3.36-3.28c0-0.53,0.13-0.96-1-0.96s-3.23,1.7-3.23,1.7l-1.87-0.54
					C221.46,179.42,220.89,180.14,220.74,180.55z"/>
				<path class="st8" d="M213.72,177.13c0,0-0.19,1.01-0.01,1.97c0.09,0.47-0.02,0.91,0.34,1.17c0.33,0.24,0.99,0.35,1.73,0.35
					c0.88,0,1.13-0.58,1.49-1.13c0.08-0.12-0.29-0.34-0.18-0.42c0.41-0.27,1.12-0.75,1.33-1.01c0.69-0.86,1.33-2.04,1.23-2.74
					s-0.82-0.87-1.22-0.87c-0.4,0-3.27,2.3-3.27,2.3L213.72,177.13z"/>
				
					<linearGradient id="SVGID_101_" gradientUnits="userSpaceOnUse" x1="572.8433" y1="158.4616" x2="580.2557" y2="158.4616" gradientTransform="matrix(1 0 0 1 -360.6917 0)">
					<stop  offset="0" style="stop-color:#AA00BE"/>
					<stop  offset="0.1539" style="stop-color:#9001AF"/>
					<stop  offset="0.3923" style="stop-color:#6E039A"/>
					<stop  offset="0.6191" style="stop-color:#56058C"/>
					<stop  offset="0.8275" style="stop-color:#470683"/>
					<stop  offset="1" style="stop-color:#420680"/>
				</linearGradient>
				<path class="st113" d="M213.87,177.5c0.89,1.29,2.96,1.05,3.25-0.52c1.04-5.63,1.72-15.46,1.77-23.56
					c0.04-5.72,0.78-11.83,0.65-13.26c-2.16-1.24-5.82-2.11-6.27-1.19c-2.83,5.69,0.61,7.28,0.43,9.82
					C213.52,151.34,213.87,177.5,213.87,177.5z"/>
				
					<linearGradient id="SVGID_102_" gradientUnits="userSpaceOnUse" x1="576.7285" y1="160.1144" x2="586.4863" y2="160.1144" gradientTransform="matrix(1 0 0 1 -360.6917 0)">
					<stop  offset="0" style="stop-color:#AA00BE"/>
					<stop  offset="0.1539" style="stop-color:#9001AF"/>
					<stop  offset="0.3923" style="stop-color:#6E039A"/>
					<stop  offset="0.6191" style="stop-color:#56058C"/>
					<stop  offset="0.8275" style="stop-color:#470683"/>
					<stop  offset="1" style="stop-color:#420680"/>
				</linearGradient>
				<path class="st114" d="M224.75,139.48c1.29,0.72,1.27,9.89,0.56,16.27c-0.71,6.37-0.75,24.17-1.39,24.71
					c-0.63,0.54-2.67,1.25-3,0.42c-0.34-0.82-1.09-28.01-2.05-29.49c-3.8-6.63-2.9-8.69-2.21-10.77
					C217.35,138.54,223.46,138.76,224.75,139.48z"/>
				<path class="st115" d="M223.13,106.88c0,0,0.73,5.87-0.19,6.49c-0.93,0.62-4.23,0.65-5.16-0.66c-0.93-1.31-2.9-5.6-0.72-7.12
					S222.14,103.86,223.13,106.88z"/>
				
					<linearGradient id="SVGID_103_" gradientUnits="userSpaceOnUse" x1="567.9663" y1="117.417" x2="573.3621" y2="130.9383" gradientTransform="matrix(1 0 0 1 -360.6917 0)">
					<stop  offset="0" style="stop-color:#F6E2F1"/>
					<stop  offset="0.0351" style="stop-color:#F6DDF2"/>
					<stop  offset="0.307" style="stop-color:#F2BBF6"/>
					<stop  offset="0.5657" style="stop-color:#F0A3F9"/>
					<stop  offset="0.8033" style="stop-color:#EE94FB"/>
					<stop  offset="1" style="stop-color:#EE8FFC"/>
				</linearGradient>
				<path class="st116" d="M214.07,138.53c-0.61-0.25-6.4-5.44-6.7-6.14c-0.3-0.69-0.27-12.49,4.96-15.57
					c1.03-0.6,1.03,1.84,0.59,4.65c-0.42,2.72-3.27,8.84-2.83,9.68c0.44,0.84,4.57,5.17,5.17,6.11
					C215.64,137.84,214.68,138.78,214.07,138.53z"/>
				
					<linearGradient id="SVGID_104_" gradientUnits="userSpaceOnUse" x1="567.6204" y1="127.1257" x2="583.3251" y2="127.7685" gradientTransform="matrix(1 0 0 1 -360.6917 0)">
					<stop  offset="0" style="stop-color:#F6E2F1"/>
					<stop  offset="0.0351" style="stop-color:#F6DDF2"/>
					<stop  offset="0.307" style="stop-color:#F2BBF6"/>
					<stop  offset="0.5657" style="stop-color:#F0A3F9"/>
					<stop  offset="0.8033" style="stop-color:#EE94FB"/>
					<stop  offset="1" style="stop-color:#EE8FFC"/>
				</linearGradient>
				<path class="st117" d="M224.03,129.01c1.26-5.9,3.23-10.42,0.23-11.44c-0.21-0.07-0.41-0.13-0.61-0.2
					c-1.6,4.5-4.27,8.61-2.82,13.67c1.13,2.36,2.58,5.21,4.51,7.29C225.47,135.4,224.03,129.01,224.03,129.01z"/>
				
					<linearGradient id="SVGID_105_" gradientUnits="userSpaceOnUse" x1="571.8513" y1="128.3681" x2="586.037" y2="128.3681" gradientTransform="matrix(1 0 0 1 -360.6917 0)">
					<stop  offset="0" style="stop-color:#F6E2F1"/>
					<stop  offset="0.0351" style="stop-color:#F6DDF2"/>
					<stop  offset="0.307" style="stop-color:#F2BBF6"/>
					<stop  offset="0.5657" style="stop-color:#F0A3F9"/>
					<stop  offset="0.8033" style="stop-color:#EE94FB"/>
					<stop  offset="1" style="stop-color:#EE8FFC"/>
				</linearGradient>
				<path class="st118" d="M223.65,117.36c-2.75-0.88-5.23-1.27-7.21-1.26c-2.13,0.01-4.56-0.28-5.19,2.65
					c-0.63,2.93,2.06,14.45,2.02,20.22c3.52,2.48,9.65,1.71,11.68,0.71c0.24-0.17,0.36-0.67,0.39-1.36
					c-1.93-2.08-3.38-4.93-4.51-7.29C219.38,125.97,222.05,121.87,223.65,117.36z"/>
				
					<linearGradient id="SVGID_106_" gradientUnits="userSpaceOnUse" x1="592.6112" y1="119.3131" x2="583.6647" y2="128.1886" gradientTransform="matrix(1 0 0 1 -360.6917 0)">
					<stop  offset="0" style="stop-color:#F6E2F1"/>
					<stop  offset="0.0351" style="stop-color:#F6DDF2"/>
					<stop  offset="0.307" style="stop-color:#F2BBF6"/>
					<stop  offset="0.5657" style="stop-color:#F0A3F9"/>
					<stop  offset="0.8033" style="stop-color:#EE94FB"/>
					<stop  offset="1" style="stop-color:#EE8FFC"/>
				</linearGradient>
				<path class="st119" d="M223.7,117.45c4.27,0.88,4.57,8.85,6.27,9.28c1.68,0.43,2.8-3.92,4.01-4.39c0.65-0.25,2.22,0.1,1.92,1.75
					c-0.3,1.67-4.09,7.39-6.94,6.44c-1.84-0.61-4.4-4.18-5.67-6.94C221.87,120.49,222.33,117.17,223.7,117.45z"/>
				<path class="st115" d="M216.55,116.8l0.85-5.29l3.85,0.25l-0.46,5.21C220.78,116.97,217.4,119.38,216.55,116.8z"/>
				<path class="st120" d="M214.82,109.65c0,0,0.99,3.52,3.43,3.34c1.57-0.12,2.71-2.39,2.71-2.39l0.49-1.31h0.7l0.62,0.71
					c0,0,0.1-2.9,0.63-2.9c1.15,0.09,0.74-1.36,0.15-2.38c-0.66-1.13-2.86-2.28-4.61-2.28c-1.75,0-4.02,1.52-4.25,3.52
					S214.82,109.65,214.82,109.65z"/>
				
					<linearGradient id="SVGID_107_" gradientUnits="userSpaceOnUse" x1="579.5117" y1="114.7272" x2="579.3845" y2="119.498" gradientTransform="matrix(1 0 0 1 -360.6917 0)">
					<stop  offset="0" style="stop-color:#F6E2F1"/>
					<stop  offset="0.0351" style="stop-color:#F6DDF2"/>
					<stop  offset="0.307" style="stop-color:#F2BBF6"/>
					<stop  offset="0.5657" style="stop-color:#F0A3F9"/>
					<stop  offset="0.8033" style="stop-color:#EE94FB"/>
					<stop  offset="1" style="stop-color:#EE8FFC"/>
				</linearGradient>
				<path class="st121" d="M215.76,116.53c0,0,0.18-1.72,0.78-1.56c0.6,0.16,1.53,2.1,3.67,1.13c1.03-0.67,1.18-0.18,1.18-0.18
					l0.39,0.9c0,0-1.59,0.98-1.71,1.29c-0.34,0.41-2.94,1.19-3.88-0.24C216.19,117.88,215.66,117.13,215.76,116.53z"/>
			</g>
		</g>
		<g>
			<g>
				<g class="st122">
					
						<ellipse transform="matrix(0.866 -0.5 0.5 0.866 -22.389 140.5463)" class="st123" cx="251.07" cy="112.05" rx="1.93" ry="3.34"/>
				</g>
			</g>
			<g>
				<path class="st54" d="M250.83,110.54v1.39c0,0.14,0.1,0.31,0.22,0.38s0.22,0.01,0.22-0.13v-1.39c0-0.14-0.1-0.31-0.22-0.38
					C250.93,110.34,250.83,110.4,250.83,110.54"/>
				<path class="st54" d="M250.15,110.39c-0.35,0.11-0.57,0.48-0.57,1.03c0,0.95,0.67,2.11,1.5,2.59c0.83,0.48,1.5,0.09,1.5-0.86
					c0-0.55-0.23-1.18-0.57-1.69c-0.09-0.14-0.23-0.2-0.31-0.13c-0.07,0.07-0.06,0.23,0.04,0.37c0.25,0.37,0.41,0.81,0.41,1.2
					c0,0.34-0.12,0.57-0.31,0.69c-0.19,0.11-0.46,0.1-0.75-0.07c-0.29-0.17-0.56-0.46-0.75-0.79c-0.19-0.33-0.31-0.71-0.31-1.05
					c0-0.39,0.16-0.65,0.41-0.73c0.09-0.03,0.11-0.18,0.04-0.33C250.38,110.46,250.24,110.36,250.15,110.39L250.15,110.39z"/>
			</g>
		</g>
	</g>
	<g>
		<path class="st105" d="M337.65,70.64c1.29,0.74,2.33,2.55,2.33,4.04c0,0.02,0,0.04,0,0.06l0.79,0.46c0-0.02,0-0.04,0-0.06
			c0-1.99-1.4-4.41-3.12-5.41c-0.01,0-0.01-0.01-0.02-0.01v0.91C337.63,70.63,337.64,70.63,337.65,70.64z"/>
		<path class="st37" d="M339.98,74.73c-0.03,1.45-1.06,2.02-2.33,1.29c-1.29-0.74-2.33-2.55-2.33-4.04c0-1.48,1.03-2.08,2.31-1.36
			v-0.91c-1.71-0.98-3.1-0.17-3.1,1.82c0,1.99,1.4,4.41,3.12,5.41c1.71,0.99,3.1,0.2,3.12-1.75L339.98,74.73z"/>
	</g>
	<g>
		<path class="st105" d="M338.35,84.25c1.64,0.95,2.97,3.25,2.97,5.15c0,0.02,0,0.05,0,0.07l1.01,0.58c0-0.02,0-0.05,0-0.07
			c0-2.54-1.78-5.63-3.98-6.9c-0.01-0.01-0.02-0.01-0.03-0.02v1.16C338.33,84.24,338.34,84.24,338.35,84.25z"/>
		<path class="st37" d="M341.32,89.47c-0.03,1.84-1.35,2.58-2.97,1.65c-1.64-0.95-2.97-3.25-2.97-5.15c0-1.89,1.32-2.65,2.95-1.73
			v-1.16c-2.19-1.24-3.95-0.21-3.95,2.31c0,2.54,1.78,5.63,3.98,6.9c2.18,1.26,3.95,0.26,3.98-2.23L341.32,89.47z"/>
	</g>
	<g>
		<path class="st105" d="M309.46,91.75c1.71,0.99,3.1,3.4,3.1,5.38c0,0.03,0,0.05,0,0.07l1.05,0.61c0-0.02,0-0.05,0-0.07
			c0-2.65-1.86-5.87-4.16-7.2c-0.01-0.01-0.02-0.01-0.03-0.02v1.22C309.44,91.74,309.45,91.75,309.46,91.75z"/>
		<path class="st37" d="M312.56,97.2c-0.03,1.93-1.41,2.69-3.1,1.72c-1.71-0.99-3.1-3.4-3.1-5.38c0-1.97,1.37-2.77,3.08-1.81v-1.22
			c-2.28-1.3-4.13-0.22-4.13,2.42c0,2.65,1.86,5.87,4.16,7.2c2.27,1.31,4.12,0.27,4.15-2.33L312.56,97.2z"/>
	</g>
	<g>
		<g>
			<path class="st37" d="M377.46,91.77c-0.14,0.01-0.28,0.01-0.42,0c-0.14-0.01-0.25-0.18-0.25-0.38c0-0.94,0-1.88,0-2.81
				c0-0.2,0.11-0.37,0.25-0.39c0.14-0.01,0.29-0.03,0.43-0.05c0.14-0.02,0.26,0.13,0.26,0.34c0,0.97-0.01,1.93-0.01,2.9
				C377.71,91.59,377.6,91.77,377.46,91.77z"/>
			<path class="st37" d="M379.15,91.5c-0.12,0.03-0.25,0.06-0.37,0.09c-0.18,0.04-0.31-0.14-0.31-0.39
				c0.01-1.38,0.02-2.76,0.02-4.14c0-0.25,0.14-0.49,0.32-0.55c0.12-0.04,0.25-0.08,0.37-0.13c0.18-0.06,0.32,0.09,0.32,0.34
				c-0.01,1.4-0.02,2.81-0.02,4.21C379.47,91.2,379.33,91.45,379.15,91.5z"/>
			<path class="st37" d="M380.96,90.83c-0.11,0.05-0.22,0.1-0.33,0.15c-0.2,0.09-0.36-0.08-0.36-0.36c0.01-1.71,0.02-3.42,0.03-5.13
				c0-0.28,0.16-0.58,0.36-0.67c0.11-0.05,0.22-0.11,0.32-0.16c0.2-0.1,0.36,0.04,0.36,0.32c-0.01,1.72-0.01,3.44-0.02,5.17
				C381.32,90.43,381.16,90.74,380.96,90.83z"/>
			<path class="st37" d="M382.76,89.84c-0.07,0.04-0.13,0.08-0.2,0.12c-0.24,0.14-0.43-0.02-0.43-0.35c0-2.48,0.01-4.96,0.01-7.44
				c0-0.33,0.19-0.71,0.42-0.86c0.06-0.04,0.13-0.08,0.19-0.12c0.23-0.14,0.42,0,0.42,0.34c0,2.48,0.01,4.95,0.01,7.43
				C383.19,89.3,383,89.69,382.76,89.84z"/>
			<path class="st37" d="M384.56,88.58c-0.03,0.02-0.05,0.04-0.08,0.06c-0.27,0.21-0.48,0.06-0.49-0.32
				c-0.01-3.26-0.02-6.52-0.03-9.78c0-0.38,0.21-0.82,0.47-1c0.03-0.02,0.05-0.03,0.08-0.05c0.26-0.17,0.47-0.02,0.47,0.36
				c0.02,3.22,0.03,6.44,0.05,9.67C385.04,87.89,384.83,88.37,384.56,88.58z"/>
			<path class="st37" d="M386.43,86.98c-0.07,0.06-0.13,0.12-0.2,0.18c-0.22,0.21-0.41,0.11-0.41-0.21
				c-0.02-3.39-0.04-6.78-0.06-10.17c0-0.32,0.18-0.7,0.4-0.86c0.07-0.04,0.13-0.09,0.2-0.13c0.22-0.15,0.41-0.02,0.41,0.29
				c0.02,3.32,0.04,6.63,0.06,9.95C386.83,86.35,386.66,86.77,386.43,86.98z"/>
			<path class="st37" d="M388.1,85.32c-0.02,0.02-0.04,0.05-0.07,0.07c-0.24,0.26-0.45,0.18-0.45-0.18
				c-0.02-4.16-0.03-8.31-0.05-12.47c0-0.36,0.21-0.77,0.47-0.91c0.02-0.01,0.05-0.03,0.07-0.04c0.26-0.15,0.47,0.02,0.47,0.36
				c0,4.02,0,8.05,0,12.07C388.54,84.56,388.35,85.05,388.1,85.32z"/>
		</g>
	</g>
	<path class="st124" d="M355.74,97.76c-2.34-0.15-4.59-0.43-6.66-0.82v1.14c2.07,0.39,4.31,0.68,6.66,0.82
		c0.38,0.02,0.75,0.04,1.13,0.06v-1.14C356.5,97.8,356.12,97.78,355.74,97.76z"/>
	<path class="st124" d="M355.74,95.48c-2.34-0.15-4.59-0.43-6.66-0.82v1.14c2.07,0.39,4.31,0.68,6.66,0.82
		c0.38,0.02,0.75,0.04,1.13,0.06v-1.14C356.5,95.52,356.12,95.5,355.74,95.48z"/>
	<path class="st124" d="M355.74,93.19c-2.34-0.15-4.59-0.43-6.66-0.82v1.14c2.07,0.39,4.31,0.68,6.66,0.82
		c0.38,0.02,0.75,0.04,1.13,0.06v-1.14C356.5,93.24,356.12,93.22,355.74,93.19z"/>
	<path class="st124" d="M355.74,81.25c-2.34-0.15-4.59-0.43-6.66-0.82v1.14c2.07,0.39,4.31,0.68,6.66,0.82
		c0.38,0.02,0.75,0.04,1.13,0.06v-1.14C356.5,81.29,356.12,81.27,355.74,81.25z"/>
	<path class="st124" d="M355.74,78.97c-2.34-0.15-4.59-0.43-6.66-0.82v1.14c2.07,0.39,4.31,0.68,6.66,0.82
		c0.38,0.02,0.75,0.04,1.13,0.06v-1.14C356.5,79.01,356.12,78.99,355.74,78.97z"/>
</g>
</svg>
