<?xml version="1.0" encoding="utf-8"?>
<!-- Generator: Adobe Illustrator 25.1.0, SVG Export Plug-In . SVG Version: 6.00 Build 0)  -->
<svg version="1.1" id="Layer_1" xmlns="http://www.w3.org/2000/svg" xmlns:xlink="http://www.w3.org/1999/xlink" x="0px" y="0px"
	 viewBox="0 0 790.6 346.1" style="enable-background:new 0 0 790.6 346.1;" xml:space="preserve">
<style type="text/css">
	.st0{fill:none;stroke:url(#SVGID_1_);stroke-width:3.1917;stroke-miterlimit:10;}
	.st1{fill:none;stroke:url(#SVGID_2_);stroke-width:3.1917;stroke-miterlimit:10;}
	.st2{fill:none;stroke:url(#SVGID_3_);stroke-width:3.1917;stroke-miterlimit:10;}
	.st3{fill:none;stroke:url(#SVGID_4_);stroke-width:3.1917;stroke-miterlimit:10;}
	.st4{fill:none;stroke:url(#SVGID_5_);stroke-width:3.1917;stroke-miterlimit:10;}
	.st5{fill:none;stroke:url(#SVGID_6_);stroke-width:3.1917;stroke-miterlimit:10;}
	.st6{fill:none;stroke:url(#SVGID_7_);stroke-width:3.1917;stroke-miterlimit:10;}
	.st7{fill:none;stroke:url(#SVGID_8_);stroke-width:3.1917;stroke-miterlimit:10;}
	.st8{fill:none;stroke:url(#SVGID_9_);stroke-width:3.1917;stroke-miterlimit:10;}
	.st9{fill:none;stroke:url(#SVGID_10_);stroke-width:3.1917;stroke-miterlimit:10;}
	.st10{fill:none;stroke:url(#SVGID_11_);stroke-width:3.1917;stroke-miterlimit:10;}
	.st11{fill:none;stroke:url(#SVGID_12_);stroke-width:3.1917;stroke-miterlimit:10;}
	.st12{fill:none;stroke:url(#SVGID_13_);stroke-width:3.1917;stroke-miterlimit:10;}
	.st13{fill:none;stroke:url(#SVGID_14_);stroke-width:3.1917;stroke-miterlimit:10;}
	.st14{fill:none;stroke:url(#SVGID_15_);stroke-width:3.1917;stroke-miterlimit:10;}
	.st15{fill:none;stroke:url(#SVGID_16_);stroke-width:3.1917;stroke-miterlimit:10;}
	.st16{fill:none;stroke:url(#SVGID_17_);stroke-width:3.1917;stroke-miterlimit:10;}
	.st17{fill:url(#SVGID_18_);}
	.st18{fill:url(#SVGID_19_);}
	.st19{fill:url(#SVGID_20_);}
	.st20{fill:none;stroke:url(#SVGID_21_);stroke-width:3.1917;stroke-miterlimit:10;}
	.st21{fill:none;stroke:url(#SVGID_22_);stroke-width:3.1917;stroke-miterlimit:10;}
	.st22{fill:url(#SVGID_23_);}
	.st23{fill:none;stroke:url(#SVGID_24_);stroke-width:3.1917;stroke-miterlimit:10;}
	.st24{fill:url(#SVGID_25_);}
	.st25{fill:none;stroke:url(#SVGID_26_);stroke-width:3.1917;stroke-miterlimit:10;}
	.st26{fill:url(#SVGID_27_);}
	.st27{fill:none;stroke:url(#SVGID_28_);stroke-width:3.1917;stroke-miterlimit:10;}
	.st28{fill:url(#SVGID_29_);}
	.st29{fill:none;stroke:url(#SVGID_30_);stroke-width:3.1917;stroke-miterlimit:10;}
	.st30{fill:none;stroke:url(#SVGID_31_);stroke-width:3.1917;stroke-miterlimit:10;}
	.st31{fill:none;stroke:url(#SVGID_32_);stroke-width:3.1917;stroke-miterlimit:10;}
	.st32{fill:none;stroke:url(#SVGID_33_);stroke-width:3.1917;stroke-miterlimit:10;}
	.st33{fill:none;stroke:url(#SVGID_34_);stroke-width:3.1917;stroke-miterlimit:10;}
	.st34{fill:none;stroke:url(#SVGID_35_);stroke-width:5.3196;stroke-miterlimit:10;}
	.st35{fill:none;stroke:url(#SVGID_36_);stroke-width:5.3196;stroke-miterlimit:10;}
	.st36{fill:none;stroke:url(#SVGID_37_);stroke-width:5.3196;stroke-miterlimit:10;}
	.st37{fill:none;stroke:url(#SVGID_38_);stroke-width:5.3196;stroke-miterlimit:10;}
	.st38{fill:none;stroke:url(#SVGID_39_);stroke-width:5.3196;stroke-miterlimit:10;}
	.st39{fill:none;stroke:url(#SVGID_40_);stroke-width:5.3196;stroke-miterlimit:10;}
	.st40{fill:none;stroke:url(#SVGID_41_);stroke-width:5.3196;stroke-miterlimit:10;}
	.st41{fill:url(#SVGID_42_);}
	.st42{fill:url(#SVGID_43_);}
	.st43{fill:url(#SVGID_44_);}
	.st44{fill:#FFFFFF;}
	.st45{fill:#040C69;}
	.st46{fill:#80E4FF;}
	.st47{fill:url(#SVGID_45_);}
	.st48{fill:url(#SVGID_46_);}
	.st49{fill:#FFFFFF;stroke:#29AAE1;stroke-width:0.1064;stroke-miterlimit:10;}
	.st50{fill:url(#SVGID_47_);}
	.st51{fill:url(#SVGID_48_);}
	.st52{fill:url(#SVGID_49_);}
	.st53{fill:url(#SVGID_50_);}
	.st54{fill:none;stroke:url(#SVGID_51_);stroke-width:5.3196;stroke-miterlimit:10;}
	.st55{fill:#231F20;}
	.st56{fill:url(#SVGID_52_);}
	.st57{fill:url(#SVGID_53_);}
	.st58{fill:url(#SVGID_54_);}
	.st59{fill:none;stroke:url(#SVGID_55_);stroke-width:5.3196;stroke-miterlimit:10;}
	.st60{fill:url(#SVGID_56_);}
	.st61{fill:url(#SVGID_57_);}
	.st62{fill:url(#SVGID_58_);}
	.st63{fill:none;stroke:url(#SVGID_59_);stroke-width:5.3196;stroke-miterlimit:10;}
	.st64{fill:url(#SVGID_60_);}
	.st65{fill:url(#SVGID_61_);}
	.st66{fill:url(#SVGID_62_);}
	.st67{fill:none;stroke:url(#SVGID_63_);stroke-width:5.3196;stroke-miterlimit:10;}
	.st68{fill:url(#SVGID_64_);}
	.st69{fill:url(#SVGID_65_);}
	.st70{fill:url(#SVGID_66_);}
	.st71{fill:none;stroke:url(#SVGID_67_);stroke-width:5.3196;stroke-miterlimit:10;}
	.st72{fill:url(#SVGID_68_);}
	.st73{fill:url(#SVGID_69_);}
	.st74{fill:url(#SVGID_70_);}
	.st75{fill:none;stroke:url(#SVGID_71_);stroke-width:3.1917;stroke-miterlimit:10;}
	.st76{fill:#DDE6FE;}
	.st77{fill:none;stroke:url(#SVGID_72_);stroke-width:3.1917;stroke-miterlimit:10;}
	.st78{fill:#11A7F6;}
	.st79{fill:url(#SVGID_73_);}
	.st80{fill:#FFCB29;}
	.st81{fill:#15B3FB;}
	.st82{fill:#09BFFF;}
	.st83{fill:url(#SVGID_74_);}
	.st84{fill:url(#SVGID_75_);}
	.st85{fill:#91B9EC;}
	.st86{fill:#051A78;}
	.st87{fill:url(#SVGID_76_);}
	.st88{opacity:0.28;}
	.st89{fill:#D6E7F7;}
	.st90{fill:#FFA800;}
	.st91{fill:#FFAF04;}
	.st92{fill:#FAB406;}
	.st93{fill:#FFF1DE;}
	.st94{fill:#FFC261;}
	.st95{fill:none;stroke:#09BFFF;stroke-width:0.5948;stroke-miterlimit:10;}
	.st96{fill:url(#SVGID_77_);}
	.st97{fill:url(#SVGID_78_);}
	.st98{fill:#7986CC;}
	.st99{fill:url(#SVGID_79_);}
	.st100{fill:#F4A2BA;}
	.st101{fill:url(#SVGID_80_);}
	.st102{fill:url(#SVGID_81_);}
	.st103{fill:url(#SVGID_82_);}
	.st104{fill:url(#SVGID_83_);}
	.st105{fill:url(#SVGID_84_);}
	.st106{fill:#1B2C49;}
	.st107{fill:url(#SVGID_85_);}
	.st108{fill:url(#SVGID_86_);}
	.st109{fill:url(#SVGID_87_);}
	.st110{fill:url(#SVGID_88_);}
	.st111{fill:url(#SVGID_89_);}
	.st112{fill:url(#SVGID_90_);}
	.st113{fill:url(#SVGID_91_);}
	.st114{fill:url(#SVGID_92_);}
	.st115{fill:url(#SVGID_93_);}
	.st116{fill:url(#SVGID_94_);}
	.st117{fill:url(#SVGID_95_);}
	.st118{fill:url(#SVGID_96_);}
	.st119{fill:url(#SVGID_97_);}
	.st120{fill:url(#SVGID_98_);}
	.st121{fill:url(#SVGID_99_);}
	.st122{fill:url(#SVGID_100_);}
</style>
<g>
	<linearGradient id="SVGID_1_" gradientUnits="userSpaceOnUse" x1="234.0511" y1="189.6671" x2="279.1458" y2="189.6671">
		<stop  offset="0" style="stop-color:#5940E7"/>
		<stop  offset="1" style="stop-color:#1BAFF8"/>
	</linearGradient>
	<line class="st0" x1="234.8" y1="202.2" x2="278.3" y2="177.1"/>
	<linearGradient id="SVGID_2_" gradientUnits="userSpaceOnUse" x1="236.6173" y1="192.1768" x2="281.712" y2="192.1768">
		<stop  offset="0" style="stop-color:#5940E7"/>
		<stop  offset="1" style="stop-color:#1BAFF8"/>
	</linearGradient>
	<line class="st1" x1="237.4" y1="204.7" x2="280.9" y2="179.6"/>
	<linearGradient id="SVGID_3_" gradientUnits="userSpaceOnUse" x1="263.8717" y1="206.9369" x2="308.9664" y2="206.9369">
		<stop  offset="0" style="stop-color:#5940E7"/>
		<stop  offset="1" style="stop-color:#1BAFF8"/>
	</linearGradient>
	<line class="st2" x1="264.7" y1="219.5" x2="308.2" y2="194.4"/>
	<linearGradient id="SVGID_4_" gradientUnits="userSpaceOnUse" x1="266.4378" y1="209.4467" x2="311.5326" y2="209.4467">
		<stop  offset="0" style="stop-color:#5940E7"/>
		<stop  offset="1" style="stop-color:#1BAFF8"/>
	</linearGradient>
	<line class="st3" x1="267.2" y1="222" x2="310.7" y2="196.9"/>
	<linearGradient id="SVGID_5_" gradientUnits="userSpaceOnUse" x1="294.59" y1="225.0261" x2="339.6847" y2="225.0261">
		<stop  offset="0" style="stop-color:#5940E7"/>
		<stop  offset="1" style="stop-color:#1BAFF8"/>
	</linearGradient>
	<line class="st4" x1="295.4" y1="237.6" x2="338.9" y2="212.5"/>
	<linearGradient id="SVGID_6_" gradientUnits="userSpaceOnUse" x1="297.1561" y1="227.5358" x2="342.2509" y2="227.5358">
		<stop  offset="0" style="stop-color:#5940E7"/>
		<stop  offset="1" style="stop-color:#1BAFF8"/>
	</linearGradient>
	<line class="st5" x1="298" y1="240.1" x2="341.5" y2="215"/>
	<linearGradient id="SVGID_7_" gradientUnits="userSpaceOnUse" x1="325.4948" y1="242.1941" x2="370.5895" y2="242.1941">
		<stop  offset="0" style="stop-color:#5940E7"/>
		<stop  offset="1" style="stop-color:#1BAFF8"/>
	</linearGradient>
	<line class="st6" x1="326.3" y1="254.7" x2="369.8" y2="229.7"/>
	<linearGradient id="SVGID_8_" gradientUnits="userSpaceOnUse" x1="328.0609" y1="244.7038" x2="373.1557" y2="244.7038">
		<stop  offset="0" style="stop-color:#5940E7"/>
		<stop  offset="1" style="stop-color:#1BAFF8"/>
	</linearGradient>
	<line class="st7" x1="328.9" y1="257.2" x2="372.4" y2="232.2"/>
	<linearGradient id="SVGID_9_" gradientUnits="userSpaceOnUse" x1="195.2551" y1="225.316" x2="236.3864" y2="225.316">
		<stop  offset="0" style="stop-color:#5940E7"/>
		<stop  offset="1" style="stop-color:#1BAFF8"/>
	</linearGradient>
	<polyline class="st8" points="210,214.8 198.6,220.8 224.9,235.4 235.6,229.2 	"/>
	<linearGradient id="SVGID_10_" gradientUnits="userSpaceOnUse" x1="201.9095" y1="226.4929" x2="239.8769" y2="226.4929">
		<stop  offset="0" style="stop-color:#5940E7"/>
		<stop  offset="1" style="stop-color:#1BAFF8"/>
	</linearGradient>
	<polyline class="st9" points="213.6,216.7 205.3,221.2 231.5,235.8 239.1,231.5 	"/>
	<linearGradient id="SVGID_11_" gradientUnits="userSpaceOnUse" x1="230.8405" y1="246.1124" x2="271.0567" y2="246.1124">
		<stop  offset="0" style="stop-color:#5940E7"/>
		<stop  offset="1" style="stop-color:#1BAFF8"/>
	</linearGradient>
	<polyline class="st10" points="245.5,235.4 234.1,241.5 259.5,256.3 270.3,250.2 	"/>
	<linearGradient id="SVGID_12_" gradientUnits="userSpaceOnUse" x1="262.7316" y1="263.7787" x2="301.4745" y2="263.7787">
		<stop  offset="0" style="stop-color:#5940E7"/>
		<stop  offset="1" style="stop-color:#1BAFF8"/>
	</linearGradient>
	<polyline class="st11" points="276.9,253.3 265.9,259.6 289.9,273.8 300.7,267.6 	"/>
	<linearGradient id="SVGID_13_" gradientUnits="userSpaceOnUse" x1="268.1884" y1="264.5771" x2="304.8276" y2="264.5771">
		<stop  offset="0" style="stop-color:#5940E7"/>
		<stop  offset="1" style="stop-color:#1BAFF8"/>
	</linearGradient>
	<polyline class="st12" points="279.6,254.9 271.4,259.6 295.4,273.8 304,268.8 	"/>
	<linearGradient id="SVGID_14_" gradientUnits="userSpaceOnUse" x1="295.5979" y1="284.4266" x2="341.1963" y2="284.4266">
		<stop  offset="0" style="stop-color:#5940E7"/>
		<stop  offset="1" style="stop-color:#1BAFF8"/>
	</linearGradient>
	<polyline class="st13" points="309.8,272.4 298.8,278.4 329.7,296 340.4,289.8 	"/>
	<linearGradient id="SVGID_15_" gradientUnits="userSpaceOnUse" x1="301.7813" y1="285.3379" x2="344.1213" y2="285.3379">
		<stop  offset="0" style="stop-color:#5940E7"/>
		<stop  offset="1" style="stop-color:#1BAFF8"/>
	</linearGradient>
	<polyline class="st14" points="312.9,274.2 305.1,278.4 335.9,296 343.3,291.7 	"/>
	<g>
		<g>
			
				<linearGradient id="SVGID_16_" gradientUnits="userSpaceOnUse" x1="1529.4392" y1="245.2222" x2="1564.9514" y2="245.2222" gradientTransform="matrix(-1 0 0 1 1953.281 0)">
				<stop  offset="0" style="stop-color:#5940E7"/>
				<stop  offset="1" style="stop-color:#1BAFF8"/>
			</linearGradient>
			<polyline class="st15" points="392.7,254.7 401.4,259.7 420.6,248.7 389.1,230.3 			"/>
			
				<linearGradient id="SVGID_17_" gradientUnits="userSpaceOnUse" x1="1514.7113" y1="251.7898" x2="1572.2728" y2="251.7898" gradientTransform="matrix(-1 0 0 1 1953.281 0)">
				<stop  offset="0" style="stop-color:#5940E7"/>
				<stop  offset="1" style="stop-color:#1BAFF8"/>
			</linearGradient>
			<polyline class="st16" points="381.8,271.6 390.5,276.6 435.4,250.8 394.8,226.5 			"/>
			
				<linearGradient id="SVGID_18_" gradientUnits="userSpaceOnUse" x1="1582.0359" y1="252.4935" x2="1545.5377" y2="255.7205" gradientTransform="matrix(-1 0 0 1 1953.281 0)">
				<stop  offset="0" style="stop-color:#5940E7"/>
				<stop  offset="1" style="stop-color:#1BAFF8"/>
			</linearGradient>
			<ellipse class="st17" cx="392.4" cy="254.4" rx="2.8" ry="1.6"/>
			
				<linearGradient id="SVGID_19_" gradientUnits="userSpaceOnUse" x1="1593.5526" y1="269.4759" x2="1555.4707" y2="272.8429" gradientTransform="matrix(-1 0 0 1 1953.281 0)">
				<stop  offset="0" style="stop-color:#5940E7"/>
				<stop  offset="1" style="stop-color:#1BAFF8"/>
			</linearGradient>
			<ellipse class="st18" cx="381.8" cy="271.4" rx="2.9" ry="1.7"/>
			
				<linearGradient id="SVGID_20_" gradientUnits="userSpaceOnUse" x1="1545.7601" y1="291.6568" x2="1507.2401" y2="295.0625" gradientTransform="matrix(-1 0 0 1 1953.281 0)">
				<stop  offset="0" style="stop-color:#5940E7"/>
				<stop  offset="1" style="stop-color:#1BAFF8"/>
			</linearGradient>
			<ellipse class="st19" cx="429.8" cy="293.6" rx="2.9" ry="1.7"/>
		</g>
		<linearGradient id="SVGID_21_" gradientUnits="userSpaceOnUse" x1="414.0112" y1="257.1161" x2="493.388" y2="257.1161">
			<stop  offset="0" style="stop-color:#5940E7"/>
			<stop  offset="1" style="stop-color:#1BAFF8"/>
		</linearGradient>
		<polyline class="st20" points="430,293.8 438.7,298.8 464.5,283.9 446.7,273.6 455.3,268.7 481.6,283.7 490.2,278.7 456.2,258.6 
			472.8,248.5 446.8,233.5 438,238.4 420.5,228.5 429.3,223.3 414.8,215 		"/>
	</g>
	<g>
		<linearGradient id="SVGID_22_" gradientUnits="userSpaceOnUse" x1="218.0207" y1="262.5518" x2="273.6418" y2="262.5518">
			<stop  offset="0" style="stop-color:#5940E7"/>
			<stop  offset="1" style="stop-color:#1BAFF8"/>
		</linearGradient>
		<polyline class="st21" points="238.8,278 221.2,268 236.9,259 261.4,273.6 270.5,268.3 245.8,253.8 247,253.1 256.5,247.6 
			263,251.7 268.2,248.5 		"/>
		<linearGradient id="SVGID_23_" gradientUnits="userSpaceOnUse" x1="270.9633" y1="275.1838" x2="216.9813" y2="279.9566">
			<stop  offset="0" style="stop-color:#5940E7"/>
			<stop  offset="1" style="stop-color:#1BAFF8"/>
		</linearGradient>
		<ellipse class="st22" cx="239.7" cy="278" rx="4.1" ry="2.4"/>
	</g>
	<g>
		<linearGradient id="SVGID_24_" gradientUnits="userSpaceOnUse" x1="164.3652" y1="204.9893" x2="207.4978" y2="204.9893">
			<stop  offset="0" style="stop-color:#5940E7"/>
			<stop  offset="1" style="stop-color:#1BAFF8"/>
		</linearGradient>
		<polyline class="st23" points="206.6,203.5 200.1,199.4 190.6,204.9 180.9,210.6 165.2,201.5 		"/>
		<linearGradient id="SVGID_25_" gradientUnits="userSpaceOnUse" x1="195.9111" y1="198.4032" x2="141.9291" y2="203.176">
			<stop  offset="0" style="stop-color:#5940E7"/>
			<stop  offset="1" style="stop-color:#1BAFF8"/>
		</linearGradient>
		<ellipse class="st24" cx="164.6" cy="201.2" rx="4.1" ry="2.4"/>
	</g>
	<g>
		<linearGradient id="SVGID_26_" gradientUnits="userSpaceOnUse" x1="297.6107" y1="284.9103" x2="343.4854" y2="284.9103">
			<stop  offset="0" style="stop-color:#5940E7"/>
			<stop  offset="1" style="stop-color:#1BAFF8"/>
		</linearGradient>
		<polyline class="st25" points="318.4,300.3 300.8,290.4 326.6,275.5 336.1,270 342.6,274.1 		"/>
		<linearGradient id="SVGID_27_" gradientUnits="userSpaceOnUse" x1="350.5533" y1="297.5423" x2="296.5714" y2="302.3151">
			<stop  offset="0" style="stop-color:#5940E7"/>
			<stop  offset="1" style="stop-color:#1BAFF8"/>
		</linearGradient>
		<ellipse class="st26" cx="319.3" cy="300.3" rx="4.1" ry="2.4"/>
	</g>
	<g>
		<linearGradient id="SVGID_28_" gradientUnits="userSpaceOnUse" x1="204.3867" y1="230.7004" x2="250.2614" y2="230.7004">
			<stop  offset="0" style="stop-color:#5940E7"/>
			<stop  offset="1" style="stop-color:#1BAFF8"/>
		</linearGradient>
		<polyline class="st27" points="225.2,246.1 207.6,236.2 233.4,221.3 242.9,215.8 249.4,219.9 		"/>
		<linearGradient id="SVGID_29_" gradientUnits="userSpaceOnUse" x1="257.3293" y1="243.3324" x2="203.3473" y2="248.1052">
			<stop  offset="0" style="stop-color:#5940E7"/>
			<stop  offset="1" style="stop-color:#1BAFF8"/>
		</linearGradient>
		<ellipse class="st28" cx="226" cy="246.1" rx="4.1" ry="2.4"/>
	</g>
	<linearGradient id="SVGID_30_" gradientUnits="userSpaceOnUse" x1="416.9241" y1="229.2511" x2="489.7179" y2="229.2511">
		<stop  offset="0" style="stop-color:#5940E7"/>
		<stop  offset="1" style="stop-color:#1BAFF8"/>
	</linearGradient>
	<polyline class="st29" points="488.9,234.8 471.7,244.6 417.7,213.5 	"/>
	<linearGradient id="SVGID_31_" gradientUnits="userSpaceOnUse" x1="433.9494" y1="187.4737" x2="486.0179" y2="187.4737">
		<stop  offset="0" style="stop-color:#5940E7"/>
		<stop  offset="1" style="stop-color:#1BAFF8"/>
	</linearGradient>
	<polyline class="st30" points="434.8,205.4 455.7,217.8 472.8,208.3 472.8,158.1 484.4,164.8 484.4,156.3 	"/>
	<linearGradient id="SVGID_32_" gradientUnits="userSpaceOnUse" x1="427.7311" y1="192.8598" x2="489.7249" y2="192.8598">
		<stop  offset="0" style="stop-color:#5940E7"/>
		<stop  offset="1" style="stop-color:#1BAFF8"/>
	</linearGradient>
	<polyline class="st31" points="428.5,206.2 459.4,224.5 476.6,215.1 476.6,164.9 488.1,171.5 488.1,159.4 	"/>
	<linearGradient id="SVGID_33_" gradientUnits="userSpaceOnUse" x1="425.1149" y1="197.3145" x2="493.4319" y2="197.3145">
		<stop  offset="0" style="stop-color:#5940E7"/>
		<stop  offset="1" style="stop-color:#1BAFF8"/>
	</linearGradient>
	<polyline class="st32" points="425.9,209.2 463.1,231.3 480.3,221.8 480.3,171.6 491.8,178.3 491.8,161.5 	"/>
	<linearGradient id="SVGID_34_" gradientUnits="userSpaceOnUse" x1="422.0069" y1="201.2355" x2="497.1389" y2="201.2355">
		<stop  offset="0" style="stop-color:#5940E7"/>
		<stop  offset="1" style="stop-color:#1BAFF8"/>
	</linearGradient>
	<polyline class="st33" points="422.8,211.9 466.8,238 484,228.6 484,178.4 495.5,185 495.5,162.6 	"/>
	<linearGradient id="SVGID_35_" gradientUnits="userSpaceOnUse" x1="250.1701" y1="162.9466" x2="290.9234" y2="162.9466">
		<stop  offset="0" style="stop-color:#5940E7"/>
		<stop  offset="1" style="stop-color:#1BAFF8"/>
	</linearGradient>
	<polyline class="st34" points="251.5,156.3 272.4,168.8 289.6,159 	"/>
	<linearGradient id="SVGID_36_" gradientUnits="userSpaceOnUse" x1="256.5234" y1="159.9548" x2="297.2767" y2="159.9548">
		<stop  offset="0" style="stop-color:#5940E7"/>
		<stop  offset="1" style="stop-color:#1BAFF8"/>
	</linearGradient>
	<polyline class="st35" points="257.9,153.4 278.8,165.8 296,156 	"/>
	<linearGradient id="SVGID_37_" gradientUnits="userSpaceOnUse" x1="261.0452" y1="156.9752" x2="301.7985" y2="156.9752">
		<stop  offset="0" style="stop-color:#5940E7"/>
		<stop  offset="1" style="stop-color:#1BAFF8"/>
	</linearGradient>
	<polyline class="st36" points="262.4,150.4 283.3,162.8 300.5,153 	"/>
	<linearGradient id="SVGID_38_" gradientUnits="userSpaceOnUse" x1="265.567" y1="153.9957" x2="306.3203" y2="153.9957">
		<stop  offset="0" style="stop-color:#5940E7"/>
		<stop  offset="1" style="stop-color:#1BAFF8"/>
	</linearGradient>
	<polyline class="st37" points="266.9,147.4 287.8,159.8 305,150.1 	"/>
	<linearGradient id="SVGID_39_" gradientUnits="userSpaceOnUse" x1="270.0888" y1="151.0161" x2="310.8421" y2="151.0161">
		<stop  offset="0" style="stop-color:#5940E7"/>
		<stop  offset="1" style="stop-color:#1BAFF8"/>
	</linearGradient>
	<polyline class="st38" points="271.4,144.4 292.3,156.8 309.5,147.1 	"/>
	<linearGradient id="SVGID_40_" gradientUnits="userSpaceOnUse" x1="275.5649" y1="148.3589" x2="316.3183" y2="148.3589">
		<stop  offset="0" style="stop-color:#5940E7"/>
		<stop  offset="1" style="stop-color:#1BAFF8"/>
	</linearGradient>
	<polyline class="st39" points="276.9,141.8 297.8,154.2 315,144.4 	"/>
	<linearGradient id="SVGID_41_" gradientUnits="userSpaceOnUse" x1="279.915" y1="145.3353" x2="320.6683" y2="145.3353">
		<stop  offset="0" style="stop-color:#5940E7"/>
		<stop  offset="1" style="stop-color:#1BAFF8"/>
	</linearGradient>
	<polyline class="st40" points="281.3,138.7 302.2,151.1 319.4,141.4 	"/>
	<linearGradient id="SVGID_42_" gradientUnits="userSpaceOnUse" x1="515.0592" y1="232.3601" x2="470.9646" y2="236.2587">
		<stop  offset="0" style="stop-color:#5940E7"/>
		<stop  offset="1" style="stop-color:#1BAFF8"/>
	</linearGradient>
	<ellipse class="st41" cx="489.5" cy="234.6" rx="3.3" ry="1.9"/>
	<g>
		<linearGradient id="SVGID_43_" gradientUnits="userSpaceOnUse" x1="313.0304" y1="199.3248" x2="106.9317" y2="48.1858">
			<stop  offset="0" style="stop-color:#5940E7"/>
			<stop  offset="1" style="stop-color:#1BAFF8"/>
		</linearGradient>
		<polygon class="st42" points="227.2,170.7 227.8,169.7 170,136.4 227.2,103.4 284.4,136.4 226.7,169.7 227.2,170.7 227.8,169.7 
			227.2,170.7 227.8,171.6 288.7,136.4 227.2,100.9 165.7,136.4 227.2,171.9 227.8,171.6 		"/>
		<g>
			
				<linearGradient id="SVGID_44_" gradientUnits="userSpaceOnUse" x1="1846.3435" y1="146.1941" x2="2075.2439" y2="110.8522" gradientTransform="matrix(-1 0 0 1 2137.5281 0)">
				<stop  offset="0" style="stop-color:#7D57C4"/>
				<stop  offset="7.657103e-02" style="stop-color:#8B6CCD;stop-opacity:0.9104"/>
				<stop  offset="0.2527" style="stop-color:#A898DE;stop-opacity:0.7044"/>
				<stop  offset="0.4232" style="stop-color:#BFBAEC;stop-opacity:0.5049"/>
				<stop  offset="0.5843" style="stop-color:#D0D2F6;stop-opacity:0.3164"/>
				<stop  offset="0.7323" style="stop-color:#DAE1FC;stop-opacity:0.1433"/>
				<stop  offset="0.8547" style="stop-color:#DDE6FE;stop-opacity:0"/>
			</linearGradient>
			<path class="st43" d="M177.2,137.9l48.3,27.7c1,0.6,2.6,0.6,3.5,0.1l48.2-28.9c0.9-0.5,0.9-1.4-0.1-2l-48.3-27.7
				c-1-0.6-2.6-0.6-3.5-0.1l-48.3,28.9C176.2,136.4,176.2,137.3,177.2,137.9z"/>
			<path class="st44" d="M205.5,208.7l15.6,8.9c0.3,0.2,0.8,0.2,1.1,0l15.5-9.3c0.3-0.2,0.3-0.5,0-0.7l-15.5-8.9
				c-0.3-0.2-0.8-0.2-1.1,0l-15.6,9.3C205.2,208.3,205.2,208.6,205.5,208.7z"/>
			<path class="st44" d="M237.2,227l15.6,8.9c0.3,0.2,0.8,0.2,1.1,0l15.5-9.3c0.3-0.2,0.3-0.5,0-0.7l-15.5-8.9
				c-0.3-0.2-0.8-0.2-1.1,0l-15.6,9.3C236.9,226.5,236.9,226.8,237.2,227z"/>
			<path class="st44" d="M268.9,245.2l15.6,8.9c0.3,0.2,0.8,0.2,1.1,0l15.5-9.3c0.3-0.2,0.3-0.5,0-0.7l-15.5-8.9
				c-0.3-0.2-0.8-0.2-1.1,0l-15.6,9.3C268.5,244.7,268.6,245,268.9,245.2z"/>
			<path class="st44" d="M300.6,263.4l15.6,8.9c0.3,0.2,0.8,0.2,1.1,0l15.5-9.3c0.3-0.2,0.3-0.5,0-0.7l-15.5-8.9
				c-0.3-0.2-0.8-0.2-1.1,0l-15.6,9.3C300.2,262.9,300.3,263.2,300.6,263.4z"/>
			<path class="st44" d="M332.3,281.6l15.6,8.9c0.3,0.2,0.8,0.2,1.1,0l15.5-9.3c0.3-0.2,0.3-0.5,0-0.7l-15.5-8.9
				c-0.3-0.2-0.8-0.2-1.1,0l-15.6,9.3C331.9,281.1,331.9,281.4,332.3,281.6z"/>
			<path class="st45" d="M185.4,124.7c0.5,0.8,1.4,1.5,2.4,2.1l10.3,5.9c-1.2,1.8-2,4.2-2,6.3c0,2,0.7,3.3,1.8,3.8l0,0l30.1,16.7
				l0,0c0.4,0.2,0.8,0.3,1.2,0.3c0.6,0,1.2-0.2,1.8-0.6l27.9-16.1c2.5-1.5,4.6-5.4,4.6-8.8c0-2.1-0.8-3.4-1.9-3.9l0.1-0.1
				l-28.9-16.7c-1.4-0.7-2.9-0.4-3.7,0l0,0c-0.2,0.1-0.3,0.2-0.5,0.3l-3.8,2.2l-6.5-3.8l-2.8-1.6c-0.8-0.5-1.7-0.9-2.7-1.1
				c-1-0.3-2-0.5-3.1-0.6c-1.3-0.1-2.6-0.2-3.9,0c-0.8,0.1-1.6,0.2-2.4,0.4c-1.3,0.3-2.6,0.8-3.7,1.4l-3.7,2.1l-4.9,2.9l-3.3,1.9
				c-0.2,0.1-0.4,0.2-0.6,0.3c-0.6,0.4-1,0.8-1.4,1.2c-0.5,0.6-0.9,1.2-1.1,1.8C184.4,122.3,184.6,123.6,185.4,124.7z M212.4,115.7
				l4.7,2.7l2.1,1.2l-16.3,9.4l-9.4-5.4c-0.2-0.1-0.4-0.3-0.6-0.4c-0.1-0.2-0.2-0.3-0.3-0.5c-0.1-0.3-0.1-0.7,0.2-1
				c0.1-0.1,0.2-0.3,0.4-0.4c0.1-0.1,0.2-0.2,0.3-0.2l3.8-2.2l5.8-3.4l2.2-1.3c0.2-0.1,0.5-0.2,0.8-0.3c0.3-0.1,0.6-0.1,0.9-0.2
				c0.6-0.1,1.2,0,1.8,0.1c0.4,0.1,0.7,0.2,1,0.4L212.4,115.7z"/>
			<g>
				<g>
					<polygon class="st44" points="226.7,116.7 226.7,116.7 226.7,116.7 					"/>
					<path class="st44" d="M230.2,114.7l-3.5,2l-9.6-5.6c2.4,0.2,4.8,0.4,7.2,0.7C226.5,112.1,228.5,113.1,230.2,114.7z"/>
					<path class="st44" d="M218.3,105.3l14.1,8.1l-2.1,1.2c-1.7-1.5-3.7-2.6-5.9-2.9c-2.4-0.3-4.8-0.5-7.2-0.7l-4.7-2.7
						C214.2,107.1,216.2,106,218.3,105.3z"/>
					<path class="st46" d="M209.8,106.9c-0.3-0.2-0.7-0.3-1-0.4c-0.6-0.1-1.2-0.2-1.8-0.1c-0.3,0-0.6,0.1-0.9,0.2
						c-0.3,0.1-0.5,0.2-0.8,0.3l-2.2,1.3c-0.1-1,0.1-2.1,0.6-3.3c0.4-0.9,1.2-2,2-3.1c1.3-0.1,2.6-0.1,3.9,0
						c1.1,0.1,2.1,0.3,3.1,0.6c1,0.3,1.9,0.7,2.7,1.1l2.8,1.6c-2.1,0.7-4,1.8-5.9,3.1L209.8,106.9z"/>
					<path class="st44" d="M203.1,108.2l-5.8,3.4c-0.4-0.8-0.6-1.6-0.8-2.4c-0.5-1.1-0.6-2.3-0.4-3.4l3.7-2.1
						c1.1-0.6,2.3-1.1,3.7-1.4c0.8-0.2,1.6-0.3,2.4-0.4c-0.9,1-1.6,2.2-2,3.1C203.2,106.1,203.1,107.2,203.1,108.2z"/>
					<path class="st46" d="M196.1,105.8c-0.2,1.1-0.1,2.3,0.4,3.4c0.2,0.8,0.5,1.6,0.8,2.4l-3.8,2.2c-0.1,0.1-0.2,0.2-0.3,0.2
						c-1.3-1.6-1.9-3.5-2-5.4L196.1,105.8z"/>
					<path class="st44" d="M187.8,110.5l3.3-1.9c0.1,1.9,0.7,3.8,2,5.4c-0.1,0.1-0.3,0.2-0.4,0.4c-0.2,0.3-0.3,0.7-0.2,1
						c0.1,0.2,0.2,0.3,0.3,0.5c0.1,0.2,0.3,0.3,0.6,0.4l16.9,9.8l-4.8,2.8c-2.4-4.2-7.9-4.2-11.7-6.8c-2.6-1.7-4.7-3.9-5.6-6.4
						c-0.4-1.6-0.7-3.2-1-4.8C187.5,110.8,187.7,110.6,187.8,110.5z"/>
					<path class="st46" d="M184.8,113.8c0.2-0.6,0.6-1.2,1.1-1.8c0.4-0.4,0.9-0.8,1.4-1.2c0.3,1.6,0.6,3.2,1,4.8
						c0.9,2.6,3,4.7,5.6,6.4c3.8,2.7,9.3,2.6,11.7,6.8l-0.8,0.5l-16.9-9.8c-1.1-0.6-1.9-1.4-2.4-2.1
						C184.6,116.3,184.4,115.1,184.8,113.8z"/>
				</g>
				<path class="st44" d="M200.4,123.2l28.8-16.6c-0.2,0.1-0.3,0.2-0.5,0.3L200.7,123C200.6,123.1,200.5,123.1,200.4,123.2z"/>
				<g>
					<linearGradient id="SVGID_45_" gradientUnits="userSpaceOnUse" x1="373.8525" y1="104.0978" x2="163.7845" y2="159.3627">
						<stop  offset="0" style="stop-color:#5940E7"/>
						<stop  offset="0.5252" style="stop-color:#1BAFF8"/>
						<stop  offset="0.8177" style="stop-color:#FFFFFF"/>
					</linearGradient>
					<path class="st47" d="M226.5,148.7c0,1.8,0.6,3.1,1.5,3.7l0,0c0.4,0.2,0.8,0.3,1.2,0.3c0.6,0,1.2-0.2,1.8-0.6l27.9-16.1
						c2.5-1.5,4.6-5.4,4.6-8.8c0-2.1-0.8-3.4-1.9-3.9c0,0,0,0,0,0c-0.3-0.1-0.6-0.2-0.9-0.2c-0.6,0-1.2,0.2-1.8,0.6l-27.9,16.1
						c-0.3,0.2-0.6,0.4-0.9,0.6C228.1,142.3,226.5,145.7,226.5,148.7z"/>
					<linearGradient id="SVGID_46_" gradientUnits="userSpaceOnUse" x1="114.6729" y1="203.5581" x2="278.0251" y2="90.8908">
						<stop  offset="0" style="stop-color:#5940E7"/>
						<stop  offset="0.5252" style="stop-color:#1BAFF8"/>
						<stop  offset="0.8931" style="stop-color:#FFFFFF"/>
					</linearGradient>
					<path class="st48" d="M200.3,123.2l10.6,6.2l19.2,11.1c0.3-0.2,0.6-0.4,0.9-0.6l27.9-16.1c0.7-0.4,1.3-0.6,1.8-0.6
						c0.3,0,0.6,0.1,0.9,0.2c0,0,0,0,0,0l0.1-0.1l-28.9-16.7c-1.4-0.7-2.9-0.4-3.7,0l0,0L200.3,123.2L200.3,123.2z M222.4,118.2
						c2.2-1.3,5.6-1.5,8.2-0.7c0.6,0.2,1.2,0.4,1.8,0.7c2.3,1.3,2.7,3.3,1.2,4.8l6.3,3.6c0.8,0.5,0.8,1.2,0,1.7
						c-0.8,0.5-2.1,0.5-2.9,0l-6.3-3.7c-2.7,0.8-6.1,0.6-8.3-0.7c-0.4-0.2-0.7-0.4-0.9-0.7C219.7,121.8,220,119.6,222.4,118.2z"/>
					<path class="st49" d="M221.4,123.3c0.3,0.2,0.6,0.4,0.9,0.7c2.2,1.3,5.6,1.5,8.3,0.7l6.3,3.7c0.8,0.5,2.1,0.5,2.9,0
						c0.8-0.5,0.8-1.2,0-1.7l-6.3-3.6c1.4-1.5,1-3.5-1.2-4.8c-0.5-0.3-1.1-0.6-1.8-0.7c-2.7-0.8-6-0.5-8.2,0.7
						C220,119.6,219.7,121.8,221.4,123.3z"/>
					<path class="st49" d="M221.4,123.3c0.3,0.2,0.6,0.4,0.9,0.7c2.2,1.3,5.6,1.5,8.3,0.7l6.3,3.7c0.8,0.5,2.1,0.5,2.9,0
						c0.8-0.5,0.8-1.2,0-1.7l-6.3-3.6c1.4-1.5,1-3.5-1.2-4.8c-0.5-0.3-1.1-0.6-1.8-0.7c-2.7-0.8-6-0.5-8.2,0.7
						C220,119.6,219.7,121.8,221.4,123.3z"/>
					
						<linearGradient id="SVGID_47_" gradientUnits="userSpaceOnUse" x1="1907.144" y1="136.6044" x2="1907.144" y2="76.2319" gradientTransform="matrix(-1 0 0 1 2137.5281 0)">
						<stop  offset="0" style="stop-color:#FFFFFF"/>
						<stop  offset="0.231" style="stop-color:#F1F5FF;stop-opacity:0.7298"/>
						<stop  offset="0.5719" style="stop-color:#E2EAFE;stop-opacity:0.3309"/>
						<stop  offset="0.8547" style="stop-color:#DDE6FE;stop-opacity:0"/>
					</linearGradient>
					<path class="st50" d="M221.4,123.3c0.3,0.2,0.6,0.4,0.9,0.7c2.2,1.3,5.6,1.5,8.3,0.7l6.3,3.7c0.8,0.5,2.1,0.5,2.9,0
						c0.4-0.2,0.6-0.5,0.6-0.8s0-32.2,0-32.2s-17.9-7.9-20.2-6.6l0,32C220.2,121.6,220.5,122.6,221.4,123.3z"/>
					
						<linearGradient id="SVGID_48_" gradientUnits="userSpaceOnUse" x1="1887.0804" y1="95.688" x2="1926.1628" y2="84.0854" gradientTransform="matrix(-1 0 0 1 2137.5281 0)">
						<stop  offset="0" style="stop-color:#FFFFFF"/>
						<stop  offset="0.231" style="stop-color:#F1F5FF;stop-opacity:0.7298"/>
						<stop  offset="0.5719" style="stop-color:#E2EAFE;stop-opacity:0.3309"/>
						<stop  offset="0.8547" style="stop-color:#DDE6FE;stop-opacity:0"/>
					</linearGradient>
					<path class="st51" d="M221.4,91c0.3,0.2,0.6,0.4,0.9,0.7c2.2,1.3,5.6,1.5,8.3,0.7l6.3,3.7c0.8,0.5,2.1,0.5,2.9,0
						c0.8-0.5,0.8-1.2,0-1.7l-6.3-3.6c1.4-1.5,1-3.5-1.2-4.8c-0.5-0.3-1.1-0.6-1.8-0.7c-2.7-0.8-6-0.5-8.2,0.7
						C220,87.3,219.7,89.5,221.4,91z"/>
				</g>
				
					<linearGradient id="SVGID_49_" gradientUnits="userSpaceOnUse" x1="1907.3208" y1="137.8078" x2="1941.4573" y2="137.8078" gradientTransform="matrix(-1 0 0 1 2137.5281 0)">
					<stop  offset="0" style="stop-color:#5940E7"/>
					<stop  offset="1" style="stop-color:#1BAFF8"/>
				</linearGradient>
				<path class="st52" d="M196.1,131.8c0,2,0.7,3.3,1.8,3.8l0,0l30.1,16.7c-0.9-0.6-1.5-1.9-1.5-3.7c0-3,1.6-6.4,3.7-8.2L211,129.4
					l-10.6-6.2C198,124.8,196.1,128.6,196.1,131.8z"/>
				
					<linearGradient id="SVGID_50_" gradientUnits="userSpaceOnUse" x1="1939.6713" y1="135.5913" x2="1939.924" y2="135.5913" gradientTransform="matrix(-1 0 0 1 2137.5281 0)">
					<stop  offset="0" style="stop-color:#5940E7"/>
					<stop  offset="1" style="stop-color:#1BAFF8"/>
				</linearGradient>
				<line class="st53" x1="197.6" y1="135.5" x2="197.9" y2="135.7"/>
			</g>
		</g>
	</g>
	<g>
		<linearGradient id="SVGID_51_" gradientUnits="userSpaceOnUse" x1="195.3699" y1="208.1899" x2="247.7253" y2="208.1899">
			<stop  offset="0" style="stop-color:#5940E7"/>
			<stop  offset="1" style="stop-color:#1BAFF8"/>
		</linearGradient>
		<polygon class="st54" points="221.5,221.4 198.6,208.2 221.5,194.9 244.5,208.2 		"/>
		<g>
			<polygon class="st55" points="221.7,201.2 211.3,207.3 221.7,213.3 232.1,207.3 			"/>
			<g>
				<linearGradient id="SVGID_52_" gradientUnits="userSpaceOnUse" x1="211.2676" y1="201.4809" x2="221.6662" y2="201.4809">
					<stop  offset="0" style="stop-color:#5940E7"/>
					<stop  offset="1" style="stop-color:#1BAFF8"/>
				</linearGradient>
				<polygon class="st56" points="211.3,204.5 221.7,210.5 221.7,198.5 211.3,192.5 				"/>
				<linearGradient id="SVGID_53_" gradientUnits="userSpaceOnUse" x1="223.1079" y1="213.5804" x2="229.1902" y2="193.9953">
					<stop  offset="0" style="stop-color:#5940E7"/>
					<stop  offset="1" style="stop-color:#1BAFF8"/>
				</linearGradient>
				<polygon class="st57" points="232.1,192.5 221.7,198.5 221.7,210.5 232.1,204.5 				"/>
				<linearGradient id="SVGID_54_" gradientUnits="userSpaceOnUse" x1="218.8774" y1="185.5034" x2="224.9597" y2="200.7092">
					<stop  offset="0" style="stop-color:#5940E7"/>
					<stop  offset="1" style="stop-color:#1BAFF8"/>
				</linearGradient>
				<polygon class="st58" points="221.7,186.4 211.3,192.5 221.7,198.5 232.1,192.5 				"/>
			</g>
		</g>
	</g>
	<g>
		<linearGradient id="SVGID_55_" gradientUnits="userSpaceOnUse" x1="226.9918" y1="226.4469" x2="279.3473" y2="226.4469">
			<stop  offset="0" style="stop-color:#5940E7"/>
			<stop  offset="1" style="stop-color:#1BAFF8"/>
		</linearGradient>
		<polygon class="st59" points="253.2,239.7 230.2,226.4 253.2,213.2 276.1,226.4 		"/>
		<g>
			<polygon class="st55" points="253.3,219.4 242.9,225.5 253.3,231.6 263.7,225.5 			"/>
			<g>
				<linearGradient id="SVGID_56_" gradientUnits="userSpaceOnUse" x1="242.8896" y1="219.7379" x2="253.2881" y2="219.7379">
					<stop  offset="0" style="stop-color:#5940E7"/>
					<stop  offset="1" style="stop-color:#1BAFF8"/>
				</linearGradient>
				<polygon class="st60" points="242.9,222.7 253.3,228.7 253.3,216.7 242.9,210.7 				"/>
				<linearGradient id="SVGID_57_" gradientUnits="userSpaceOnUse" x1="254.7298" y1="231.8373" x2="260.8122" y2="212.2523">
					<stop  offset="0" style="stop-color:#5940E7"/>
					<stop  offset="1" style="stop-color:#1BAFF8"/>
				</linearGradient>
				<polygon class="st61" points="263.7,210.7 253.3,216.7 253.3,228.7 263.7,222.7 				"/>
				<linearGradient id="SVGID_58_" gradientUnits="userSpaceOnUse" x1="250.4993" y1="203.7604" x2="256.5816" y2="218.9662">
					<stop  offset="0" style="stop-color:#5940E7"/>
					<stop  offset="1" style="stop-color:#1BAFF8"/>
				</linearGradient>
				<polygon class="st62" points="253.3,204.6 242.9,210.7 253.3,216.7 263.7,210.7 				"/>
			</g>
		</g>
	</g>
	<g>
		<linearGradient id="SVGID_59_" gradientUnits="userSpaceOnUse" x1="258.6138" y1="244.7038" x2="310.9692" y2="244.7038">
			<stop  offset="0" style="stop-color:#5940E7"/>
			<stop  offset="1" style="stop-color:#1BAFF8"/>
		</linearGradient>
		<polygon class="st63" points="284.8,258 261.8,244.7 284.8,231.5 307.7,244.7 		"/>
		<g>
			<polygon class="st55" points="284.9,237.7 274.5,243.8 284.9,249.8 295.3,243.8 			"/>
			<g>
				<linearGradient id="SVGID_60_" gradientUnits="userSpaceOnUse" x1="274.5115" y1="237.9948" x2="284.9101" y2="237.9948">
					<stop  offset="0" style="stop-color:#5940E7"/>
					<stop  offset="1" style="stop-color:#1BAFF8"/>
				</linearGradient>
				<polygon class="st64" points="274.5,241 284.9,247 284.9,235 274.5,229 				"/>
				<linearGradient id="SVGID_61_" gradientUnits="userSpaceOnUse" x1="286.3518" y1="250.0943" x2="292.4341" y2="230.5092">
					<stop  offset="0" style="stop-color:#5940E7"/>
					<stop  offset="1" style="stop-color:#1BAFF8"/>
				</linearGradient>
				<polygon class="st65" points="295.3,229 284.9,235 284.9,247 295.3,241 				"/>
				<linearGradient id="SVGID_62_" gradientUnits="userSpaceOnUse" x1="282.1213" y1="222.0173" x2="288.2036" y2="237.2231">
					<stop  offset="0" style="stop-color:#5940E7"/>
					<stop  offset="1" style="stop-color:#1BAFF8"/>
				</linearGradient>
				<polygon class="st66" points="284.9,222.9 274.5,229 284.9,235 295.3,229 				"/>
			</g>
		</g>
	</g>
	<g>
		<linearGradient id="SVGID_63_" gradientUnits="userSpaceOnUse" x1="290.2357" y1="262.9608" x2="342.5912" y2="262.9608">
			<stop  offset="0" style="stop-color:#5940E7"/>
			<stop  offset="1" style="stop-color:#1BAFF8"/>
		</linearGradient>
		<polygon class="st67" points="316.4,276.2 293.5,263 316.4,249.7 339.4,263 		"/>
		<g>
			<polygon class="st55" points="316.5,255.9 306.1,262.1 316.5,268.1 326.9,262.1 			"/>
			<g>
				<linearGradient id="SVGID_64_" gradientUnits="userSpaceOnUse" x1="306.1335" y1="256.2517" x2="316.532" y2="256.2517">
					<stop  offset="0" style="stop-color:#5940E7"/>
					<stop  offset="1" style="stop-color:#1BAFF8"/>
				</linearGradient>
				<polygon class="st68" points="306.1,259.3 316.5,265.3 316.5,253.2 306.1,247.2 				"/>
				<linearGradient id="SVGID_65_" gradientUnits="userSpaceOnUse" x1="317.9738" y1="268.3512" x2="324.0561" y2="248.7661">
					<stop  offset="0" style="stop-color:#5940E7"/>
					<stop  offset="1" style="stop-color:#1BAFF8"/>
				</linearGradient>
				<polygon class="st69" points="326.9,247.2 316.5,253.2 316.5,265.3 326.9,259.3 				"/>
				<linearGradient id="SVGID_66_" gradientUnits="userSpaceOnUse" x1="313.7432" y1="240.2742" x2="319.8255" y2="255.48">
					<stop  offset="0" style="stop-color:#5940E7"/>
					<stop  offset="1" style="stop-color:#1BAFF8"/>
				</linearGradient>
				<polygon class="st70" points="316.5,241.1 306.1,247.2 316.5,253.2 326.9,247.2 				"/>
			</g>
		</g>
	</g>
	<g>
		<linearGradient id="SVGID_67_" gradientUnits="userSpaceOnUse" x1="321.8577" y1="281.2177" x2="374.2131" y2="281.2177">
			<stop  offset="0" style="stop-color:#5940E7"/>
			<stop  offset="1" style="stop-color:#1BAFF8"/>
		</linearGradient>
		<polygon class="st71" points="348,294.5 325.1,281.2 348,268 371,281.2 		"/>
		<g>
			<polygon class="st55" points="348.2,274.2 337.8,280.3 348.2,286.3 358.6,280.3 			"/>
			<g>
				<linearGradient id="SVGID_68_" gradientUnits="userSpaceOnUse" x1="337.7554" y1="274.5087" x2="348.154" y2="274.5087">
					<stop  offset="0" style="stop-color:#5940E7"/>
					<stop  offset="1" style="stop-color:#1BAFF8"/>
				</linearGradient>
				<polygon class="st72" points="337.8,277.5 348.2,283.5 348.2,271.5 337.8,265.5 				"/>
				<linearGradient id="SVGID_69_" gradientUnits="userSpaceOnUse" x1="349.5957" y1="286.6082" x2="355.678" y2="267.0231">
					<stop  offset="0" style="stop-color:#5940E7"/>
					<stop  offset="1" style="stop-color:#1BAFF8"/>
				</linearGradient>
				<polygon class="st73" points="358.6,265.5 348.2,271.5 348.2,283.5 358.6,277.5 				"/>
				<linearGradient id="SVGID_70_" gradientUnits="userSpaceOnUse" x1="345.3652" y1="258.5312" x2="351.4475" y2="273.737">
					<stop  offset="0" style="stop-color:#5940E7"/>
					<stop  offset="1" style="stop-color:#1BAFF8"/>
				</linearGradient>
				<polygon class="st74" points="348.2,259.4 337.8,265.5 348.2,271.5 358.6,265.5 				"/>
			</g>
		</g>
	</g>
	<g>
		<g>
			<linearGradient id="SVGID_71_" gradientUnits="userSpaceOnUse" x1="491.0561" y1="112.0455" x2="480.5692" y2="74.4078">
				<stop  offset="0" style="stop-color:#5940E7"/>
				<stop  offset="1" style="stop-color:#1BAFF8"/>
			</linearGradient>
			<line class="st75" x1="485.8" y1="73.4" x2="485.8" y2="113.1"/>
			<ellipse class="st76" cx="485.8" cy="113.1" rx="3" ry="1.7"/>
			<ellipse class="st76" cx="485.8" cy="110.1" rx="3" ry="1.7"/>
			<ellipse class="st76" cx="485.8" cy="107.2" rx="3" ry="1.7"/>
			<ellipse class="st76" cx="485.8" cy="104.2" rx="3" ry="1.7"/>
		</g>
		<g>
			<linearGradient id="SVGID_72_" gradientUnits="userSpaceOnUse" x1="509.2889" y1="120.47" x2="498.8021" y2="82.8323">
				<stop  offset="0" style="stop-color:#5940E7"/>
				<stop  offset="1" style="stop-color:#1BAFF8"/>
			</linearGradient>
			<line class="st77" x1="504" y1="81.8" x2="504" y2="121.5"/>
			<ellipse class="st76" cx="504" cy="121.5" rx="3" ry="1.7"/>
			<ellipse class="st76" cx="504" cy="118.5" rx="3" ry="1.7"/>
			<ellipse class="st76" cx="504" cy="115.6" rx="3" ry="1.7"/>
			<ellipse class="st76" cx="504" cy="112.6" rx="3" ry="1.7"/>
		</g>
		<g>
			<g>
				<g>
					<path class="st78" d="M477,45.1c0,8.3,3.7,17.4,8.6,21.4c0.5,0.5,1.1,0.8,1.6,1.2l33.7,25.9l9.8-2.4c2.8-0.7,4.8-4.3,4.8-9.8
						c0-7.7-3.8-16.2-8.5-18.9c-0.9-0.5-1.7-0.8-2.5-0.8c0,0-2.3,0.3-4.2,0.8c0-11.2-6.2-24.6-13.8-29c-1.9-1.1-3.8-1.5-5.5-1.3
						l-9.2,2.3c-0.9,1.4,2,4.7,1.5,6.7c-1.7-3.1-3.8-5.5-6.1-6.8c-1.6-0.9-3.2-1.2-4.6-0.9l-9.5,2.3C472,37.7,477,41.4,477,45.1z"/>
					<linearGradient id="SVGID_73_" gradientUnits="userSpaceOnUse" x1="452.0553" y1="13.7502" x2="643.0401" y2="225.8029">
						<stop  offset="0" style="stop-color:#FFFFFF"/>
						<stop  offset="1" style="stop-color:#1BAFF8"/>
					</linearGradient>
					<path class="st79" d="M467.3,47.4c0,8.3,3.7,17.4,8.6,21.4c0.5,0.5,1.1,0.8,1.6,1.2l39.7,22.8c4.7,2.7,8.6-1.3,8.6-9
						c0-7.7-3.8-16.2-8.5-18.9c-2.7-1.5-5-0.9-6.6,1.3c-0.1-12.4-6.2-25.9-13.9-30.3c-6.1-3.5-11.2-0.1-13.1,7.6
						c-1.7-3.1-3.8-5.5-6.1-6.8C471.9,33.3,467.3,38.2,467.3,47.4z"/>
					<g>
						<path class="st80" d="M485.8,43.8l0.1,11.9c2,10.7,6.1,16,9.4,20.3c0.6,0.7,1.2,1.1,1.7,1.1c3-0.2,6.9-0.4,7.9-9.1l-1.1-12.5
							c0.1-0.5-0.7-2-1.4-2.8l-6.9-6.6c-0.6-0.5-1.1-0.9-1.7-1.1l-6.7-2.4C486.4,42.6,485.7,43.2,485.8,43.8z"/>
						<g>
							<path class="st81" d="M487.3,46.4l0.1,10.1c1.7,8.9,5.1,13.3,7.9,16.8c0.5,0.6,1,0.9,1.4,0.9c2.5-0.2,5.7-0.3,6.6-7.4
								l-0.9-10.4c0.1-0.4-0.6-1.7-1.2-2.3l-5.8-5.5c-0.5-0.4-1-0.8-1.4-0.9l-5.7-2C487.8,45.4,487.2,45.9,487.3,46.4z"/>
						</g>
						<g>
							<polygon class="st76" points="490.7,58.9 493.8,66.4 500.8,56.4 500,54.3 494.1,62.7 491.9,57.3 490.7,58.9 							"/>
						</g>
					</g>
				</g>
			</g>
		</g>
	</g>
	<g>
		<path class="st82" d="M458.6,201.6l-91.4,52.9c-2.3,1.3-5.9,1.4-8.1,0.1l-111.8-67c-2.2-1.3-2-3.4,0.3-4.7l91.2-52.9
			c2.3-1.3,5.9-1.4,8.1-0.2l111.9,66.9C461,198.2,460.9,200.3,458.6,201.6z"/>
		<g>
			<g>
				
					<linearGradient id="SVGID_74_" gradientUnits="userSpaceOnUse" x1="3432.2" y1="192.3713" x2="3620.2705" y2="192.3713" gradientTransform="matrix(-1 0 0 1 3878.2778 0)">
					<stop  offset="0" style="stop-color:#7D57C4"/>
					<stop  offset="7.657103e-02" style="stop-color:#8B6CCD;stop-opacity:0.9104"/>
					<stop  offset="0.2527" style="stop-color:#A898DE;stop-opacity:0.7044"/>
					<stop  offset="0.4232" style="stop-color:#BFBAEC;stop-opacity:0.5049"/>
					<stop  offset="0.5843" style="stop-color:#D0D2F6;stop-opacity:0.3164"/>
					<stop  offset="0.7323" style="stop-color:#DAE1FC;stop-opacity:0.1433"/>
					<stop  offset="0.8547" style="stop-color:#DDE6FE;stop-opacity:0"/>
				</linearGradient>
				<path class="st83" d="M260.4,185.8l103.5,59.4c2.5,1.4,5.9,1.8,7.7,0.7l73.4-42.4c0.7-0.4,1-1,1-1.6l0-5.8l-105.5-56.7
					c-2.5-1.4-6-1.8-7.8-0.8L258,177.3c0,0,0,4.9,0,5.5C258,183.8,258.8,184.9,260.4,185.8z"/>
				<path class="st55" d="M261.1,181.5l103.5,59.4c2.5,1.4,5.9,1.8,7.7,0.7l73.4-42.4c0.7-0.4,1-1,1-1.6l0-5.8l-105.5-56.7
					c-2.5-1.4-6-1.8-7.8-0.8L258.7,173c0,0,0,4.9,0,5.5C258.7,179.5,259.5,180.6,261.1,181.5z"/>
				
					<linearGradient id="SVGID_75_" gradientUnits="userSpaceOnUse" x1="3431.5015" y1="182.533" x2="3619.572" y2="182.533" gradientTransform="matrix(-1 0 0 1 3878.2778 0)">
					<stop  offset="0" style="stop-color:#5940E7"/>
					<stop  offset="1" style="stop-color:#1BAFF8"/>
				</linearGradient>
				<path class="st84" d="M261.1,176l103.5,59.4c2.5,1.4,5.9,1.8,7.7,0.7l73.4-42.4c1.8-1,1.2-3-1.3-4.5l-103.2-59.6
					c-2.5-1.4-6-1.8-7.8-0.8l-73.7,42.6C258,172.5,258.5,174.5,261.1,176z"/>
				<g>
					<path class="st44" d="M308.3,194.8l19.7,11.3c0.5,0.3,1.1,0.3,1.5,0.1l14-8.1c0.3-0.2,0.2-0.6-0.2-0.8L323.6,186
						c-0.5-0.3-1.1-0.3-1.5-0.1l-14,8.1C307.7,194.2,307.8,194.5,308.3,194.8z"/>
					<g>
						<path class="st85" d="M411.5,192l6.5,3.8c0.2,0.1,0.4,0.1,0.5,0l4.6-2.7c0.1-0.1,0.1-0.2-0.1-0.3l-6.5-3.8
							c-0.2-0.1-0.4-0.1-0.5,0l-4.7,2.7C411.3,191.7,411.3,191.9,411.5,192z"/>
						<path class="st85" d="M401,185.9l6.5,3.8c0.2,0.1,0.4,0.1,0.5,0l4.6-2.7c0.1-0.1,0.1-0.2-0.1-0.3l-6.5-3.8
							c-0.2-0.1-0.4-0.1-0.5,0l-4.7,2.7C400.8,185.7,400.8,185.8,401,185.9z"/>
						<path class="st85" d="M390.4,179.8l6.5,3.8c0.2,0.1,0.4,0.1,0.5,0l4.6-2.7c0.1-0.1,0.1-0.2-0.1-0.3l-6.5-3.8
							c-0.2-0.1-0.4-0.1-0.5,0l-4.7,2.7C390.2,179.6,390.3,179.7,390.4,179.8z"/>
						<path class="st85" d="M379.9,173.7l6.5,3.8c0.2,0.1,0.4,0.1,0.5,0l4.6-2.7c0.1-0.1,0.1-0.2-0.1-0.3l-6.5-3.8
							c-0.2-0.1-0.4-0.1-0.5,0l-4.7,2.7C379.7,173.5,379.7,173.6,379.9,173.7z"/>
						<path class="st85" d="M369.3,167.6l6.5,3.8c0.2,0.1,0.4,0.1,0.5,0l4.6-2.7c0.1-0.1,0.1-0.2-0.1-0.3l-6.5-3.8
							c-0.2-0.1-0.4-0.1-0.5,0l-4.7,2.7C369.1,167.4,369.2,167.5,369.3,167.6z"/>
						<path class="st85" d="M358.8,161.5l6.5,3.8c0.2,0.1,0.4,0.1,0.5,0l4.6-2.7c0.1-0.1,0.1-0.2-0.1-0.3l-6.5-3.8
							c-0.2-0.1-0.4-0.1-0.5,0l-4.7,2.7C358.6,161.3,358.6,161.4,358.8,161.5z"/>
						<path class="st85" d="M348.2,155.4l6.5,3.8c0.2,0.1,0.4,0.1,0.5,0l4.6-2.7c0.1-0.1,0.1-0.2-0.1-0.3l-6.5-3.8
							c-0.2-0.1-0.4-0.1-0.5,0l-4.7,2.7C348,155.2,348.1,155.3,348.2,155.4z"/>
						<path class="st85" d="M337.7,149.3l6.5,3.8c0.2,0.1,0.4,0.1,0.5,0l4.6-2.7c0.1-0.1,0.1-0.2-0.1-0.3l-6.5-3.8
							c-0.2-0.1-0.4-0.1-0.5,0l-4.7,2.7C337.5,149.1,337.5,149.3,337.7,149.3z"/>
						<path class="st85" d="M327.1,143.3l6.5,3.8c0.2,0.1,0.4,0.1,0.5,0l4.6-2.7c0.1-0.1,0.1-0.2-0.1-0.3l-6.5-3.8
							c-0.2-0.1-0.4-0.1-0.5,0l-4.7,2.7C327,143,327,143.2,327.1,143.3z"/>
					</g>
					<g>
						<path class="st85" d="M404.5,196l6.5,3.8c0.2,0.1,0.4,0.1,0.5,0l4.6-2.7c0.1-0.1,0.1-0.2-0.1-0.3l-6.5-3.8
							c-0.2-0.1-0.4-0.1-0.5,0l-4.7,2.7C404.3,195.8,404.3,195.9,404.5,196z"/>
						<path class="st85" d="M393.9,189.9l6.5,3.8c0.2,0.1,0.4,0.1,0.5,0l4.6-2.7c0.1-0.1,0.1-0.2-0.1-0.3L399,187
							c-0.2-0.1-0.4-0.1-0.5,0l-4.7,2.7C393.8,189.7,393.8,189.8,393.9,189.9z"/>
						<path class="st85" d="M383.4,183.8l6.5,3.8c0.2,0.1,0.4,0.1,0.5,0l4.6-2.7c0.1-0.1,0.1-0.2-0.1-0.3l-6.5-3.8
							c-0.2-0.1-0.4-0.1-0.5,0l-4.7,2.7C383.2,183.6,383.2,183.7,383.4,183.8z"/>
						<path class="st85" d="M372.9,177.7l6.5,3.8c0.2,0.1,0.4,0.1,0.5,0l4.6-2.7c0.1-0.1,0.1-0.2-0.1-0.3l-6.5-3.8
							c-0.2-0.1-0.4-0.1-0.5,0l-4.7,2.7C372.7,177.5,372.7,177.7,372.9,177.7z"/>
						<path class="st85" d="M362.3,171.7l6.5,3.8c0.2,0.1,0.4,0.1,0.5,0l4.6-2.7c0.1-0.1,0.1-0.2-0.1-0.3l-6.5-3.8
							c-0.2-0.1-0.4-0.1-0.5,0l-4.7,2.7C362.1,171.4,362.2,171.6,362.3,171.7z"/>
						<path class="st85" d="M351.8,165.6l6.5,3.8c0.2,0.1,0.4,0.1,0.5,0l4.6-2.7c0.1-0.1,0.1-0.2-0.1-0.3l-6.5-3.8
							c-0.2-0.1-0.4-0.1-0.5,0l-4.7,2.7C351.6,165.3,351.6,165.5,351.8,165.6z"/>
						<path class="st85" d="M341.2,159.5l6.5,3.8c0.2,0.1,0.4,0.1,0.5,0l4.6-2.7c0.1-0.1,0.1-0.2-0.1-0.3l-6.5-3.8
							c-0.2-0.1-0.4-0.1-0.5,0l-4.7,2.7C341,159.3,341.1,159.4,341.2,159.5z"/>
						<path class="st85" d="M330.7,153.4l6.5,3.8c0.2,0.1,0.4,0.1,0.5,0l4.6-2.7c0.1-0.1,0.1-0.2-0.1-0.3l-6.5-3.8
							c-0.2-0.1-0.4-0.1-0.5,0l-4.7,2.7C330.5,153.2,330.5,153.3,330.7,153.4z"/>
						<path class="st85" d="M320.1,147.3l6.5,3.8c0.2,0.1,0.4,0.1,0.5,0l4.6-2.7c0.1-0.1,0.1-0.2-0.1-0.3l-6.5-3.8
							c-0.2-0.1-0.4-0.1-0.5,0l-4.7,2.7C319.9,147.1,320,147.2,320.1,147.3z"/>
					</g>
					<g>
						<path class="st85" d="M397.5,200.1l6.5,3.8c0.2,0.1,0.4,0.1,0.5,0l4.6-2.7c0.1-0.1,0.1-0.2-0.1-0.3l-6.5-3.8
							c-0.2-0.1-0.4-0.1-0.5,0l-4.7,2.7C397.3,199.8,397.3,200,397.5,200.1z"/>
						<path class="st85" d="M386.9,194l6.5,3.8c0.2,0.1,0.4,0.1,0.5,0l4.6-2.7c0.1-0.1,0.1-0.2-0.1-0.3L392,191
							c-0.2-0.1-0.4-0.1-0.5,0l-4.7,2.7C386.7,193.7,386.8,193.9,386.9,194z"/>
						<path class="st85" d="M376.4,187.9l6.5,3.8c0.2,0.1,0.4,0.1,0.5,0l4.6-2.7c0.1-0.1,0.1-0.2-0.1-0.3l-6.5-3.8
							c-0.2-0.1-0.4-0.1-0.5,0l-4.7,2.7C376.2,187.7,376.2,187.8,376.4,187.9z"/>
						<path class="st85" d="M365.8,181.8l6.5,3.8c0.2,0.1,0.4,0.1,0.5,0l4.6-2.7c0.1-0.1,0.1-0.2-0.1-0.3l-6.5-3.8
							c-0.2-0.1-0.4-0.1-0.5,0l-4.7,2.7C365.6,181.6,365.7,181.7,365.8,181.8z"/>
						<path class="st85" d="M355.3,175.7l6.5,3.8c0.2,0.1,0.4,0.1,0.5,0l4.6-2.7c0.1-0.1,0.1-0.2-0.1-0.3l-6.5-3.8
							c-0.2-0.1-0.4-0.1-0.5,0l-4.7,2.7C355.1,175.5,355.1,175.6,355.3,175.7z"/>
						<path class="st85" d="M344.8,169.6l6.5,3.8c0.2,0.1,0.4,0.1,0.5,0l4.6-2.7c0.1-0.1,0.1-0.2-0.1-0.3l-6.5-3.8
							c-0.2-0.1-0.4-0.1-0.5,0l-4.7,2.7C344.6,169.4,344.6,169.5,344.8,169.6z"/>
						<path class="st85" d="M334.2,163.5l6.5,3.8c0.2,0.1,0.4,0.1,0.5,0l4.6-2.7c0.1-0.1,0.1-0.2-0.1-0.3l-6.5-3.8
							c-0.2-0.1-0.4-0.1-0.5,0l-4.7,2.7C334,163.3,334.1,163.4,334.2,163.5z"/>
						<path class="st85" d="M323.7,157.4l6.5,3.8c0.2,0.1,0.4,0.1,0.5,0l4.6-2.7c0.1-0.1,0.1-0.2-0.1-0.3l-6.5-3.8
							c-0.2-0.1-0.4-0.1-0.5,0l-4.7,2.7C323.5,157.2,323.5,157.3,323.7,157.4z"/>
						<path class="st85" d="M313.1,151.4l6.5,3.8c0.2,0.1,0.4,0.1,0.5,0l4.6-2.7c0.1-0.1,0.1-0.2-0.1-0.3l-6.5-3.8
							c-0.2-0.1-0.4-0.1-0.5,0l-4.7,2.7C312.9,151.1,313,151.3,313.1,151.4z"/>
					</g>
					<g>
						<path class="st85" d="M390.5,204.1l6.5,3.8c0.2,0.1,0.4,0.1,0.5,0l4.6-2.7c0.1-0.1,0.1-0.2-0.1-0.3l-6.5-3.8
							c-0.2-0.1-0.4-0.1-0.5,0l-4.7,2.7C390.3,203.9,390.3,204,390.5,204.1z"/>
						<path class="st85" d="M379.9,198l6.5,3.8c0.2,0.1,0.4,0.1,0.5,0l4.6-2.7c0.1-0.1,0.1-0.2-0.1-0.3l-6.5-3.8
							c-0.2-0.1-0.4-0.1-0.5,0l-4.7,2.7C379.7,197.8,379.8,197.9,379.9,198z"/>
						<path class="st85" d="M369.4,191.9l6.5,3.8c0.2,0.1,0.4,0.1,0.5,0l4.6-2.7c0.1-0.1,0.1-0.2-0.1-0.3l-6.5-3.8
							c-0.2-0.1-0.4-0.1-0.5,0l-4.7,2.7C369.2,191.7,369.2,191.8,369.4,191.9z"/>
						<path class="st85" d="M358.8,185.8l6.5,3.8c0.2,0.1,0.4,0.1,0.5,0l4.6-2.7c0.1-0.1,0.1-0.2-0.1-0.3l-6.5-3.8
							c-0.2-0.1-0.4-0.1-0.5,0l-4.7,2.7C358.6,185.6,358.7,185.7,358.8,185.8z"/>
						<path class="st85" d="M348.3,179.8l6.5,3.8c0.2,0.1,0.4,0.1,0.5,0l4.6-2.7c0.1-0.1,0.1-0.2-0.1-0.3l-6.5-3.8
							c-0.2-0.1-0.4-0.1-0.5,0l-4.7,2.7C348.1,179.5,348.1,179.7,348.3,179.8z"/>
						<path class="st85" d="M337.7,173.7l6.5,3.8c0.2,0.1,0.4,0.1,0.5,0l4.6-2.7c0.1-0.1,0.1-0.2-0.1-0.3l-6.5-3.8
							c-0.2-0.1-0.4-0.1-0.5,0l-4.7,2.7C337.5,173.4,337.6,173.6,337.7,173.7z"/>
						<path class="st85" d="M327.2,167.6l6.5,3.8c0.2,0.1,0.4,0.1,0.5,0l4.6-2.7c0.1-0.1,0.1-0.2-0.1-0.3l-6.5-3.8
							c-0.2-0.1-0.4-0.1-0.5,0l-4.7,2.7C327,167.4,327,167.5,327.2,167.6z"/>
						<path class="st85" d="M316.7,161.5l6.5,3.8c0.2,0.1,0.4,0.1,0.5,0l4.6-2.7c0.1-0.1,0.1-0.2-0.1-0.3l-6.5-3.8
							c-0.2-0.1-0.4-0.1-0.5,0l-4.7,2.7C316.5,161.3,316.5,161.4,316.7,161.5z"/>
						<path class="st85" d="M306.1,155.4l6.5,3.8c0.2,0.1,0.4,0.1,0.5,0l4.6-2.7c0.1-0.1,0.1-0.2-0.1-0.3l-6.5-3.8
							c-0.2-0.1-0.4-0.1-0.5,0l-4.7,2.7C305.9,155.2,306,155.3,306.1,155.4z"/>
					</g>
					<g>
						<path class="st85" d="M383.5,208.2l6.5,3.8c0.2,0.1,0.4,0.1,0.5,0l4.6-2.7c0.1-0.1,0.1-0.2-0.1-0.3l-6.5-3.8
							c-0.2-0.1-0.4-0.1-0.5,0l-4.7,2.7C383.3,207.9,383.3,208.1,383.5,208.2z"/>
						<path class="st85" d="M372.9,202.1l6.5,3.8c0.2,0.1,0.4,0.1,0.5,0l4.6-2.7c0.1-0.1,0.1-0.2-0.1-0.3l-6.5-3.8
							c-0.2-0.1-0.4-0.1-0.5,0l-4.7,2.7C372.7,201.8,372.8,202,372.9,202.1z"/>
						<path class="st85" d="M362.4,196l6.5,3.8c0.2,0.1,0.4,0.1,0.5,0l4.6-2.7c0.1-0.1,0.1-0.2-0.1-0.3l-6.5-3.8
							c-0.2-0.1-0.4-0.1-0.5,0l-4.7,2.7C362.2,195.8,362.2,195.9,362.4,196z"/>
						<path class="st85" d="M351.8,189.9l6.5,3.8c0.2,0.1,0.4,0.1,0.5,0l4.6-2.7c0.1-0.1,0.1-0.2-0.1-0.3l-6.5-3.8
							c-0.2-0.1-0.4-0.1-0.5,0l-4.7,2.7C351.6,189.7,351.7,189.8,351.8,189.9z"/>
						<path class="st85" d="M341.3,183.8l6.5,3.8c0.2,0.1,0.4,0.1,0.5,0l4.6-2.7c0.1-0.1,0.1-0.2-0.1-0.3l-6.5-3.8
							c-0.2-0.1-0.4-0.1-0.5,0l-4.7,2.7C341.1,183.6,341.1,183.7,341.3,183.8z"/>
						<path class="st85" d="M330.7,177.7l6.5,3.8c0.2,0.1,0.4,0.1,0.5,0l4.6-2.7c0.1-0.1,0.1-0.2-0.1-0.3l-6.5-3.8
							c-0.2-0.1-0.4-0.1-0.5,0l-4.7,2.7C330.5,177.5,330.6,177.6,330.7,177.7z"/>
						<path class="st85" d="M320.2,171.6l6.5,3.8c0.2,0.1,0.4,0.1,0.5,0l4.6-2.7c0.1-0.1,0.1-0.2-0.1-0.3l-6.5-3.8
							c-0.2-0.1-0.4-0.1-0.5,0l-4.7,2.7C320,171.4,320,171.5,320.2,171.6z"/>
						<path class="st85" d="M309.6,165.5l6.5,3.8c0.2,0.1,0.4,0.1,0.5,0l4.6-2.7c0.1-0.1,0.1-0.2-0.1-0.3l-6.5-3.8
							c-0.2-0.1-0.4-0.1-0.5,0l-4.7,2.7C309.4,165.3,309.5,165.4,309.6,165.5z"/>
						<path class="st85" d="M299.1,159.4l6.5,3.8c0.2,0.1,0.4,0.1,0.5,0l4.6-2.7c0.1-0.1,0.1-0.2-0.1-0.3l-6.5-3.8
							c-0.2-0.1-0.4-0.1-0.5,0l-4.7,2.7C298.9,159.2,298.9,159.4,299.1,159.4z"/>
					</g>
					<g>
						<path class="st85" d="M376.4,212.2l6.5,3.8c0.2,0.1,0.4,0.1,0.5,0l4.6-2.7c0.1-0.1,0.1-0.2-0.1-0.3l-6.5-3.8
							c-0.2-0.1-0.4-0.1-0.5,0l-4.7,2.7C376.2,212,376.3,212.1,376.4,212.2z"/>
						<path class="st85" d="M365.9,206.1l6.5,3.8c0.2,0.1,0.4,0.1,0.5,0l4.6-2.7c0.1-0.1,0.1-0.2-0.1-0.3l-6.5-3.8
							c-0.2-0.1-0.4-0.1-0.5,0l-4.7,2.7C365.7,205.9,365.7,206,365.9,206.1z"/>
						<path class="st85" d="M355.4,200l6.5,3.8c0.2,0.1,0.4,0.1,0.5,0l4.6-2.7c0.1-0.1,0.1-0.2-0.1-0.3l-6.5-3.8
							c-0.2-0.1-0.4-0.1-0.5,0l-4.7,2.7C355.2,199.8,355.2,199.9,355.4,200z"/>
						<path class="st85" d="M344.8,193.9l6.5,3.8c0.2,0.1,0.4,0.1,0.5,0l4.6-2.7c0.1-0.1,0.1-0.2-0.1-0.3l-6.5-3.8
							c-0.2-0.1-0.4-0.1-0.5,0l-4.7,2.7C344.6,193.7,344.7,193.8,344.8,193.9z"/>
						<path class="st85" d="M334.3,187.8l6.5,3.8c0.2,0.1,0.4,0.1,0.5,0l4.6-2.7c0.1-0.1,0.1-0.2-0.1-0.3l-6.5-3.8
							c-0.2-0.1-0.4-0.1-0.5,0l-4.7,2.7C334.1,187.6,334.1,187.8,334.3,187.8z"/>
						<path class="st85" d="M323.7,181.8l6.5,3.8c0.2,0.1,0.4,0.1,0.5,0l4.6-2.7c0.1-0.1,0.1-0.2-0.1-0.3l-6.5-3.8
							c-0.2-0.1-0.4-0.1-0.5,0l-4.7,2.7C323.5,181.5,323.6,181.7,323.7,181.8z"/>
						<path class="st85" d="M313.2,175.7l6.5,3.8c0.2,0.1,0.4,0.1,0.5,0l4.6-2.7c0.1-0.1,0.1-0.2-0.1-0.3l-6.5-3.8
							c-0.2-0.1-0.4-0.1-0.5,0l-4.7,2.7C313,175.5,313,175.6,313.2,175.7z"/>
						<path class="st85" d="M302.6,169.6l6.5,3.8c0.2,0.1,0.4,0.1,0.5,0l4.6-2.7c0.1-0.1,0.1-0.2-0.1-0.3l-6.5-3.8
							c-0.2-0.1-0.4-0.1-0.5,0l-4.7,2.7C302.4,169.4,302.5,169.5,302.6,169.6z"/>
						<path class="st85" d="M292.1,163.5l6.5,3.8c0.2,0.1,0.4,0.1,0.5,0l4.6-2.7c0.1-0.1,0.1-0.2-0.1-0.3l-6.5-3.8
							c-0.2-0.1-0.4-0.1-0.5,0l-4.7,2.7C291.9,163.3,291.9,163.4,292.1,163.5z"/>
					</g>
				</g>
			</g>
			<path class="st86" d="M333.8,133.9l103.5,59.4c2.5,1.4,5.9,1.8,7.7,0.7l0.7-0.4c1.8-1,1.2-3-1.3-4.5l-103.2-59.6
				c-2.5-1.4-6-1.8-7.8-0.8l-1,0.6C330.7,130.5,331.3,132.5,333.8,133.9z"/>
			<g>
				<path class="st55" d="M338.8,129.5l103.2,59.6c2.5,1.4,4.5,0.9,4.5-1.1v-85.1c0-2.1-2-4.9-4.5-6.3L338.8,36.9
					c-2.5-1.4-4.5-0.9-4.5,1.1l0,85.2C334.3,125.3,336.3,128.1,338.8,129.5z"/>
				
					<linearGradient id="SVGID_76_" gradientUnits="userSpaceOnUse" x1="3507.0715" y1="38.1292" x2="3471.8428" y2="197.7262" gradientTransform="matrix(-1 0 0 1 3878.2778 0)">
					<stop  offset="0" style="stop-color:#5940E7"/>
					<stop  offset="1" style="stop-color:#1BAFF8"/>
				</linearGradient>
				<path class="st87" d="M336.5,131l103.2,59.6c2.5,1.4,4.5,0.9,4.5-1.1v-85.1c0-2.1-2-4.9-4.5-6.3L336.5,38.4
					c-2.5-1.4-4.5-0.9-4.5,1.1l0,85.2C331.9,126.7,334,129.6,336.5,131z"/>
				<g class="st88">
					<image style="overflow:visible;" width="179" height="219" xlink:href="FD55A51.png"  transform="matrix(1 0 0 1 297 4.1)">
					</image>
				</g>
				<path class="st89" d="M339.4,128.8l94.2,54.4c2.3,1.3,4.1,0.9,4.1-1v-77.7c0-1.9-1.8-4.5-4.1-5.8l-94.2-54.4
					c-2.3-1.3-4.1-0.9-4.1,1l0,77.7C335.2,124.9,337.1,127.5,339.4,128.8z"/>
			</g>
			<g>
				<g>
					<path class="st82" d="M517.1,149.8c0,4.5-1.1,8.1-3,10.5c-0.8,1-1.6,1.8-2.6,2.4l-0.1,0.1c-3.7,2.2-8.8,2-14.5-1.3
						c-11.2-6.5-20.2-22.2-20.2-35.1c0-6.6,2.4-11.2,6.1-13.2c1.1-0.6,2.2-0.9,3.5-1.1c3.1-0.4,6.7,0.4,10.6,2.7
						C508,121.2,517.1,136.9,517.1,149.8z"/>
					<g>
						<path class="st80" d="M506.8,152.7c0,3.9-1,7-2.6,9.1c-0.7,0.9-1.4,1.5-2.3,2.1l-0.1,0.1c-3.2,1.9-7.6,1.7-12.5-1.1
							c-9.7-5.6-17.5-19.2-17.5-30.4c0-5.7,2-9.7,5.3-11.5c0.9-0.5,1.9-0.8,3-1c2.7-0.4,5.8,0.3,9.2,2.3
							C499,127.9,506.8,141.5,506.8,152.7z"/>
						<path class="st90" d="M502.1,150c0,2.8-0.7,5.1-1.9,6.7c-0.5,0.6-1,1.1-1.7,1.5l-0.1,0c-2.3,1.4-5.6,1.2-9.1-0.8
							c-7.1-4.1-12.8-14-12.8-22.1c0-4.2,1.5-7.1,3.9-8.4c0.7-0.4,1.4-0.6,2.2-0.7c2-0.3,4.3,0.3,6.7,1.7
							C496.3,131.9,502.1,141.8,502.1,150z"/>
						<path class="st91" d="M502.1,149.4c0,2.8-0.7,5-1.9,6.5c-0.5,0.6-1,1.1-1.6,1.5l-0.1,0c-2.3,1.4-5.4,1.2-8.9-0.8
							c-6.9-4-12.5-13.7-12.5-21.6c0-4.1,1.5-6.9,3.8-8.2c0.6-0.4,1.4-0.6,2.1-0.7c1.9-0.3,4.2,0.2,6.6,1.6
							C496.5,131.8,502.1,141.5,502.1,149.4z"/>
						<path class="st92" d="M512.5,149.4c0,5.3-1.8,9.1-4.7,11.1l0,0L507,161l-5.1,2.9c0.9-0.5,1.6-1.2,2.3-2.1
							c1.7-2.1,2.6-5.2,2.6-9.1c0-11.2-7.8-24.8-17.5-30.4c-3.4-2-6.5-2.7-9.2-2.3c-1.1,0.1-2.1,0.5-3,1l4.8-2.7l0,0l1.6-0.9
							c3.1-1.3,7.1-0.9,11.5,1.7C504.7,124.6,512.5,138.2,512.5,149.4z"/>
					</g>
				</g>
				<g>
					<path class="st93" d="M500.2,141.4c3.4,8.7,1.4,16.2-4.5,16.8c-5.9,0.6-13.4-6.1-16.8-14.8c-3.4-8.8-1.3-16.2,4.6-16.7
						C489.4,126.1,496.9,132.7,500.2,141.4z"/>
					<path class="st94" d="M493.8,143.9c0,0,1.5,0.3,1.4-2.5c0-2.9-3.1-5.1-4-5.7l0-3.6l-1.8-1l0,3.6l-1.3-0.7l0-3.6l-1.8-1l0,3.6
						l-3.4-2l0,2c0,0,0.5,0.3,1.3,0.8c0.8,0.5,0.9,1.3,0.9,1.3s0,8.7,0,9.2c0,0.4-0.4,0.3-0.4,0.3l-1.5-0.9l-0.5,2.3l3.6,2l0,3.4
						l1.8,1l0-3.4l1.3,0.7l0,3.4l1.8,1l0-3.4c0.1,0.1,0.3,0.2,0.7,0.4c3,1.5,4.4,0.5,4.4-2.4C496.3,145.9,493.8,143.9,493.8,143.9z
						 M488.1,136.2l1.8,1c0,0,2.2,1.4,2.2,3.3c0,1.9-2.4,0.6-2.4,0.6l-1.6-0.9L488.1,136.2z M490,147.7l-2-1.1l0-4.4l2.1,1.2
						c0,0,2.7,1.7,2.7,3.7C492.9,149.2,490,147.7,490,147.7z"/>
				</g>
			</g>
			<g>
				<g>
					<polygon class="st95" points="340.3,52.1 386.8,79 386.8,133.3 340.3,106.5 					"/>
					<line class="st95" x1="340.3" y1="97.4" x2="386.8" y2="124.3"/>
					<line class="st95" x1="340.3" y1="88.4" x2="386.8" y2="115.2"/>
					<line class="st95" x1="340.3" y1="79.3" x2="386.8" y2="106.1"/>
					<line class="st95" x1="340.3" y1="70.2" x2="386.8" y2="97.1"/>
					<line class="st95" x1="340.3" y1="61.2" x2="386.8" y2="88"/>
					<line class="st95" x1="379" y1="74.5" x2="379" y2="128.9"/>
					<line class="st95" x1="371.3" y1="70" x2="371.3" y2="124.4"/>
					<line class="st95" x1="363.5" y1="65.5" x2="363.5" y2="119.9"/>
					<line class="st95" x1="355.8" y1="61.1" x2="355.8" y2="115.4"/>
					<line class="st95" x1="348.1" y1="56.6" x2="348.1" y2="111"/>
				</g>
				<g>
					<polygon class="st95" points="386.8,79 433.3,105.8 433.3,160.2 386.8,133.3 					"/>
					<line class="st95" x1="386.8" y1="124.3" x2="433.3" y2="151.1"/>
					<line class="st95" x1="386.8" y1="115.2" x2="433.3" y2="142"/>
					<line class="st95" x1="386.8" y1="106.1" x2="433.3" y2="133"/>
					<line class="st95" x1="386.8" y1="97.1" x2="433.3" y2="123.9"/>
					<line class="st95" x1="386.8" y1="88" x2="433.3" y2="114.9"/>
					<line class="st95" x1="425.5" y1="101.3" x2="425.5" y2="155.7"/>
					<line class="st95" x1="417.8" y1="96.8" x2="417.8" y2="151.2"/>
					<line class="st95" x1="410" y1="92.4" x2="410" y2="146.7"/>
					<line class="st95" x1="402.3" y1="87.9" x2="402.3" y2="142.3"/>
					<line class="st95" x1="394.5" y1="83.4" x2="394.5" y2="137.8"/>
				</g>
				<g>
					<path class="st80" d="M424.6,132.6c-1.6,10-6.1,19.4-12.4-4.7s-15.2-9.3-18.9-0.1c-8.4,8.6-15.6-26.9-19.5-28.7
						c-4-1.8-5,14.3-9.7,16.5c-1.9,0.4-4.6-9.6-4.6-9.6s-2.4-18.3-8.3-21.5c-5.9-3.2-11.7,14-10.8,30.8c0,0,92.9,53.6,92.9,53.6
						v-36.8C429.8,129.8,426,128.2,424.6,132.6z"/>
					<path class="st82" d="M425.8,145.6c-1.8-0.3-2-3.4-3.1-5.3c-1-1.6-2.8-3.1-3.8-2.8c-1.6,0.6-2,2.5-3.1,4
						c-1.2,1.2-1.9,3.6-3.9,2.9c-4.5-1.7-8.5-7.4-10.8-12.6c-3.5-7.9-4.1-18.5-11.4-23.5c-0.9-0.5-1.9,1.1-2.5,2.3
						c-2.2,4.2-1.6,12.4-7.6,11.3c-2-0.3-3.8-3.5-5.3-6c-4.1-6.4-6.3-13.8-11.4-18.7c-4.1-4-9.4-5-13.2-4.2
						c-1.6,0.4-2.6,1.7-4.2,2.3c-1.7,0.4-3.5,0.7-5.2,1v23.5l93,53.7v-31.3c-0.6,0.2-1.1,0.3-1.6,0.5
						C429.4,143.4,428.6,146.2,425.8,145.6z"/>
					<path class="st44" d="M430,154.6c-0.6-1.1-2.7-7.3-5.6-8.8c-2.3-1.2-3.4,4.2-5.1,5c-2.4,1.1-2.9-5.1-4.9-7
						c-4.5-4.4-2.1,9.4-4.8,7.8c-2.6-1.5-3.6-8.3-4.9-12.9c-7-34-8.8,5.9-16.7,1.8c-7.9-4.1-5.3-15.9-11.8-21.3
						c-6.5-4.4-5.8,8.9-11,7.7c-11.9-5,0.1-25.3-25-16.7c0,0,0,14.6,0,14.6l93,53.7v-27.8C432.2,151.3,431.6,156.9,430,154.6z"/>
				</g>
			</g>
			<path class="st81" d="M355.3,69.5c0,0,1.1,0.2,1.1-2c0-2.3-2.4-3.9-3.1-4.4l0-2.8l-1.4-0.8l0,2.8l-1-0.6l0-2.8l-1.4-0.8l0,2.8
				l-2.7-1.5l0,1.6c0,0,0.4,0.2,1,0.6c0.6,0.4,0.7,1,0.7,1s0,6.7,0,7.1c0,0.3-0.3,0.2-0.3,0.2l-1.2-0.7l-0.4,1.8l2.8,1.6l0,2.6
				l1.4,0.8l0-2.6l1,0.6l0,2.6l1.4,0.8l0-2.6c0.1,0,0.2,0.1,0.5,0.3c2.3,1.2,3.4,0.4,3.4-1.8C357.2,71,355.3,69.5,355.3,69.5z
				 M350.9,63.6l1.4,0.8c0,0,1.7,1.1,1.7,2.5c0,1.4-1.8,0.5-1.8,0.5l-1.2-0.7L350.9,63.6z M352.4,72.4l-1.5-0.9l0-3.4l1.6,0.9
				c0,0,2.1,1.3,2.1,2.9C354.6,73.6,352.4,72.4,352.4,72.4z"/>
		</g>
		<linearGradient id="SVGID_77_" gradientUnits="userSpaceOnUse" x1="329.9513" y1="190.9366" x2="340.7676" y2="163.1368">
			<stop  offset="0" style="stop-color:#FFFFFF"/>
			<stop  offset="0.231" style="stop-color:#F1F5FF;stop-opacity:0.7298"/>
			<stop  offset="0.5719" style="stop-color:#E2EAFE;stop-opacity:0.3309"/>
			<stop  offset="0.8547" style="stop-color:#DDE6FE;stop-opacity:0"/>
		</linearGradient>
		<polygon class="st96" points="326.8,164.3 326.8,189 341.1,197.1 341.1,172.4 		"/>
		<linearGradient id="SVGID_78_" gradientUnits="userSpaceOnUse" x1="316.05" y1="199.2859" x2="326.8663" y2="171.4861">
			<stop  offset="0" style="stop-color:#FFFFFF"/>
			<stop  offset="0.231" style="stop-color:#F1F5FF;stop-opacity:0.7298"/>
			<stop  offset="0.5719" style="stop-color:#E2EAFE;stop-opacity:0.3309"/>
			<stop  offset="0.8547" style="stop-color:#DDE6FE;stop-opacity:0"/>
		</linearGradient>
		<polygon class="st97" points="312.9,172.6 312.9,197.3 327.2,205.4 327.2,180.7 		"/>
	</g>
	<polygon class="st98" points="340.3,119.7 433.3,173.4 433.3,178.4 340.3,124.7 	"/>
	<g>
		<linearGradient id="SVGID_79_" gradientUnits="userSpaceOnUse" x1="349.4703" y1="168.5916" x2="283.9767" y2="156.6837">
			<stop  offset="0" style="stop-color:#7D57C4"/>
			<stop  offset="7.657103e-02" style="stop-color:#8B6CCD;stop-opacity:0.9104"/>
			<stop  offset="0.2527" style="stop-color:#A898DE;stop-opacity:0.7044"/>
			<stop  offset="0.4232" style="stop-color:#BFBAEC;stop-opacity:0.5049"/>
			<stop  offset="0.5843" style="stop-color:#D0D2F6;stop-opacity:0.3164"/>
			<stop  offset="0.7323" style="stop-color:#DAE1FC;stop-opacity:0.1433"/>
			<stop  offset="0.8547" style="stop-color:#DDE6FE;stop-opacity:0"/>
		</linearGradient>
		<ellipse class="st99" cx="312.7" cy="161.9" rx="10.4" ry="6"/>
		<path class="st100" d="M304,87.8c0,0-5.4,9.2-4.7,10.2c0.8,1.1,5.1,6.7,13.5,6c-0.2-1.5-0.2-1.5-0.2-1.5s-9.5-3.5-8.9-4.4
			c0.6-1.4,1.7-4.4,1.7-4.4l1.6-2.7L304,87.8z"/>
		<path class="st100" d="M319.4,86.1c0,0,4,3.7,5.6,6.7c2.6-0.9,11.1-3.6,11.3-4.2s1.4-1.7,1.4-1.7s0.4,0,0.4,0.3
			c0,0.4,1-0.2,1.1-0.4s1.3-0.6,0.9,1.2c-0.4,1.8-2.9,1.8-3.5,2.5c-0.7,0.7-11.2,6.7-12.8,5.9c-1.6-0.8-6.8-7.5-6.8-8.6
			S317.8,85.5,319.4,86.1z"/>
		<linearGradient id="SVGID_80_" gradientUnits="userSpaceOnUse" x1="300.4694" y1="90.9864" x2="306.9041" y2="90.9864">
			<stop  offset="0" style="stop-color:#F6E2F1"/>
			<stop  offset="3.506362e-02" style="stop-color:#F6DDF2"/>
			<stop  offset="0.307" style="stop-color:#F2BBF6"/>
			<stop  offset="0.5657" style="stop-color:#F0A3F9"/>
			<stop  offset="0.8033" style="stop-color:#EE94FB"/>
			<stop  offset="1" style="stop-color:#EE8FFC"/>
		</linearGradient>
		<path class="st101" d="M304.7,85.6c0,0-4,6.2-4.2,8.3s3,2.6,4.3,2.5c0.8-0.5,2.3-5.5,2.1-7.1S304.7,85.6,304.7,85.6z"/>
		<path class="st86" d="M305.2,160.9c0.3,0.5,0,1.5,0.3,1.7c0.3,0.1,0.3,0.1,0.5,0c0.2-0.1,0.2-1.6,0.4-1.4c0.9,1.1,1.8-1,1.6-1.8
			s-0.8,0.2-0.8-0.4c0.1-1.2-1.2-1.1-1.8-0.7C304.8,158.8,304.9,160.4,305.2,160.9z"/>
		<path class="st86" d="M312.3,159.6c0,0-0.2,0.6-0.3,1.6c0,0.9,0.3,3.5,0.7,3.7c0.4,0.2,0.4,0.1,0.4,0.1l0.5-2.2
			c0,0,0.1,2.5,5.3,1.7c0.9-0.2-0.1-1-0.1-1s-3.8-2.5-4-2.8c-0.2-0.3-0.3-0.7-0.3-0.7L312.3,159.6z"/>
		<linearGradient id="SVGID_81_" gradientUnits="userSpaceOnUse" x1="298.6476" y1="115.5287" x2="309.6225" y2="137.4784">
			<stop  offset="0" style="stop-color:#AA00BE"/>
			<stop  offset="0.1539" style="stop-color:#9001AF"/>
			<stop  offset="0.3923" style="stop-color:#6E039A"/>
			<stop  offset="0.6191" style="stop-color:#56058C"/>
			<stop  offset="0.8275" style="stop-color:#470683"/>
			<stop  offset="1" style="stop-color:#420680"/>
		</linearGradient>
		<path class="st102" d="M305.2,112.9c0,0-2,1.7,0.4,12.3c2,8.7-0.8,33.3-0.8,33.3s1.6,1.6,2.8,0.5c0.8-3.4,5.2-29,5-34.3
			c-0.1-5.3,0.8-12.2-0.6-12.4C310.7,112.1,305.5,110.8,305.2,112.9z"/>
		<linearGradient id="SVGID_82_" gradientUnits="userSpaceOnUse" x1="327.3271" y1="113.1717" x2="306.0042" y2="145.8668">
			<stop  offset="0" style="stop-color:#AA00BE"/>
			<stop  offset="0.1539" style="stop-color:#9001AF"/>
			<stop  offset="0.3923" style="stop-color:#6E039A"/>
			<stop  offset="0.6191" style="stop-color:#56058C"/>
			<stop  offset="0.8275" style="stop-color:#470683"/>
			<stop  offset="1" style="stop-color:#420680"/>
		</linearGradient>
		<path class="st103" d="M318.7,112.6c0,0,1.8,6.8,0.4,18.8c-0.8,6.7-4.6,28.7-4.6,28.7s-2,0.3-2.4-0.3c0.2-2.3,1.7-22.5-1.2-35.9
			c-1.3-6-1.4-10.6-0.9-11.3C311.4,110.5,317.8,109.7,318.7,112.6z"/>
		<linearGradient id="SVGID_83_" gradientUnits="userSpaceOnUse" x1="303.3138" y1="98.5038" x2="320.4611" y2="98.5038">
			<stop  offset="0" style="stop-color:#F6E2F1"/>
			<stop  offset="3.506362e-02" style="stop-color:#F6DDF2"/>
			<stop  offset="0.307" style="stop-color:#F2BBF6"/>
			<stop  offset="0.5657" style="stop-color:#F0A3F9"/>
			<stop  offset="0.8033" style="stop-color:#EE94FB"/>
			<stop  offset="1" style="stop-color:#EE8FFC"/>
		</linearGradient>
		<path class="st104" d="M306.8,113.8c0,0-4.7,0.8-3.2-2.3c5-10.6-0.3-23.7,1.3-25.6c1.5-1.9,5.2-4.1,9.9-2.8s7,3.5,4.9,12.3
			c-2,8.7,1.6,18.3,0.2,18.9c-1.3,0.6-5.9-0.7-7.6-1.2C310.7,112.5,306.8,113.8,306.8,113.8z"/>
		<linearGradient id="SVGID_84_" gradientUnits="userSpaceOnUse" x1="318.5771" y1="82.3521" x2="320.9611" y2="95.9677">
			<stop  offset="0" style="stop-color:#F6E2F1"/>
			<stop  offset="3.506362e-02" style="stop-color:#F6DDF2"/>
			<stop  offset="0.307" style="stop-color:#F2BBF6"/>
			<stop  offset="0.5657" style="stop-color:#F0A3F9"/>
			<stop  offset="0.8033" style="stop-color:#EE94FB"/>
			<stop  offset="1" style="stop-color:#EE8FFC"/>
		</linearGradient>
		<path class="st105" d="M321.2,95c0,0-5.4-4.2-5.2-5.9c0.2-1.7-0.4-6.6,2.5-4.8c3,1.9,5.4,6.3,5.4,6.3S322.4,95.9,321.2,95z"/>
		<path class="st100" d="M317.1,71.9c1.4,1.9,0.8,8.5-0.2,8.7c-1.1,0.2-4.9-0.3-6.8-4.3C307.1,70.4,314,67.5,317.1,71.9z"/>
		<path class="st100" d="M311.7,75.8c0,0-1.4,6.5-1.4,7.3c1.3,0.8,4.1,0.7,4.5,0.3c0.1-1.4,0.4-6.7,0.4-6.7S314.1,75.1,311.7,75.8z"
			/>
		<path class="st106" d="M318.4,74.3c0,0-0.9-0.9-1.7-0.3c-0.8,0.6-0.9,1.6-0.7,2.2c0.2,0.6,0.2,1-0.1,0.8s-0.8-2.1-1.7-1.7
			c-0.9,0.4,0.5,1.9,0.7,2.1c0.2,0.2-1.6,5.4-0.7,10.4c1,5.4-15,4.3-16.3,1.1c-0.9-2.2,6.4-3.3,4.8-5.7s3.3-3.2,3.7-4
			c1.4-2.4-0.2-7.5,2.2-9.1C311,68.4,318.1,66.3,318.4,74.3z"/>
	</g>
	<g>
		<linearGradient id="SVGID_85_" gradientUnits="userSpaceOnUse" x1="615.3476" y1="212.9107" x2="370.1665" y2="330.158">
			<stop  offset="0" style="stop-color:#5940E7"/>
			<stop  offset="1" style="stop-color:#1BAFF8"/>
		</linearGradient>
		<polygon class="st107" points="429.2,323.8 429.7,322.8 393.5,301.9 429.2,281.4 464.8,301.9 428.6,322.8 429.2,323.8 
			429.7,322.8 429.2,323.8 429.7,324.7 469.1,301.9 429.2,278.9 389.2,301.9 429.2,325 429.7,324.7 		"/>
		<g>
			<linearGradient id="SVGID_86_" gradientUnits="userSpaceOnUse" x1="388.3376" y1="307.4333" x2="532.2169" y2="285.2186">
				<stop  offset="0" style="stop-color:#7D57C4"/>
				<stop  offset="7.657103e-02" style="stop-color:#8B6CCD;stop-opacity:0.9104"/>
				<stop  offset="0.2527" style="stop-color:#A898DE;stop-opacity:0.7044"/>
				<stop  offset="0.4232" style="stop-color:#BFBAEC;stop-opacity:0.5049"/>
				<stop  offset="0.5843" style="stop-color:#D0D2F6;stop-opacity:0.3164"/>
				<stop  offset="0.7323" style="stop-color:#DAE1FC;stop-opacity:0.1433"/>
				<stop  offset="0.8547" style="stop-color:#DDE6FE;stop-opacity:0"/>
			</linearGradient>
			<path class="st108" d="M460,302.2l-30.4,17.4c-0.6,0.4-1.6,0.4-2.2,0l-30.3-18.2c-0.6-0.3-0.6-0.9,0.1-1.3l30.3-17.4
				c0.6-0.4,1.6-0.4,2.2,0l30.4,18.2C460.6,301.3,460.6,301.9,460,302.2z"/>
			<g>
				<g>
					<g>
						<polygon class="st45" points="427.9,286.8 402.6,301.4 427.9,315.7 453.2,301.4 						"/>
						<linearGradient id="SVGID_87_" gradientUnits="userSpaceOnUse" x1="402.6195" y1="288.1441" x2="427.9189" y2="288.1441">
							<stop  offset="0" style="stop-color:#5940E7"/>
							<stop  offset="1" style="stop-color:#1BAFF8"/>
						</linearGradient>
						<polygon class="st109" points="402.6,295.3 427.9,309.6 427.9,281 402.6,266.7 						"/>
						<linearGradient id="SVGID_88_" gradientUnits="userSpaceOnUse" x1="431.58" y1="317.0872" x2="446.1295" y2="270.2378">
							<stop  offset="0" style="stop-color:#5940E7"/>
							<stop  offset="1" style="stop-color:#1BAFF8"/>
						</linearGradient>
						<polygon class="st110" points="453.2,266.7 427.9,281 427.9,309.6 453.2,295.3 						"/>
						<linearGradient id="SVGID_89_" gradientUnits="userSpaceOnUse" x1="421.2682" y1="250.0414" x2="435.7731" y2="286.3037">
							<stop  offset="0" style="stop-color:#5940E7"/>
							<stop  offset="1" style="stop-color:#1BAFF8"/>
						</linearGradient>
						<polygon class="st111" points="427.9,252.1 402.6,266.7 427.9,281 453.2,266.7 						"/>
						<polygon class="st44" points="427.9,253.8 405.7,266.7 427.9,279.2 450.1,266.7 						"/>
						<linearGradient id="SVGID_90_" gradientUnits="userSpaceOnUse" x1="422.6804" y1="253.542" x2="434.1053" y2="282.1042">
							<stop  offset="0" style="stop-color:#5940E7"/>
							<stop  offset="1" style="stop-color:#1BAFF8"/>
						</linearGradient>
						<polygon class="st112" points="427.9,255.1 408,266.6 427.9,277.9 447.8,266.6 						"/>
					</g>
					<g>
						<linearGradient id="SVGID_91_" gradientUnits="userSpaceOnUse" x1="439.8828" y1="315.7646" x2="370.6743" y2="238.7194">
							<stop  offset="0" style="stop-color:#FFFFFF"/>
							<stop  offset="0.231" style="stop-color:#F1F5FF;stop-opacity:0.7298"/>
							<stop  offset="0.5719" style="stop-color:#E2EAFE;stop-opacity:0.3309"/>
							<stop  offset="0.8547" style="stop-color:#DDE6FE;stop-opacity:0"/>
						</linearGradient>
						<path class="st113" d="M426.2,294.7c0,6.6-4.7,9.3-10.6,6c-5.9-3.3-10.6-11.4-10.6-18c0-6.6,4.7-9.3,10.6-6
							C421.5,280,426.2,288.1,426.2,294.7z"/>
					</g>
					<path class="st44" d="M418.5,288.4l-8.5-4.8c-0.3-0.2-0.6,0-0.6,0.3v7.3c0,0.4,0.3,0.8,0.6,1l8.5,4.8c0.3,0.2,0.6,0,0.6-0.3
						v-7.3C419.1,289,418.9,288.6,418.5,288.4z M414.6,290.6v2.3c0,0.2-0.2,0.4-0.4,0.2l-0.4-0.2c-0.2-0.1-0.4-0.4-0.4-0.7v-2.3
						c-0.4-0.5-0.7-1.1-0.7-1.7c0-0.8,0.6-1.1,1.3-0.7c0.7,0.4,1.3,1.4,1.3,2.2C415.3,290.3,415,290.6,414.6,290.6z M417.8,288.3
						v-1.7c0-1.1-0.4-2.2-1-3.3c-0.6-1-1.4-2-2.4-2.5c-0.9-0.5-1.8-0.6-2.4-0.2c-0.6,0.3-1,1.1-1,2.2v1.7l1.5,0.9l0-1.7
						c0-0.6,0.2-1,0.5-1.2c0.3-0.2,0.8-0.2,1.3,0.1c0.5,0.3,1,0.8,1.3,1.4c0.3,0.6,0.5,1.2,0.5,1.8v1.7L417.8,288.3L417.8,288.3z"/>
					<line class="st44" x1="412.2" y1="285.5" x2="413.7" y2="286.4"/>
				</g>
				<linearGradient id="SVGID_92_" gradientUnits="userSpaceOnUse" x1="465.2446" y1="273.7835" x2="429.9788" y2="232.1058">
					<stop  offset="0" style="stop-color:#FFFFFF"/>
					<stop  offset="0.231" style="stop-color:#F1F5FF;stop-opacity:0.7298"/>
					<stop  offset="0.5719" style="stop-color:#E2EAFE;stop-opacity:0.3309"/>
					<stop  offset="0.8547" style="stop-color:#DDE6FE;stop-opacity:0"/>
				</linearGradient>
				<polygon class="st114" points="427.8,217.8 427.8,254.6 449.3,266.7 449.3,229.9 				"/>
				<linearGradient id="SVGID_93_" gradientUnits="userSpaceOnUse" x1="399.5019" y1="276.6956" x2="429.2717" y2="240.9718">
					<stop  offset="0" style="stop-color:#FFFFFF"/>
					<stop  offset="0.231" style="stop-color:#F1F5FF;stop-opacity:0.7298"/>
					<stop  offset="0.5719" style="stop-color:#E2EAFE;stop-opacity:0.3309"/>
					<stop  offset="0.8547" style="stop-color:#DDE6FE;stop-opacity:0"/>
				</linearGradient>
				<polygon class="st115" points="407.1,230.2 407.1,267.1 428.5,279.2 428.5,242.3 				"/>
			</g>
		</g>
	</g>
	<radialGradient id="SVGID_94_" cx="489.5024" cy="234.4056" r="10.6068" gradientUnits="userSpaceOnUse">
		<stop  offset="0" style="stop-color:#FFFFFF"/>
		<stop  offset="2.193928e-03" style="stop-color:#FEFEFE"/>
		<stop  offset="0.1695" style="stop-color:#BCBCBC"/>
		<stop  offset="0.3339" style="stop-color:#838383"/>
		<stop  offset="0.4911" style="stop-color:#545454"/>
		<stop  offset="0.64" style="stop-color:#2F2F2F"/>
		<stop  offset="0.7784" style="stop-color:#151515"/>
		<stop  offset="0.9025" style="stop-color:#060606"/>
		<stop  offset="1" style="stop-color:#000000"/>
	</radialGradient>
	<circle class="st116" cx="489.5" cy="234.4" r="10.6"/>
	<radialGradient id="SVGID_95_" cx="381.2279" cy="271.4274" r="10.6068" gradientUnits="userSpaceOnUse">
		<stop  offset="0" style="stop-color:#FFFFFF"/>
		<stop  offset="2.193928e-03" style="stop-color:#FEFEFE"/>
		<stop  offset="0.1695" style="stop-color:#BCBCBC"/>
		<stop  offset="0.3339" style="stop-color:#838383"/>
		<stop  offset="0.4911" style="stop-color:#545454"/>
		<stop  offset="0.64" style="stop-color:#2F2F2F"/>
		<stop  offset="0.7784" style="stop-color:#151515"/>
		<stop  offset="0.9025" style="stop-color:#060606"/>
		<stop  offset="1" style="stop-color:#000000"/>
	</radialGradient>
	<circle class="st117" cx="381.2" cy="271.4" r="10.6"/>
	<radialGradient id="SVGID_96_" cx="392.14" cy="254.4918" r="10.6068" gradientUnits="userSpaceOnUse">
		<stop  offset="0" style="stop-color:#FFFFFF"/>
		<stop  offset="2.193928e-03" style="stop-color:#FEFEFE"/>
		<stop  offset="0.1695" style="stop-color:#BCBCBC"/>
		<stop  offset="0.3339" style="stop-color:#838383"/>
		<stop  offset="0.4911" style="stop-color:#545454"/>
		<stop  offset="0.64" style="stop-color:#2F2F2F"/>
		<stop  offset="0.7784" style="stop-color:#151515"/>
		<stop  offset="0.9025" style="stop-color:#060606"/>
		<stop  offset="1" style="stop-color:#000000"/>
	</radialGradient>
	<circle class="st118" cx="392.1" cy="254.5" r="10.6"/>
	<radialGradient id="SVGID_97_" cx="319.6218" cy="300.4265" r="10.6068" gradientUnits="userSpaceOnUse">
		<stop  offset="0" style="stop-color:#FFFFFF"/>
		<stop  offset="2.193928e-03" style="stop-color:#FEFEFE"/>
		<stop  offset="0.1695" style="stop-color:#BCBCBC"/>
		<stop  offset="0.3339" style="stop-color:#838383"/>
		<stop  offset="0.4911" style="stop-color:#545454"/>
		<stop  offset="0.64" style="stop-color:#2F2F2F"/>
		<stop  offset="0.7784" style="stop-color:#151515"/>
		<stop  offset="0.9025" style="stop-color:#060606"/>
		<stop  offset="1" style="stop-color:#000000"/>
	</radialGradient>
	<circle class="st119" cx="319.6" cy="300.4" r="10.6"/>
	<radialGradient id="SVGID_98_" cx="239.6759" cy="278.2588" r="10.6068" gradientUnits="userSpaceOnUse">
		<stop  offset="0" style="stop-color:#FFFFFF"/>
		<stop  offset="2.193928e-03" style="stop-color:#FEFEFE"/>
		<stop  offset="0.1695" style="stop-color:#BCBCBC"/>
		<stop  offset="0.3339" style="stop-color:#838383"/>
		<stop  offset="0.4911" style="stop-color:#545454"/>
		<stop  offset="0.64" style="stop-color:#2F2F2F"/>
		<stop  offset="0.7784" style="stop-color:#151515"/>
		<stop  offset="0.9025" style="stop-color:#060606"/>
		<stop  offset="1" style="stop-color:#000000"/>
	</radialGradient>
	<circle class="st120" cx="239.7" cy="278.3" r="10.6"/>
	<radialGradient id="SVGID_99_" cx="226.0419" cy="246.0986" r="10.6068" gradientUnits="userSpaceOnUse">
		<stop  offset="0" style="stop-color:#FFFFFF"/>
		<stop  offset="2.193928e-03" style="stop-color:#FEFEFE"/>
		<stop  offset="0.1695" style="stop-color:#BCBCBC"/>
		<stop  offset="0.3339" style="stop-color:#838383"/>
		<stop  offset="0.4911" style="stop-color:#545454"/>
		<stop  offset="0.64" style="stop-color:#2F2F2F"/>
		<stop  offset="0.7784" style="stop-color:#151515"/>
		<stop  offset="0.9025" style="stop-color:#060606"/>
		<stop  offset="1" style="stop-color:#000000"/>
	</radialGradient>
	<circle class="st121" cx="226" cy="246.1" r="10.6"/>
	<radialGradient id="SVGID_100_" cx="163.8217" cy="200.7064" r="10.6068" gradientUnits="userSpaceOnUse">
		<stop  offset="0" style="stop-color:#FFFFFF"/>
		<stop  offset="2.193928e-03" style="stop-color:#FEFEFE"/>
		<stop  offset="0.1695" style="stop-color:#BCBCBC"/>
		<stop  offset="0.3339" style="stop-color:#838383"/>
		<stop  offset="0.4911" style="stop-color:#545454"/>
		<stop  offset="0.64" style="stop-color:#2F2F2F"/>
		<stop  offset="0.7784" style="stop-color:#151515"/>
		<stop  offset="0.9025" style="stop-color:#060606"/>
		<stop  offset="1" style="stop-color:#000000"/>
	</radialGradient>
	<circle class="st122" cx="163.8" cy="200.7" r="10.6"/>
</g>
</svg>
